<svg width="90" height="77" viewBox="0 0 90 77" fill="none" xmlns="http://www.w3.org/2000/svg">
<rect x="0.5" y="13" width="89" height="64" rx="16" fill="white"/>
<path d="M13 4C13 1.79086 14.7909 0 17 0H74C76.2091 0 78 1.79086 78 4V36L45.5 49L13 36V4Z" fill="#5B4E93"/>
<path fill-rule="evenodd" clip-rule="evenodd" d="M89.5001 53.7344V60.9998C89.5001 69.8364 82.3367 76.9998 73.5001 76.9998H68.6078C75.311 74.8683 80.7818 71.8245 83.5001 67.4998C85.9376 63.6221 87.9086 58.8359 89.5001 53.7344Z" fill="#E7E7E7"/>
<path d="M23.5 14H67.5" stroke="white" stroke-width="1.5" stroke-linecap="round" stroke-linejoin="round"/>
<path d="M23.5 22H67.5" stroke="white" stroke-width="1.5" stroke-linecap="round" stroke-linejoin="round"/>
<path d="M23.5 31H67.5" stroke="white" stroke-width="1.5" stroke-linecap="round" stroke-linejoin="round"/>
<path d="M23.5 39H67.5" stroke="white" stroke-width="1.5" stroke-linecap="round" stroke-linejoin="round"/>
<path d="M5.5 33L45.5 49L85.5 33" stroke="#4D3E1A" stroke-linecap="round" stroke-linejoin="round"/>
</svg>
