<svg width="32" height="32" viewBox="0 0 32 32" fill="none" xmlns="http://www.w3.org/2000/svg">
<g clip-path="url(#clip0_197_6049)">
<path fill-rule="evenodd" clip-rule="evenodd" d="M22.2119 2.66669C26.6519 2.66669 29.9999 6.28935 29.9999 11.0934V20.2507C29.9999 22.7094 29.1305 24.9307 27.5505 26.5067C26.1332 27.9187 24.2945 28.6667 22.2332 28.6667H9.09586C7.03852 28.6667 5.20119 27.92 3.78252 26.5067C2.20252 24.9307 1.33319 22.7094 1.33319 20.2507V11.0934C1.33319 6.28935 4.68119 2.66669 9.12119 2.66669H22.2119ZM22.2119 4.66669H9.12119C5.76786 4.66669 3.33319 7.36935 3.33319 11.0934V20.2507C3.33319 22.1747 3.99452 23.8934 5.19452 25.0894C6.22919 26.1227 7.57986 26.6667 9.09986 26.6667H22.2119C22.2145 26.664 22.2252 26.6667 22.2332 26.6667C23.7545 26.6667 25.1039 26.1227 26.1385 25.0894C27.3399 23.8934 27.9999 22.1747 27.9999 20.2507V11.0934C27.9999 7.36935 25.5652 4.66669 22.2119 4.66669ZM24.3132 10.8384C24.6612 11.2664 24.5959 11.8958 24.1679 12.2451L18.2425 17.0611C17.4932 17.6558 16.5972 17.9531 15.7025 17.9531C14.8105 17.9531 13.9212 17.6584 13.1772 17.0691L7.19719 12.2478C6.76652 11.9011 6.69986 11.2704 7.04519 10.8411C7.39319 10.4131 8.02252 10.3451 8.45186 10.6904L14.4265 15.5064C15.1772 16.1011 16.2345 16.1011 16.9905 15.5011L22.9052 10.6931C23.3345 10.3424 23.9639 10.4091 24.3132 10.8384Z" fill="#FFCE51"/>
</g>
<defs>
<clipPath id="clip0_197_6049">
<rect width="32" height="32" fill="white"/>
</clipPath>
</defs>
</svg>
