<svg width="78" height="90" viewBox="0 0 78 90" fill="none" xmlns="http://www.w3.org/2000/svg">
<path d="M76 35.5005C76 37.437 75.1537 43.3 74.6925 45.1349C74.2519 46.8874 73.2309 48.3797 72.5277 49.9414C72.3526 50.33 71.6154 51.9763 71.1982 51.9082C70.9392 51.866 71.3788 50.798 71.4122 50.717C71.7921 49.7953 72.0262 48.9057 72.0489 47.8429C72.0648 47.0955 72.1212 46.2594 71.9521 45.5366C71.7802 44.8024 71.5712 44.0772 71.4529 43.3204C71.4048 43.0128 71.4122 42.064 71.4122 42.3785C71.4122 43.4038 71.4012 44.419 71.3154 45.4397C71.2476 46.2463 71.0454 46.9808 71.0454 47.7805" stroke="#BEBEBF" stroke-width="4" stroke-linecap="round"/>
<path d="M23.3803 12.1418C22.3388 11.486 20.9476 11.743 19.7614 11.743C18.6037 11.743 17.6023 11.8337 16.593 12.4224C15.5173 13.05 14.5523 13.8341 13.5133 14.5052C12.5654 15.1173 12.2544 15.7766 11.726 16.6913C11.2283 17.5527 10.7695 18.4361 10.2193 19.2614C9.82538 19.8524 9.72993 20.7169 9.48815 21.3885C9.16922 22.2744 8.96029 23.2989 8.88254 24.2319C8.83172 24.8417 8.54102 25.4099 8.49849 26.0266C8.45941 26.5932 8.4911 27.1727 8.4911 27.74C8.4911 29.673 8.09229 31.5606 8.09229 33.5007C8.09229 34.8085 8.15647 36.0047 8.55757 37.2526C8.6185 37.4421 8.83164 38.4294 8.97855 38.5229C9.46095 38.8299 9.85111 38.3016 9.95344 37.9025C10.1932 36.9675 10.4245 36.4237 10.9874 35.6425C11.9342 34.3286 12.9114 33.0912 13.9859 31.8759C14.7598 31.0008 15.268 29.9698 15.8766 28.9808C17.0992 26.9942 18.4863 25.0791 19.791 23.1462C20.2713 22.4347 20.6289 21.7253 21.4306 21.3442C21.9816 21.0822 22.4748 20.7219 22.9815 20.384" stroke="#BEBEBF" stroke-width="12" stroke-linecap="round"/>
<path fill-rule="evenodd" clip-rule="evenodd" d="M70.3125 43.8531C68.5019 41.3449 65.0309 40.7023 62.4451 42.4379C61.7385 42.9122 61.2637 43.4342 60.9906 43.7675C60.9463 43.8216 60.9049 43.8737 60.8667 43.923C60.3435 44.3727 59.9649 44.7989 59.7617 45.0296C59.6518 45.1545 59.4981 45.3342 59.4092 45.4381C59.3809 45.4713 59.3592 45.4967 59.3475 45.5102C59.3014 45.5637 59.2731 45.5956 59.2583 45.6121C59.2435 45.6255 59.2179 45.6488 59.1777 45.6846C59.1656 45.6954 59.1497 45.7095 59.1308 45.7262C59.0397 45.8072 58.8779 45.9507 58.7331 46.0851C58.4383 46.3586 57.7502 47.0048 57.1691 47.9353L57.1223 47.9969C57.1006 48.0255 57.0721 48.063 57.0414 48.1039C57.0107 48.145 56.973 48.1958 56.9319 48.2527C56.5129 48.8327 56.2568 49.3806 56.0999 49.7726C56.0311 49.9443 55.9735 50.1075 55.9284 50.2433C55.4498 51.0376 54.8047 52.1887 54.371 53.4113C53.6067 55.5658 53.5952 57.3852 53.5952 58.7095C53.5952 60.6487 53.7383 62.6571 54.4721 64.9556C54.5058 65.061 54.5499 65.2318 54.6389 65.6355C54.648 65.6765 54.6579 65.722 54.6687 65.7713C54.7431 66.1123 54.8578 66.6378 54.9989 67.1494C55.4406 68.7501 56.4058 70.4161 58.1515 71.5548C59.7671 72.6086 61.4456 72.8096 62.604 72.8096C64.3422 72.8096 66.1377 72.4877 67.8693 71.5199C69.5105 70.6025 70.6497 69.3463 71.4738 68.2954C72.0631 67.5438 72.3958 66.8254 72.5439 66.4985C72.5788 66.4214 72.6117 66.3467 72.6326 66.2994L72.6374 66.2886L72.6529 66.2536C72.6782 66.2153 72.7231 66.1488 72.8009 66.0376C72.8141 66.0186 72.8296 65.9965 72.8471 65.9716C72.9873 65.7721 73.2542 65.3921 73.5014 64.9849C73.6753 64.6984 73.823 64.4278 73.9226 64.2437C73.961 64.1727 73.992 64.115 74.0187 64.0655C74.0755 63.9599 74.1124 63.8914 74.1578 63.8104C74.1735 63.7825 74.1866 63.7597 74.1972 63.7415C75.1274 62.649 75.5647 61.4938 75.7171 61.091C75.7231 61.0751 75.7287 61.0604 75.7338 61.0469C75.7772 60.933 75.7869 60.9069 75.7946 60.886C75.7968 60.8801 75.7989 60.8746 75.8014 60.8677C76.3126 60.0134 76.5513 59.1919 76.6728 58.6048C76.8135 57.9253 76.8449 57.3215 76.8519 56.9139C76.8589 56.5002 76.8415 56.1239 76.8317 55.9156C76.8201 55.6693 76.8185 55.6298 76.8183 55.6298C76.8183 55.6298 76.8183 55.631 76.8183 55.6324C76.8183 54.75 76.695 53.9452 76.6361 53.5614C76.6327 53.5387 76.6294 53.5175 76.6264 53.4978C76.5849 53.2245 76.5709 53.1102 76.5667 53.0816C76.5563 51.965 76.2999 51.0508 76.0106 50.3453C75.8967 50.0675 75.7794 49.8291 75.7347 49.7383C75.7325 49.7337 75.7304 49.7295 75.7285 49.7257C75.7011 49.6699 75.6889 49.6447 75.6848 49.6364C75.5738 49.3869 75.4647 49.1831 75.3866 49.0442C75.3606 48.9979 75.3352 48.9539 75.311 48.9127C74.6175 46.9341 73.1896 45.8501 72.7315 45.5099C72.5938 45.4076 72.4649 45.3176 72.3759 45.2563C71.7136 44.6031 70.9984 44.1576 70.3125 43.8531Z" fill="#FDEAD8"/>
<path fill-rule="evenodd" clip-rule="evenodd" d="M33.398 13.5335C30.4421 13.4312 26.3277 13.2888 22.475 14.1724C22.4033 14.1889 22.2572 14.2188 22.057 14.2597C21.2773 14.4191 19.6782 14.746 18.4688 15.0989C17.0344 15.5174 14.0897 16.478 12.0172 18.9008C12.0051 18.9131 11.9825 18.9355 11.9467 18.97C11.8956 19.0191 11.8433 19.0684 11.7587 19.148L11.7327 19.1725C11.644 19.256 11.52 19.3729 11.3897 19.4997C10.9481 19.9296 10.119 20.7635 9.42461 21.9848C9.39833 22.0131 9.37017 22.0433 9.33528 22.0806C9.30708 22.1108 9.27448 22.1457 9.23492 22.1882L9.23013 22.1933C9.03196 22.406 8.64183 22.8246 8.25829 23.3265C7.93493 23.7497 7.53957 24.3281 7.19151 25.0552C7.17674 25.0776 7.16157 25.1008 7.14641 25.1242C6.87642 25.5408 6.05858 26.8103 5.85034 28.6446C5.79797 28.7535 5.73571 28.8778 5.64099 29.0668L5.58163 29.1852C5.33189 29.6834 4.8613 30.622 4.51666 31.7325C3.92564 33.6369 3.87896 35.9405 3.86184 36.7856C3.86109 36.8225 3.8604 36.8566 3.85972 36.8877C3.84491 37.5691 3.82806 38.0309 3.78233 38.4211C3.77003 38.526 3.75807 38.6022 3.7488 38.6533C3.72433 38.705 3.69836 38.7597 3.67107 38.8172C3.20869 39.7908 2.36497 41.5674 1.9275 43.4267C1.27512 46.1993 0.770805 48.8865 0.307716 51.5724C0.0650101 52.9802 0.0531921 54.308 0.0692139 55.2786C0.0800629 55.9361 0.0947876 56.3088 0.10704 56.619C0.119965 56.9462 0.13015 57.204 0.13015 57.6531C0.13015 58.2607 0.108932 58.7086 0.0823593 59.2697C0.0602951 59.7357 0.0345306 60.2797 0.0141373 61.0581C-0.0211182 62.4041 -0.0172119 64.2034 0.342247 66.052C0.689445 67.8376 1.30963 69.3401 1.79941 70.4331C2.04093 70.972 2.22298 71.3598 2.37452 71.6826C2.59718 72.1568 2.75401 72.4908 2.93687 72.9582C3.71365 74.9433 5.16635 77.6733 7.33077 79.6909C7.3804 79.765 7.45685 79.8839 7.60317 80.1137C7.62029 80.1406 7.63915 80.1705 7.65976 80.2031C8.00904 80.7557 8.85977 82.1019 10.1978 83.234C10.2967 83.3177 10.4068 83.4162 10.6153 83.6035L10.6253 83.6124C10.8063 83.7751 11.0704 84.0123 11.3567 84.2529C11.929 84.734 12.8474 85.4537 14.0556 86.0242C15.3802 86.6497 16.6746 87.1472 17.872 87.5729C18.5247 87.805 19.0995 87.922 19.4705 87.9868C19.5071 87.9931 19.543 87.9992 19.5778 88.005C19.6492 88.0485 19.7233 88.0932 19.7962 88.1364C20.252 88.4063 21.3101 89.0211 22.6619 89.3515C27.0005 90.4121 31.4245 90.1921 35.736 88.5469C36.179 88.3778 36.5551 88.2033 36.8289 88.0707C36.9654 88.0045 37.0913 87.9415 37.1866 87.8936C37.2941 87.8396 37.3549 87.8088 37.4219 87.7757C37.4277 87.7728 37.4333 87.77 37.4386 87.7674C38.0125 87.623 38.5949 87.4648 39.0995 87.3277C39.281 87.2783 39.4525 87.2317 39.6099 87.1895C39.691 87.1677 39.8229 87.1359 39.9939 87.0946C40.7871 86.9031 42.4223 86.5082 43.7381 85.9736C45.2808 85.3469 46.7589 84.5964 48.2538 83.5998C48.53 83.4157 48.8308 83.2286 49.2519 82.9671L49.2606 82.9618C49.647 82.7218 50.1414 82.4148 50.6407 82.0797C51.6388 81.4098 52.9627 80.4308 54.1427 79.0295C54.2535 78.898 54.363 78.7765 54.5501 78.569C54.614 78.4982 54.6869 78.4174 54.772 78.3227C55.0548 78.0078 55.4549 77.5577 55.8544 77.044C56.5666 76.1283 57.6058 74.6071 58.0873 72.5521C58.1111 72.5096 58.1394 72.4599 58.1726 72.4024C58.1823 72.3857 58.1929 72.3674 58.2045 72.3474C58.3479 72.1001 58.6296 71.6144 58.884 71.0791C59.179 70.4587 59.5135 69.6242 59.7167 68.6082C59.8023 68.1805 59.9527 67.7131 60.247 67.0444C60.726 65.9555 60.9782 64.9227 61.1264 64.256C61.2337 63.7734 61.2806 63.5355 61.3151 63.3602C61.3498 63.1843 61.372 63.0716 61.4304 62.8381C61.486 62.6155 61.5346 62.4478 61.6083 62.1933C61.6527 62.0399 61.7062 61.855 61.7759 61.6075C61.9288 61.065 62.1346 60.2974 62.2746 59.4223C62.5268 57.8459 62.9067 56.3048 63.3055 55.3577C63.829 54.1144 64.1563 52.9217 64.3841 52.0529C64.4472 51.8122 64.502 51.5999 64.5515 51.4086C64.7065 50.8083 64.8083 50.4142 64.9463 49.9928C65.8369 47.2712 65.7927 44.4877 65.7683 42.9511C65.7649 42.7352 65.7618 42.5439 65.7618 42.3809C65.7618 40.4398 65.5441 38.1931 64.745 35.8956C64.1119 34.0755 63.0971 31.7778 61.4299 29.7438C61.2326 29.5031 61.0089 29.1761 60.6456 28.5815C60.2769 27.9782 59.8895 27.508 59.5898 27.1754C59.3041 26.8585 59.0297 26.5934 58.8948 26.4631L58.8906 26.459C58.8634 26.4328 58.8415 26.4116 58.8228 26.3936C58.755 26.2905 58.6763 26.168 58.5747 26.0095C58.5666 25.9968 58.5583 25.9838 58.5497 25.9704C58.3861 25.7148 58.146 25.3397 57.8799 24.9603C57.2916 24.1213 56.4032 23.0005 55.0513 21.9992C54.9731 21.9413 54.8521 21.8469 54.6972 21.7261C54.0846 21.2484 52.942 20.3573 51.8223 19.673C51.2212 19.0611 50.6416 18.6861 50.3175 18.4911C49.733 18.1395 49.1935 17.9195 48.9739 17.8309C48.9745 17.8311 48.9734 17.8307 48.9739 17.8309C48.3232 17.3985 47.4767 16.8913 46.4745 16.4911C45.1177 15.9494 43.7447 15.7029 42.3153 15.6809C41.5583 15.2725 40.5405 14.8243 39.3057 14.5812C39.2912 14.5773 39.2409 14.5638 39.1412 14.5323C38.991 14.485 38.9175 14.46 38.8148 14.4251C38.7155 14.3914 38.5889 14.3484 38.3393 14.267C37.6818 14.0524 36.3188 13.615 34.6877 13.5743C34.2894 13.5643 33.8577 13.5494 33.398 13.5335ZM28.4442 37.3578C28.4444 37.3572 28.4389 37.3652 28.4266 37.3836C28.4378 37.3676 28.4439 37.3584 28.4442 37.3578Z" fill="#FDEAD8"/>
<path fill-rule="evenodd" clip-rule="evenodd" d="M23.4892 44.1584C23.5783 44.1598 23.7074 44.1843 24.0194 44.2607C24.187 44.3018 24.2568 44.3395 24.2843 44.3576C24.3014 44.3688 24.329 44.3884 24.3716 44.4589C24.3885 44.4867 24.4066 44.5172 24.4261 44.55C24.6353 44.9016 25.0005 45.5157 25.609 45.9462C25.6099 45.947 25.6293 45.9626 25.6726 46.0093C25.6978 46.0365 25.726 46.0685 25.7622 46.1106C25.7719 46.1218 25.7846 46.1366 25.7987 46.1531C25.8261 46.1852 25.859 46.2236 25.8855 46.2541C26.1045 46.506 26.3784 46.7871 26.7512 47.0018C27.1413 47.2264 27.5409 47.3231 27.9399 47.3653C28.8361 47.46 29.4587 47.2545 30.0504 47.0345C30.3924 46.9072 30.7088 46.8363 31.154 46.7471C31.1676 46.7532 31.1828 46.7604 31.1994 46.769C31.2576 46.7992 31.3168 46.8373 31.3671 46.8761C31.4137 46.9121 31.4343 46.9343 31.4344 46.9342C31.4344 46.9342 31.4339 46.9336 31.433 46.9324C31.5043 47.0179 31.5625 47.0987 31.6479 47.2171C31.6781 47.2589 31.7116 47.3055 31.7504 47.3586C31.8811 47.538 32.0602 47.7757 32.2954 48.0055C32.3131 48.0228 32.3368 48.0483 32.3665 48.0802C32.5983 48.3291 33.1917 48.9664 34.0937 49.1208C34.6236 49.2115 35.1383 49.0705 35.4447 48.9619C35.782 48.8423 36.1531 48.6576 36.4424 48.426C37.0858 47.9112 37.3562 47.7198 37.7092 47.6692C38.4462 47.5635 38.9581 46.8804 38.8524 46.1433C38.7467 45.4063 38.0635 44.8945 37.3265 45.0001C36.1943 45.1625 35.3859 45.8144 34.8566 46.2412C34.8243 46.2673 34.7929 46.2926 34.7627 46.3168C34.7614 46.3176 34.7434 46.3301 34.7054 46.3501C34.6585 46.3748 34.6016 46.4 34.5437 46.4205C34.5388 46.4223 34.5341 46.4239 34.5294 46.4255C34.5054 46.4035 34.4752 46.3744 34.435 46.3341C34.4094 46.3084 34.3849 46.2834 34.3561 46.254C34.3456 46.2434 34.3346 46.2321 34.3227 46.22C34.2809 46.1775 34.2324 46.1283 34.1802 46.0773C34.1121 46.0108 34.0404 45.9227 33.9292 45.7702C33.9115 45.746 33.8915 45.7181 33.8694 45.6874C33.7745 45.5554 33.6424 45.3717 33.5033 45.2049C33.2261 44.8728 32.8307 44.5773 32.4394 44.3747C32.0878 44.1926 31.4586 43.9379 30.773 44.0737L30.752 44.0778C30.2516 44.1769 29.7102 44.2842 29.1104 44.5072C28.6358 44.6837 28.4895 44.712 28.2234 44.6838C28.1448 44.6755 28.1066 44.6661 28.093 44.6622C28.0768 44.6498 28.0257 44.6061 27.9204 44.4849C27.9099 44.4729 27.8963 44.4568 27.8799 44.4372C27.7606 44.2953 27.4902 43.9737 27.1664 43.745C27.0558 43.6669 26.9694 43.5437 26.6786 43.063C26.1644 42.2132 25.4298 41.8302 24.661 41.6418C24.6446 41.6378 24.6274 41.6335 24.6093 41.6291C24.3209 41.5577 23.8291 41.436 23.2943 41.4675C22.9498 41.4877 22.6761 41.5782 22.4767 41.6594C22.3943 41.6929 22.3152 41.729 22.2632 41.7528C22.2579 41.7552 22.2528 41.7575 22.2481 41.7596C22.1883 41.7869 22.1546 41.8018 22.1243 41.8138C21.5922 42.0243 21.0526 42.2283 20.5096 42.4285C20.4719 42.4424 20.3797 42.4638 20.1488 42.428C20.0341 42.4102 19.9056 42.3817 19.7463 42.3421C19.7005 42.3307 19.6434 42.3161 19.5811 42.3002C19.4649 42.2704 19.3309 42.2361 19.2195 42.2098C19.1116 42.1843 19.0163 42.1627 18.9283 42.1427C18.8197 42.118 18.7222 42.0959 18.6256 42.0721L18.5694 41.9762C18.5397 41.9261 18.504 41.8668 18.4632 41.8031C18.3396 41.6102 18.2015 41.4592 18.1039 41.3584C18.0538 41.3066 18.0047 41.2585 17.9669 41.2216L17.9533 41.2082C17.919 41.1747 17.8943 41.1506 17.8703 41.1264C17.863 41.119 17.8566 41.1124 17.8509 41.1065C17.6195 40.4747 16.947 40.1012 16.2758 40.2596C15.5511 40.4306 15.1022 41.1567 15.2732 41.8814C15.4124 42.4713 15.79 42.8575 15.9538 43.023C15.9949 43.0646 16.0368 43.1055 16.0692 43.1371L16.0819 43.1496C16.1194 43.1862 16.1452 43.2117 16.1674 43.2346C16.1861 43.2539 16.1967 43.2659 16.2017 43.2716C16.2252 43.3088 16.2448 43.3423 16.2734 43.3913C16.2869 43.4145 16.3025 43.4412 16.3216 43.4735C16.3742 43.5627 16.4577 43.7019 16.5671 43.8431C16.8236 44.1741 17.1921 44.4771 17.7346 44.6262C17.9541 44.6866 18.1957 44.7415 18.3969 44.7873C18.471 44.8042 18.5397 44.8198 18.5997 44.834C18.6549 44.847 18.7268 44.8654 18.8101 44.8868C19.0638 44.9518 19.423 45.044 19.7352 45.0924C20.2014 45.1648 20.8067 45.1927 21.4422 44.9584C21.9986 44.7533 22.559 44.5415 23.1164 44.321C23.2169 44.2812 23.3061 44.2406 23.3662 44.2133C23.4317 44.1834 23.4621 44.1696 23.4892 44.1584Z" fill="#A58466"/>
<path fill-rule="evenodd" clip-rule="evenodd" d="M24.62 39.3777C24.7091 39.379 24.8382 39.4035 25.1503 39.48C25.3179 39.521 25.3876 39.5587 25.4152 39.5769C25.4322 39.5881 25.4598 39.6076 25.5025 39.6781C25.5193 39.706 25.5375 39.7365 25.557 39.7693C25.7661 40.1209 26.1314 40.7349 26.7399 41.1654C26.7408 41.1662 26.7601 41.1819 26.8034 41.2285C26.8287 41.2557 26.8568 41.2877 26.8931 41.3298C26.9028 41.341 26.9154 41.3559 26.9296 41.3724C26.957 41.4044 26.9898 41.4428 27.0164 41.4733C27.2354 41.7252 27.5092 42.0063 27.8821 42.221C28.2722 42.4457 28.6717 42.5423 29.0707 42.5845C29.9669 42.6793 30.5896 42.4738 31.1812 42.2537C31.5233 42.1265 31.8396 42.0556 32.2848 41.9664C32.2985 41.9724 32.3137 41.9797 32.3303 41.9883C32.3884 42.0184 32.4477 42.0565 32.498 42.0954C32.5446 42.1313 32.5651 42.1536 32.5653 42.1534C32.5653 42.1534 32.5648 42.1528 32.5638 42.1516C32.6352 42.2372 32.6934 42.3179 32.7788 42.4363C32.8089 42.4782 32.8425 42.5247 32.8812 42.5778C33.012 42.7572 33.1911 42.9949 33.4262 43.2248C33.4439 43.2421 33.4677 43.2676 33.4974 43.2994C33.7291 43.5483 34.3226 44.1857 35.2245 44.34C35.7544 44.4307 36.2692 44.2898 36.5755 44.1812C36.9129 44.0616 37.2839 43.8768 37.5733 43.6453C38.2167 43.1305 38.487 42.9391 38.84 42.8885C39.5771 42.7828 40.0889 42.0996 39.9832 41.3626C39.8776 40.6255 39.1944 40.1137 38.4574 40.2194C37.3251 40.3817 36.5168 41.0336 35.9875 41.4604C35.9551 41.4866 35.9238 41.5118 35.8935 41.5361C35.8922 41.5368 35.8742 41.5493 35.8363 41.5693C35.7893 41.594 35.7325 41.6192 35.6746 41.6398C35.6697 41.6415 35.6649 41.6432 35.6603 41.6447C35.6363 41.6228 35.606 41.5936 35.5659 41.5533C35.5403 41.5276 35.5158 41.5027 35.487 41.4733C35.4765 41.4626 35.4654 41.4513 35.4535 41.4392C35.4118 41.3967 35.3632 41.3476 35.311 41.2966C35.2429 41.23 35.1713 41.142 35.0601 40.9894C35.0424 40.9652 35.0223 40.9373 35.0003 40.9066C34.9054 40.7747 34.7733 40.591 34.6341 40.4242C34.357 40.092 33.9615 39.7966 33.5703 39.594C33.2186 39.4118 32.5894 39.1571 31.9038 39.2929L31.8829 39.2971C31.3825 39.3962 30.841 39.5034 30.2413 39.7265C29.7667 39.903 29.6204 39.9312 29.3542 39.9031C29.2757 39.8948 29.2375 39.8854 29.2238 39.8815C29.2077 39.869 29.1566 39.8254 29.0512 39.7042C29.0408 39.6922 29.0272 39.676 29.0107 39.6564C28.8914 39.5146 28.6211 39.1929 28.2972 38.9642C28.1866 38.8862 28.1003 38.763 27.8094 38.2823C27.2952 37.4324 26.5607 37.0494 25.7919 36.8611C25.7755 36.857 25.7582 36.8528 25.7402 36.8483C25.4518 36.7769 24.96 36.6553 24.4251 36.6867C24.0807 36.707 23.8069 36.7974 23.6075 36.8786C23.5252 36.9121 23.446 36.9483 23.394 36.972C23.3887 36.9744 23.3837 36.9767 23.379 36.9789C23.3191 37.0061 23.2855 37.021 23.2552 37.033C22.723 37.2436 22.1834 37.4476 21.6404 37.6478C21.6027 37.6617 21.5105 37.683 21.2797 37.6472C21.165 37.6294 21.0365 37.601 20.8771 37.5614C20.8313 37.55 20.7742 37.5353 20.712 37.5194C20.5958 37.4897 20.4617 37.4553 20.3504 37.429C20.2424 37.4035 20.1472 37.3819 20.0592 37.3619C19.9506 37.3373 19.853 37.3151 19.7564 37.2913L19.7002 37.1955C19.6706 37.1454 19.6349 37.086 19.5941 37.0224C19.4704 36.8294 19.3324 36.6784 19.2348 36.5776C19.1846 36.5259 19.1355 36.4777 19.0977 36.4408L19.0841 36.4275C19.0498 36.394 19.0252 36.3699 19.0012 36.3456C18.9939 36.3382 18.9874 36.3316 18.9817 36.3257C18.7503 35.6939 18.0779 35.3205 17.4066 35.4789C16.682 35.6499 16.2331 36.376 16.4041 37.1006C16.5433 37.6905 16.9208 38.0767 17.0846 38.2423C17.1257 38.2838 17.1676 38.3247 17.2 38.3564L17.2128 38.3688C17.2503 38.4055 17.2761 38.431 17.2982 38.4539C17.3169 38.4731 17.3276 38.4851 17.3326 38.4909C17.356 38.5281 17.3756 38.5616 17.4042 38.6105C17.4178 38.6338 17.4334 38.6605 17.4524 38.6927C17.5051 38.782 17.5886 38.9212 17.698 39.0623C17.9545 39.3933 18.323 39.6963 18.8655 39.8455C19.085 39.9058 19.3266 39.9608 19.5278 40.0065C19.6019 40.0234 19.6706 40.039 19.7306 40.0532C19.7858 40.0662 19.8577 40.0847 19.9409 40.106C20.1947 40.1711 20.5539 40.2632 20.8661 40.3117C21.3323 40.384 21.9376 40.412 22.5731 40.1777C23.1294 39.9726 23.6898 39.7608 24.2472 39.5402C24.3478 39.5005 24.437 39.4599 24.4971 39.4325C24.5626 39.4026 24.593 39.3888 24.62 39.3777Z" fill="#A58466"/>
<path fill-rule="evenodd" clip-rule="evenodd" d="M34.2757 51.8292C34.2077 51.8233 34.1574 51.8189 34.0397 51.8002C33.6758 51.7425 33.3348 51.7171 33.0728 51.6976C33.0491 51.6958 33.0261 51.6941 33.0037 51.6924C32.7041 51.6698 32.547 51.6529 32.4328 51.626C31.7469 51.464 30.7138 51.3609 29.7738 51.8788C29.6921 51.9238 29.611 51.9573 29.4504 52.0237C29.422 52.0354 29.3911 52.0482 29.3572 52.0623C29.1634 52.1428 28.8742 52.2658 28.5836 52.4606C28.2096 52.7112 27.9324 52.9627 27.6799 53.1935C27.6056 53.2614 27.5479 53.3009 27.438 53.3764C27.3744 53.42 27.2933 53.4756 27.1814 53.5557C26.9274 53.7373 26.568 54.0169 26.2774 54.4629C25.859 55.1051 25.7115 55.7338 25.5979 56.2184C25.5918 56.2443 25.5858 56.2699 25.5799 56.295C25.4768 56.7313 25.3229 57.4531 25.3649 58.1219C25.4138 58.8991 25.6606 59.6354 25.8433 60.1805C25.8868 60.3105 25.9268 60.4297 25.9595 60.536C25.9664 60.5582 25.9734 60.581 25.9805 60.6042C26.207 61.3418 26.5839 62.5696 27.5958 63.389C27.6506 63.4334 27.7149 63.5022 27.867 63.6813C27.8747 63.6905 27.8828 63.7 27.8913 63.71C28.0181 63.8599 28.2235 64.1025 28.4769 64.314C28.6261 64.4386 28.7701 64.5156 28.8674 64.5618C28.8816 64.5685 28.8953 64.5748 28.9082 64.5807C29.2362 64.8871 29.6168 65.048 29.8732 65.1289C30.6794 65.3835 31.8598 65.7285 32.9977 65.657C33.0921 65.651 33.1468 65.6519 33.2295 65.6532C33.2973 65.6543 33.3839 65.6556 33.5264 65.6538C33.7763 65.6506 34.1156 65.6317 34.4943 65.5169C34.692 65.4571 34.8796 65.3897 35.0377 65.3323C35.0596 65.3243 35.0809 65.3165 35.1017 65.309C35.24 65.2587 35.354 65.2171 35.4691 65.1794C36.2315 64.9296 36.7536 64.4214 37.0935 64.0565C37.2486 63.89 37.3636 63.7593 37.4591 63.6509C37.6214 63.4665 37.7271 63.3465 37.8765 63.2244C38.4037 62.7935 38.704 62.1925 38.8598 61.8629C38.8787 61.823 38.9043 61.7718 38.9345 61.7114C39.0781 61.4245 39.3254 60.9303 39.4417 60.4616C39.5727 59.9337 39.6557 59.3886 39.6652 58.8144C39.6709 58.4733 39.612 58.1902 39.5571 57.9794C39.5356 57.8968 39.5112 57.8131 39.493 57.7508C39.4897 57.7394 39.4866 57.7287 39.4838 57.7189C39.4637 57.6498 39.45 57.6003 39.4391 57.5549C39.4385 57.55 39.4367 57.5349 39.4353 57.5056C39.4331 57.461 39.4328 57.423 39.4323 57.3618C39.4321 57.3336 39.4318 57.3006 39.4313 57.2597L39.4312 57.2534C39.4287 57.0539 39.4234 56.6388 39.2541 56.2097C39.1108 55.8467 38.9781 55.4778 38.8488 55.0963C38.6172 54.4127 38.1563 53.943 37.827 53.6443C37.6951 53.5247 37.5525 53.4054 37.4371 53.3089C37.4081 53.2846 37.3808 53.2618 37.3558 53.2407C37.2156 53.1226 37.121 53.0387 37.0495 52.9646C36.6845 52.5872 36.2952 52.4063 35.9987 52.2966C35.9082 52.263 35.7966 52.2262 35.722 52.2016C35.6982 52.1937 35.6782 52.1871 35.6639 52.1823C35.5798 52.1538 35.5293 52.1343 35.4887 52.1153C35.1385 51.9518 34.8201 51.8932 34.575 51.8617C34.4159 51.8413 34.3383 51.8346 34.2757 51.8292ZM29.0499 64.6404C29.0498 64.6404 29.0485 64.6398 29.0456 64.6386C29.0484 64.6398 29.0499 64.6404 29.0499 64.6404ZM34.3479 54.5584L34.348 54.5585C34.521 54.6392 34.6796 54.6957 34.7998 54.7364C34.8581 54.7561 34.8999 54.7699 34.934 54.7811C34.9846 54.7977 35.018 54.8087 35.0627 54.8252C35.093 54.8365 35.1109 54.8442 35.1205 54.8487C35.2919 55.0248 35.4729 55.1802 35.6186 55.3029C35.6589 55.3368 35.6963 55.3681 35.7314 55.3976C35.8399 55.4884 35.9275 55.5617 36.0156 55.6416C36.2499 55.8541 36.289 55.9438 36.2951 55.9616C36.4301 56.3602 36.5729 56.7586 36.7299 57.1588C36.7314 57.1784 36.7342 57.2203 36.7351 57.2941C36.7353 57.3073 36.7354 57.3235 36.7356 57.3422C36.7362 57.4179 36.7371 57.5327 36.7421 57.6367C36.749 57.7785 36.7653 57.9643 36.8133 58.1677C36.8408 58.2843 36.8707 58.3892 36.8938 58.4691C36.8986 58.4856 36.9031 58.5008 36.9072 58.5149C36.925 58.5764 36.9368 58.6169 36.9478 58.6592C36.9701 58.7448 36.9694 58.7666 36.9693 58.7695C36.9693 58.7696 36.9692 58.7697 36.9692 58.7697C36.9636 59.1087 36.9148 59.4494 36.8248 59.812C36.7867 59.9656 36.7225 60.0955 36.6071 60.3291C36.5562 60.4324 36.4952 60.5559 36.4221 60.7106C36.3582 60.8457 36.3019 60.9514 36.2484 61.0335C36.1979 61.111 36.1692 61.1372 36.1693 61.1373C36.1693 61.1373 36.1696 61.1371 36.1701 61.1367C35.928 61.3346 35.7227 61.5496 35.5582 61.7305C35.4637 61.8344 35.3978 61.9092 35.3384 61.9767C35.2688 62.0557 35.2081 62.1246 35.1206 62.2185C34.8509 62.508 34.7162 62.5887 34.6296 62.6171C34.4694 62.6696 34.3104 62.7275 34.1755 62.7767C34.1554 62.784 34.1359 62.7911 34.117 62.798C33.9609 62.8547 33.8337 62.8997 33.7126 62.9364C33.6834 62.9452 33.6324 62.9558 33.4915 62.9577C33.438 62.9584 33.3918 62.9579 33.3319 62.9574C33.3 62.9571 33.2642 62.9568 33.2214 62.9565C33.1128 62.956 32.9768 62.9566 32.8284 62.9659C32.2567 63.0019 31.5267 62.8224 30.7119 62.5661C30.4875 62.3357 30.245 62.2189 30.1245 62.1671C30.0779 62.1178 30.0169 62.0474 29.9226 61.9364C29.9177 61.9307 29.9128 61.9248 29.9077 61.9188C29.7762 61.7638 29.5631 61.5125 29.2926 61.2935C28.988 61.0468 28.8029 60.6072 28.5364 59.7421C28.4636 59.5058 28.3976 59.3061 28.3394 59.13C28.1814 58.6516 28.0808 58.347 28.056 57.9527C28.0415 57.7225 28.1016 57.3483 28.204 56.9147C28.3348 56.3609 28.3912 56.1579 28.5365 55.9349C28.5522 55.9108 28.5874 55.8651 28.7498 55.7489C28.7907 55.7197 28.834 55.6897 28.8877 55.6528L28.897 55.6464C28.9459 55.6128 29.0039 55.5728 29.0625 55.5312C29.1883 55.4419 29.3424 55.3269 29.4989 55.1839C29.747 54.9571 29.8945 54.8279 30.0848 54.7004C30.1386 54.6643 30.2156 54.6254 30.3913 54.5525C30.4104 54.5445 30.4319 54.5357 30.4554 54.5261C30.609 54.4633 30.8479 54.3655 31.0748 54.2405C31.1494 54.1994 31.3797 54.1478 31.813 54.2501C32.1647 54.3332 32.5288 54.3606 32.7996 54.3811L32.8009 54.3812C32.8197 54.3826 32.8382 54.384 32.8566 54.3854C33.1331 54.4061 33.3683 54.4238 33.617 54.4632C33.761 54.4861 33.89 54.5002 33.9929 54.5108C34.0234 54.5139 34.0501 54.5166 34.074 54.519C34.1394 54.5255 34.1842 54.53 34.2319 54.5362C34.2883 54.5434 34.3161 54.5492 34.3307 54.5529C34.3423 54.5558 34.346 54.5575 34.3479 54.5584ZM35.1298 54.8535C35.1299 54.8535 35.129 54.8529 35.1267 54.8517C35.1285 54.8529 35.1297 54.8534 35.1298 54.8535Z" fill="#A58466"/>
<path fill-rule="evenodd" clip-rule="evenodd" d="M27.1431 57.8606C27.3052 57.1339 26.8474 56.4134 26.1207 56.2513C25.6619 56.149 25.2179 56.1262 24.8934 56.1096C24.8782 56.1088 24.8632 56.1081 24.8486 56.1073C24.4851 56.0885 24.2574 56.0725 24.0486 56.0232L20.6817 55.228C19.9571 55.0569 19.2309 55.5056 19.0598 56.2302C18.8886 56.9549 19.3373 57.681 20.062 57.8522L23.4289 58.6474C23.8985 58.7583 24.3527 58.7817 24.6834 58.7987C24.6921 58.7992 24.7007 58.7996 24.7092 58.8001C25.0775 58.8191 25.3123 58.8336 25.5338 58.883C26.2605 59.0451 26.981 58.5873 27.1431 57.8606Z" fill="#A58466"/>
<path fill-rule="evenodd" clip-rule="evenodd" d="M15.9052 47.0199C15.7189 46.9896 15.5844 46.9677 15.4241 46.9298C15.4118 46.9269 15.3968 46.9233 15.3793 46.919C15.2822 46.8956 15.1112 46.8543 14.9451 46.8257C14.7671 46.795 14.435 46.7474 14.0822 46.8091C14.0822 46.8091 14.0713 46.8109 14.0413 46.8131C14.0097 46.8155 13.9775 46.8169 13.9215 46.8195L13.8936 46.8208C13.7816 46.8259 13.5709 46.8355 13.3451 46.8824C13.0325 46.9473 12.7669 47.0725 12.635 47.1346C12.6294 47.1373 12.6241 47.1398 12.619 47.1422C12.4554 47.2191 12.4344 47.2255 12.4344 47.2256C12.4344 47.2256 12.4343 47.2256 12.4344 47.2256C11.6839 47.4158 10.9912 47.7519 10.3882 48.1446C10.0027 48.3957 9.66226 48.6837 9.39 48.914C9.37166 48.9295 9.35362 48.9447 9.3359 48.9597C9.27327 49.0126 9.22414 49.0485 9.14911 49.1033C9.09614 49.1419 9.03024 49.1901 8.93756 49.2603C8.76296 49.3925 8.50705 49.5959 8.2837 49.8732C7.77489 50.5049 7.66015 51.2047 7.59312 51.6136C7.59154 51.6232 7.58998 51.6327 7.58845 51.6421C7.56686 51.7733 7.53949 51.9069 7.50619 52.066C7.5037 52.0779 7.50116 52.09 7.49859 52.1022C7.46859 52.2453 7.43347 52.4128 7.40387 52.5828C7.3382 52.9599 7.28548 53.4212 7.34732 53.9403C7.364 54.0803 7.36503 54.2425 7.35878 54.4847C7.358 54.5149 7.35706 54.5472 7.35608 54.5811C7.35006 54.7886 7.34214 55.0614 7.35628 55.3307C7.38302 55.84 7.45325 56.3378 7.54362 56.808C7.63557 57.2865 7.77324 57.7633 7.94651 58.2142C7.94651 58.2142 7.94841 58.2194 7.95236 58.2317C7.95714 58.2467 7.96302 58.2662 7.97139 58.2949C7.97394 58.3037 7.97703 58.3144 7.98058 58.3268C7.99545 58.3785 8.01819 58.4576 8.04119 58.5296C8.09407 58.6954 8.21209 59.0453 8.48051 59.3585C9.17973 60.1745 9.92626 60.5596 10.7242 60.8726C11.8589 61.3177 12.9286 61.4929 14.0993 61.5044C15.1416 61.5147 15.952 61.2758 16.7917 60.9294C17.2665 60.7335 17.635 60.4575 17.9143 60.2237C18.035 60.1227 18.1526 60.0176 18.2518 59.929C18.2654 59.9169 18.2787 59.905 18.2915 59.8935C18.4056 59.7918 18.4988 59.7099 18.5901 59.6364C18.8373 59.4374 19.1022 59.1453 19.2336 59.0004C19.2638 58.9671 19.2869 58.9416 19.3012 58.9267C19.367 58.8583 19.4267 58.8021 19.5087 58.725C19.5484 58.6877 19.5934 58.6454 19.6468 58.5944C19.7885 58.4591 19.9726 58.2774 20.1459 58.0548C20.3737 57.7624 20.522 57.4491 20.6104 57.2624L20.6194 57.2434C20.7217 57.0274 20.7613 56.9438 20.8076 56.874C21.1129 56.414 21.2884 55.871 21.3903 55.5555C21.3995 55.5271 21.4081 55.5005 21.4162 55.476C21.7296 54.52 21.8574 53.2592 21.6044 52.1871C21.3037 50.9126 20.6739 49.8376 19.8554 48.9225C19.4867 48.5102 19.1233 48.1207 18.4396 47.7613C17.8679 47.4607 17.3206 47.329 16.8449 47.2146C16.7756 47.1979 16.7078 47.1816 16.6417 47.1652C16.3529 47.0935 16.1159 47.0542 15.9225 47.0227L15.9052 47.0199ZM15.489 49.684C15.6714 49.7137 15.8168 49.7386 15.9922 49.7821C16.0738 49.8024 16.1489 49.8209 16.2184 49.8379C16.7193 49.9611 16.9264 50.012 17.1849 50.1479C17.4334 50.2785 17.5374 50.3755 17.8457 50.7201C18.4173 51.3592 18.7995 52.0412 18.9801 52.8064C19.0973 53.3032 19.0453 54.0523 18.854 54.6359C18.7168 55.0542 18.6477 55.2524 18.561 55.383C18.3992 55.6267 18.2746 55.8927 18.1987 56.0549C18.1895 56.0743 18.1811 56.0923 18.1735 56.1085C18.081 56.3038 18.0427 56.3671 18.0186 56.3981C17.9702 56.4602 17.9021 56.5321 17.785 56.644C17.7631 56.6649 17.7366 56.6898 17.7071 56.7175C17.6079 56.8108 17.4736 56.9372 17.3573 57.0582C17.2246 57.1962 17.1453 57.2846 17.0877 57.3489C17.0114 57.4339 16.973 57.4767 16.8992 57.5361C16.7498 57.6564 16.612 57.7785 16.4968 57.8812C16.4825 57.894 16.4685 57.9065 16.4549 57.9187C16.3522 58.0103 16.2687 58.0848 16.1835 58.1562C15.9951 58.3139 15.8708 58.3925 15.7634 58.4368C15.1187 58.7027 14.6813 58.8136 14.1258 58.8082C13.237 58.7994 12.498 58.672 11.7089 58.3625C11.1716 58.1517 10.8788 57.9837 10.6031 57.6882C10.5959 57.6646 10.589 57.6406 10.5794 57.6075C10.5741 57.5889 10.5679 57.5674 10.5603 57.5414C10.5401 57.472 10.5075 57.3617 10.4636 57.2473C10.3458 56.941 10.2527 56.6173 10.1915 56.2991C10.1183 55.9182 10.0677 55.5465 10.0489 55.1893C10.041 55.0382 10.0451 54.8887 10.0509 54.6769C10.052 54.6382 10.0531 54.5975 10.0542 54.5543C10.0607 54.3025 10.0664 53.971 10.0248 53.6213C10.0066 53.4688 10.0164 53.2969 10.0603 53.0454C10.0816 52.9227 10.1076 52.7984 10.1398 52.6451L10.1453 52.6184C10.1783 52.4612 10.2169 52.2754 10.249 52.0798C10.3209 51.6429 10.3585 51.5957 10.3837 51.5645C10.3931 51.5528 10.4326 51.5104 10.5656 51.4097C10.6087 51.377 10.6449 51.3504 10.6881 51.3187C10.7166 51.2978 10.7481 51.2747 10.7866 51.2462C10.8699 51.1844 10.9723 51.107 11.0757 51.0197L11.0861 51.0109C11.3951 50.7499 11.6188 50.561 11.8598 50.404C12.2687 50.1377 12.6906 49.9423 13.0971 49.8392C13.3718 49.7696 13.6167 49.6533 13.737 49.5961C13.7476 49.5911 13.7573 49.5865 13.766 49.5824C13.8497 49.543 13.8885 49.527 13.9017 49.5216C13.9163 49.5202 13.9515 49.5173 14.0283 49.5138C14.0359 49.5135 14.0444 49.5131 14.0536 49.5127C14.1401 49.5089 14.2939 49.5022 14.4609 49.4786C14.4686 49.4798 14.4775 49.4812 14.4877 49.4829C14.5251 49.4894 14.5697 49.4987 14.6249 49.5113C14.6521 49.5176 14.6798 49.5241 14.7099 49.5314L14.8043 49.554C15.0598 49.6143 15.2789 49.6499 15.4538 49.6783C15.4658 49.6802 15.4775 49.6821 15.489 49.684Z" fill="#A58466"/>
<path fill-rule="evenodd" clip-rule="evenodd" d="M18.2122 62.3612C17.6687 62.2328 17.124 62.5693 16.9957 63.1128C16.8901 63.56 16.9565 64.0186 17.0687 64.376C17.1811 64.7342 17.3847 65.1346 17.7008 65.4331C17.8127 65.5387 17.9027 65.6455 18.0292 65.7957C18.0745 65.8495 18.1245 65.9088 18.1819 65.9757C18.3746 66.2003 18.6367 66.4894 18.9944 66.7262C19.5077 67.0662 20.1057 67.1959 20.4854 67.2783C20.546 67.2914 20.601 67.3033 20.6492 67.3147C20.7193 67.3313 20.7933 67.3499 20.871 67.3695C21.463 67.5186 22.2706 67.7219 23.1828 67.4673C23.5609 67.3617 23.9616 67.1708 24.3131 66.9213C24.6574 66.6769 25.0288 66.3232 25.2508 65.8552C25.4902 65.3507 25.2753 64.7476 24.7708 64.5082C24.2662 64.2688 23.6632 64.4838 23.4238 64.9883C23.4006 65.0372 23.3197 65.1465 23.1425 65.2723C22.9726 65.3929 22.7827 65.4794 22.6391 65.5195C22.2686 65.6229 21.9952 65.5574 21.3497 65.4028C21.2762 65.3852 21.1979 65.3664 21.114 65.3466C21.0162 65.3235 20.9288 65.3034 20.8499 65.2853C20.4654 65.1971 20.2855 65.1558 20.1109 65.0402C19.9965 64.9644 19.883 64.8527 19.7166 64.6588C19.689 64.6266 19.6579 64.5896 19.624 64.5492C19.4847 64.3832 19.2961 64.1586 19.0925 63.9659C19.0911 63.9641 19.0796 63.9505 19.0625 63.9206C19.0399 63.8813 19.0166 63.8293 18.9981 63.7703C18.9795 63.7112 18.9696 63.6572 18.9662 63.6154C18.9641 63.5892 18.9651 63.5747 18.9654 63.5709C19.0894 63.0296 18.7534 62.489 18.2122 62.3612Z" fill="#A58466"/>
<path fill-rule="evenodd" clip-rule="evenodd" d="M59.0309 47.2774C57.9992 47.2233 56.9664 47.1207 55.9594 46.9657C52.6594 46.458 49.2403 45.3318 46.1695 43.387C45.8116 43.1603 45.5134 42.9873 45.1308 42.7654C44.8908 42.6263 44.6176 42.4678 44.2757 42.2648C43.5193 41.8157 42.5606 41.2211 41.6052 40.453C40.5992 39.6442 39.8488 38.837 39.2736 38.1799C38.991 37.8572 38.7958 37.627 38.6307 37.4323C38.4433 37.2113 38.2947 37.036 38.101 36.823C38.0661 36.7995 38.0208 36.7694 37.9635 36.7324C37.94 36.7171 37.907 36.696 37.8672 36.6705C37.7152 36.5731 37.4634 36.4118 37.2519 36.269C36.9494 36.0647 36.5461 35.7788 36.1215 35.4149C35.9972 35.3083 35.866 35.1969 35.729 35.0805C34.8082 34.2984 33.6246 33.2932 32.4976 32.041C32.3314 31.8563 32.1127 31.6529 31.6041 31.1984C31.584 31.1805 31.5633 31.162 31.542 31.143C31.1083 30.7558 30.4255 30.1461 29.7767 29.4252C29.0539 28.6221 28.7097 28.2946 28.2099 27.9376C24.7814 25.4886 22.8189 22.4106 21.838 18.5963C21.3904 16.8555 21.3954 15.3519 21.457 14.2397C21.4946 13.5616 21.5274 13.2072 21.5516 12.9468C21.5783 12.6587 21.5943 12.4856 21.5943 12.1167C21.5943 10.5681 22.0467 9.21655 22.2653 8.59094C22.3001 8.49139 22.3354 8.39324 22.3703 8.29824C22.7243 5.41556 24.4475 3.40175 26.2757 2.24122C27.7563 1.30135 29.4598 0.835608 30.1944 0.634762C30.2501 0.619538 30.3002 0.605836 30.3443 0.593564C32.3078 0.0463419 34.2358 -0.0152703 35.6894 0.00259732C36.4369 0.011786 37.1667 0.0454874 37.7771 0.073919L37.8013 0.0750488C38.4371 0.10467 38.9359 0.127907 39.3997 0.134933C41.456 0.166091 43.2367 0.681029 44.347 1.01091C44.4961 1.0552 44.6342 1.09637 44.7626 1.13465C45.7821 1.4386 46.1898 1.56015 46.6194 1.61384C47.705 1.74954 48.5738 2.10427 49.1391 2.38116C49.7181 2.66473 50.1958 2.97574 50.5145 3.19484C50.7801 3.37738 51.0473 3.57552 51.1999 3.6886C51.2245 3.70684 51.2461 3.72286 51.2642 3.73625C51.3566 3.80441 51.4043 3.83836 51.4212 3.85047C52.5086 4.5217 53.6929 5.26378 54.8531 6.05764C55.6021 6.57005 56.4784 7.14665 57.4086 7.7586C59.0826 8.86002 60.9308 10.076 62.5231 11.2383C62.6766 11.3504 62.888 11.499 63.1365 11.6735C63.9064 12.2145 65.0321 13.0055 65.8959 13.7375C66.492 14.2425 67.1195 14.8353 67.722 15.5377C68.6688 16.2237 69.3743 16.9305 69.8361 17.4028C69.9436 17.5128 70.0362 17.6079 70.1176 17.6915C70.4443 18.0272 70.5893 18.1762 70.7885 18.3475C71.9249 19.3248 72.8965 20.6023 73.5877 21.6919C74.2556 22.7448 75.0907 24.2938 75.463 25.9692C75.606 26.6126 75.6912 27.2153 75.7494 27.6689C75.7849 27.9459 75.8058 28.1227 75.8236 28.2732C75.8441 28.4465 75.8605 28.5849 75.8903 28.8013C75.929 29.0818 75.9607 29.2337 75.9748 29.297C75.9764 29.3003 75.9781 29.3037 75.9797 29.307C76.4443 29.878 76.7963 30.5019 77.0429 31.1447C77.2664 31.7277 77.3741 32.2557 77.4286 32.6207C78.3223 35.344 77.6186 37.7776 76.9145 39.2863C76.3399 40.5173 75.4209 41.7813 75.1001 42.2225C75.0542 42.2856 75.0205 42.3319 75.0019 42.3588C74.9663 42.4102 74.9136 42.4894 74.8464 42.5904C74.4977 43.1143 73.7585 44.2247 72.9941 45.0856C71.911 46.3051 70.2193 47.7532 67.7124 48.3799C64.6615 49.1426 61.9517 48.3893 60.2547 47.7666C59.8262 47.6093 59.4125 47.4408 59.0309 47.2774ZM77.4988 33.2735L77.4987 33.2715C77.4993 33.2794 77.4994 33.2806 77.4988 33.2735ZM49.5066 17.1766C49.5067 17.1765 49.5108 17.1777 49.5187 17.1801C49.5105 17.1778 49.5066 17.1766 49.5066 17.1766ZM69.7898 18.5233C69.7903 18.524 69.7958 18.5376 69.8051 18.5623C69.794 18.535 69.7894 18.5227 69.7898 18.5233Z" fill="#BEBEBF"/>
<path d="M22.2914 19.7141C23.4819 19.7141 21 19.9481 19.5 20.5C18.5 21.0342 17.4355 21.4901 16.6748 21.9823C16.1968 22.2916 15.7162 22.504 15.2466 22.8464C14.8294 23.1507 14.2977 23.2791 13.8665 23.5785C13.3542 23.9343 12.805 24.2225 12.2703 24.5506C11.3377 25.1229 10.3252 25.8625 9.78603 26.8429C8.89095 28.4703 7.72033 29.9283 6.73769 31.5114C6.30468 32.209 5.79167 32.9811 5.46555 33.7556C5.22392 34.3295 5.20826 34.8182 4.94464 35.3982C4.79004 35.7383 4.83545 36.1363 4.58414 36.4378C4.5036 36.5345 4.58945 36.7621 4.58345 36.882C4.56839 37.1832 4.56641 37.734 4.48144 38.0101C4.31349 38.556 4.25342 39.2276 4.25342 39.8043C4.25342 40.5929 4.33397 39.0254 4.35543 38.8322C4.39511 38.4751 4.5287 38.15 4.58345 37.7941C4.73261 36.8246 4.80183 35.8204 5.07551 34.8778C5.57329 33.1632 5.88253 31.4241 6.36565 29.7112C6.69988 28.5262 7.5869 27.3915 8.29787 26.4108C9.19631 25.1716 9.93793 23.6137 11.0642 22.5764C11.7464 21.948 12.4291 21.4188 13.2784 21.0342C13.91 20.7482 14.3713 20.2616 14.9826 19.9481C16.0905 19.3799 17.0178 18.4398 18.151 17.9319C18.7329 17.671 19.6041 17.5382 20.1132 17.1818C20.535 16.8865 21.6266 16.6502 21.9674 16.9058" stroke="#BEBEBF" stroke-width="4" stroke-linecap="round"/>
<path d="M53.8276 49.7979C53.8276 48.5819 46.0307 44.47 46.4157 43.315C46.4157 42.424 54.3557 44.8221 54.8509 44.0901C55.2688 43.4723 56.2152 43.0917 56.848 42.7094C57.4218 42.3627 57.9294 41.8954 58.5246 41.5875C59.6917 40.9838 60.7636 40.164 61.9147 39.5164C62.9097 38.9567 64.037 38.7728 65.1323 38.4686C66.7198 38.0276 67.9636 37.8345 69.5949 37.8522C70.3292 37.8602 71.1165 38.0546 71.6475 38.5857C72.173 39.1112 73.0408 39.5312 73.4104 40.1883C73.7151 40.73 74.1196 41.3226 74.1316 41.9574C74.1431 42.5657 74.0537 43.1374 74.0206 43.7326C73.9536 44.9391 76.6119 45.9983 76 46.9995C75.6074 47.6419 71.1272 48.155 70.4456 48.4171C70.0821 48.557 69.7058 48.8717 69.41 49.1137C68.9554 49.4857 68.33 49.6241 67.869 50.0013C67.1646 50.5776 66.1477 50.735 65.4836 51.3327C64.5596 52.1643 63.3751 52.798 62.3462 53.4962C61.8256 53.8495 61.3134 54.2644 60.7559 54.5564C60.2822 54.8045 59.4331 55.3087 59.0978 55.7214C58.8709 56.0006 58.5575 56.1644 58.3273 56.4364C58.169 56.6235 58.0982 56.8628 57.9328 57.0466C57.6396 57.3724 57.4994 57.7763 57.2671 58.1315C57.2671 58.1315 56.7304 62.7982 55.5844 62.2251C54.0468 61.4563 54.742 56.8437 54.518 55.0742C54.3913 54.0731 53.9386 53.0601 53.9386 52.0539C53.9386 51.306 53.8276 50.555 53.8276 49.7979Z" fill="#BEBEBF"/>
<path d="M23.5943 14.3205C22.1832 14.5026 20.7225 14.4138 19.3011 14.4138C18.7001 14.4138 17.8071 14.2395 17.222 14.4345C16.6179 14.6359 16.0258 15.0743 15.4435 15.3471C14.1691 15.9441 13.1041 16.9752 11.9644 17.784C10.8301 18.589 10.057 19.652 9.15412 20.6876C9.05526 20.801 8.95459 21.1259 8.84821 21.0195C8.74895 20.9202 9.01163 20.7902 9.10746 20.6876C9.50371 20.2635 9.9584 19.8294 10.3933 19.4536C12.1198 17.9619 14.0516 16.7286 15.9257 15.4352C16.6964 14.9034 17.5614 14.6715 18.4508 14.3827C18.9628 14.2165 19.4778 14.0815 20.0011 13.9575C20.0612 13.9433 20.8557 13.666 20.4315 13.9938C18.9565 15.1335 16.9998 15.5162 15.3502 16.3322C14.5085 16.7486 13.7937 17.3542 12.9547 17.7737" stroke="#BEBEBF" stroke-width="3" stroke-linecap="round"/>
</svg>
