<svg width="83" height="90" viewBox="0 0 83 90" fill="none" xmlns="http://www.w3.org/2000/svg">
<path fill-rule="evenodd" clip-rule="evenodd" d="M21.8389 73.1376C22.8928 72.6964 24.1049 73.1931 24.5461 74.2471C24.6451 74.4836 24.7438 74.6891 24.8429 74.8501C24.912 74.9622 24.9556 75.0102 24.9644 75.0203C25.6892 75.541 26.756 75.8622 27.9693 76.0139C29.103 76.1556 29.9072 77.1896 29.7655 78.3233C29.6238 79.4571 28.5898 80.2613 27.4561 80.1196C25.9329 79.9292 24.0511 79.476 22.5057 78.3483C21.4863 77.6045 20.9554 76.3848 20.7294 75.8448C20.2882 74.7908 20.7849 73.5787 21.8389 73.1376Z" fill="#BEBEBF"/>
<path fill-rule="evenodd" clip-rule="evenodd" d="M79.8855 28.1695C78.6347 26.3236 76.4283 25.2156 74.0582 25.4789C70.6515 25.8575 68.1966 28.926 68.5751 32.3328C68.7362 33.7826 69.3143 34.8949 69.8651 35.6592C68.2192 38.2527 68.714 41.7273 71.1369 43.7464C73.7701 45.9408 77.6837 45.585 79.8781 42.9518C82.3909 39.9364 82.4163 36.7386 82.4163 35.0007C82.4163 34.988 82.4168 34.9656 82.4177 34.9341C82.427 34.5677 82.4677 32.9821 81.9925 31.4377C81.5357 29.9532 80.6964 28.9741 80.1933 28.4652C80.0854 28.3561 79.9813 28.2571 79.8855 28.1695Z" fill="#BEBEBF"/>
<path fill-rule="evenodd" clip-rule="evenodd" d="M10.2587 47.3155C12.2058 44.6363 15.9387 43.9499 18.7195 45.8038C19.4795 46.3104 19.9901 46.8681 20.2838 47.2241C20.3314 47.2819 20.376 47.3375 20.4171 47.3902C20.9797 47.8705 21.3869 48.3258 21.6054 48.5723C21.7236 48.7056 21.8889 48.8976 21.9845 49.0086C22.015 49.044 22.0383 49.0712 22.0508 49.0856C22.1005 49.1427 22.1309 49.1768 22.1469 49.1944C22.1627 49.2088 22.1903 49.2336 22.2335 49.2719C22.2465 49.2834 22.2636 49.2985 22.2839 49.3164C22.3819 49.4028 22.5559 49.5562 22.7116 49.6997C23.0287 49.9919 23.7687 50.6821 24.3936 51.6761L24.444 51.7418C24.4673 51.7724 24.498 51.8125 24.5309 51.8562C24.564 51.9001 24.6045 51.9544 24.6487 52.0151C25.0993 52.6347 25.3748 53.22 25.5435 53.6386C25.6174 53.822 25.6795 53.9963 25.728 54.1414C26.2426 54.9899 26.9364 56.2195 27.4028 57.5254C28.2248 59.8268 28.2372 61.7703 28.2372 63.1849C28.2372 65.2563 28.0833 67.4017 27.2941 69.8569C27.2579 69.9695 27.2104 70.1519 27.1147 70.5832C27.105 70.627 27.0943 70.6756 27.0827 70.7283C27.0027 71.0925 26.8793 71.6538 26.7275 72.2003C26.2525 73.9102 25.2145 75.6898 23.3371 76.9061C21.5996 78.0318 19.7945 78.2465 18.5487 78.2465C16.6794 78.2465 14.7484 77.9026 12.8862 76.8688C11.1211 75.8889 9.89595 74.547 9.00969 73.4244C8.3759 72.6216 8.01815 71.8543 7.85892 71.505C7.82135 71.4227 7.78593 71.3429 7.7635 71.2924L7.75836 71.2808L7.74163 71.2435C7.71442 71.2025 7.6661 71.1315 7.58251 71.0127C7.56826 70.9924 7.55158 70.9688 7.53279 70.9423C7.382 70.7291 7.09496 70.3233 6.82915 69.8883C6.64208 69.5822 6.48324 69.2931 6.37618 69.0965C6.33488 69.0207 6.30147 68.959 6.27279 68.9061C6.21171 68.7934 6.17206 68.7202 6.1232 68.6337C6.10636 68.6038 6.09227 68.5795 6.08085 68.5601C5.08043 67.3931 4.61019 66.159 4.44625 65.7288C4.43978 65.7118 4.43379 65.6961 4.42827 65.6817C4.38162 65.5601 4.37122 65.5322 4.36289 65.5098C4.36054 65.5035 4.35836 65.4977 4.35556 65.4902C3.8058 64.5777 3.54915 63.7002 3.41844 63.0731C3.26716 62.3473 3.23334 61.7023 3.22588 61.2669C3.21831 60.825 3.23704 60.423 3.24759 60.2006C3.26008 59.9375 3.26176 59.8952 3.26198 59.8952C3.26202 59.8953 3.26201 59.8965 3.26201 59.898C3.26201 58.9555 3.39465 58.0957 3.4579 57.6858C3.46164 57.6615 3.46513 57.6389 3.46835 57.6179C3.51297 57.3259 3.5281 57.2038 3.53253 57.1732C3.54379 55.9805 3.81948 55.004 4.13066 54.2504C4.25316 53.9537 4.37929 53.699 4.42732 53.602C4.42975 53.5971 4.43198 53.5926 4.434 53.5885C4.46346 53.529 4.47665 53.502 4.48103 53.4931C4.60042 53.2266 4.71772 53.009 4.80172 52.8605C4.8297 52.8111 4.85698 52.7641 4.88298 52.7201C5.62883 50.6066 7.1645 49.4487 7.6571 49.0853C7.80519 48.976 7.94387 48.8798 8.0396 48.8143C8.75182 48.1166 9.521 47.6408 10.2587 47.3155Z" fill="#FDEAD8"/>
<path fill-rule="evenodd" clip-rule="evenodd" d="M47.1135 18.5129C49.8769 18.4172 53.7233 18.2841 57.3251 19.1102C57.3922 19.1256 57.5288 19.1535 57.716 19.1918C58.4449 19.3408 59.9399 19.6465 61.0705 19.9763C62.4115 20.3676 65.1645 21.2657 67.1019 23.5307C67.1133 23.5421 67.1344 23.5631 67.1679 23.5954C67.2156 23.6413 67.2645 23.6873 67.3436 23.7618L67.3679 23.7847C67.4509 23.8628 67.5668 23.9721 67.6886 24.0906C68.1014 24.4925 68.8765 25.272 69.5257 26.4138C69.5503 26.4403 69.5766 26.4685 69.6092 26.5034C69.6356 26.5316 69.6661 26.5643 69.703 26.604L69.7075 26.6088C69.8928 26.8076 70.2575 27.199 70.6161 27.6682C70.9184 28.0638 71.288 28.6045 71.6134 29.2842C71.6272 29.3052 71.6414 29.3269 71.6556 29.3488C71.908 29.7382 72.6725 30.9251 72.8672 32.64C72.9162 32.7418 72.9744 32.8579 73.0629 33.0346L73.1184 33.1454C73.3519 33.6111 73.7919 34.4886 74.114 35.5267C74.6666 37.3071 74.7102 39.4607 74.7262 40.2508C74.7269 40.2853 74.7276 40.3171 74.7282 40.3463C74.7421 40.9832 74.7578 41.415 74.8006 41.7798C74.8121 41.8779 74.8232 41.9491 74.8319 41.9969C74.8548 42.0452 74.8791 42.0963 74.9046 42.1501C75.3368 43.0603 76.1256 44.7212 76.5346 46.4594C77.1445 49.0515 77.616 51.5637 78.0489 54.0747C78.2758 55.3907 78.2869 56.6321 78.2719 57.5395C78.2617 58.1541 78.248 58.5026 78.2365 58.7926C78.2244 59.0985 78.2149 59.3395 78.2149 59.7594C78.2149 60.3274 78.2347 60.7461 78.2596 61.2707C78.2802 61.7063 78.3043 62.2149 78.3234 62.9426C78.3563 64.201 78.3527 65.8831 78.0166 67.6114C77.692 69.2807 77.1122 70.6853 76.6544 71.7071C76.4286 72.2109 76.2584 72.5734 76.1167 72.8752C75.9085 73.3186 75.7619 73.6309 75.591 74.0678C74.8648 75.9236 73.5067 78.4758 71.4832 80.362C71.4368 80.4314 71.3653 80.5425 71.2285 80.7573C71.2125 80.7825 71.1949 80.8104 71.1756 80.8409C70.8491 81.3575 70.0538 82.616 68.8029 83.6745C68.7104 83.7527 68.6075 83.8448 68.4126 84.0198L68.4032 84.0282C68.234 84.1803 67.9871 84.402 67.7195 84.627C67.1844 85.0768 66.3258 85.7495 65.1963 86.2829C63.9579 86.8677 62.7479 87.3328 61.6284 87.7308C61.0183 87.9477 60.4809 88.0571 60.134 88.1177C60.0998 88.1236 60.0662 88.1293 60.0337 88.1347C59.967 88.1754 59.8977 88.2172 59.8296 88.2576C59.4035 88.5099 58.4142 89.0847 57.1504 89.3936C53.0944 90.385 48.9585 90.1794 44.9278 88.6413C44.5136 88.4833 44.162 88.3201 43.9061 88.1961C43.7784 88.1342 43.6607 88.0753 43.5716 88.0305C43.4711 87.9801 43.4143 87.9513 43.3517 87.9203C43.3463 87.9176 43.341 87.9151 43.336 87.9126C42.7995 87.7776 42.2551 87.6297 41.7833 87.5015C41.6136 87.4554 41.4533 87.4118 41.3061 87.3723C41.2303 87.352 41.107 87.3222 40.9471 87.2836C40.2056 87.1045 38.6769 86.7354 37.4467 86.2356C36.0046 85.6497 34.6227 84.9481 33.2252 84.0164C32.9669 83.8442 32.6857 83.6694 32.292 83.4249L32.2839 83.4199C31.9226 83.1956 31.4605 82.9086 30.9937 82.5953C30.0605 81.969 28.8229 81.0537 27.7197 79.7437C27.6162 79.6208 27.5137 79.5072 27.3388 79.3132C27.2791 79.247 27.211 79.1714 27.1314 79.0829C26.867 78.7886 26.4929 78.3677 26.1195 77.8875C25.4536 77.0315 24.4821 75.6093 24.032 73.6882C24.0097 73.6484 23.9833 73.6019 23.9523 73.5482C23.9432 73.5326 23.9333 73.5154 23.9225 73.4968C23.7884 73.2656 23.525 72.8115 23.2871 72.3111C23.0114 71.731 22.6986 70.9509 22.5087 70.0011C22.4287 69.6012 22.288 69.1642 22.013 68.5391C21.5651 67.5211 21.3294 66.5556 21.1908 65.9322C21.0905 65.4811 21.0466 65.2587 21.0144 65.0948C20.982 64.9304 20.9612 64.825 20.9066 64.6068C20.8546 64.3986 20.8092 64.2419 20.7403 64.0039C20.6988 63.8605 20.6488 63.6877 20.5836 63.4563C20.4407 62.9491 20.2483 62.2315 20.1174 61.4134C19.8816 59.9396 19.5264 58.4989 19.1536 57.6134C18.6642 56.4511 18.3583 55.3361 18.1453 54.5239C18.0863 54.2988 18.035 54.1004 17.9888 53.9215C17.8438 53.3604 17.7486 52.9918 17.6197 52.5979C16.787 50.0536 16.8284 47.4513 16.8512 46.0148C16.8544 45.813 16.8573 45.6341 16.8573 45.4817C16.8573 43.667 17.0608 41.5666 17.8079 39.4187C18.3997 37.7172 19.3484 35.5691 20.9071 33.6676C21.0915 33.4426 21.3006 33.1369 21.6403 32.581C21.985 32.017 22.3472 31.5773 22.6274 31.2665C22.8944 30.9702 23.1509 30.7224 23.2771 30.6005L23.281 30.5967C23.3064 30.5722 23.3269 30.5524 23.3444 30.5356C23.4077 30.4391 23.4814 30.3246 23.5763 30.1764C23.5839 30.1646 23.5917 30.1524 23.5997 30.1399C23.7527 29.9009 23.9772 29.5502 24.2259 29.1955C24.7758 28.4112 25.6065 27.3634 26.8703 26.4273C26.9434 26.3731 27.0565 26.2849 27.2014 26.1719C27.774 25.7254 28.8422 24.8924 29.889 24.2526C30.4509 23.6805 30.9928 23.3299 31.2958 23.1476C31.8423 22.8189 32.3466 22.6133 32.5519 22.5305C32.5514 22.5307 32.5524 22.5302 32.5519 22.5305C33.1603 22.1262 33.9516 21.652 34.8885 21.2779C36.157 20.7715 37.4406 20.541 38.7769 20.5205C39.4846 20.1387 40.4361 19.7197 41.5906 19.4923C41.6041 19.4888 41.6511 19.4761 41.7443 19.4467C41.8848 19.4024 41.9535 19.3791 42.0495 19.3465C42.1423 19.3149 42.2606 19.2748 42.4939 19.1986C43.1087 18.998 44.3829 18.5891 45.9077 18.551C46.2801 18.5417 46.6837 18.5277 47.1135 18.5129ZM51.7447 40.7857C51.7445 40.7852 51.7497 40.7927 51.7612 40.8099C51.7507 40.7949 51.745 40.7863 51.7447 40.7857Z" fill="#FDEAD8"/>
<path fill-rule="evenodd" clip-rule="evenodd" d="M11.2073 43.6417C11.3052 43.6589 11.407 43.6799 11.5118 43.7054C11.5627 43.7613 11.6106 43.817 11.6559 43.8723C11.9365 44.2152 12.1121 44.5429 12.221 44.8005C12.2837 44.9489 12.3242 45.074 12.3498 45.1655C12.3544 45.1821 12.3586 45.1976 12.3623 45.2119C12.3529 45.2301 12.3429 45.2489 12.3323 45.2682C12.2068 45.3133 12.0774 45.3509 11.9454 45.3804C11.7135 45.4324 11.4736 45.4596 11.2332 45.4588C11.2097 45.4587 11.1866 45.4584 11.1639 45.4578M4.39423 36.0471C2.29477 37.4679 1.03155 39.5669 0.458319 41.8599C0.10315 43.2805 -0.279091 45.6833 0.292151 48.1069C0.595242 49.3928 1.27276 51.1188 2.81459 52.5479C3.63243 53.306 4.55022 53.8479 5.51124 54.2023C5.56736 54.2505 5.62471 54.2982 5.68334 54.3455C7.23681 55.5984 9.00223 55.9876 10.4685 55.9876C13.1687 55.9876 18.0279 55.3539 20.8731 51.0681C21.3678 50.526 21.8285 49.9144 22.224 49.2276C23.8441 46.4141 24.0305 42.823 21.9532 39.5588C21.0826 38.1906 20.0588 37.177 18.9778 36.4263C17.7735 35.2496 16.3253 34.2953 14.712 33.6903C12.4767 32.8521 10.0744 32.8073 7.83749 33.6992C6.40223 34.2715 5.26898 35.1342 4.39423 36.0471Z" fill="#BEBEBF"/>
<path fill-rule="evenodd" clip-rule="evenodd" d="M10.3693 19.773C10.1602 19.8725 9.98067 19.9618 9.83611 20.0369C8.16406 20.9064 6.69279 22.1544 5.66588 23.8628C4.65871 25.5383 4.33734 27.2278 4.25874 28.5726C4.18425 29.8472 4.3207 31.0362 4.41148 31.7799C4.43911 32.0062 4.4635 32.1999 4.48489 32.3699C4.55027 32.8892 4.58765 33.1861 4.60388 33.5106C4.77505 36.9341 7.68906 39.5706 11.1125 39.3994C11.282 39.3909 11.4496 39.3757 11.615 39.3541C12.1491 40.0466 13.0134 41.0716 14.0504 41.832C16.6897 43.7675 19.6207 43.414 20.6186 43.272C21.278 43.1783 21.882 43.0406 22.2404 42.9584C22.2968 42.9455 22.3464 42.9341 22.3911 42.9238C22.5156 42.8952 22.6021 42.8753 22.6917 42.8557C22.7785 42.8368 22.813 42.8306 22.813 42.8305C22.813 42.8305 22.8095 42.8311 22.8032 42.8321C25.3142 42.4356 27.5574 41.1403 29.0492 39.0022C30.4332 37.0187 30.8173 34.8243 30.8173 33.0612C30.8173 27.7226 28.0213 23.297 26.0141 20.5229C25.2544 19.4113 24.0567 18.1579 22.2292 17.4726C19.4413 16.4271 14.4705 15.866 10.7045 19.4338C10.5869 19.5452 10.4753 19.6584 10.3693 19.773Z" fill="#BEBEBF"/>
<path fill-rule="evenodd" clip-rule="evenodd" d="M18.4355 25.562C18.6948 26.6828 19.1293 27.9046 19.8641 29.05L19.8922 29.0939C20.7653 30.4552 22.2016 32.6944 24.4029 34.2901C27.0503 36.2092 30.1738 36.8286 33.5846 36.2785C38.4975 35.4861 42.6981 31.4351 43.0915 25.9274C43.1995 24.4159 43.1659 22.6479 43.1407 21.3205C43.1317 20.8453 43.1237 20.4266 43.1237 20.0964C43.1237 16.2498 41.1142 13.5049 40.3604 12.4753C40.2599 12.338 40.1817 12.2312 40.1336 12.1563C39.0674 10.4978 37.506 8.56929 35.0716 7.38955C32.5123 6.14927 29.9017 6.16641 27.5988 6.64054C27.4077 6.67988 27.1927 6.72237 26.9575 6.76886C25.1834 7.1195 22.259 7.6975 19.7537 8.86833C16.5826 10.3503 12.9303 13.3243 12.4043 18.7592C12.0741 22.171 14.5723 25.2044 17.9841 25.5346C18.1353 25.5492 18.2859 25.5583 18.4355 25.562Z" fill="#BEBEBF"/>
<path fill-rule="evenodd" clip-rule="evenodd" d="M52.8789 1.97559C46.7221 -1.09583 39.807 -0.513223 33.8906 3.21733C30.9911 5.04556 30.1227 8.87811 31.951 11.7776C32.701 12.9671 33.7884 13.8147 35.0103 14.2746C34.6084 16.7313 34.8665 18.9894 35.1682 20.732C36.0075 25.5799 39.7631 28.5002 42.3864 30.0099C45.2281 31.6454 48.4478 32.6327 50.959 33.0116C54.12 33.4886 56.6476 31.9442 57.6703 31.25C58.9713 30.3669 60.0456 29.3074 60.7398 28.5011C61.68 27.4091 62.6703 26.081 63.3193 24.3534C63.9727 22.6141 64.0955 20.9631 64.0955 19.5218C64.0955 13.9665 61.7003 9.13102 58.0216 5.61061C57.6305 5.01963 57.1449 4.41413 56.5371 3.86186C55.4831 2.90435 54.234 2.26247 52.8789 1.97559Z" fill="#BEBEBF"/>
<path fill-rule="evenodd" clip-rule="evenodd" d="M71.7873 11.8247C71.7607 11.807 71.7339 11.7891 71.7068 11.771C70.4785 10.9517 68.6999 9.76544 66.6328 9.06197C64.2088 8.23708 61.6507 8.12927 58.8792 8.88513C55.5722 9.78703 53.6226 13.199 54.5244 16.5059C55.119 18.6858 56.8042 20.276 58.8311 20.8483C58.7555 21.81 58.7921 22.5941 58.8137 23.058C58.8196 23.1839 58.8244 23.2862 58.8255 23.3621C58.899 28.2828 62.4239 30.9362 64.1299 32.0329C65.758 33.0795 67.6496 33.5452 69.2747 33.632C70.7117 33.7087 73.0849 33.5437 75.2055 32.0355C76.0119 31.7706 76.8246 31.3345 77.5662 30.669C78.891 29.4802 79.4208 28.0655 79.637 27.1435C80.0221 25.5016 79.742 24.0257 79.6285 23.4681C79.3632 22.1648 78.8567 20.8926 78.7378 20.5939C78.7298 20.5741 78.7237 20.5585 78.7194 20.5475C78.3652 19.6424 77.8855 18.8908 77.4068 18.2869C77.2329 17.7101 77.0096 17.0923 76.7215 16.484C75.71 14.3487 73.9974 13.1755 73.248 12.691C72.838 12.426 72.4323 12.1955 72.1925 12.0594C72.1779 12.0511 72.1639 12.0431 72.1505 12.0355C72.0128 11.9572 71.929 11.9094 71.8579 11.8674C71.813 11.8408 71.7917 11.8275 71.7873 11.8247ZM69.893 21.64L69.4326 21.2947L69.893 21.64ZM64.1692 23.8126C64.1715 23.8142 64.1739 23.8158 64.1765 23.8176C64.1447 23.7973 64.1409 23.7931 64.1692 23.8126Z" fill="#BEBEBF"/>
<path fill-rule="evenodd" clip-rule="evenodd" d="M56.3773 47.1438C56.294 47.1451 56.1733 47.168 55.8816 47.2395C55.7249 47.2779 55.6597 47.3131 55.6339 47.3301C55.618 47.3405 55.5922 47.3588 55.5523 47.4247C55.5366 47.4508 55.5196 47.4793 55.5014 47.5099C55.3058 47.8387 54.9644 48.4127 54.3955 48.8152C54.3947 48.8159 54.3766 48.8305 54.3361 48.8742C54.3125 48.8996 54.2861 48.9295 54.2523 48.9689C54.2432 48.9794 54.2314 48.9932 54.2182 49.0086C54.1925 49.0386 54.1618 49.0745 54.137 49.103C53.9322 49.3385 53.6763 49.6013 53.3277 49.802C52.963 50.0121 52.5894 50.1024 52.2164 50.1419C51.3786 50.2304 50.7965 50.0383 50.2434 49.8326C49.9236 49.7137 49.6278 49.6474 49.2116 49.564C49.1989 49.5696 49.1846 49.5764 49.1692 49.5844C49.1148 49.6126 49.0594 49.6483 49.0123 49.6846C48.9688 49.7182 48.9496 49.739 48.9494 49.7389C48.9494 49.7388 48.9499 49.7383 48.9508 49.7372C48.8841 49.8171 48.8297 49.8926 48.7498 50.0033C48.7216 50.0424 48.6903 50.086 48.6541 50.1356C48.5318 50.3033 48.3644 50.5255 48.1445 50.7404C48.128 50.7566 48.1058 50.7804 48.0781 50.8102C47.8614 51.0429 47.3066 51.6388 46.4634 51.7831C45.968 51.8679 45.4868 51.7361 45.2004 51.6345C44.885 51.5227 44.5381 51.35 44.2675 51.1335C43.666 50.6523 43.4133 50.4733 43.0833 50.426C42.3943 50.3272 41.9158 49.6885 42.0146 48.9995C42.1134 48.3104 42.752 47.832 43.4411 47.9308C44.4996 48.0825 45.2553 48.692 45.7501 49.091C45.7803 49.1154 45.8096 49.139 45.838 49.1617C45.8391 49.1624 45.856 49.1741 45.8914 49.1927C45.9354 49.2159 45.9885 49.2395 46.0426 49.2586C46.0472 49.2603 46.0516 49.2618 46.056 49.2633C46.0784 49.2428 46.1067 49.2155 46.1443 49.1778C46.1682 49.1538 46.1911 49.1305 46.218 49.103C46.2278 49.093 46.2382 49.0825 46.2493 49.0712C46.2883 49.0314 46.3337 48.9855 46.3825 48.9378C46.4462 48.8756 46.5132 48.7933 46.6171 48.6506C46.6336 48.628 46.6524 48.6019 46.673 48.5732C46.7617 48.4499 46.8852 48.2781 47.0153 48.1222C47.2744 47.8117 47.6441 47.5355 48.0099 47.3461C48.3387 47.1758 48.9269 46.9377 49.5678 47.0646L49.5874 47.0685C50.0552 47.1612 50.5614 47.2614 51.1221 47.4699C51.5658 47.635 51.7026 47.6614 51.9514 47.635C52.0248 47.6273 52.0605 47.6185 52.0733 47.6148C52.0884 47.6032 52.1362 47.5624 52.2347 47.4491C52.2444 47.4379 52.2571 47.4228 52.2725 47.4045C52.384 47.2718 52.6368 46.9711 52.9396 46.7573C53.0429 46.6843 53.1237 46.5692 53.3956 46.1198C53.8763 45.3253 54.563 44.9672 55.2817 44.7911C55.2971 44.7874 55.3132 44.7834 55.3301 44.7792C55.5997 44.7125 56.0595 44.5987 56.5595 44.6281C56.8815 44.6471 57.1374 44.7316 57.3239 44.8075C57.4008 44.8389 57.4748 44.8727 57.5235 44.8949C57.5284 44.8971 57.5331 44.8993 57.5375 44.9013C57.5935 44.9268 57.6249 44.9407 57.6532 44.9519C58.1508 45.1487 58.6552 45.3395 59.1629 45.5266C59.1981 45.5396 59.2843 45.5596 59.5001 45.5261C59.6074 45.5094 59.7275 45.4829 59.8765 45.4458C59.9193 45.4352 59.9727 45.4215 60.0309 45.4066C60.1395 45.3788 60.2648 45.3467 60.3689 45.3221C60.4698 45.2983 60.5589 45.2781 60.6411 45.2594C60.7427 45.2363 60.8339 45.2156 60.9242 45.1934L60.9767 45.1038C61.0044 45.0569 61.0378 45.0015 61.0759 44.9419C61.1915 44.7616 61.3206 44.6204 61.4118 44.5262C61.4587 44.4778 61.5046 44.4328 61.54 44.3982L61.5527 44.3858C61.5848 44.3544 61.6078 44.3319 61.6302 44.3093C61.6371 44.3024 61.6431 44.2962 61.6484 44.2906C61.8648 43.7 62.4934 43.3509 63.1209 43.4989C63.7984 43.6588 64.2181 44.3376 64.0582 45.0151C63.9281 45.5666 63.5751 45.9276 63.422 46.0824C63.3836 46.1212 63.3444 46.1595 63.3141 46.1891L63.3022 46.2007C63.2671 46.235 63.243 46.2588 63.2223 46.2802C63.2048 46.2982 63.1948 46.3094 63.1902 46.3148C63.1682 46.3496 63.1499 46.3809 63.1232 46.4267C63.1105 46.4484 63.0959 46.4734 63.0781 46.5035C63.0289 46.5869 62.9509 46.7171 62.8486 46.8491C62.6088 47.1585 62.2643 47.4418 61.7571 47.5812C61.5519 47.6376 61.326 47.689 61.1379 47.7318C61.0686 47.7475 61.0045 47.7621 60.9483 47.7754C60.8968 47.7876 60.8295 47.8048 60.7517 47.8248C60.5145 47.8856 60.1786 47.9717 59.8868 48.017C59.451 48.0847 58.8851 48.1108 58.291 47.8918C57.7708 47.7 57.2469 47.502 56.7258 47.2958C56.6318 47.2586 56.5484 47.2207 56.4922 47.1951C56.431 47.1672 56.4026 47.1543 56.3773 47.1438Z" fill="#A58466"/>
<path fill-rule="evenodd" clip-rule="evenodd" d="M55.3202 42.6741C55.2369 42.6754 55.1162 42.6983 54.8244 42.7698C54.6677 42.8082 54.6026 42.8434 54.5768 42.8604C54.5608 42.8708 54.5351 42.8891 54.4952 42.955C54.4794 42.981 54.4625 43.0096 54.4442 43.0402C54.2487 43.3689 53.9073 43.943 53.3383 44.3454C53.3375 44.3462 53.3194 44.3608 53.2789 44.4045C53.2554 44.4299 53.229 44.4598 53.1951 44.4991C53.1861 44.5096 53.1742 44.5235 53.161 44.5389C53.1354 44.5689 53.1047 44.6048 53.0799 44.6333C52.8751 44.8688 52.6191 45.1316 52.2706 45.3323C51.9058 45.5423 51.5323 45.6327 51.1593 45.6721C50.3215 45.7607 49.7394 45.5686 49.1862 45.3629C48.8665 45.2439 48.5707 45.1776 48.1545 45.0942C48.1417 45.0999 48.1275 45.1067 48.112 45.1147C48.0576 45.1429 48.0023 45.1786 47.9552 45.2149C47.9117 45.2484 47.8924 45.2692 47.8923 45.2691C47.8923 45.2691 47.8928 45.2686 47.8937 45.2674C47.827 45.3474 47.7725 45.4229 47.6927 45.5336C47.6645 45.5727 47.6332 45.6162 47.597 45.6659C47.4747 45.8336 47.3073 46.0558 47.0874 46.2707C47.0709 46.2869 47.0487 46.3107 47.0209 46.3405C46.8043 46.5732 46.2495 47.169 45.4063 47.3133C44.9108 47.3981 44.4296 47.2663 44.1432 47.1648C43.8278 47.053 43.4809 46.8803 43.2104 46.6638C42.6089 46.1825 42.3562 46.0036 42.0262 45.9563C41.3371 45.8575 40.8586 45.2188 40.9574 44.5298C41.0562 43.8407 41.6949 43.3622 42.3839 43.461C43.4424 43.6128 44.1982 44.2223 44.693 44.6213C44.7232 44.6457 44.7525 44.6693 44.7808 44.692C44.782 44.6926 44.7989 44.7044 44.8343 44.723C44.8782 44.7461 44.9314 44.7697 44.9855 44.7889C44.9901 44.7905 44.9945 44.7921 44.9989 44.7936C45.0213 44.773 45.0496 44.7457 45.0871 44.7081C45.1111 44.6841 45.1339 44.6608 45.1609 44.6333C45.1707 44.6233 45.181 44.6127 45.1922 44.6014C45.2312 44.5617 45.2766 44.5157 45.3254 44.4681C45.389 44.4058 45.456 44.3235 45.56 44.1809C45.5765 44.1583 45.5953 44.1322 45.6159 44.1035C45.7046 43.9801 45.8281 43.8084 45.9582 43.6525C46.2173 43.342 46.587 43.0658 46.9528 42.8763C47.2815 42.7061 47.8697 42.468 48.5107 42.5949L48.5303 42.5988C48.9981 42.6914 49.5043 42.7917 50.065 43.0002C50.5087 43.1652 50.6454 43.1916 50.8943 43.1653C50.9677 43.1576 51.0034 43.1488 51.0162 43.1451C51.0312 43.1335 51.079 43.0927 51.1775 42.9794C51.1873 42.9681 51.2 42.953 51.2154 42.9347C51.3269 42.8021 51.5797 42.5014 51.8824 42.2876C51.9858 42.2146 52.0666 42.0994 52.3385 41.6501C52.8192 40.8556 53.5059 40.4975 54.2246 40.3214C54.2399 40.3176 54.2561 40.3136 54.2729 40.3095C54.5426 40.2428 55.0023 40.129 55.5024 40.1584C55.8244 40.1773 56.0803 40.2619 56.2667 40.3378C56.3437 40.3691 56.4177 40.4029 56.4663 40.4251C56.4713 40.4274 56.476 40.4295 56.4804 40.4315C56.5363 40.457 56.5678 40.4709 56.5961 40.4821C57.0936 40.679 57.5981 40.8697 58.1057 41.0569C58.141 41.0699 58.2272 41.0899 58.443 41.0564C58.5502 41.0397 58.6704 41.0131 58.8193 40.9761C58.8621 40.9655 58.9155 40.9518 58.9737 40.9369C59.0824 40.9091 59.2077 40.877 59.3118 40.8524C59.4127 40.8286 59.5018 40.8083 59.584 40.7897C59.6856 40.7666 59.7767 40.7459 59.8671 40.7236L59.9196 40.634C59.9473 40.5872 59.9807 40.5317 60.0188 40.4722C60.1344 40.2918 60.2635 40.1506 60.3547 40.0564C60.4016 40.008 60.4475 39.963 60.4828 39.9285L60.4956 39.9161C60.5276 39.8847 60.5507 39.8622 60.5731 39.8395C60.5799 39.8326 60.586 39.8264 60.5913 39.8209C60.8076 39.2302 61.4363 38.8811 62.0638 39.0292C62.7413 39.1891 63.1609 39.8679 63.0011 40.5454C62.8709 41.0968 62.518 41.4579 62.3649 41.6126C62.3264 41.6515 62.2873 41.6897 62.257 41.7193L62.2451 41.731C62.21 41.7652 62.1859 41.7891 62.1651 41.8105C62.1477 41.8285 62.1377 41.8397 62.133 41.8451C62.1111 41.8798 62.0928 41.9112 62.0661 41.957C62.0534 41.9787 62.0388 42.0036 62.021 42.0338C61.9718 42.1172 61.8937 42.2474 61.7915 42.3793C61.5516 42.6888 61.2071 42.972 60.6999 43.1115C60.4948 43.1679 60.2689 43.2192 60.0808 43.262C60.0115 43.2778 59.9473 43.2924 59.8912 43.3057C59.8396 43.3178 59.7724 43.3351 59.6945 43.355C59.4573 43.4159 59.1215 43.502 58.8297 43.5473C58.3938 43.615 57.8279 43.6411 57.2338 43.422C56.7137 43.2303 56.1898 43.0323 55.6687 42.8261C55.5747 42.7889 55.4913 42.751 55.4351 42.7254C55.3739 42.6975 55.3455 42.6845 55.3202 42.6741Z" fill="#A58466"/>
<path fill-rule="evenodd" clip-rule="evenodd" d="M46.2932 54.3152C46.3568 54.3097 46.4038 54.3056 46.5138 54.2881C46.854 54.2341 47.1728 54.2104 47.4177 54.1922C47.4399 54.1906 47.4614 54.189 47.4823 54.1874C47.7624 54.1663 47.9092 54.1505 48.0161 54.1252C48.6572 53.9738 49.6231 53.8774 50.5019 54.3616C50.5783 54.4037 50.6541 54.435 50.8042 54.4971C50.8308 54.508 50.8597 54.52 50.8914 54.5331C51.0726 54.6084 51.3429 54.7234 51.6146 54.9055C51.9642 55.1398 52.2234 55.3749 52.4595 55.5907C52.5289 55.6542 52.5828 55.6911 52.6856 55.7616C52.7451 55.8024 52.8209 55.8544 52.9255 55.9293C53.1629 56.099 53.499 56.3605 53.7706 56.7774C54.1618 57.3778 54.2996 57.9656 54.4059 58.4186C54.4116 58.4428 54.4172 58.4667 54.4227 58.4902C54.5191 58.8981 54.663 59.5729 54.6236 60.1982C54.5779 60.9248 54.3473 61.6131 54.1765 62.1226C54.1357 62.2443 54.0984 62.3557 54.0678 62.455C54.0614 62.4758 54.0548 62.4971 54.0482 62.5188C53.8365 63.2084 53.4841 64.3562 52.538 65.1222C52.4868 65.1637 52.4267 65.2281 52.2845 65.3956C52.2773 65.4041 52.2697 65.413 52.2618 65.4223C52.1432 65.5624 51.9512 65.7893 51.7143 65.987C51.5748 66.1035 51.4402 66.1755 51.3492 66.2187C51.336 66.225 51.3232 66.2309 51.3111 66.2363C51.0045 66.5228 50.6487 66.6732 50.4089 66.7489C49.6553 66.9868 48.5517 67.3094 47.488 67.2425C47.3997 67.237 47.3485 67.2378 47.2712 67.239C47.2078 67.24 47.1269 67.2413 46.9936 67.2396C46.76 67.2365 46.4429 67.2189 46.0888 67.1116C45.904 67.0556 45.7286 66.9927 45.5808 66.939C45.5603 66.9315 45.5404 66.9243 45.521 66.9172C45.3917 66.8702 45.285 66.8313 45.1775 66.7961C44.4647 66.5625 43.9767 66.0874 43.6589 65.7463C43.5139 65.5906 43.4063 65.4684 43.3171 65.3671C43.1653 65.1947 43.0665 65.0825 42.9269 64.9684C42.434 64.5655 42.1532 64.0036 42.0076 63.6955C41.99 63.6583 41.966 63.6104 41.9377 63.5539C41.8035 63.2857 41.5723 62.8237 41.4635 62.3855C41.3411 61.8919 41.2635 61.3823 41.2546 60.8456C41.2493 60.5266 41.3044 60.262 41.3557 60.0649C41.3758 59.9877 41.3986 59.9094 41.4156 59.8512C41.4187 59.8406 41.4216 59.8306 41.4242 59.8214C41.443 59.7567 41.4558 59.7105 41.466 59.668C41.4666 59.6635 41.4682 59.6494 41.4695 59.622C41.4716 59.5802 41.4719 59.5447 41.4724 59.4875C41.4726 59.4612 41.4728 59.4303 41.4733 59.3921L41.4734 59.3862C41.4758 59.1997 41.4807 58.8116 41.639 58.4104C41.7729 58.0711 41.897 57.7263 42.0178 57.3696C42.2344 56.7304 42.6653 56.2913 42.9731 56.0121C43.0964 55.9003 43.2298 55.7888 43.3376 55.6986C43.3647 55.6759 43.3903 55.6545 43.4136 55.6349C43.5447 55.5244 43.6331 55.446 43.7 55.3767C44.0412 55.0238 44.4051 54.8548 44.6823 54.7522C44.767 54.7208 44.8713 54.6864 44.941 54.6634C44.9633 54.656 44.982 54.6498 44.9954 54.6453C45.0739 54.6187 45.1212 54.6004 45.1592 54.5827C45.4865 54.4299 45.7842 54.375 46.0134 54.3456C46.1621 54.3266 46.2346 54.3203 46.2932 54.3152ZM51.1787 66.2921C51.1787 66.2921 51.18 66.2916 51.1826 66.2904C51.1801 66.2916 51.1787 66.2922 51.1787 66.2921ZM46.2257 56.8667L46.2256 56.8668C46.0639 56.9423 45.9156 56.9951 45.8032 57.0331C45.7487 57.0516 45.7096 57.0644 45.6777 57.0749C45.6304 57.0904 45.5992 57.1007 45.5575 57.1161C45.5291 57.1267 45.5123 57.1339 45.5034 57.1381C45.3432 57.3027 45.1739 57.448 45.0377 57.5627C45 57.5945 44.9651 57.6237 44.9322 57.6512C44.8308 57.7361 44.749 57.8047 44.6666 57.8794C44.4476 58.078 44.4109 58.1618 44.4053 58.1785C44.279 58.5511 44.1455 58.9236 43.9988 59.2977C43.9973 59.3161 43.9948 59.3553 43.9939 59.4242C43.9937 59.4366 43.9936 59.4518 43.9935 59.4692C43.9929 59.54 43.9921 59.6473 43.9873 59.7446C43.9809 59.8771 43.9657 60.0508 43.9208 60.241C43.8951 60.35 43.8671 60.4481 43.8455 60.5227C43.841 60.5382 43.8369 60.5524 43.8331 60.5655C43.8164 60.623 43.8054 60.6609 43.795 60.7005C43.7742 60.7805 43.7749 60.8008 43.775 60.8036C43.775 60.8037 43.775 60.8037 43.775 60.8038C43.7803 61.1207 43.8259 61.4392 43.9101 61.7782C43.9457 61.9217 44.0057 62.0433 44.1135 62.2617C44.1612 62.3582 44.2182 62.4736 44.2866 62.6183C44.3462 62.7445 44.3989 62.8433 44.4489 62.9202C44.4961 62.9926 44.5229 63.0171 44.5228 63.0172C44.5228 63.0172 44.5226 63.017 44.5222 63.0166C44.7485 63.2016 44.9404 63.4026 45.0942 63.5718C45.1825 63.6689 45.2441 63.7388 45.2997 63.8019C45.3647 63.8758 45.4215 63.9402 45.5033 64.028C45.7554 64.2986 45.8814 64.3741 45.9623 64.4006C46.112 64.4497 46.2607 64.5039 46.3869 64.5498C46.4056 64.5566 46.4239 64.5633 46.4415 64.5697C46.5874 64.6227 46.7064 64.6648 46.8196 64.6991C46.8469 64.7074 46.8946 64.7173 47.0263 64.719C47.0763 64.7196 47.1195 64.7192 47.1755 64.7187C47.2053 64.7185 47.2388 64.7182 47.2788 64.718C47.3803 64.7174 47.5075 64.718 47.6462 64.7267C48.1807 64.7603 48.8631 64.5925 49.6249 64.353C49.8347 64.1375 50.0614 64.0283 50.174 63.9799C50.2176 63.9339 50.2747 63.868 50.3628 63.7642C50.3673 63.7589 50.372 63.7534 50.3767 63.7478C50.4996 63.6029 50.6989 63.3679 50.9517 63.1632C51.2365 62.9326 51.4096 62.5216 51.6587 61.7129C51.7268 61.4919 51.7885 61.3052 51.8428 61.1406C51.9906 60.6934 52.0847 60.4086 52.1078 60.0399C52.1214 59.8248 52.0652 59.4749 51.9694 59.0696C51.8472 58.5518 51.7944 58.362 51.6586 58.1535C51.6439 58.1311 51.611 58.0883 51.4592 57.9797C51.421 57.9523 51.3805 57.9244 51.3303 57.8898L51.3216 57.8838C51.2759 57.8524 51.2216 57.815 51.1669 57.7761C51.0493 57.6926 50.9052 57.5852 50.7589 57.4515C50.5269 57.2394 50.3891 57.1187 50.2111 56.9994C50.1608 56.9657 50.0888 56.9294 49.9246 56.8612C49.9067 56.8537 49.8866 56.8455 49.8647 56.8365C49.7211 56.7778 49.4977 56.6863 49.2856 56.5695C49.2158 56.5311 49.0006 56.4828 48.5955 56.5785C48.2667 56.6562 47.9263 56.6818 47.6731 56.7009L47.6719 56.701C47.6544 56.7023 47.637 56.7036 47.6198 56.7049C47.3613 56.7243 47.1414 56.7409 46.909 56.7777C46.7744 56.7991 46.6537 56.8123 46.5576 56.8222C46.529 56.8251 46.5041 56.8276 46.4817 56.8299C46.4206 56.836 46.3787 56.8402 46.3341 56.8459C46.2814 56.8527 46.2554 56.8581 46.2417 56.8616C46.2309 56.8643 46.2275 56.8659 46.2257 56.8667ZM45.4947 57.1425C45.4945 57.1426 45.4954 57.142 45.4976 57.1409C45.4958 57.142 45.4948 57.1425 45.4947 57.1425Z" fill="#A58466"/>
<path fill-rule="evenodd" clip-rule="evenodd" d="M52.9615 59.954C52.81 59.2746 53.2379 58.601 53.9173 58.4495C54.3462 58.3538 54.7613 58.3325 55.0647 58.317C55.0789 58.3163 55.0929 58.3156 55.1066 58.3149C55.4464 58.2973 55.6592 58.2823 55.8544 58.2362L59.0021 57.4928C59.6795 57.3328 60.3584 57.7523 60.5184 58.4298C60.6784 59.1072 60.2589 59.7861 59.5815 59.9461L56.4338 60.6895C55.9948 60.7932 55.5702 60.8151 55.261 60.831C55.2529 60.8314 55.2448 60.8318 55.2369 60.8323C54.8925 60.8501 54.673 60.8636 54.466 60.9098C53.7866 61.0613 53.113 60.6334 52.9615 59.954Z" fill="#A58466"/>
<path fill-rule="evenodd" clip-rule="evenodd" d="M63.4673 49.8192C63.6415 49.7908 63.7672 49.7704 63.9171 49.735C63.9285 49.7323 63.9427 49.7289 63.959 49.7249C64.0498 49.703 64.2096 49.6643 64.3649 49.6376C64.5313 49.609 64.8417 49.5645 65.1716 49.6221C65.1716 49.6221 65.1818 49.6238 65.2098 49.6259C65.2394 49.6281 65.2695 49.6295 65.3219 49.6319L65.3479 49.6331C65.4527 49.6378 65.6496 49.6468 65.8607 49.6907C66.153 49.7513 66.4013 49.8684 66.5245 49.9265C66.5298 49.9289 66.5348 49.9313 66.5396 49.9335C66.6925 50.0054 66.7121 50.0114 66.7121 50.0115C66.7121 50.0115 66.7122 50.0115 66.7121 50.0115C67.4137 50.1893 68.0613 50.5035 68.625 50.8707C68.9855 51.1054 69.3037 51.3746 69.5582 51.5899C69.5754 51.6044 69.5923 51.6187 69.6088 51.6327C69.6674 51.6821 69.7133 51.7157 69.7834 51.7669C69.833 51.8031 69.8946 51.848 69.9812 51.9137C70.1444 52.0373 70.3837 52.2274 70.5925 52.4867C71.0682 53.0773 71.1754 53.7315 71.2381 54.1137C71.2396 54.1228 71.241 54.1316 71.2425 54.1404C71.2627 54.263 71.2882 54.3879 71.3194 54.5367C71.3217 54.5478 71.3241 54.5591 71.3265 54.5706C71.3545 54.7043 71.3874 54.8609 71.415 55.0199C71.4764 55.3724 71.5257 55.8037 71.4679 56.2889C71.4523 56.4199 71.4513 56.5714 71.4572 56.7979C71.4579 56.8261 71.4588 56.8563 71.4597 56.888C71.4653 57.082 71.4727 57.3371 71.4595 57.5888C71.4345 58.065 71.3689 58.5303 71.2844 58.9699C71.1984 59.4172 71.0697 59.863 70.9077 60.2845C70.9077 60.2845 70.906 60.2893 70.9023 60.3009C70.8978 60.3149 70.8923 60.3331 70.8845 60.36C70.8821 60.3682 70.8792 60.3782 70.8759 60.3898C70.862 60.4381 70.8407 60.512 70.8192 60.5794C70.7698 60.7343 70.6594 61.0615 70.4085 61.3543C69.7548 62.1172 69.0569 62.4772 68.3109 62.7698C67.2501 63.1859 66.2501 63.3497 65.1557 63.3604C64.1811 63.37 63.4236 63.1467 62.6386 62.8229C62.1947 62.6397 61.8501 62.3817 61.5891 62.1632C61.4762 62.0687 61.3663 61.9705 61.2735 61.8877C61.2608 61.8763 61.2484 61.8652 61.2364 61.8545C61.1298 61.7594 61.0426 61.6828 60.9572 61.6141C60.7262 61.428 60.4785 61.155 60.3556 61.0195C60.3274 60.9884 60.3058 60.9645 60.2924 60.9506C60.231 60.8867 60.1751 60.8341 60.0985 60.7621C60.0614 60.7271 60.0193 60.6876 59.9694 60.64C59.8369 60.5135 59.6648 60.3436 59.5027 60.1355C59.2898 59.8622 59.1511 59.5693 59.0685 59.3947L59.0601 59.3769C58.9644 59.175 58.9274 59.0968 58.8842 59.0316C58.5988 58.6016 58.4347 58.0939 58.3394 57.799C58.3308 57.7724 58.3228 57.7475 58.3152 57.7246C58.0222 56.8309 57.9028 55.6522 58.1393 54.6499C58.4204 53.4584 59.0091 52.4535 59.7743 51.5979C60.1191 51.2125 60.4587 50.8483 61.0979 50.5123C61.6324 50.2313 62.1441 50.1082 62.5888 50.0012C62.6536 49.9856 62.7169 49.9704 62.7787 49.955C63.0488 49.888 63.2703 49.8513 63.4511 49.8218L63.4673 49.8192ZM63.8564 52.3098C63.6859 52.3376 63.55 52.3609 63.386 52.4016C63.3097 52.4205 63.2395 52.4378 63.1745 52.4537C62.7062 52.5689 62.5126 52.6165 62.2709 52.7435C62.0387 52.8656 61.9414 52.9562 61.6532 53.2784C61.1188 53.8759 60.7615 54.5135 60.5927 55.2288C60.483 55.6933 60.5317 56.3937 60.7106 56.9392C60.8388 57.3303 60.9034 57.5156 60.9845 57.6377C61.1357 57.8655 61.2522 58.1142 61.3232 58.2658C61.3317 58.284 61.3396 58.3008 61.3468 58.316C61.4332 58.4985 61.469 58.5577 61.4915 58.5866C61.5368 58.6447 61.6004 58.712 61.71 58.8166C61.7304 58.8361 61.7551 58.8594 61.7828 58.8853C61.8755 58.9725 62.0011 59.0907 62.1098 59.2038C62.2338 59.3328 62.308 59.4155 62.3619 59.4756C62.4331 59.555 62.469 59.595 62.538 59.6506C62.6777 59.763 62.8065 59.8772 62.9142 59.9732C62.9277 59.9852 62.9407 59.9969 62.9534 60.0082C63.0495 60.0939 63.1275 60.1636 63.2071 60.2303C63.3833 60.3777 63.4995 60.4512 63.5999 60.4926C64.2026 60.7412 64.6115 60.8449 65.1308 60.8398C65.9618 60.8316 66.6526 60.7125 67.3904 60.4231C67.8926 60.2261 68.1664 60.0691 68.4241 59.7928C68.4309 59.7707 68.4373 59.7483 68.4463 59.7173C68.4513 59.6999 68.4571 59.6798 68.4641 59.6555C68.483 59.5906 68.5135 59.4875 68.5546 59.3806C68.6647 59.0943 68.7518 58.7916 68.8089 58.4942C68.8773 58.1381 68.9247 57.7905 68.9422 57.4566C68.9496 57.3154 68.9458 57.1755 68.9403 56.9775C68.9393 56.9414 68.9383 56.9034 68.9373 56.863C68.9312 56.6275 68.9259 56.3176 68.9648 55.9907C68.9818 55.8481 68.9726 55.6875 68.9316 55.4523C68.9117 55.3376 68.8873 55.2214 68.8573 55.0781L68.8521 55.0532C68.8213 54.9062 68.7852 54.7325 68.7551 54.5496C68.6879 54.1412 68.6528 54.097 68.6293 54.0679C68.6205 54.0569 68.5835 54.0172 68.4592 53.9231C68.419 53.8926 68.3851 53.8677 68.3447 53.8381C68.318 53.8185 68.2886 53.7969 68.2526 53.7702C68.1747 53.7125 68.079 53.6402 67.9823 53.5585L67.9726 53.5503C67.6837 53.3063 67.4746 53.1297 67.2493 52.983C66.867 52.734 66.4726 52.5512 66.0926 52.4549C65.8357 52.3898 65.6068 52.2811 65.4943 52.2277C65.4844 52.2229 65.4753 52.2186 65.4672 52.2148C65.3889 52.178 65.3527 52.1631 65.3403 52.158C65.3267 52.1567 65.2938 52.154 65.222 52.1507C65.2149 52.1504 65.2069 52.15 65.1983 52.1497C65.1174 52.1461 64.9737 52.1399 64.8176 52.1178C64.8104 52.1189 64.8021 52.1202 64.7925 52.1218C64.7576 52.1279 64.7158 52.1365 64.6643 52.1484C64.6388 52.1542 64.6129 52.1604 64.5847 52.1671L64.4965 52.1882C64.2577 52.2447 64.0528 52.2779 63.8893 52.3045C63.8781 52.3063 63.8672 52.3081 63.8564 52.3098Z" fill="#A58466"/>
<path fill-rule="evenodd" clip-rule="evenodd" d="M61.3106 64.1611C61.8187 64.0411 62.3279 64.3557 62.4479 64.8638C62.5466 65.2819 62.4845 65.7106 62.3796 66.0448C62.2745 66.3797 62.0842 66.7539 61.7887 67.033C61.684 67.1318 61.6 67.2316 61.4817 67.372C61.4393 67.4223 61.3926 67.4778 61.3389 67.5403C61.1588 67.7502 60.9137 68.0205 60.5794 68.2419C60.0995 68.5597 59.5404 68.681 59.1855 68.758C59.1288 68.7703 59.0774 68.7814 59.0323 68.7921C58.9668 68.8076 58.8976 68.825 58.8249 68.8433C58.2715 68.9827 57.5165 69.1728 56.6637 68.9347C56.3102 68.836 55.9356 68.6576 55.607 68.4243C55.2851 68.1958 54.9379 67.8652 54.7303 67.4276C54.5065 66.9559 54.7075 66.3921 55.1791 66.1683C55.6508 65.9446 56.2146 66.1455 56.4384 66.6172C56.4601 66.6628 56.5357 66.765 56.7014 66.8827C56.8602 66.9954 57.0378 67.0763 57.172 67.1138C57.5183 67.2104 57.7739 67.1492 58.3774 67.0046C58.4461 66.9882 58.5194 66.9706 58.5977 66.9521C58.6892 66.9305 58.7709 66.9118 58.8446 66.8949C59.2041 66.8123 59.3723 66.7738 59.5355 66.6656C59.6425 66.5948 59.7486 66.4904 59.9042 66.3091C59.93 66.279 59.959 66.2445 59.9907 66.2067C60.121 66.0515 60.2972 65.8415 60.4876 65.6613C60.4889 65.6596 60.4997 65.6469 60.5157 65.619C60.5368 65.5822 60.5585 65.5337 60.5759 65.4785C60.5932 65.4232 60.6025 65.3727 60.6057 65.3336C60.6077 65.3092 60.6067 65.2956 60.6065 65.292C60.4906 64.7861 60.8047 64.2806 61.3106 64.1611Z" fill="#A58466"/>
<path fill-rule="evenodd" clip-rule="evenodd" d="M22.5496 48.4486C21.9515 47.606 20.9635 46.5947 19.4112 46.0181C17.868 45.4449 14.6226 44.9086 11.8809 47.1816C10.9278 47.7408 9.99431 48.5592 9.29669 49.7088C8.52471 50.981 8.30374 52.2282 8.25198 53.1053C8.20556 53.8921 8.28949 54.5712 8.32011 54.8191C8.32082 54.8248 8.3215 54.8303 8.32215 54.8356C8.3432 55.0064 8.3524 55.0812 8.35567 55.1042C8.52569 57.7539 10.3402 59.9173 12.751 60.647C12.8067 60.6903 12.8638 60.7333 12.922 60.7756C14.0976 61.6295 15.3006 61.9237 16.1461 62.0191C16.9651 62.1115 17.6447 62.0406 18.0266 61.9868C18.4044 61.9336 18.7293 61.8597 18.8469 61.833L18.8588 61.8303C18.8719 61.8273 18.8837 61.8246 18.8942 61.8223C20.6352 61.5096 22.3185 60.5589 23.4658 58.93C24.5433 57.4002 24.7884 55.7887 24.7884 54.6647C24.7884 51.6522 23.2393 49.3912 22.5496 48.4486ZM20.6357 53.2608C20.636 53.2614 20.6375 53.2743 20.6395 53.2976C20.6365 53.2719 20.6355 53.2602 20.6357 53.2608Z" fill="#BEBEBF"/>
<path d="M12.107 41.8413C11.7789 42.7861 11.508 43.7263 11.4411 44.729C11.4329 44.8517 11.4032 45.814 11.3789 45.7994C11.1879 45.6848 11.24 43.9398 11.3789 43.6897C11.7542 43.0142 11.995 44.7001 11.995 44.8908C11.995 45.0362 12.0565 45.9074 11.7959 45.9363C11.7608 45.9402 11.771 45.1629 11.771 45.0899" stroke="#BEBEBF" stroke-linecap="round"/>
</svg>
