<svg width="104" height="100" viewBox="0 0 104 100" fill="none" xmlns="http://www.w3.org/2000/svg">
<path fill-rule="evenodd" clip-rule="evenodd" d="M34.2784 96.7824C33.0764 96.4248 31.7986 95.9194 30.5236 95.1988C28.8072 94.2286 27.4265 93.0757 26.619 92.3796C25.9899 91.8372 25.6994 91.5741 25.4907 91.3851C25.2904 91.2037 25.1654 91.0905 24.8884 90.8639C24.1147 90.2308 23.2509 89.5414 22.3312 88.8074L22.3301 88.8065L22.33 88.8064C19.5632 86.5982 16.2911 83.9867 13.4483 81.2955C11.1544 79.1239 9.306 76.6004 7.96747 73.5267C7.89909 73.3697 7.74657 73.0761 7.18639 72.1795C7.13806 72.1021 7.08371 72.0158 7.0242 71.9212L7.02325 71.9197L7.02318 71.9196C6.54267 71.156 5.72682 69.8595 5.03128 68.4684C3.89866 66.2032 2.98962 63.5881 2.42346 61.9594C2.32416 61.6737 2.2354 61.4184 2.15784 61.2006C1.4076 59.0941 1.23418 57.2224 1.16834 56.1C1.14169 55.6458 1.12761 55.178 1.11952 54.9094L1.11645 54.8088L1.10556 54.7735C1.02732 54.5201 0.872496 54.0187 0.736145 53.504C0.571757 52.8834 0.376309 52.0395 0.253739 51.0467C-0.105833 48.1342 0.00343683 44.4311 0.0651292 42.3404L0.0651318 42.3403C0.081514 41.7851 0.0945408 41.3436 0.0945408 41.0608C0.0945408 40.3477 0.0812543 39.4904 0.0665893 38.5441L0.0665888 38.5441C0.0287206 36.1005 -0.018339 33.0639 0.130457 30.3856C0.329559 26.8017 1.341 22.9149 1.92686 20.6635L1.92687 20.6634C2.0531 20.1783 2.15958 19.7691 2.23391 19.4553C2.91805 16.5667 4.13895 13.919 6.06436 11.5585C7.84497 9.37547 9.87292 7.89094 11.3701 6.88037C12.6671 6.00486 13.5052 5.47969 14.1766 5.059L14.1766 5.05897L14.1766 5.05897C14.995 4.54616 15.5656 4.18861 16.4177 3.54103C19.899 0.895203 23.7229 0.352333 25.7049 0.177402C27.311 0.0356466 29.3875 0.061946 30.0859 0.0707929L30.0861 0.0707956C30.1993 0.0722283 30.2762 0.0732027 30.3091 0.0729284L30.3089 0.0729298C30.3089 0.0729288 30.3167 0.07285 30.3337 0.0724279L30.4153 0.0698386C30.4935 0.0669758 30.5883 0.0627353 30.7304 0.0559369L30.82 0.0516076C31.0733 0.0393005 31.4818 0.0194596 31.8927 0.00907274C32.7504 -0.0126077 34.4693 -0.0305096 36.3927 0.396899C40.1583 1.23372 42.7039 3.42976 43.6842 4.29932C44.1696 4.72983 44.6525 5.19611 44.9121 5.44679L44.9121 5.44682L45.0169 5.54783C45.1581 5.68351 45.2365 5.75633 45.2696 5.78705C45.5131 5.97736 45.8482 6.21682 46.4522 6.63556L46.6223 6.75329C47.1864 7.14363 48.0031 7.70869 48.8002 8.31868C50.5584 9.66401 53.2735 11.9876 55.1075 15.6557C55.3614 16.1634 55.5971 16.6818 55.8158 17.2029C59.0112 13.9132 63.1691 10.801 68.5217 9.26288C73.4126 7.85744 77.7595 9.26502 79.646 9.94073C80.727 10.3279 81.7358 10.7647 82.3824 11.0446L82.4417 11.0703C83.2371 11.4146 83.4995 11.5231 83.6561 11.5782C87.3261 12.8705 89.834 15.2724 91.1092 16.5918C91.8211 17.3283 92.4487 18.0547 92.8777 18.5533L93.0156 18.7136C93.4261 19.1909 93.6173 19.4131 93.7921 19.6003C93.8916 19.7069 94.0246 19.8453 94.1845 20.0116C95.1493 21.0154 97.0906 23.0353 98.5314 25.1965C100.232 27.7479 100.825 30.237 101.076 31.3011C101.161 31.6589 101.201 31.8382 101.227 31.9509L101.243 32.0244C102.237 34.1958 103.764 37.7949 103.764 42.3773C103.764 50.2773 102.549 57.5534 100.251 64.9384C98.339 71.0843 94.9846 78.8742 87.0579 84.1586C86.3874 84.6056 85.558 85.1889 84.6184 85.8496C81.9076 87.7559 78.2803 90.3068 74.9099 92.0883C74.7019 92.1982 74.5685 92.2897 74.1365 92.5859L74.1361 92.5862C73.8622 92.7741 73.4682 93.0443 72.8591 93.4537C71.7312 94.2118 69.5692 95.6401 66.8339 96.5225C65.3226 97.01 63.7918 97.542 62.3257 98.0918C59.2257 99.2543 55.5967 99.6036 52.3553 99.3915C50.7287 99.7657 48.97 100 47.1196 100C45.3315 100 43.1819 99.9031 40.9145 99.4965C41.3648 99.5773 39.9069 99.3511 38.8671 99.0613C38.2208 98.8811 37.1933 98.5502 36.0579 97.9402C35.551 97.6678 34.9327 97.2917 34.2784 96.7824Z" fill="#FFE5A3"/>
<path fill-rule="evenodd" clip-rule="evenodd" d="M56.5869 40.438C56.4655 40.4113 56.2823 40.4031 55.8341 40.4069C55.5933 40.4089 55.4866 40.4377 55.4433 40.4535C55.4166 40.4632 55.3729 40.4809 55.2923 40.5629C55.2605 40.5954 55.2261 40.631 55.1891 40.6692C54.7924 41.0796 54.0996 41.7962 53.1352 42.1856C53.1338 42.1864 53.1025 42.2014 53.0287 42.2509C52.9858 42.2797 52.9372 42.3141 52.8745 42.3597C52.8578 42.3718 52.8358 42.3879 52.8114 42.4058C52.7638 42.4405 52.7069 42.4821 52.6611 42.515C52.2829 42.7868 51.821 43.0807 51.2459 43.2526C50.6441 43.4326 50.0707 43.4356 49.5154 43.365C48.2682 43.2062 47.4886 42.7275 46.7559 42.239C46.3322 41.9566 45.9254 41.7589 45.3495 41.495C45.3291 41.4988 45.3061 41.5038 45.2808 41.5102C45.1922 41.5324 45.0995 41.5652 45.0187 41.6018C44.944 41.6357 44.9089 41.6593 44.9088 41.6591C44.9087 41.659 44.9096 41.6584 44.9113 41.6571C44.787 41.7504 44.6821 41.8413 44.5281 41.9747C44.4738 42.0219 44.4133 42.0743 44.3437 42.134C44.1086 42.3356 43.7892 42.6009 43.3962 42.8376C43.3666 42.8554 43.3262 42.8824 43.2757 42.9162C42.8812 43.1798 41.8711 43.8549 40.5969 43.7753C39.8483 43.7285 39.1946 43.372 38.8135 43.1263C38.3937 42.8557 37.9492 42.4859 37.6305 42.0787C36.922 41.1734 36.6163 40.8268 36.1532 40.6449C35.1864 40.2651 34.7105 39.1734 35.0903 38.2065C35.4702 37.2396 36.5619 36.7638 37.5288 37.1436C39.014 37.7271 39.9026 38.8715 40.4843 39.6207C40.5199 39.6665 40.5543 39.7109 40.5877 39.7535C40.5892 39.7549 40.6097 39.7777 40.6547 39.817C40.7106 39.8656 40.7797 39.9181 40.8517 39.9645C40.8578 39.9684 40.8637 39.9722 40.8695 39.9759C40.9091 39.9537 40.9596 39.9238 41.0271 39.882C41.07 39.8554 41.1113 39.8293 41.1598 39.7987C41.1775 39.7875 41.1961 39.7758 41.2162 39.7631C41.2864 39.7188 41.3682 39.6676 41.4554 39.6151C41.5692 39.5466 41.6947 39.45 41.8946 39.2786C41.9264 39.2513 41.9626 39.2199 42.0024 39.1853C42.1735 39.0366 42.4118 38.8295 42.6542 38.6476C43.137 38.2855 43.7687 38.0112 44.3649 37.8616C44.9008 37.727 45.8368 37.583 46.7242 37.9872L46.7513 37.9996C47.3989 38.2946 48.0998 38.6138 48.8425 39.109C49.4303 39.5009 49.6199 39.5861 49.9903 39.6333C50.0997 39.6472 50.1545 39.6467 50.1743 39.6457C50.2002 39.634 50.2836 39.5911 50.4655 39.4604C50.4836 39.4474 50.5072 39.4298 50.5358 39.4085C50.7433 39.2541 51.2135 38.9041 51.7266 38.6975C51.9018 38.6269 52.0586 38.4873 52.6076 37.9279C53.5783 36.9389 54.6985 36.6544 55.8027 36.6452C55.8263 36.645 55.8511 36.6447 55.877 36.6444C56.2915 36.64 56.9983 36.6325 57.7144 36.8468C58.1756 36.9847 58.5183 37.1953 58.763 37.3695C58.864 37.4414 58.96 37.5158 59.023 37.5648C59.0294 37.5698 59.0355 37.5745 59.0412 37.5789C59.1137 37.6351 59.1546 37.6661 59.1919 37.6921C59.8469 38.1486 60.5142 38.5987 61.1873 39.0446C61.234 39.0756 61.3523 39.1342 61.6772 39.1596C61.8387 39.1722 62.0223 39.1748 62.2514 39.1721C62.3172 39.1713 62.3995 39.1698 62.4891 39.1681C62.6564 39.165 62.8494 39.1613 63.0091 39.1613C63.1638 39.1613 63.3001 39.1625 63.4259 39.1636C63.5813 39.1649 63.7209 39.1661 63.8597 39.1648L63.9667 39.0527C64.023 38.9942 64.0905 38.9251 64.1663 38.8517C64.3961 38.6294 64.6319 38.4686 64.7968 38.3631C64.8815 38.3089 64.9636 38.2592 65.0267 38.2212L65.0495 38.2075C65.1068 38.173 65.148 38.1482 65.1884 38.123C65.2007 38.1153 65.2116 38.1083 65.2212 38.1021C65.738 37.3185 66.7708 37.0271 67.6314 37.4574C68.5605 37.922 68.9371 39.0518 68.4725 39.9809C68.0944 40.7372 67.4579 41.1405 67.1825 41.3128C67.1133 41.356 67.0433 41.3981 66.9891 41.4307L66.9679 41.4435C66.9052 41.4813 66.862 41.5076 66.8246 41.5316C66.793 41.5517 66.7747 41.5646 66.7661 41.5708C66.7223 41.6138 66.6849 41.653 66.6304 41.7103C66.6045 41.7375 66.5748 41.7688 66.5386 41.8064C66.4385 41.9107 66.2805 42.073 66.0867 42.2296C65.6322 42.5967 65.0347 42.89 64.2503 42.9185C63.933 42.93 63.5873 42.9272 63.2994 42.9248C63.1933 42.924 63.0951 42.9232 63.0091 42.9232C62.93 42.9232 62.8264 42.9251 62.7065 42.9274C62.3411 42.9344 61.8238 42.9443 61.3845 42.91C60.7283 42.8587 59.8974 42.7025 59.1097 42.1807C58.42 41.7238 57.727 41.2565 57.0409 40.7783C56.9171 40.692 56.809 40.6083 56.7362 40.5519C56.6569 40.4903 56.62 40.4618 56.5869 40.438Z" fill="#E4AA12"/>
<path fill-rule="evenodd" clip-rule="evenodd" d="M56.5869 33.5802C56.4655 33.5535 56.2823 33.5454 55.8341 33.5491C55.5933 33.5511 55.4866 33.58 55.4433 33.5957C55.4166 33.6055 55.3729 33.6231 55.2923 33.7052C55.2605 33.7376 55.2261 33.7732 55.1891 33.8115C54.7924 34.2218 54.0996 34.9385 53.1352 35.3278C53.1338 35.3286 53.1025 35.3437 53.0287 35.3932C52.9858 35.422 52.9372 35.4564 52.8745 35.5019C52.8578 35.5141 52.8358 35.5301 52.8114 35.548C52.7638 35.5827 52.7069 35.6243 52.6611 35.6573C52.2829 35.9291 51.821 36.2229 51.2459 36.3949C50.6441 36.5748 50.0707 36.5779 49.5154 36.5072C48.2682 36.3485 47.4886 35.8698 46.7559 35.3813C46.3322 35.0988 45.9254 34.9011 45.3495 34.6372C45.3291 34.6411 45.3061 34.6461 45.2808 34.6524C45.1922 34.6747 45.0995 34.7075 45.0187 34.7441C44.944 34.7779 44.9089 34.8015 44.9088 34.8013C44.9087 34.8013 44.9096 34.8006 44.9113 34.7993C44.787 34.8926 44.6821 34.9835 44.5281 35.117C44.4738 35.1641 44.4133 35.2165 44.3437 35.2762C44.1086 35.4779 43.7892 35.7432 43.3962 35.9798C43.3666 35.9977 43.3262 36.0247 43.2757 36.0584C42.8812 36.3221 41.8711 36.9972 40.5969 36.9175C39.8483 36.8707 39.1946 36.5143 38.8135 36.2686C38.3937 35.998 37.9492 35.6281 37.6305 35.221C36.922 34.3156 36.6163 33.9691 36.1532 33.7871C35.1864 33.4073 34.7105 32.3156 35.0903 31.3487C35.4702 30.3819 36.5619 29.906 37.5288 30.2858C39.014 30.8693 39.9026 32.0137 40.4843 32.763C40.5199 32.8088 40.5543 32.8531 40.5877 32.8958C40.5892 32.8972 40.6097 32.92 40.6547 32.9592C40.7106 33.0079 40.7797 33.0604 40.8517 33.1068C40.8578 33.1107 40.8637 33.1145 40.8695 33.1181C40.9091 33.096 40.9596 33.0661 41.0271 33.0243C41.07 32.9976 41.1113 32.9716 41.1598 32.9409C41.1775 32.9298 41.1961 32.918 41.2162 32.9054C41.2864 32.8611 41.3682 32.8099 41.4554 32.7574C41.5692 32.6888 41.6947 32.5923 41.8946 32.4208C41.9264 32.3936 41.9626 32.3621 42.0024 32.3276C42.1735 32.1788 42.4118 31.9717 42.6542 31.7899C43.137 31.4278 43.7687 31.1535 44.3649 31.0038C44.9008 30.8693 45.8368 30.7252 46.7242 31.1295L46.7513 31.1418C47.3989 31.4368 48.0998 31.7561 48.8425 32.2512C49.4303 32.6431 49.6199 32.7284 49.9903 32.7755C50.0997 32.7894 50.1545 32.7889 50.1743 32.788C50.2002 32.7762 50.2836 32.7334 50.4655 32.6026C50.4836 32.5896 50.5072 32.5721 50.5358 32.5508C50.7433 32.3964 51.2135 32.0464 51.7266 31.8397C51.9018 31.7692 52.0586 31.6296 52.6076 31.0702C53.5783 30.0811 54.6985 29.7966 55.8027 29.7874C55.8263 29.7872 55.8511 29.787 55.877 29.7867C56.2915 29.7823 56.9983 29.7748 57.7144 29.989C58.1756 30.127 58.5183 30.3375 58.763 30.5117C58.864 30.5836 58.96 30.6581 59.023 30.707C59.0294 30.712 59.0355 30.7167 59.0412 30.7211C59.1137 30.7774 59.1546 30.8084 59.1919 30.8343C59.8469 31.2909 60.5142 31.741 61.1873 32.1869C61.234 32.2178 61.3523 32.2764 61.6772 32.3018C61.8387 32.3144 62.0223 32.317 62.2514 32.3143C62.3172 32.3136 62.3995 32.312 62.4891 32.3103C62.6564 32.3072 62.8494 32.3036 63.0091 32.3036C63.1638 32.3036 63.3001 32.3048 63.4259 32.3058C63.5813 32.3072 63.7209 32.3084 63.8597 32.3071L63.9667 32.195C64.023 32.1364 64.0905 32.0673 64.1663 31.9939C64.3961 31.7716 64.6319 31.6108 64.7968 31.5053C64.8815 31.4511 64.9636 31.4015 65.0267 31.3635L65.0495 31.3497C65.1068 31.3152 65.148 31.2904 65.1884 31.2652C65.2007 31.2575 65.2116 31.2506 65.2212 31.2444C65.738 30.4607 66.7708 30.1693 67.6314 30.5996C68.5605 31.0642 68.9371 32.194 68.4725 33.1231C68.0944 33.8795 67.4579 34.2828 67.1825 34.455C67.1133 34.4982 67.0433 34.5404 66.9891 34.5729L66.9679 34.5857C66.9052 34.6235 66.862 34.6498 66.8246 34.6738C66.793 34.694 66.7747 34.7069 66.7661 34.7131C66.7223 34.756 66.6849 34.7953 66.6304 34.8526C66.6045 34.8798 66.5748 34.911 66.5386 34.9487C66.4385 35.053 66.2805 35.2152 66.0867 35.3718C65.6322 35.739 65.0347 36.0322 64.2503 36.0607C63.933 36.0723 63.5873 36.0694 63.2994 36.0671C63.1933 36.0662 63.0951 36.0654 63.0091 36.0654C62.93 36.0654 62.8264 36.0674 62.7065 36.0697C62.3411 36.0766 61.8238 36.0865 61.3845 36.0522C60.7283 36.001 59.8974 35.8448 59.1097 35.3229C58.42 34.866 57.727 34.3987 57.0409 33.9205C56.9171 33.8343 56.809 33.7505 56.7362 33.6941C56.6569 33.6326 56.62 33.604 56.5869 33.5802Z" fill="#E4AA12"/>
<path fill-rule="evenodd" clip-rule="evenodd" d="M39.4846 47.3923C39.5788 47.4061 39.6485 47.4163 39.8143 47.4287C40.3269 47.467 40.798 47.5419 41.1599 47.5994C41.1927 47.6047 41.2246 47.6097 41.2555 47.6146C41.6696 47.68 41.8882 47.7074 42.052 47.7074C43.0351 47.7074 44.471 47.8988 45.5813 48.9033C45.6778 48.9907 45.7771 49.0621 45.9739 49.2038C46.0087 49.2289 46.0466 49.2562 46.088 49.2861C46.3254 49.4575 46.6786 49.7173 47.0108 50.075C47.4381 50.5352 47.7339 50.9656 48.0028 51.36C48.0818 51.4759 48.1474 51.5481 48.2726 51.6858C48.3449 51.7654 48.4372 51.867 48.5635 52.0115C48.8501 52.3395 49.2484 52.8346 49.5 53.5333C49.8622 54.5394 49.8608 55.4404 49.8597 56.1347C49.8596 56.1719 49.8596 56.2085 49.8596 56.2445C49.8596 56.87 49.8371 57.8995 49.5655 58.794C49.2499 59.8337 48.6788 60.7542 48.256 61.4357C48.1551 61.5984 48.0626 61.7474 47.9841 61.8812C47.9676 61.9091 47.9509 61.9378 47.9337 61.967C47.3897 62.896 46.4842 64.4422 44.8475 65.2302C44.7588 65.2729 44.6494 65.3458 44.3855 65.5402C44.3721 65.5501 44.358 65.5605 44.3434 65.5713C44.1231 65.7341 43.7663 65.9978 43.3545 66.2037C43.1119 66.325 42.8917 66.3834 42.7447 66.4149C42.7234 66.4195 42.7028 66.4237 42.6834 66.4274C42.1398 66.7384 41.5714 66.8347 41.1973 66.8624C40.0211 66.9495 38.3076 67.0395 36.7856 66.5774C36.6593 66.5391 36.5847 66.5227 36.472 66.498C36.3796 66.4777 36.2616 66.4518 36.0687 66.4036C35.7304 66.319 35.2758 66.1846 34.7984 65.9074C34.5492 65.7627 34.316 65.6111 34.1198 65.4824C34.0926 65.4645 34.0661 65.4472 34.0404 65.4303C33.8687 65.3176 33.7272 65.2246 33.583 65.1365C32.6279 64.5528 32.0821 63.6953 31.7376 63.0909C31.5804 62.8151 31.466 62.6008 31.3712 62.4229C31.2099 62.1205 31.1049 61.9237 30.9413 61.71C30.3636 60.9558 30.1485 60.0435 30.0427 59.546C30.0299 59.4859 30.0115 59.4081 29.9898 59.3164C29.8869 58.8808 29.7096 58.1305 29.702 57.4567C29.6933 56.6979 29.7555 55.9312 29.9267 55.1485C30.0284 54.6835 30.1991 54.3181 30.3413 54.0495C30.397 53.9443 30.457 53.8383 30.5016 53.7596C30.5097 53.7452 30.5174 53.7317 30.5244 53.7193C30.5737 53.6318 30.6083 53.569 30.6376 53.5109C30.64 53.5045 30.6472 53.4845 30.6586 53.4452C30.6758 53.3853 30.6884 53.3338 30.7088 53.2509C30.7181 53.2127 30.7291 53.1679 30.7429 53.1126L30.7451 53.1041C30.8125 52.834 30.9527 52.272 31.3202 51.7437C31.6311 51.2968 31.9296 50.8385 32.2275 50.362C32.7612 49.508 33.5377 49.018 34.0806 48.7181C34.298 48.598 34.5299 48.4817 34.7174 48.3877C34.7646 48.3641 34.809 48.3418 34.8497 48.3213C35.078 48.2058 35.2333 48.1222 35.3542 48.0446C35.9707 47.6491 36.5573 47.5284 36.9951 47.4744C37.1288 47.4579 37.2922 47.4437 37.4013 47.4342C37.4361 47.4312 37.4654 47.4286 37.4864 47.4266C37.6096 47.415 37.6845 47.4046 37.7458 47.3919C38.2736 47.2822 38.7248 47.3046 39.0677 47.3406C39.2902 47.3639 39.3978 47.3796 39.4846 47.3923ZM42.4719 66.4631C42.4719 66.4631 42.4739 66.4627 42.4782 66.462C42.4741 66.4628 42.4719 66.4631 42.4719 66.4631ZM38.5113 51.075L38.5112 51.075C38.2504 51.1292 38.0169 51.1551 37.8407 51.1717C37.7552 51.1798 37.6939 51.1851 37.6441 51.1893C37.5701 51.1957 37.5211 51.1999 37.4552 51.208C37.4104 51.2135 37.3836 51.2183 37.3692 51.2213C37.08 51.4054 36.7844 51.5584 36.5472 51.6783C36.4816 51.7115 36.4208 51.742 36.3636 51.7707C36.1873 51.8592 36.0449 51.9306 35.8996 52.0109C35.5134 52.2243 35.4314 52.3335 35.4175 52.3557C35.1063 52.8536 34.7846 53.3488 34.4431 53.8418C34.4348 53.868 34.4176 53.924 34.3927 54.0239C34.3882 54.0417 34.3828 54.0638 34.3767 54.089C34.3516 54.1917 34.3135 54.3472 34.2733 54.4869C34.2184 54.6771 34.1368 54.9242 34.0064 55.185C33.9317 55.3345 33.8574 55.4674 33.8004 55.5683C33.7886 55.5893 33.7777 55.6085 33.7676 55.6263C33.7237 55.704 33.6946 55.7553 33.6661 55.8093C33.6084 55.9183 33.6025 55.9481 33.6017 55.9521C33.6016 55.9522 33.6016 55.9523 33.6016 55.9524C33.5005 56.4145 33.4576 56.8927 33.4635 57.414C33.466 57.6346 33.5115 57.8317 33.5932 58.1859C33.6293 58.3424 33.6725 58.5297 33.7221 58.7632C33.7655 58.967 33.8081 59.1286 33.8544 59.2574C33.8981 59.3788 33.9287 59.4234 33.9285 59.4236C33.9285 59.4236 33.9282 59.4232 33.9277 59.4225C34.1929 59.7688 34.4027 60.1266 34.5681 60.4251C34.6631 60.5965 34.7285 60.7191 34.7875 60.8297C34.8567 60.9594 34.9171 61.0724 35.0057 61.228C35.2791 61.7075 35.4362 61.8603 35.5446 61.9266C35.7452 62.0492 35.9426 62.1789 36.11 62.2889C36.1349 62.3053 36.1591 62.3212 36.1826 62.3366C36.3763 62.4636 36.5346 62.5655 36.6873 62.6542C36.7241 62.6755 36.79 62.7063 36.9806 62.754C37.0531 62.7721 37.116 62.7863 37.1975 62.8048C37.2409 62.8146 37.2896 62.8256 37.3478 62.8391C37.4953 62.8731 37.6799 62.9176 37.8783 62.9778C38.6432 63.21 39.6918 63.2003 40.8803 63.1137C41.259 62.8728 41.6257 62.7919 41.8058 62.7603C41.8849 62.7083 41.9904 62.6323 42.1541 62.5117C42.1625 62.5055 42.1711 62.4992 42.1799 62.4927C42.4081 62.3244 42.7781 62.0514 43.2155 61.8408C43.7083 61.6036 44.1005 61.0661 44.7398 59.9769C44.9145 59.6793 45.0681 59.4294 45.2035 59.2089C45.5715 58.6101 45.8058 58.2288 45.9659 57.7013C46.0594 57.3934 46.0978 56.866 46.0978 56.2445C46.0978 55.4506 46.0863 55.1568 45.9605 54.8075C45.947 54.7698 45.9138 54.6963 45.7305 54.4865C45.6844 54.4337 45.6352 54.3792 45.5741 54.3118L45.5635 54.3001C45.508 54.2388 45.442 54.1659 45.3758 54.0906C45.2337 53.9291 45.0613 53.7236 44.8946 53.4791C44.6304 53.0916 44.4716 52.869 44.2541 52.6348C44.1927 52.5686 44.1005 52.491 43.8854 52.3356C43.862 52.3187 43.8356 52.2999 43.8069 52.2793C43.6185 52.1447 43.3254 51.9353 43.0574 51.6929C42.9693 51.6131 42.6731 51.4692 42.052 51.4692C41.5479 51.4692 41.0447 51.3898 40.6704 51.3306L40.6686 51.3304C40.6427 51.3263 40.617 51.3222 40.5916 51.3182C40.2095 51.2577 39.8845 51.2063 39.5342 51.1801C39.3314 51.165 39.1517 51.1428 39.0086 51.1241C38.9661 51.1186 38.9291 51.1136 38.8959 51.1092C38.8049 51.0972 38.7426 51.0889 38.6759 51.0819C38.5971 51.0737 38.5574 51.0726 38.5364 51.0729C38.5198 51.0732 38.5142 51.0744 38.5113 51.075ZM37.355 51.2248C37.3548 51.2248 37.3563 51.2243 37.3598 51.2234C37.3569 51.2244 37.3552 51.2248 37.355 51.2248Z" fill="#E4AA12"/>
<path fill-rule="evenodd" clip-rule="evenodd" d="M47.2339 57.8695C47.2469 56.8308 48.0995 55.9993 49.1382 56.0122C49.7939 56.0204 50.4041 56.1319 50.8501 56.2135C50.871 56.2173 50.8915 56.221 50.9116 56.2247C51.4112 56.3157 51.7254 56.367 52.0248 56.367H56.8513C57.8901 56.367 58.7322 57.2091 58.7322 58.2479C58.7322 59.2867 57.8901 60.1288 56.8513 60.1288H52.0248C51.3516 60.1288 50.7273 60.0149 50.2728 59.932C50.2609 59.9299 50.2491 59.9277 50.2374 59.9256C49.7312 59.8334 49.4077 59.7777 49.0912 59.7738C48.0525 59.7608 47.2209 58.9082 47.2339 57.8695Z" fill="#E4AA12"/>
<path fill-rule="evenodd" clip-rule="evenodd" d="M65.9678 46.7533C66.2304 46.7718 66.4201 46.7852 66.6499 46.7852C66.6675 46.7852 66.6891 46.7851 66.7142 46.785C66.8536 46.7843 67.0989 46.783 67.3337 46.7974C67.5852 46.8129 68.0513 46.8548 68.5107 47.0516C68.5107 47.0516 68.5249 47.0576 68.5649 47.0702C68.6071 47.0835 68.6503 47.0959 68.7255 47.1173L68.7629 47.128C68.9134 47.1709 69.1964 47.2515 69.4879 47.3876C69.8916 47.576 70.2121 47.8311 70.3712 47.9577C70.3779 47.9631 70.3844 47.9682 70.3906 47.9731C70.588 48.13 70.6144 48.1455 70.6144 48.1455C70.6144 48.1455 70.6145 48.1456 70.6144 48.1455C71.5724 48.6445 72.4051 49.323 73.098 50.0496C73.5409 50.5142 73.9108 51.0143 74.2066 51.4143C74.2266 51.4412 74.2462 51.4677 74.2654 51.4937C74.3335 51.5857 74.3887 51.6501 74.473 51.7486C74.5326 51.8181 74.6066 51.9045 74.7099 52.0296C74.9046 52.2651 75.1868 52.6233 75.4012 53.0715C75.8895 54.0924 75.8208 55.0794 75.7807 55.656C75.7798 55.6696 75.7789 55.683 75.778 55.6962C75.7652 55.8813 75.7595 56.0715 75.7537 56.2981C75.7533 56.3151 75.7528 56.3323 75.7524 56.3498C75.7473 56.5537 75.7412 56.7924 75.7269 57.0327C75.6951 57.5658 75.6188 58.2091 75.3684 58.894C75.3008 59.0788 75.2474 59.2986 75.1782 59.6296C75.1696 59.6708 75.1605 59.7149 75.151 59.7614C75.0926 60.045 75.0159 60.418 74.9103 60.7791C74.7107 61.462 74.4557 62.1154 74.1822 62.7248C73.904 63.345 73.5641 63.9483 73.1843 64.5049C73.1843 64.5049 73.18 64.5113 73.1707 64.5269C73.1594 64.5456 73.1452 64.5702 73.1246 64.6066C73.1183 64.6176 73.1107 64.6313 73.1019 64.6469C73.0651 64.7123 73.0089 64.8124 72.9546 64.9029C72.8296 65.1109 72.5572 65.5482 72.0923 65.8874C70.8812 66.7712 69.7441 67.0546 68.5602 67.2238C66.8768 67.4643 65.3683 67.3591 63.775 66.9993C62.3564 66.679 61.3328 66.0948 60.3037 65.3552C59.7218 64.9369 59.3099 64.444 59.0058 64.0371C58.8743 63.8612 58.7482 63.6808 58.6419 63.5287C58.6274 63.5078 58.6132 63.4875 58.5994 63.4677C58.4772 63.2931 58.3769 63.152 58.2764 63.0228C58.0046 62.6734 57.7386 62.1918 57.6066 61.9529C57.5763 61.898 57.5531 61.856 57.5385 61.8312C57.4711 61.7172 57.408 61.6218 57.3214 61.4908C57.2795 61.4274 57.232 61.3555 57.1759 61.2692C57.0268 61.04 56.8351 60.7342 56.6711 60.3765C56.4557 59.9065 56.3547 59.4335 56.2945 59.1517L56.2884 59.1229C56.2188 58.7968 56.1919 58.6706 56.1514 58.5611C55.8844 57.8386 55.8202 57.045 55.783 56.584C55.7796 56.5424 55.7764 56.5035 55.7734 56.4676C55.6544 55.0692 55.8852 53.3162 56.5724 51.9417C57.3895 50.3076 58.5893 49.05 59.994 48.0699C60.627 47.6284 61.2452 47.216 62.2888 46.9472C63.1615 46.7224 63.9468 46.7191 64.6294 46.7163C64.7288 46.7159 64.8261 46.7155 64.9211 46.7144C65.3363 46.7097 65.6706 46.7323 65.9433 46.7516L65.9678 46.7533ZM65.6785 50.504C65.4213 50.4859 65.216 50.4731 64.9639 50.4759C64.8465 50.4773 64.7386 50.4783 64.6389 50.4792C63.9192 50.4858 63.6217 50.4885 63.2271 50.5901C62.8479 50.6878 62.6755 50.786 62.1465 51.1551C61.1654 51.8396 60.4276 52.643 59.9371 53.624C59.6186 54.2611 59.449 55.2949 59.5217 56.1486C59.5737 56.7606 59.6041 57.0519 59.6799 57.257C59.8214 57.6398 59.9053 58.0409 59.9564 58.2855C59.9626 58.3148 59.9682 58.3418 59.9735 58.3663C60.0364 58.6612 60.0681 58.7594 60.0908 58.8091C60.1366 58.909 60.206 59.0285 60.3292 59.218C60.3523 59.2534 60.3802 59.2956 60.4114 59.3428C60.5161 59.5013 60.658 59.7159 60.7771 59.9175C60.913 60.1474 60.9923 60.2929 61.05 60.3987C61.1263 60.5386 61.1646 60.609 61.2458 60.7133C61.4101 60.9245 61.558 61.1345 61.6815 61.311C61.6969 61.333 61.7119 61.3544 61.7265 61.3753C61.8365 61.5327 61.9259 61.6605 62.0188 61.7848C62.224 62.0594 62.3676 62.2059 62.4992 62.3005C63.2892 62.8683 63.8476 63.1592 64.6036 63.3299C65.8132 63.603 66.8575 63.667 68.0282 63.4998C68.8252 63.3859 69.2768 63.2517 69.7458 62.9388C69.7632 62.9091 69.7803 62.8788 69.8039 62.8369C69.8171 62.8133 69.8324 62.7861 69.851 62.7532C69.9007 62.6654 69.9803 62.5262 70.0767 62.385C70.3348 62.0068 70.5651 61.5971 70.7501 61.1848C70.9717 60.691 71.1596 60.2025 71.2996 59.7236C71.3588 59.521 71.4012 59.3166 71.4612 59.0272C71.4722 58.9744 71.4837 58.9187 71.496 58.8597C71.568 58.5157 71.6666 58.0638 71.8353 57.6023C71.9089 57.401 71.9506 57.1646 71.9717 56.809C71.9821 56.6356 71.9866 56.4584 71.9922 56.24L71.9931 56.202C71.9989 55.9779 72.006 55.7133 72.0251 55.4374C72.0676 54.8211 72.0316 54.745 72.0075 54.6946C71.9984 54.6756 71.9584 54.6053 71.8102 54.426C71.7621 54.3678 71.7214 54.3201 71.673 54.2632C71.641 54.2257 71.6056 54.1842 71.5625 54.1331C71.4692 54.0224 71.355 53.8846 71.2426 53.7329L71.2313 53.7176C70.8954 53.2641 70.6522 52.9358 70.3754 52.6455C69.9056 52.1527 69.3954 51.7521 68.8765 51.4818C68.5258 51.2992 68.2306 51.0627 68.0856 50.9466C68.0728 50.9363 68.0611 50.9269 68.0507 50.9187C67.9495 50.8383 67.902 50.8042 67.8858 50.7925C67.8665 50.7859 67.8197 50.7708 67.7165 50.7414C67.7062 50.7384 67.6948 50.7352 67.6824 50.7317C67.5662 50.6989 67.3595 50.6405 67.1404 50.5549C67.1296 50.554 67.117 50.553 67.1026 50.5521C67.0498 50.5489 66.9862 50.5472 66.9073 50.5467C66.8683 50.5464 66.8286 50.5465 66.7853 50.5466L66.6499 50.547C66.2837 50.547 65.9748 50.5251 65.7281 50.5076C65.7113 50.5064 65.6948 50.5052 65.6785 50.504Z" fill="#E4AA12"/>
<path fill-rule="evenodd" clip-rule="evenodd" d="M57.9158 66.8448C58.6949 66.8448 59.3264 67.4763 59.3264 68.2554C59.3264 68.8965 59.0892 69.4979 58.8222 69.9472C58.5547 70.3975 58.1499 70.8758 57.6249 71.1798C57.4391 71.2873 57.2828 71.4035 57.0629 71.5668C56.9841 71.6253 56.8971 71.6899 56.7978 71.7623C56.4641 72.0054 56.0154 72.3139 55.4539 72.5208C54.6479 72.8177 53.7943 72.8021 53.2524 72.7922C53.166 72.7906 53.0874 72.7892 53.0183 72.7892C52.9179 72.7892 52.8114 72.7907 52.6995 72.7924C51.8479 72.805 50.6862 72.8221 49.5292 72.1838C49.0497 71.9192 48.5669 71.5316 48.1696 71.08C47.7806 70.6378 47.3897 70.0385 47.2383 69.3318C47.075 68.57 47.5603 67.8201 48.3221 67.6568C49.0839 67.4936 49.8338 67.9788 49.997 68.7406C50.0128 68.8144 50.0876 68.9888 50.2879 69.2164C50.4799 69.4347 50.71 69.613 50.8922 69.7135C51.362 69.9727 51.7542 69.9715 52.6803 69.9685C52.7857 69.9682 52.8981 69.9678 53.0183 69.9678C53.1585 69.9678 53.2836 69.9686 53.3965 69.9693C53.9469 69.9728 54.2044 69.9744 54.4786 69.8734C54.6583 69.8072 54.8481 69.692 55.1363 69.482C55.1841 69.4472 55.2381 69.4069 55.2971 69.3629C55.5395 69.1822 55.8675 68.9377 56.2058 68.7413C56.2083 68.7393 56.2283 68.7246 56.2611 68.6895C56.3044 68.6433 56.3526 68.5802 56.3967 68.506C56.4409 68.4317 56.4717 68.3616 56.4897 68.3059C56.501 68.2711 56.5043 68.2511 56.5051 68.2457C56.5103 67.4711 57.1399 66.8448 57.9158 66.8448Z" fill="#E4AA12"/>
</svg>
