<svg width="222" height="214" viewBox="0 0 222 214" fill="none" xmlns="http://www.w3.org/2000/svg">
<path fill-rule="evenodd" clip-rule="evenodd" d="M73.3376 207.063C70.7658 206.298 68.032 205.216 65.3043 203.675C61.632 201.599 58.6781 199.132 56.9505 197.643C55.6045 196.483 54.9831 195.92 54.5366 195.515C54.1079 195.127 53.8404 194.885 53.2479 194.4C51.5926 193.046 49.7445 191.571 47.7768 190L47.7746 189.999L47.7743 189.998C41.8548 185.274 34.8544 179.687 28.7722 173.929C23.8645 169.283 19.9099 163.884 17.0461 157.308C16.8998 156.972 16.5735 156.344 15.375 154.426C15.2716 154.26 15.1554 154.075 15.028 153.873L15.026 153.87L15.0259 153.87C13.9978 152.236 12.2523 149.462 10.7643 146.486C8.34106 141.64 6.39618 136.045 5.18492 132.56C4.97246 131.949 4.78257 131.402 4.61663 130.937C3.01151 126.43 2.6405 122.425 2.49962 120.024C2.44261 119.052 2.41248 118.051 2.39518 117.477L2.38862 117.262L2.36531 117.186C2.19791 116.644 1.86668 115.571 1.57496 114.47C1.22325 113.142 0.805101 111.337 0.542866 109.213C-0.226425 102.981 0.00735298 95.0588 0.139342 90.5858L0.139347 90.5856C0.174396 89.3978 0.202267 88.4533 0.202267 87.8483C0.202267 86.3226 0.173841 84.4883 0.142466 82.4638L0.142465 82.4638C0.0614467 77.2359 -0.0392356 70.7391 0.279109 65.0089C0.705081 57.3414 2.86902 49.0256 4.12245 44.2088L4.12247 44.2087C4.39254 43.1708 4.62034 42.2954 4.77938 41.6239C6.24308 35.4439 8.85514 29.7792 12.9745 24.729C16.7841 20.0585 21.1228 16.8824 24.3259 14.7203C27.1008 12.8472 28.8939 11.7236 30.3303 10.8236L30.3304 10.8235L30.3304 10.8235C32.0812 9.72637 33.302 8.96139 35.125 7.57591C42.5732 1.91526 50.7544 0.753804 54.9948 0.379546C58.431 0.0762647 62.8735 0.132531 64.3678 0.151459L64.3683 0.151465C64.6103 0.15453 64.775 0.156615 64.8453 0.156028L64.8449 0.156031C64.8449 0.156029 64.8615 0.15586 64.898 0.154957L65.0726 0.149417C65.2398 0.143292 65.4426 0.13422 65.7467 0.119675L65.9383 0.110413C66.4803 0.0840821 67.3542 0.0416331 68.2333 0.0194108C70.0683 -0.0269738 73.746 -0.0652742 77.8609 0.849153C85.9174 2.6395 91.3635 7.33785 93.461 9.19825C94.4993 10.1193 95.5325 11.1169 96.0879 11.6532L96.088 11.6533L96.3121 11.8694C96.6143 12.1597 96.7819 12.3155 96.8529 12.3812C97.3737 12.7884 98.0906 13.3007 99.383 14.1966L99.7468 14.4484C100.954 15.2835 102.701 16.4925 104.406 17.7975C108.168 20.6758 113.977 25.6472 117.901 33.4948C118.444 34.5811 118.948 35.6902 119.416 36.8051C126.252 29.7669 135.148 23.1084 146.6 19.8176C157.064 16.8107 166.364 19.8222 170.4 21.2679C172.713 22.0962 174.871 23.0307 176.254 23.6296L176.381 23.6846C178.083 24.4211 178.645 24.6534 178.979 24.7713C186.831 27.5361 192.197 32.6747 194.925 35.4975C196.448 37.0734 197.791 38.6273 198.709 39.6942L199.004 40.0371C199.882 41.0583 200.291 41.5338 200.665 41.9342C200.878 42.1622 201.163 42.4583 201.504 42.8141C203.569 44.9618 207.722 49.2833 210.805 53.9071C214.444 59.3657 215.712 64.6911 216.249 66.9677C216.43 67.7331 216.517 68.1168 216.571 68.3579L216.607 68.5151C218.733 73.1608 222 80.8609 222 90.6647C222 107.567 219.399 123.134 214.484 138.933C210.393 152.083 203.216 168.749 186.257 180.055C184.823 181.011 183.048 182.259 181.038 183.672C175.239 187.751 167.478 193.208 160.267 197.02C159.822 197.255 159.537 197.451 158.613 198.085L158.612 198.085C158.026 198.487 157.183 199.065 155.88 199.941C153.466 201.563 148.841 204.619 142.989 206.507C139.755 207.55 136.48 208.688 133.344 209.864C126.711 212.351 118.947 213.098 112.012 212.645C108.532 213.445 104.77 213.947 100.811 213.947C96.9852 213.947 92.3863 213.739 87.5351 212.869C88.4985 213.042 85.3795 212.558 83.1549 211.938C81.7722 211.553 79.5739 210.845 77.1447 209.54C76.0601 208.957 74.7373 208.152 73.3376 207.063Z" fill="#FFE5A3"/>
</svg>
