<svg width="194" height="95" viewBox="0 0 194 95" fill="none" xmlns="http://www.w3.org/2000/svg">
<path d="M186.344 47.1597C186.343 47.0322 186.344 46.984 186.344 47.1035C186.344 47.1223 186.344 47.141 186.344 47.1597Z" fill="#515151"/>
<path d="M191.153 40.9121C191.153 43.0189 190.414 48.106 189.912 50.1023C189.433 52.0088 188.322 53.6322 187.557 55.3312C187.367 55.7541 186.565 57.5451 186.111 57.471C185.829 57.425 186.308 56.2632 186.344 56.1751C186.757 55.1724 187.012 54.2045 187.036 53.0483C187.054 52.2351 187.115 51.3256 186.931 50.5393C186.744 49.7404 186.517 48.9515 186.388 48.1282C186.336 47.7936 186.344 46.7614 186.344 47.1035C186.344 48.2189 186.332 49.3234 186.239 50.4338C186.165 51.3113 185.945 52.1104 185.945 52.9805" stroke="#515151" stroke-width="4" stroke-linecap="round"/>
<path d="M134.09 14.209C132.956 13.4956 131.443 13.7752 130.153 13.7752C128.893 13.7752 127.804 13.8739 126.706 14.5144C125.535 15.1971 124.485 16.0502 123.355 16.7802C122.324 17.4462 121.986 18.1634 121.411 19.1585C120.869 20.0956 120.37 21.0568 119.772 21.9546C119.343 22.5975 119.239 23.538 118.976 24.2686C118.629 25.2324 118.402 26.347 118.317 27.362C118.262 28.0254 117.946 28.6435 117.899 29.3145C117.857 29.9309 117.891 30.5614 117.891 31.1786C117.891 33.2814 117.458 35.335 117.458 37.4457C117.458 38.8684 117.527 40.1698 117.964 41.5274C118.03 41.7336 118.262 42.8077 118.422 42.9094C118.947 43.2434 119.371 42.6686 119.482 42.2345C119.743 41.2173 119.995 40.6256 120.607 39.7758C121.637 38.3464 122.7 37.0002 123.869 35.6781C124.711 34.726 125.264 33.6043 125.926 32.5284C127.256 30.3672 128.765 28.2837 130.185 26.1809C130.707 25.4068 131.096 24.635 131.968 24.2204C132.568 23.9354 133.104 23.5434 133.656 23.1759" stroke="#515151" stroke-width="12" stroke-linecap="round"/>
<path fill-rule="evenodd" clip-rule="evenodd" d="M185.147 48.7094C183.177 45.9807 179.401 45.2816 176.588 47.1697C175.819 47.6857 175.303 48.2537 175.006 48.6163C174.958 48.6751 174.913 48.7318 174.871 48.7854C174.302 49.2746 173.89 49.7383 173.669 49.9893C173.549 50.1251 173.382 50.3207 173.285 50.4337C173.255 50.4698 173.231 50.4975 173.218 50.5121C173.168 50.5703 173.137 50.605 173.121 50.6229C173.105 50.6376 173.077 50.6629 173.033 50.7019C173.02 50.7136 173.003 50.7289 172.982 50.7472C172.883 50.8352 172.707 50.9914 172.55 51.1375C172.229 51.4352 171.48 52.1381 170.848 53.1505L170.797 53.2174C170.774 53.2485 170.743 53.2894 170.709 53.3339C170.676 53.3786 170.635 53.4339 170.59 53.4957C170.134 54.1267 169.856 54.7228 169.685 55.1492C169.61 55.336 169.548 55.5136 169.498 55.6613C168.978 56.5255 168.276 57.7778 167.804 59.1078C166.973 61.4517 166.96 63.4311 166.96 64.8718C166.96 66.9815 167.116 69.1664 167.914 71.667C167.951 71.7816 167.999 71.9675 168.096 72.4067C168.106 72.4513 168.116 72.5008 168.128 72.5544C168.209 72.9254 168.334 73.4971 168.487 74.0537C168.968 75.7951 170.018 77.6076 171.917 78.8463C173.675 79.9928 175.501 80.2115 176.761 80.2115C178.652 80.2115 180.605 79.8613 182.489 78.8084C184.275 77.8104 185.514 76.4437 186.411 75.3004C187.052 74.4828 187.414 73.7012 187.575 73.3456C187.613 73.2617 187.648 73.1804 187.671 73.129L187.676 73.1172L187.693 73.0791C187.721 73.0375 187.77 72.9651 187.854 72.8441C187.869 72.8235 187.886 72.7994 187.905 72.7724C188.057 72.5553 188.347 72.1419 188.616 71.6989C188.806 71.3872 188.966 71.0928 189.075 70.8926C189.116 70.8153 189.15 70.7525 189.179 70.6986C189.241 70.5838 189.281 70.5093 189.33 70.4211C189.348 70.3908 189.362 70.366 189.373 70.3462C190.385 69.1577 190.861 67.9008 191.027 67.4627C191.033 67.4454 191.039 67.4294 191.045 67.4147C191.092 67.2908 191.103 67.2624 191.111 67.2396C191.114 67.2332 191.116 67.2272 191.119 67.2197C191.675 66.2903 191.934 65.3966 192.067 64.7579C192.22 64.0187 192.254 63.3618 192.261 62.9184C192.269 62.4683 192.25 62.0589 192.239 61.8323C192.227 61.5644 192.225 61.5214 192.225 61.5214C192.225 61.5214 192.225 61.5226 192.225 61.5242C192.225 60.5642 192.091 59.6887 192.027 59.2711C192.023 59.2464 192.019 59.2233 192.016 59.2019C191.971 58.9046 191.956 58.7803 191.951 58.7491C191.94 57.5343 191.661 56.5398 191.346 55.7723C191.222 55.4701 191.095 55.2107 191.046 55.112C191.044 55.107 191.041 55.1024 191.039 55.0982C191.009 55.0375 190.996 55.0101 190.992 55.001C190.871 54.7296 190.752 54.508 190.667 54.3568C190.639 54.3064 190.611 54.2586 190.585 54.2138C189.831 52.0613 188.277 50.882 187.779 50.5118C187.629 50.4005 187.489 50.3026 187.392 50.2359C186.671 49.5253 185.893 49.0407 185.147 48.7094Z" fill="#FFE6CF"/>
<path fill-rule="evenodd" clip-rule="evenodd" d="M145.211 15.991C141.975 15.8854 137.472 15.7385 133.254 16.6505C133.176 16.6675 133.016 16.6983 132.797 16.7405C131.943 16.9051 130.193 17.2425 128.869 17.6067C127.299 18.0386 124.076 19.0301 121.807 21.5306C121.794 21.5433 121.769 21.5664 121.73 21.602C121.674 21.6527 121.617 21.7035 121.524 21.7857L121.496 21.811C121.399 21.8972 121.263 22.0179 121.121 22.1487C120.637 22.5924 119.73 23.453 118.97 24.7136C118.941 24.7428 118.91 24.7739 118.872 24.8125C118.841 24.8436 118.805 24.8796 118.762 24.9235L118.757 24.9288C118.54 25.1483 118.113 25.5803 117.693 26.0984C117.339 26.5351 116.906 27.1321 116.525 27.8825C116.509 27.9056 116.492 27.9296 116.476 27.9537C116.18 28.3837 115.285 29.6939 115.057 31.5872C115 31.6995 114.932 31.8278 114.828 32.0229L114.763 32.1451C114.49 32.6592 113.975 33.628 113.597 34.7741C112.95 36.7396 112.899 39.1172 112.881 39.9894C112.88 40.0275 112.879 40.0626 112.878 40.0948C112.862 40.798 112.844 41.2747 112.794 41.6774C112.78 41.7857 112.767 41.8643 112.757 41.9171C112.73 41.9705 112.702 42.0269 112.672 42.0862C112.166 43.0911 111.242 44.9247 110.763 46.8437C110.049 49.7053 109.497 52.4787 108.99 55.2508C108.725 56.7038 108.712 58.0742 108.729 59.0759C108.741 59.7545 108.757 60.1392 108.771 60.4594C108.785 60.7971 108.796 61.0631 108.796 61.5266C108.796 62.1537 108.773 62.616 108.744 63.1951C108.719 63.6761 108.691 64.2375 108.669 65.0409C108.63 66.4302 108.635 68.2872 109.028 70.1952C109.408 72.038 110.087 73.5887 110.623 74.7168C110.887 75.2731 111.087 75.6732 111.253 76.0064C111.496 76.4959 111.668 76.8406 111.868 77.3229C112.718 79.3718 114.309 82.1894 116.678 84.2717C116.732 84.3483 116.816 84.471 116.976 84.7082C116.995 84.7359 117.015 84.7667 117.038 84.8004C117.42 85.3708 118.351 86.7601 119.816 87.9286C119.924 88.015 120.045 88.1167 120.273 88.3099L120.284 88.3192C120.482 88.487 120.771 88.7318 121.084 88.9802C121.711 89.4768 122.716 90.2195 124.039 90.8083C125.489 91.454 126.905 91.9674 128.216 92.4068C128.93 92.6463 129.56 92.767 129.966 92.8339C130.006 92.8405 130.045 92.8468 130.083 92.8527C130.161 92.8976 130.242 92.9438 130.322 92.9883C130.821 93.2669 131.979 93.9014 133.459 94.2425C138.208 95.3371 143.05 95.11 147.77 93.412C148.255 93.2375 148.666 93.0574 148.966 92.9205C149.116 92.8522 149.253 92.7871 149.358 92.7377C149.475 92.682 149.542 92.6503 149.615 92.616C149.621 92.6131 149.628 92.6102 149.633 92.6075C150.262 92.4584 150.899 92.2951 151.451 92.1536C151.65 92.1027 151.838 92.0546 152.01 92.011C152.099 91.9886 152.243 91.9557 152.43 91.9131C153.299 91.7154 155.089 91.3078 156.529 90.7561C158.217 90.1093 159.835 89.3347 161.472 88.3062C161.774 88.1161 162.103 87.923 162.564 87.6532L162.574 87.6476C162.997 87.3999 163.538 87.0831 164.084 86.7372C165.177 86.0458 166.626 85.0354 167.918 83.5892C168.039 83.4534 168.159 83.328 168.364 83.1139C168.433 83.0408 168.513 82.9573 168.606 82.8596C168.916 82.5347 169.354 82.0701 169.791 81.5399C170.571 80.5949 171.708 79.0248 172.235 76.9039C172.261 76.86 172.292 76.8086 172.329 76.7494C172.339 76.7321 172.351 76.7132 172.364 76.6926C172.521 76.4373 172.829 75.936 173.107 75.3836C173.43 74.7432 173.796 73.8819 174.019 72.8334C174.113 72.3919 174.277 71.9095 174.599 71.2193C175.124 70.0956 175.4 69.0296 175.562 68.3414C175.679 67.8434 175.731 67.5978 175.769 67.4169C175.806 67.2354 175.831 67.119 175.895 66.8781C175.956 66.6483 176.009 66.4753 176.089 66.2126C176.138 66.0543 176.197 65.8634 176.273 65.608C176.44 65.0481 176.665 64.2559 176.819 63.3527C177.095 61.7256 177.511 60.1351 177.947 59.1576C178.52 57.8744 178.878 56.6434 179.128 55.7468C179.197 55.4983 179.257 55.2792 179.311 55.0818C179.481 54.4622 179.592 54.0554 179.743 53.6205C180.718 50.8116 180.67 47.9387 180.643 46.3528C180.639 46.13 180.636 45.9325 180.636 45.7643C180.636 43.7609 180.397 41.442 179.523 39.0708C178.83 37.1924 177.719 34.8209 175.894 32.7216C175.678 32.4732 175.433 32.1357 175.036 31.522C174.632 30.8994 174.208 30.414 173.88 30.0708C173.567 29.7437 173.267 29.4701 173.119 29.3356L173.115 29.3314C173.085 29.3043 173.061 29.2825 173.04 29.2639C172.966 29.1575 172.88 29.0311 172.769 28.8674C172.76 28.8543 172.751 28.8409 172.742 28.8271C172.562 28.5633 172.3 28.1761 172.008 27.7845C171.364 26.9187 170.392 25.7619 168.912 24.7284C168.827 24.6686 168.694 24.5712 168.525 24.4465C167.854 23.9535 166.603 23.0339 165.378 22.3275C164.72 21.696 164.085 21.309 163.731 21.1077C163.091 20.7448 162.5 20.5178 162.26 20.4264C162.261 20.4266 162.259 20.4261 162.26 20.4264C161.548 19.9801 160.621 19.4566 159.524 19.0436C158.039 18.4845 156.536 18.23 154.971 18.2074C154.143 17.7859 153.029 17.3233 151.677 17.0723C151.661 17.0684 151.606 17.0544 151.497 17.0219C151.333 16.973 151.252 16.9473 151.14 16.9113C151.031 16.8765 150.893 16.8321 150.619 16.7481C149.9 16.5265 148.408 16.0752 146.622 16.0331C146.186 16.0228 145.714 16.0074 145.211 15.991ZM139.788 40.58C139.789 40.5794 139.782 40.5877 139.769 40.6066C139.781 40.5901 139.788 40.5806 139.788 40.58Z" fill="#FFE6CF"/>
<path fill-rule="evenodd" clip-rule="evenodd" d="M172.874 52.4336C171.752 52.3748 170.628 52.2631 169.533 52.0946C165.943 51.5423 162.223 50.317 158.882 48.2012C158.493 47.9546 158.168 47.7664 157.752 47.525C157.491 47.3736 157.194 47.2013 156.822 46.9804C155.999 46.4918 154.956 45.8449 153.917 45.0093C152.822 44.1294 152.006 43.2512 151.38 42.5364C151.073 42.1853 150.86 41.9348 150.681 41.7231C150.477 41.4826 150.315 41.2919 150.104 41.0602C150.067 41.0346 150.017 41.0019 149.955 40.9616C149.929 40.945 149.893 40.922 149.85 40.8943C149.685 40.7883 149.411 40.6128 149.181 40.4574C148.852 40.2352 148.413 39.9242 147.951 39.5283C147.816 39.4123 147.673 39.2911 147.524 39.1645C146.522 38.3137 145.235 37.2201 144.008 35.8578C143.828 35.6569 143.59 35.4356 143.036 34.9412C143.015 34.9217 142.992 34.9015 142.969 34.8808C142.497 34.4596 141.754 33.7963 141.048 33.012C140.262 32.1383 139.887 31.782 139.344 31.3936C135.614 28.7294 133.479 25.3808 132.412 21.2312C131.925 19.3373 131.93 17.7016 131.997 16.4915C132.038 15.7539 132.074 15.3683 132.1 15.085C132.129 14.7715 132.147 14.5832 132.147 14.1819C132.147 12.4971 132.639 11.0268 132.877 10.3462C132.914 10.2379 132.953 10.1311 132.991 10.0278C133.376 6.89165 135.251 4.7008 137.24 3.43825C138.85 2.41575 140.704 1.90907 141.503 1.69056C141.563 1.674 141.618 1.6591 141.666 1.64575C143.802 1.05042 145.899 0.983387 147.481 1.00283C148.294 1.01282 149.088 1.04949 149.752 1.08042L149.778 1.08165C150.47 1.11387 151.013 1.13915 151.517 1.1468C153.754 1.18069 155.692 1.7409 156.9 2.09978C157.062 2.14796 157.212 2.19276 157.352 2.2344C158.461 2.56507 158.904 2.6973 159.372 2.75572C160.553 2.90335 161.498 3.28926 162.113 3.59049C162.743 3.89899 163.262 4.23735 163.609 4.47571C163.898 4.6743 164.189 4.88985 164.355 5.01287C164.382 5.03271 164.405 5.05014 164.425 5.06471C164.525 5.13886 164.577 5.1758 164.596 5.18897C165.779 5.91921 167.067 6.72653 168.329 7.59018C169.144 8.14764 170.097 8.77493 171.109 9.44068C172.931 10.6389 174.941 11.9618 176.673 13.2263C176.841 13.3483 177.071 13.5099 177.341 13.6998C178.178 14.2883 179.403 15.1488 180.343 15.9451C180.991 16.4946 181.674 17.1395 182.33 17.9037C183.36 18.65 184.127 19.4189 184.629 19.9327C184.746 20.0523 184.847 20.1559 184.936 20.2468C185.291 20.612 185.449 20.7741 185.666 20.9605C186.902 22.0237 187.959 23.4135 188.711 24.5989C189.437 25.7443 190.346 27.4295 190.751 29.2522C190.907 29.9522 190.999 30.6079 191.063 31.1014C191.101 31.4027 191.124 31.595 191.143 31.7587C191.166 31.9473 191.183 32.0978 191.216 32.3333C191.258 32.6384 191.292 32.8037 191.308 32.8725C191.31 32.8762 191.311 32.8798 191.313 32.8834C191.819 33.5046 192.202 34.1834 192.47 34.8827C192.713 35.517 192.83 36.0914 192.889 36.4885C193.862 39.4512 193.096 42.0988 192.33 43.7401C191.705 45.0793 190.705 46.4544 190.356 46.9344C190.306 47.003 190.27 47.0534 190.249 47.0827C190.211 47.1386 190.153 47.2248 190.08 47.3346C189.701 47.9046 188.897 49.1126 188.065 50.0491C186.887 51.3759 185.046 52.9512 182.319 53.6331C179 54.4628 176.052 53.6433 174.206 52.9658C173.74 52.7948 173.289 52.6114 172.874 52.4336ZM192.966 37.1986L192.966 37.1964C192.966 37.205 192.966 37.2063 192.966 37.1986ZM184.579 21.1517C184.58 21.1524 184.586 21.1673 184.596 21.1941C184.584 21.1644 184.579 21.1511 184.579 21.1517Z" fill="#515151"/>
<path d="M113.641 40.6411C113.747 40.5145 113.823 40.4134 113.887 40.3158C113.796 40.9155 113.732 41.522 113.64 42.1166C113.581 42.5038 113.435 42.8575 113.392 43.2459C113.369 43.4561 113.281 45.1615 113.281 44.3035C113.281 43.6761 113.347 42.9454 113.529 42.3516C113.622 42.0512 113.624 41.452 113.64 41.1243C113.647 40.9939 113.553 40.7462 113.641 40.6411Z" fill="#515151"/>
<path d="M132.905 22.4471C134.2 22.4471 130.1 22.3292 129.079 23.126C128.304 23.7312 127.622 24.3793 126.795 24.9148C126.275 25.2512 125.752 25.4823 125.241 25.8548C124.787 26.1858 124.209 26.3255 123.739 26.6513C123.182 27.0383 122.585 27.3519 122.003 27.7088C120.988 28.3314 119.887 29.136 119.3 30.2026C118.326 31.9731 117.053 33.5592 115.984 35.2815C115.513 36.0405 114.955 36.8805 114.6 37.7231C114.337 38.3474 114.449 39.155 114.163 39.786C113.994 40.156 113.914 40.313 113.641 40.6411C113.553 40.7462 113.647 40.9939 113.64 41.1243C113.624 41.452 113.622 42.0512 113.529 42.3516C113.347 42.9454 113.281 43.6761 113.281 44.3035C113.281 45.1615 113.369 43.4561 113.392 43.2459C113.435 42.8575 113.581 42.5038 113.64 42.1166C113.803 41.0618 113.878 39.9694 114.176 38.9439C114.717 37.0785 115.054 35.1866 115.579 33.3231C115.943 32.0339 116.908 30.7994 117.681 29.7326C118.659 28.3844 119.465 26.6896 120.691 25.561C121.433 24.8775 122.176 24.3017 123.1 23.8833C123.787 23.5721 124.289 23.0427 124.954 22.7017C126.159 22.0836 127.168 21.0608 128.401 20.5082C129.034 20.2244 129.981 20.0799 130.535 19.6922C130.994 19.371 132.182 19.1139 132.552 19.3919" stroke="#515151" stroke-width="4" stroke-linecap="round"/>
<path d="M163.654 53.9121C162.153 51.9121 158.731 49.38 159.15 48.1235C159.15 47.1542 167.788 49.7631 168.327 48.9667C168.781 48.2946 169.811 47.8805 170.499 47.4646C171.124 47.0874 171.676 46.579 172.323 46.2441C173.593 45.5873 174.759 44.6954 176.012 43.991C177.094 43.3821 178.32 43.182 179.512 42.851C181.239 42.3712 182.592 42.1611 184.367 42.1804C185.166 42.1891 186.022 42.4006 186.6 42.9784C187.172 43.5501 188.116 44.0071 188.518 44.7219C188.849 45.3112 189.289 45.9559 189.302 46.6465C189.315 47.3083 189.218 47.9302 189.182 48.5777C189.109 49.8904 191.819 51.3233 191.154 52.4126C190.726 53.1115 186.034 53.389 185.292 53.6742C184.897 53.8263 184.488 54.1686 184.166 54.4319C183.671 54.8366 182.991 54.9872 182.489 55.3975C181.723 56.0245 180.617 56.1958 179.894 56.846C178.889 57.7507 177.6 58.4402 176.481 59.1997C175.915 59.5841 175.357 60.0354 174.751 60.3531C174.236 60.6231 173.312 61.1715 172.947 61.6205C172.7 61.9243 172.359 62.1025 172.109 62.3984C171.937 62.602 171.86 62.8623 171.68 63.0623C171.361 63.4167 171.208 63.8561 170.955 64.2425C170.955 64.2425 170.372 69.3195 169.125 68.696C167.452 67.8597 166.897 63.5456 166.654 61.6205C166.516 60.5314 166.154 59.0068 166.154 57.9121C164.973 56.1936 164.768 55.3975 163.654 53.9121Z" fill="#515151"/>
<path d="M130.205 16.684C130.02 16.6819 129.836 16.6806 129.652 16.6806C129.397 16.6806 129.094 16.6518 128.781 16.6292C128.763 16.635 128.745 16.6408 128.727 16.6467C127.759 16.9609 126.818 17.2132 125.98 17.7918C123.941 19.1989 121.839 20.5405 119.961 22.1634C119.64 22.4408 119.309 22.7473 118.995 23.0599C118.869 23.2086 118.742 23.3575 118.613 23.5059C118.505 23.6293 118.396 23.9827 118.28 23.8669C118.172 23.759 118.458 23.6175 118.562 23.5059C118.7 23.3576 118.846 23.2081 118.995 23.0599C119.823 22.0795 120.598 21.1075 121.67 20.3471C122.91 19.4671 124.069 18.3454 125.455 17.6959C126.088 17.3991 126.733 16.9222 127.39 16.7031C127.778 16.5736 128.291 16.5938 128.781 16.6292C129.32 16.4563 129.862 16.3146 130.413 16.1842C130.479 16.1687 131.343 15.867 130.881 16.2237C130.665 16.391 130.439 16.5434 130.205 16.684Z" fill="#515151"/>
<path d="M134.322 16.579C132.787 16.7771 131.198 16.6806 129.652 16.6806C128.998 16.6806 128.026 16.4909 127.39 16.7031C126.733 16.9222 126.088 17.3991 125.455 17.6959C124.069 18.3454 122.91 19.4671 121.67 20.3471C120.436 21.2228 119.595 22.3793 118.613 23.5059C118.505 23.6293 118.396 23.9827 118.28 23.8669C118.172 23.759 118.458 23.6175 118.562 23.5059C118.993 23.0445 119.488 22.5723 119.961 22.1634C121.839 20.5405 123.941 19.1989 125.98 17.7918C126.818 17.2132 127.759 16.9609 128.727 16.6467C129.284 16.4659 129.844 16.319 130.413 16.1842C130.479 16.1687 131.343 15.867 130.881 16.2237C129.277 17.4636 127.148 17.8799 125.353 18.7677C124.438 19.2206 123.66 19.8794 122.747 20.3358" stroke="#515151" stroke-width="3" stroke-linecap="round"/>
<path d="M141.433 58.7936C142.362 58.8306 142.947 60.2319 142.896 60.824C142.827 61.6227 142.588 62.5318 142.176 63.2098C142.022 63.4638 141.835 63.6186 141.566 63.7492C141.358 63.8509 141.25 63.9136 141.016 63.8394C140.897 63.8018 140.416 63.4154 140.314 63.3213C139.802 62.8484 140.112 62.4464 139.924 61.791C139.832 61.4688 139.87 61.0581 139.989 60.7608C140.11 60.4601 139.994 60.0835 140.103 59.7932C140.234 59.4438 141.06 58.8053 141.433 58.7936ZM141.433 58.7936C141.855 58.7804 141.895 59.0674 141.803 59.4379C141.706 59.8306 141.691 60.2889 141.69 60.6917C141.688 61.3214 141.498 62.105 141.299 62.7022" stroke="#A58466" stroke-width="2" stroke-linecap="round"/>
<path d="M126.024 55.2716C126.952 55.3087 127.538 56.7099 127.486 57.302C127.417 58.1007 127.178 59.0098 126.766 59.6879C126.612 59.9418 126.425 60.0966 126.157 60.2273C125.948 60.3289 125.84 60.3917 125.606 60.3175C125.488 60.2799 125.007 59.8934 124.905 59.7993C124.392 59.3264 124.702 58.9244 124.515 58.269C124.422 57.9468 124.46 57.5361 124.58 57.2389C124.701 56.9381 124.585 56.5615 124.693 56.2712C124.824 55.9218 125.65 55.2833 126.024 55.2716ZM126.024 55.2716C126.445 55.2584 126.485 55.5455 126.393 55.9159C126.296 56.3087 126.281 56.7669 126.28 57.1697C126.279 57.7994 126.088 58.583 125.89 59.1802" stroke="#A58466" stroke-width="2" stroke-linecap="round"/>
<path d="M142.073 71.4961C141.732 71.3187 140.825 72.4411 140.413 72.5683C139.823 72.7507 139.227 72.94 138.625 73.1062C137.312 73.4687 135.969 73.6126 134.602 73.6945C131.915 73.8554 129.452 73.1616 126.988 72.2254C126.107 71.8905 125.199 71.1649 124.346 70.688C123.572 70.2557 123.103 69.9337 122.611 69.2145C122.301 68.7616 122.109 68.2749 121.777 67.8259C121.585 67.5655 121.26 67.255 121.168 66.9312C121.019 66.4132 120.726 65.9473 120.693 65.3961" stroke="#A58466" stroke-width="2" stroke-linecap="round"/>
<path d="M133.262 62.9321C132.995 62.8115 132.792 62.6888 132.49 62.7069C132.244 62.7216 131.967 62.7624 131.744 62.8721C131.33 63.0767 131.131 63.5892 131.068 64.0195C131.032 64.2598 131.011 64.5438 131.069 64.7871C131.12 65.0042 131.342 65.1732 131.453 65.3597C131.511 65.4582 131.567 65.494 131.669 65.5398C131.794 65.5961 131.901 65.7076 132.034 65.7472C132.152 65.7823 132.238 65.8794 132.361 65.9176C132.436 65.9411 132.559 66.0143 132.632 66.01" stroke="#A58466" stroke-width="2" stroke-linecap="round"/>
<path d="M127.995 49.3448C127.348 48.8596 126.412 48.9139 125.649 48.9139C125.032 48.9139 124.329 48.8939 123.772 49.1725" stroke="#A58466" stroke-width="2" stroke-linecap="round"/>
<path d="M142.796 52.3608C143.595 52.2334 144.398 52.7181 145.072 53.0739C145.618 53.3617 146.249 53.6719 146.612 54.178" stroke="#A58466" stroke-width="2" stroke-linecap="round"/>
<path d="M119.032 34.3018C119.099 34.9364 119.596 35.6246 119.859 36.2068C120.031 36.5886 120.3 36.8701 120.559 37.1937C120.999 37.7445 121.317 38.3978 121.741 38.9668C123.021 40.6889 124.356 42.5869 126.182 43.804C126.505 44.0196 126.831 44.2313 127.169 44.4237C127.358 44.5313 127.861 44.9286 128.07 44.9286C128.169 44.9286 128.121 43.467 128.121 43.2875C128.121 42.0307 128.225 40.7601 128.225 39.489C128.225 38.1059 128.463 36.9961 129.103 35.7879C129.174 35.652 129.674 34.6614 129.935 34.7838C130.048 34.837 130.178 35.2208 130.239 35.3289C130.46 35.7233 130.887 36.0214 131.197 36.3445C131.619 36.785 131.89 37.3984 132.207 37.9167C132.692 38.7111 133.331 39.2262 133.905 39.9308C134.318 40.4371 134.838 40.8559 135.282 41.3366C136.645 42.8109 137.997 44.3044 139.483 45.6574C140.046 46.1707 140.681 46.5583 141.302 46.9599C141.753 47.2521 142.389 47.7133 142.375 46.9599C142.362 46.2987 142.057 45.6639 141.858 45.0434C141.661 44.4281 141.755 43.72 141.755 43.081C141.755 42.4548 141.689 41.852 141.961 41.2735C142.182 40.8045 142.424 40.3491 142.639 39.8791C142.813 39.4984 142.831 38.9791 143.155 39.6267C143.37 40.0569 143.908 40.4619 144.28 40.7571C144.941 41.2813 145.485 41.9454 146.145 42.4613C148.963 44.6672 152.152 46.6645 155.75 47.2181C155.808 47.227 156.1 47.2895 156.1 47.3673C156.1 47.4385 155.457 46.9521 155.389 46.9025C154.702 46.403 154.198 45.5617 153.92 44.768C153.559 43.7396 153.323 42.9449 153.323 41.8416C153.323 41.4284 153.323 41.0153 153.323 40.6021" stroke="#515151" stroke-width="4" stroke-linecap="round"/>
<path d="M117.38 26.3493C117.191 27.2312 116.885 28.0552 117.23 28.9429C117.604 29.9038 118.105 30.5503 118.82 31.307C119.156 31.6631 119.583 32.0021 119.881 32.3857C120.128 32.7029 120.246 33.1019 120.49 33.43C121.571 34.8827 123.185 36.1605 123.967 37.8369C124.212 38.3613 124.654 39.0978 125.069 39.5124C125.156 39.5998 125.838 40.2589 125.838 40.0173C125.838 39.5889 125.54 39.1447 125.379 38.7664C125.031 37.9531 124.863 37.1617 124.288 36.4597C123.704 35.7462 123.171 35.0279 122.756 34.1989C122.406 33.4986 122.198 32.787 121.769 32.1275C121.575 31.8282 121.229 30.1277 121.62 30.4405C122.844 31.4194 123.863 32.5828 124.816 33.8088C125.323 34.46 125.538 34.9243 126.239 35.4154C127.28 36.1439 126.199 33.862 126.102 33.5219C125.858 32.6695 125.346 32.0203 124.839 31.307C124.132 30.3114 124.093 29.062 124.093 27.8986C124.093 27.6463 124.408 27.2207 124.564 27.0206C124.595 26.9807 124.809 26.6876 124.839 26.6821C124.959 26.6603 125.308 27.9467 125.384 28.0994C125.58 28.4912 125.708 28.9247 125.958 29.2872C126.379 29.8971 127.04 30.3539 127.605 30.8135C127.96 31.1024 128.218 31.3744 128.494 31.7316C128.77 32.0878 129.142 32.255 129.464 32.5464C130.345 33.3431 129.676 31.8522 129.521 31.4447C129.247 30.721 128.919 30.0436 128.718 29.2987C128.485 28.4348 127.915 27.6186 127.915 26.7223C127.915 26.2227 128.379 27.3143 128.489 27.4625C129.2 28.423 129.909 29.3523 130.543 30.3659C131.074 31.2152 131.574 32.0123 132.247 32.753C133.456 34.083 134.072 35.9232 135.397 37.1426C135.938 37.6398 136.268 38.2632 136.883 38.6861C137.417 39.0533 137.864 39.593 138.398 39.9886C138.961 40.4058 139.243 40.9299 139.689 41.4289C140.566 42.4087 138.604 40.7205 138.427 40.5797C136.942 39.3976 136.15 37.5731 135.099 36.0236C134.019 34.4321 132.426 32.9293 131.736 31.1004C131.139 29.5161 129.671 28.0623 129.671 26.2977C129.671 26.0265 129.652 25.7478 129.671 25.4771C129.683 25.292 129.775 25.4765 129.831 25.5574C130.316 26.2527 130.83 26.9273 131.306 27.6289C132.238 29.0019 133.151 30.3756 134.054 31.7603C135.498 33.9743 137.156 35.9972 138.955 37.9287C139.435 38.4447 139.902 38.9201 140.309 39.4894C140.496 39.7507 140.705 39.924 140.957 40.1206C141.367 40.4394 140.421 39.2312 140.148 38.7894C138.924 36.8068 137.578 34.8636 136.591 32.7472C136.267 32.054 136.12 31.2337 135.971 30.4864C135.903 30.1451 135.778 29.8063 135.684 29.4708C135.571 29.0669 135.204 28.8022 135.093 28.4035C134.744 27.1458 133.432 26.4095 133.102 25.1558C133.037 24.9081 133.101 24.6391 133.073 24.3869C133 23.7304 132.872 24.4682 132.918 24.7771C133.115 26.0765 133.773 27.2889 134.491 28.3576C135.677 30.1234 137.305 31.6245 138.771 33.1718C139.291 33.7205 139.918 34.1803 140.389 34.7728C140.504 34.9171 140.465 35.1089 140.573 35.2318C141.144 35.8851 141.619 36.4325 142.306 36.9819C142.486 37.1258 142.505 37.3135 142.65 37.4582C142.958 37.766 143.345 38.0493 143.694 38.3074C144.118 38.6199 144.546 38.9085 144.98 39.2025C145.819 39.771 146.639 40.3387 147.355 41.0387C148.03 41.6983 148.92 42.3303 149.754 42.7716C149.911 42.8546 150.855 43.4011 150.718 42.8519C150.581 42.3062 149.909 41.7297 149.547 41.3313C148.922 40.6422 148.148 40.1443 147.493 39.4894C146.239 38.2356 145.07 36.8938 143.821 35.6449C143.127 34.9513 142.291 33.9991 141.342 33.6825" stroke="#515151" stroke-width="4" stroke-linecap="round"/>
<path d="M158.216 47.2153C158.193 48.1201 158.05 49.01 158.043 49.9174C158.035 50.8722 158.048 51.8227 157.985 52.7739" stroke="#FFE6CF" stroke-linecap="round"/>
<path d="M158.185 47.1973C158.292 47.3181 158.312 47.5249 158.361 47.6703C158.398 47.7821 158.392 47.9125 158.433 48.0294C158.487 48.1855 158.497 48.3188 158.574 48.4693C158.793 48.8965 159.043 49.3062 159.318 49.7009C159.723 50.2822 160.13 50.8725 160.504 51.4748C160.729 51.8392 161.03 52.139 161.274 52.493" stroke="#FFE6CF" stroke-linecap="round"/>
<path d="M90.588 41.4771C90.7982 42.15 90.7603 42.7196 90.8504 43.3958C90.9067 43.8179 91.0664 44.2026 91.0767 44.6357C91.0876 45.0951 91.0767 45.5563 91.0767 46.0159C91.0767 47.4338 91.0767 48.8517 91.0767 50.2696C91.0767 51.2218 90.8029 52.0729 90.5065 52.9621" stroke="#515151" stroke-width="4" stroke-linecap="round"/>
<path d="M15.9628 47.1597C15.9638 47.0322 15.9628 46.984 15.9628 47.1035C15.9628 47.1223 15.9628 47.141 15.9628 47.1597Z" fill="#515151"/>
<path d="M11.1533 40.9121C11.1533 43.0189 11.8924 48.106 12.3942 50.1023C12.8734 52.0088 13.9842 53.6322 14.7493 55.3312C14.9397 55.7541 15.7417 57.5451 16.1956 57.471C16.4773 57.425 15.9991 56.2632 15.9628 56.1751C15.5495 55.1724 15.2948 54.2045 15.2702 53.0483C15.2528 52.2351 15.1914 51.3256 15.3754 50.5393C15.5624 49.7404 15.7898 48.9515 15.9185 48.1282C15.9708 47.7936 15.9628 46.7614 15.9628 47.1035C15.9628 48.2189 15.9748 49.3234 16.0681 50.4338C16.1419 51.3113 16.3618 52.1104 16.3618 52.9805" stroke="#515151" stroke-width="4" stroke-linecap="round"/>
<path d="M68.2171 14.209C69.3502 13.4956 70.8637 13.7752 72.1541 13.7752C73.4136 13.7752 74.5031 13.8739 75.6011 14.5144C76.7714 15.1971 77.8212 16.0502 78.9516 16.7802C79.9828 17.4462 80.3211 18.1634 80.896 19.1585C81.4374 20.0956 81.9365 21.0568 82.5351 21.9546C82.9637 22.5975 83.0675 23.538 83.3305 24.2686C83.6775 25.2324 83.9048 26.347 83.9894 27.362C84.0447 28.0254 84.3609 28.6435 84.4072 29.3145C84.4497 29.9309 84.4152 30.5614 84.4152 31.1786C84.4152 33.2814 84.8491 35.335 84.8491 37.4457C84.8491 38.8684 84.7793 40.1698 84.3429 41.5274C84.2766 41.7336 84.0448 42.8077 83.8849 42.9094C83.3601 43.2434 82.9357 42.6686 82.8243 42.2345C82.5635 41.2173 82.3118 40.6256 81.6995 39.7758C80.6694 38.3464 79.6064 37.0002 78.4373 35.6781C77.5955 34.726 77.0425 33.6043 76.3804 32.5284C75.0504 30.3672 73.5414 28.2837 72.122 26.1809C71.5995 25.4068 71.2103 24.635 70.3383 24.2204C69.7387 23.9354 69.2022 23.5434 68.6509 23.1759" stroke="#515151" stroke-width="12" stroke-linecap="round"/>
<path fill-rule="evenodd" clip-rule="evenodd" d="M17.1596 48.7094C19.1292 45.9807 22.9054 45.2816 25.7185 47.1697C26.4873 47.6857 27.0038 48.2537 27.3009 48.6163C27.3491 48.6751 27.3941 48.7318 27.4358 48.7854C28.0049 49.2746 28.4168 49.7383 28.6378 49.9893C28.7574 50.1251 28.9246 50.3207 29.0213 50.4337C29.0521 50.4698 29.0758 50.4975 29.0884 50.5121C29.1386 50.5703 29.1694 50.605 29.1856 50.6229C29.2016 50.6376 29.2295 50.6629 29.2732 50.7019C29.2863 50.7136 29.3036 50.7289 29.3242 50.7472C29.4234 50.8352 29.5993 50.9914 29.7568 51.1375C30.0776 51.4352 30.8262 52.1381 31.4583 53.1505L31.5093 53.2174C31.5329 53.2485 31.5639 53.2894 31.5973 53.3339C31.6307 53.3786 31.6717 53.4339 31.7164 53.4957C32.1722 54.1267 32.4509 54.7228 32.6216 55.1492C32.6964 55.336 32.7591 55.5136 32.8082 55.6613C33.3288 56.5255 34.0307 57.7778 34.5025 59.1078C35.3339 61.4517 35.3465 63.4311 35.3465 64.8718C35.3465 66.9815 35.1908 69.1664 34.3924 71.667C34.3559 71.7816 34.3078 71.9675 34.211 72.4067C34.2011 72.4513 34.1903 72.5008 34.1786 72.5544C34.0977 72.9254 33.9729 73.4971 33.8193 74.0537C33.3388 75.7951 32.2888 77.6076 30.3896 78.8463C28.6319 79.9928 26.8059 80.2115 25.5457 80.2115C23.6547 80.2115 21.7013 79.8613 19.8175 78.8084C18.032 77.8104 16.7926 76.4437 15.8961 75.3004C15.255 74.4828 14.8931 73.7012 14.732 73.3456C14.694 73.2617 14.6581 73.1804 14.6355 73.129L14.6303 73.1172L14.6133 73.0791C14.5858 73.0375 14.5369 72.9651 14.4524 72.8441C14.438 72.8235 14.4211 72.7994 14.4021 72.7724C14.2495 72.5553 13.9592 72.1419 13.6903 71.6989C13.501 71.3872 13.3404 71.0928 13.2321 70.8926C13.1903 70.8153 13.1565 70.7525 13.1275 70.6986C13.0657 70.5838 13.0256 70.5093 12.9761 70.4211C12.9591 70.3908 12.9449 70.366 12.9333 70.3462C11.9213 69.1577 11.4456 67.9008 11.2798 67.4627C11.2732 67.4454 11.2672 67.4294 11.2616 67.4147C11.2144 67.2908 11.2039 67.2624 11.1954 67.2396C11.1931 67.2332 11.1908 67.2272 11.188 67.2197C10.6319 66.2903 10.3723 65.3966 10.24 64.7579C10.087 64.0187 10.0528 63.3618 10.0452 62.9184C10.0376 62.4683 10.0565 62.0589 10.0672 61.8323C10.0798 61.5644 10.0815 61.5214 10.0818 61.5214C10.0818 61.5214 10.0818 61.5226 10.0818 61.5242C10.0818 60.5642 10.216 59.6887 10.2799 59.2711C10.2837 59.2464 10.2873 59.2233 10.2905 59.2019C10.3356 58.9046 10.351 58.7803 10.3554 58.7491C10.3668 57.5343 10.6457 56.5398 10.9605 55.7723C11.0844 55.4701 11.212 55.2107 11.2606 55.112C11.2631 55.107 11.2653 55.1024 11.2674 55.0982C11.2972 55.0375 11.3105 55.0101 11.3149 55.001C11.4357 54.7296 11.5544 54.508 11.6393 54.3568C11.6677 54.3064 11.6952 54.2586 11.7215 54.2138C12.476 52.0613 14.0295 50.882 14.5278 50.5118C14.6776 50.4005 14.8179 50.3026 14.9148 50.2359C15.6352 49.5253 16.4133 49.0407 17.1596 48.7094Z" fill="#FFE6CF"/>
<path fill-rule="evenodd" clip-rule="evenodd" d="M57.096 15.991C60.3315 15.8854 64.8351 15.7385 69.0522 16.6505C69.1307 16.6675 69.2907 16.6983 69.5098 16.7405C70.3633 16.9051 72.1136 17.2425 73.4374 17.6067C75.0075 18.0386 78.2308 19.0301 80.4992 21.5306C80.5125 21.5433 80.5372 21.5664 80.5765 21.602C80.6324 21.6527 80.6896 21.7035 80.7822 21.7857L80.8107 21.811C80.9078 21.8972 81.0435 22.0179 81.1861 22.1487C81.6695 22.5924 82.577 23.453 83.3371 24.7136C83.3659 24.7428 83.3967 24.7739 83.4349 24.8125C83.4657 24.8436 83.5014 24.8796 83.5447 24.9235L83.55 24.9288C83.7669 25.1483 84.1939 25.5803 84.6137 26.0984C84.9677 26.5351 85.4004 27.1321 85.7814 27.8825C85.7976 27.9056 85.8142 27.9296 85.8308 27.9537C86.1263 28.3837 87.0215 29.6939 87.2495 31.5872C87.3068 31.6995 87.3749 31.8278 87.4786 32.0229L87.5436 32.1451C87.8169 32.6592 88.332 33.628 88.7093 34.7741C89.3562 36.7396 89.4073 39.1172 89.426 39.9894C89.4269 40.0275 89.4276 40.0626 89.4284 40.0948C89.4446 40.798 89.463 41.2747 89.5131 41.6774C89.5265 41.7857 89.5396 41.8643 89.5498 41.9171C89.5766 41.9705 89.605 42.0269 89.6349 42.0862C90.141 43.0911 91.0645 44.9247 91.5434 46.8437C92.2575 49.7053 92.8095 52.4787 93.3164 55.2508C93.582 56.7038 93.595 58.0742 93.5774 59.0759C93.5655 59.7545 93.5494 60.1392 93.536 60.4594C93.5219 60.7971 93.5107 61.0631 93.5107 61.5266C93.5107 62.1537 93.5339 62.616 93.563 63.1951C93.5872 63.6761 93.6154 64.2375 93.6377 65.0409C93.6763 66.4302 93.672 68.2872 93.2786 70.1952C92.8985 72.038 92.2197 73.5887 91.6836 74.7168C91.4192 75.2731 91.2199 75.6732 91.054 76.0064C90.8103 76.4959 90.6387 76.8406 90.4385 77.3229C89.5882 79.3718 87.9981 82.1894 85.629 84.2717C85.5747 84.3483 85.491 84.471 85.3308 84.7082C85.3121 84.7359 85.2914 84.7667 85.2689 84.8004C84.8866 85.3708 83.9553 86.7601 82.4908 87.9286C82.3825 88.015 82.262 88.1167 82.0338 88.3099L82.0229 88.3192C81.8247 88.487 81.5356 88.7318 81.2223 88.9802C80.5958 89.4768 79.5905 90.2195 78.2681 90.8083C76.8181 91.454 75.4013 91.9674 74.0906 92.4068C73.3762 92.6463 72.7471 92.767 72.341 92.8339C72.3008 92.8405 72.2616 92.8468 72.2234 92.8527C72.1453 92.8976 72.0642 92.9438 71.9845 92.9883C71.4855 93.2669 70.3273 93.9014 68.8476 94.2425C64.0987 95.3371 59.2562 95.11 54.5369 93.412C54.0519 93.2375 53.6402 93.0574 53.3406 92.9205C53.1911 92.8522 53.0534 92.7871 52.949 92.7377C52.8314 92.682 52.7649 92.6503 52.6915 92.616C52.6852 92.6131 52.6791 92.6102 52.6732 92.6075C52.045 92.4584 51.4076 92.2951 50.8552 92.1536C50.6565 92.1027 50.4688 92.0546 50.2965 92.011C50.2077 91.9886 50.0634 91.9557 49.8762 91.9131C49.008 91.7154 47.2181 91.3078 45.7778 90.7561C44.0893 90.1093 42.4713 89.3347 40.835 88.3062C40.5326 88.1161 40.2033 87.923 39.7424 87.6532L39.7329 87.6476C39.3099 87.3999 38.7689 87.0831 38.2223 86.7372C37.1298 86.0458 35.6806 85.0354 34.389 83.5892C34.2678 83.4534 34.1479 83.328 33.9431 83.1139C33.8732 83.0408 33.7934 82.9573 33.7003 82.8596C33.3906 82.5347 32.9527 82.0701 32.5154 81.5399C31.7358 80.5949 30.5983 79.0248 30.0713 76.9039C30.0452 76.86 30.0143 76.8086 29.978 76.7494C29.9674 76.7321 29.9557 76.7132 29.9431 76.6926C29.7861 76.4373 29.4777 75.936 29.1992 75.3836C28.8763 74.7432 28.5102 73.8819 28.2878 72.8334C28.1941 72.3919 28.0294 71.9095 27.7074 71.2193C27.183 70.0956 26.907 69.0296 26.7447 68.3414C26.6273 67.8434 26.5759 67.5978 26.5381 67.4169C26.5002 67.2354 26.4759 67.119 26.412 66.8781C26.3511 66.6483 26.2979 66.4753 26.2173 66.2126C26.1687 66.0543 26.1101 65.8634 26.0338 65.608C25.8665 65.0481 25.6412 64.2559 25.4879 63.3527C25.2118 61.7256 24.796 60.1351 24.3595 59.1576C23.7865 57.8744 23.4283 56.6434 23.1789 55.7468C23.1098 55.4983 23.0498 55.2792 22.9957 55.0818C22.826 54.4622 22.7145 54.0554 22.5636 53.6205C21.5886 50.8116 21.637 47.9387 21.6638 46.3528C21.6675 46.13 21.6709 45.9325 21.6709 45.7643C21.6709 43.7609 21.9091 41.442 22.7839 39.0708C23.4768 37.1924 24.5876 34.8209 26.4125 32.7216C26.6285 32.4732 26.8733 32.1357 27.2711 31.522C27.6746 30.8994 28.0987 30.414 28.4267 30.0708C28.7394 29.7437 29.0397 29.4701 29.1875 29.3356L29.192 29.3314C29.2218 29.3043 29.2458 29.2825 29.2662 29.2639C29.3404 29.1575 29.4266 29.0311 29.5378 28.8674C29.5467 28.8543 29.5558 28.8409 29.5651 28.8271C29.7443 28.5633 30.0071 28.1761 30.2983 27.7845C30.9422 26.9187 31.9147 25.7619 33.3945 24.7284C33.48 24.6686 33.6125 24.5712 33.7821 24.4465C34.4526 23.9535 35.7033 23.0339 36.9289 22.3275C37.5868 21.696 38.2213 21.309 38.5761 21.1077C39.2159 20.7448 39.8064 20.5178 40.0467 20.4264C40.0461 20.4266 40.0473 20.4261 40.0467 20.4264C40.759 19.9801 41.6856 19.4566 42.7825 19.0436C44.2677 18.4845 45.7706 18.23 47.3352 18.2074C48.1638 17.7859 49.2779 17.3233 50.6295 17.0723C50.6454 17.0684 50.7005 17.0544 50.8095 17.0219C50.974 16.973 51.0544 16.9473 51.1669 16.9113C51.2755 16.8765 51.4141 16.8321 51.6873 16.7481C52.407 16.5265 53.8989 16.0752 55.6843 16.0331C56.1203 16.0228 56.5928 16.0074 57.096 15.991ZM62.5184 40.58C62.5181 40.5794 62.5243 40.5877 62.5377 40.6066C62.5254 40.5901 62.5188 40.5806 62.5184 40.58Z" fill="#FFE6CF"/>
<path fill-rule="evenodd" clip-rule="evenodd" d="M29.4324 52.4336C30.5548 52.3748 31.6784 52.2631 32.7739 52.0946C36.364 51.5423 40.0837 50.317 43.4244 48.2012C43.8137 47.9546 44.1382 47.7664 44.5545 47.525C44.8156 47.3736 45.1128 47.2013 45.4847 46.9804C46.3076 46.4918 47.3505 45.8449 48.3899 45.0093C49.4844 44.1294 50.3008 43.2512 50.9266 42.5364C51.234 42.1853 51.4463 41.9348 51.6259 41.7231C51.8298 41.4826 51.9915 41.2919 52.2022 41.0602C52.2401 41.0346 52.2894 41.0019 52.3518 40.9616C52.3774 40.945 52.4133 40.922 52.4566 40.8943C52.6219 40.7883 52.8959 40.6128 53.126 40.4574C53.4551 40.2352 53.8938 39.9242 54.3557 39.5283C54.491 39.4123 54.6337 39.2911 54.7828 39.1645C55.7845 38.3137 57.0721 37.2201 58.2982 35.8578C58.479 35.6569 58.717 35.4356 59.2703 34.9412C59.2921 34.9217 59.3146 34.9015 59.3378 34.8808C59.8096 34.4596 60.5525 33.7963 61.2583 33.012C62.0447 32.1383 62.4191 31.782 62.9629 31.3936C66.6928 28.7294 68.8278 25.3808 69.8949 21.2312C70.3819 19.3373 70.3765 17.7016 70.3094 16.4915C70.2685 15.7539 70.2328 15.3683 70.2065 15.085C70.1775 14.7715 70.1601 14.5832 70.1601 14.1819C70.1601 12.4971 69.6679 11.0268 69.43 10.3462C69.3922 10.2379 69.3538 10.1311 69.3159 10.0278C68.9307 6.89165 67.056 4.7008 65.0671 3.43825C63.4564 2.41575 61.6031 1.90907 60.8039 1.69056C60.7433 1.674 60.6888 1.6591 60.6409 1.64575C58.5047 1.05042 56.4072 0.983387 54.8259 1.00283C54.0127 1.01282 53.2186 1.04949 52.5546 1.08042L52.5282 1.08165C51.8365 1.11387 51.2939 1.13915 50.7894 1.1468C48.5522 1.18069 46.615 1.7409 45.4071 2.09978C45.245 2.14796 45.0947 2.19276 44.955 2.2344C43.8458 2.56507 43.4023 2.6973 42.9349 2.75572C41.7539 2.90335 40.8087 3.28926 40.1937 3.59049C39.5638 3.89899 39.0442 4.23735 38.6974 4.47571C38.4085 4.6743 38.1177 4.88985 37.9518 5.01287C37.925 5.03271 37.9015 5.05014 37.8818 5.06471C37.7813 5.13886 37.7294 5.1758 37.711 5.18897C36.528 5.91921 35.2396 6.72653 33.9773 7.59018C33.1626 8.14764 32.2092 8.77493 31.1973 9.44068C29.376 10.6389 27.3654 11.9618 25.6332 13.2263C25.4661 13.3483 25.2361 13.5099 24.9658 13.6998C24.1283 14.2883 22.9036 15.1488 21.9638 15.9451C21.3154 16.4946 20.6326 17.1395 19.9771 17.9037C18.9471 18.65 18.1796 19.4189 17.6772 19.9327C17.5602 20.0523 17.4595 20.1559 17.371 20.2468C17.0156 20.612 16.8578 20.7741 16.641 20.9605C15.4048 22.0237 14.3477 23.4135 13.5958 24.5989C12.8692 25.7443 11.9606 27.4295 11.5556 29.2522C11.4 29.9522 11.3074 30.6079 11.2441 31.1014C11.2054 31.4027 11.1827 31.595 11.1633 31.7587C11.141 31.9473 11.1232 32.0978 11.0907 32.3333C11.0487 32.6384 11.0142 32.8037 10.9989 32.8725C10.9971 32.8762 10.9953 32.8798 10.9936 32.8834C10.488 33.5046 10.1051 34.1834 9.83689 34.8827C9.59365 35.517 9.47655 36.0914 9.41722 36.4885C8.44499 39.4512 9.21051 42.0988 9.97655 43.7401C10.6016 45.0793 11.6015 46.4544 11.9505 46.9344C12.0004 47.003 12.037 47.0534 12.0573 47.0827C12.096 47.1386 12.1533 47.2248 12.2265 47.3346C12.6058 47.9046 13.4099 49.1126 14.2416 50.0491C15.4199 51.3759 17.2603 52.9512 19.9876 53.6331C23.3067 54.4628 26.2547 53.6433 28.101 52.9658C28.5671 52.7948 29.0172 52.6114 29.4324 52.4336ZM9.34085 37.1986L9.34103 37.1964C9.34028 37.205 9.34024 37.2063 9.34085 37.1986ZM17.7276 21.1517C17.7271 21.1524 17.721 21.1673 17.711 21.1941C17.723 21.1644 17.7281 21.1511 17.7276 21.1517Z" fill="#515151"/>
<path d="M89.8247 39.1683C89.7021 39.0583 89.6117 38.9693 89.5342 38.8819C89.7114 39.4622 89.862 40.0531 90.0383 40.6283C90.1531 41.0028 90.3479 41.3319 90.4466 41.7101C90.5 41.9146 90.8327 43.5896 90.709 42.7406C90.6185 42.1197 90.4484 41.4061 90.182 40.8448C90.0472 40.5609 89.9586 39.9683 89.8952 39.6463C89.8699 39.5182 89.9266 39.2597 89.8247 39.1683Z" fill="#515151"/>
<path d="M68.1382 23.9428C66.8567 24.1296 70.8965 23.4217 72.0217 24.0629C72.8763 24.55 73.6445 25.0929 74.5406 25.5034C75.1037 25.7614 75.6544 25.9147 76.2137 26.2096C76.7106 26.4717 77.3032 26.5264 77.8143 26.7811C78.4216 27.0838 79.0581 27.3079 79.6852 27.5772C80.779 28.047 81.985 28.6843 82.7193 29.6551C83.9382 31.2667 85.4272 32.6526 86.7334 34.2027C87.309 34.8858 87.9824 35.6365 88.455 36.4191C88.8052 36.999 88.8106 37.8144 89.1854 38.3974C89.4052 38.7393 89.5069 38.8831 89.8247 39.1683C89.9266 39.2597 89.8699 39.5182 89.8952 39.6463C89.9586 39.9683 90.0472 40.5609 90.182 40.8448C90.4484 41.4061 90.6185 42.1197 90.709 42.7406C90.8327 43.5896 90.5 41.9146 90.4466 41.7101C90.3479 41.3319 90.1531 41.0028 90.0383 40.6283C89.7256 39.608 89.4935 38.5378 89.051 37.5659C88.2461 35.7982 87.6403 33.9745 86.8515 32.2063C86.3057 30.9831 85.1728 29.9007 84.2535 28.9565C83.0919 27.7634 82.0491 26.2027 80.6739 25.2626C79.8409 24.6932 79.0229 24.2306 78.0482 23.9499C77.3234 23.7411 76.7504 23.2896 76.0432 23.048C74.7613 22.6102 73.6155 21.7436 72.316 21.3746C71.6486 21.185 70.6899 21.1787 70.0859 20.8749C69.5854 20.6233 68.3732 20.5401 68.0464 20.8687" stroke="#515151" stroke-width="4" stroke-linecap="round"/>
<path d="M38.6531 53.9121C40.1533 51.9121 43.5755 49.38 43.1566 48.1235C43.1566 47.1542 34.5186 49.7631 33.9799 48.9667C33.5253 48.2946 32.4956 47.8805 31.8072 47.4646C31.1829 47.0874 30.6307 46.579 29.9832 46.2441C28.7134 45.5873 27.5474 44.6954 26.295 43.991C25.2125 43.3821 23.9862 43.182 22.7946 42.851C21.0675 42.3712 19.7143 42.1611 17.9396 42.1804C17.1409 42.1891 16.2843 42.4006 15.7066 42.9784C15.1349 43.5501 14.1908 44.0071 13.7887 44.7219C13.4572 45.3112 13.0172 45.9559 13.0041 46.6465C12.9917 47.3083 13.0889 47.9302 13.1248 48.5777C13.1978 49.8904 10.4874 51.3233 11.1531 52.4126C11.5802 53.1115 16.2727 53.389 17.0142 53.6742C17.4097 53.8263 17.819 54.1686 18.1408 54.4319C18.6354 54.8366 19.3158 54.9872 19.8172 55.3975C20.5836 56.0245 21.69 56.1958 22.4124 56.846C23.4176 57.7507 24.7063 58.4402 25.8256 59.1997C26.392 59.5841 26.9492 60.0354 27.5557 60.3531C28.0711 60.6231 28.9948 61.1715 29.3596 61.6205C29.6064 61.9243 29.9474 62.1025 30.1978 62.3984C30.3701 62.602 30.447 62.8623 30.627 63.0623C30.946 63.4167 31.0985 63.8561 31.3512 64.2425C31.3512 64.2425 31.9351 69.3195 33.1819 68.696C34.8547 67.8597 35.4094 63.5456 35.6531 61.6205C35.791 60.5314 36.1531 59.0068 36.1531 57.9121C37.3341 56.1936 37.5389 55.3975 38.6531 53.9121Z" fill="#515151"/>
<path d="M72.1017 16.684C72.2866 16.6819 72.4711 16.6806 72.6549 16.6806C72.9098 16.6806 73.2129 16.6518 73.5256 16.6292C73.5438 16.635 73.5619 16.6408 73.58 16.6467C74.5476 16.9609 75.4887 17.2132 76.3271 17.7918C78.366 19.1989 80.4676 20.5405 82.3458 22.1634C82.6669 22.4408 82.9978 22.7473 83.312 23.0599C83.4377 23.2086 83.5646 23.3575 83.694 23.5059C83.8016 23.6293 83.9111 23.9827 84.0268 23.8669C84.1348 23.759 83.849 23.6175 83.7448 23.5059C83.6062 23.3576 83.461 23.2081 83.312 23.0599C82.4834 22.0795 81.7082 21.1075 80.6367 20.3471C79.3967 19.4671 78.2381 18.3454 76.8517 17.6959C76.2182 17.3991 75.574 16.9222 74.9169 16.7031C74.5285 16.5736 74.0153 16.5938 73.5256 16.6292C72.9865 16.4563 72.4443 16.3146 71.8934 16.1842C71.8281 16.1687 70.9637 15.867 71.4253 16.2237C71.6419 16.391 71.8681 16.5434 72.1017 16.684Z" fill="#515151"/>
<path d="M67.9844 16.579C69.5195 16.7771 71.1086 16.6806 72.6549 16.6806C73.3088 16.6806 74.2804 16.4909 74.9169 16.7031C75.574 16.9222 76.2182 17.3991 76.8517 17.6959C78.2381 18.3454 79.3967 19.4671 80.6367 20.3471C81.8707 21.2228 82.7118 22.3793 83.694 23.5059C83.8016 23.6293 83.9111 23.9827 84.0268 23.8669C84.1348 23.759 83.849 23.6175 83.7448 23.5059C83.3137 23.0445 82.819 22.5723 82.3458 22.1634C80.4676 20.5405 78.366 19.1989 76.3271 17.7918C75.4887 17.2132 74.5476 16.9609 73.58 16.6467C73.023 16.4659 72.4628 16.319 71.8934 16.1842C71.8281 16.1687 70.9637 15.867 71.4253 16.2237C73.0299 17.4636 75.1585 17.8799 76.9532 18.7677C77.8689 19.2206 78.6466 19.8794 79.5593 20.3358" stroke="#515151" stroke-width="3" stroke-linecap="round"/>
<path d="M29.4285 15.2414C29.4286 15.2179 29.4287 15.1942 29.4287 15.1701C29.4287 13.0487 29.2697 11.175 28.6498 9.13457C27.4981 5.34374 22.5097 3.83431 19.0834 3.14781C17.8279 2.89626 16.6677 2.79681 15.4077 3.09903C14.0138 3.43339 12.3695 3.5461 11.0505 4.08667C10.1131 4.47083 8.89445 4.57618 8.16597 5.30597C7.36697 6.10641 7.04065 7.14706 6.3038 7.97623C4.10172 10.4543 2.70119 12.7803 2.70119 16.1577C2.70119 19.2961 2.24886 22.6849 4.12519 25.4C4.54547 26.0082 4.75042 26.7798 5.23276 27.3509C5.98228 28.2383 7.21162 28.5399 8.14163 29.1921C9.41979 30.0884 10.8123 30.1597 12.3041 30.5333C14.587 31.105 16.7325 30.9303 19.059 30.6552C25.0287 29.9495 29.5659 24.9752 29.6478 18.9012C29.6645 17.6628 29.6565 16.4556 29.4285 15.2414Z" fill="#515151"/>
<path d="M27.0189 12.5364C27.0189 11.3305 27.5153 10.0391 27.1893 8.80536C26.7677 7.2098 24.8283 6.82576 23.611 6.04974C22.4368 5.30115 20.4246 5.51325 19.0955 5.51325C17.4648 5.51325 15.9793 5.62433 14.4097 6.1229C13.5137 6.40752 12.3527 7.52586 11.5617 8.09816C10.7683 8.67217 10.5712 9.65873 10.0403 10.427C8.02221 13.3473 6.86367 16.1933 6.86367 19.7791C6.86367 21.0208 6.40472 23.7421 7.30183 24.705C9.08386 26.6178 11.4892 27.6681 13.9715 28.2898C15.3546 28.6362 16.4041 28.3409 17.7689 28.1678C19.6781 27.9257 20.118 27.2289 21.4446 25.8999C22.3993 24.9435 23.2065 24.2464 24.0248 23.1443C24.8384 22.0486 26.2511 21.6465 26.9215 20.4253C27.4375 19.4854 28.3818 18.9504 28.7715 17.9257C29.1827 16.8444 29.4287 16.3957 29.4287 15.1701C29.4287 13.0487 29.2697 11.175 28.6498 9.13457C27.4981 5.34374 22.5097 3.83431 19.0834 3.14781C17.8279 2.89626 16.6677 2.79681 15.4077 3.09903C14.0138 3.43339 12.3695 3.5461 11.0505 4.08667C10.1131 4.47083 8.89445 4.57618 8.16597 5.30597C7.36697 6.10641 7.04064 7.14706 6.30381 7.97623C4.10172 10.4543 2.70118 12.7803 2.70118 16.1577C2.70118 19.2961 2.24886 22.6849 4.12519 25.4C4.54547 26.0082 4.75041 26.7798 5.23276 27.3509C5.98228 28.2383 7.21162 28.5399 8.14163 29.1921C9.41979 30.0884 10.8123 30.1597 12.3041 30.5333C14.587 31.105 16.7325 30.9303 19.059 30.6552C25.0287 29.9495 29.5659 24.9752 29.6478 18.9012C29.6656 17.5805 29.6553 16.2954 29.3801 14.9994C29.0662 13.5215 28.1322 12.6474 27.3353 11.439C26.6934 10.4657 26.4854 9.29504 25.607 8.46395C24.6212 7.53116 22.6687 7.48851 21.4202 7.48851C18.3975 7.48851 15.292 7.11157 12.6084 8.70781C11.0028 9.66286 8.72252 9.86532 7.52091 11.4878C6.8056 12.4537 5.77591 13.9027 5.56137 15.0848C5.2645 16.7205 4.89197 18.0106 4.89197 19.7181C4.89197 22.3025 5.61464 18.0485 5.76828 17.4258C6.65631 13.8268 6.94678 9.89748 9.5413 7.09834C10.6884 5.86073 10.651 6.51593 9.73603 7.80553C8.23611 9.91971 6.64459 11.3978 6.64459 14.0727C6.64459 17.2484 5.47519 20.4352 6.08473 23.632C6.11994 23.8167 6.62429 25.7112 6.51071 24.7782C6.38437 23.7403 6.30849 22.6333 5.98736 21.6324C5.5596 20.2992 5.63616 22.7208 5.76828 23.1443C6.21552 24.5781 10.3425 24.7711 11.4643 24.9977C13.0381 25.3155 14.6779 25.5574 16.2719 25.7171C17.9812 25.8883 18.965 26.5364 20.7143 25.9731C22.0815 25.5328 23.365 24.864 23.9396 23.4248C24.2859 22.5574 24.211 25.2735 24.3778 26.1926C24.4063 26.3496 24.4273 25.6336 24.4386 25.5585C24.5829 24.601 24.5741 25.4392 24.4995 25.8878C24.4488 26.1924 24.5085 26.8638 24.7307 26.1682C24.982 25.3817 24.8146 24.3927 24.8403 23.5833C24.878 22.3928 24.6858 19.9023 25.4853 18.9012C26.0123 18.2413 25.7044 16.656 25.7044 15.8773C25.7044 14.937 25.5112 13.7915 25.7166 12.8656C25.8723 12.1638 27.7692 15.1993 27.9439 15.4993C28.5725 16.5789 26.8327 13.2375 26.0452 12.2682C24.6988 10.6111 22.3025 10.1222 20.2761 10.1222C19.1531 10.1222 17.8766 9.95886 16.7709 10.171C15.5753 10.4003 14.1601 11.305 13.0952 11.9024C11.8959 12.5752 11.0881 12.8555 10.6732 14.1947C10.3743 15.1595 9.71169 15.8939 9.71169 16.9259C9.71169 18.6852 9.10094 21.8274 10.3933 23.1809C11.056 23.8751 11.7986 24.3272 12.7179 24.4978C13.8367 24.7053 15.8371 24.9159 16.9169 24.4734C17.8514 24.0904 18.8048 23.5943 19.5824 22.9614C20.1415 22.5063 20.6246 21.973 21.1768 21.5105C21.6518 21.1126 22.3841 20.9932 22.759 20.4863C24.0379 18.7567 22.938 15.634 22.5278 13.7435C22.0792 11.6762 19.9416 11.1529 18.061 11.4878C16.6789 11.734 14.9267 11.7586 13.8985 12.829C13.0977 13.6628 11.9871 14.7397 11.6347 15.8773C11.2062 17.2606 11.1264 19.9479 11.8416 21.2544C12.2151 21.9368 13.6372 24.256 14.6531 24.071C16.0731 23.8124 17.4124 22.9703 18.8156 22.5835C19.1915 22.4798 20.3066 22.4036 20.6169 22.1445C22.2239 20.803 22.6373 19.0182 22.6373 17.0722C22.6373 14.9727 19.5136 14.0727 17.8298 14.0727C16.4919 14.0727 14.7505 15.5971 14.7505 16.9747C14.7505 18.0286 14.6714 18.7136 15.5051 19.4864C16.3188 20.2408 17.2052 21.4885 18.4018 21.6324C20.5324 21.8885 21.7732 19.465 21.2255 17.6819C19.7307 12.8151 13.4984 20.3145 16.2232 21.7299C16.782 22.0202 18.7814 22.5571 19.2294 21.8519C19.7507 21.0313 18.8962 19.4229 18.0854 19.1206C17.0542 18.7363 16.3208 21.2598 17.1117 20.8277C18.0909 20.2926 19.5893 19.223 17.6472 18.8158C16.1771 18.5076 14.0278 18.3552 13.2291 19.8888C12.5817 21.1319 14.5792 22.2157 15.639 22.1567C16.8633 22.0886 17.5108 20.695 16.2354 20.0961C15.0436 19.5364 13.3271 18.6206 13.436 20.657C13.5067 21.9785 15.7317 24.2724 17.1604 23.5833C18.5905 22.8934 19.0481 20.1425 17.3673 19.4986C15.1689 18.6566 13.1654 21.8915 12.8275 23.6686C12.3929 25.9544 16.2165 25.2659 17.5985 25.2659" stroke="#515151" stroke-width="4" stroke-linecap="round"/>
<path d="M62.9132 58.7936C61.9849 58.8306 61.3992 60.2319 61.4507 60.824C61.5201 61.6227 61.7588 62.5318 62.1706 63.2098C62.3248 63.4638 62.5116 63.6186 62.7802 63.7492C62.989 63.8509 63.0971 63.9136 63.3308 63.8394C63.4494 63.8018 63.9304 63.4154 64.0324 63.3213C64.5449 62.8484 64.2351 62.4464 64.4225 61.791C64.5146 61.4688 64.477 61.0581 64.3574 60.7608C64.2364 60.4601 64.3523 60.0835 64.2436 59.7932C64.1127 59.4438 63.2865 58.8053 62.9132 58.7936ZM62.9132 58.7936C62.4915 58.7804 62.4517 59.0674 62.5436 59.4379C62.6409 59.8306 62.6555 60.2889 62.6566 60.6917C62.6582 61.3214 62.8489 62.105 63.0473 62.7022" stroke="#A58466" stroke-width="2" stroke-linecap="round"/>
<path d="M78.3229 55.2716C77.3946 55.3087 76.8089 56.7099 76.8604 57.302C76.9298 58.1007 77.1684 59.0098 77.5802 59.6879C77.7344 59.9418 77.9213 60.0966 78.1899 60.2273C78.3987 60.3289 78.5068 60.3917 78.7405 60.3175C78.859 60.2799 79.3401 59.8934 79.4421 59.7993C79.9546 59.3264 79.6448 58.9244 79.8321 58.269C79.9243 57.9468 79.8867 57.5361 79.7671 57.2389C79.6461 56.9381 79.762 56.5615 79.6533 56.2712C79.5224 55.9218 78.6962 55.2833 78.3229 55.2716ZM78.3229 55.2716C77.9012 55.2584 77.8614 55.5455 77.9532 55.9159C78.0506 56.3087 78.0652 56.7669 78.0662 57.1697C78.0679 57.7994 78.2586 58.583 78.457 59.1802" stroke="#A58466" stroke-width="2" stroke-linecap="round"/>
<path d="M62.2741 71.4961C62.6144 71.3187 63.5213 72.4411 63.9333 72.5683C64.524 72.7507 65.12 72.94 65.7218 73.1062C67.0345 73.4687 68.3774 73.6126 69.7448 73.6945C72.4319 73.8554 74.8943 73.1616 77.3585 72.2254C78.24 71.8905 79.1474 71.1649 80.0009 70.688C80.7747 70.2557 81.2437 69.9337 81.736 69.2145C82.046 68.7616 82.238 68.2749 82.5696 67.8259C82.7619 67.5655 83.0865 67.255 83.1791 66.9312C83.3272 66.4132 83.6202 65.9473 83.6532 65.3961" stroke="#A58466" stroke-width="2" stroke-linecap="round"/>
<path d="M71.0849 62.9321C71.3516 62.8115 71.5548 62.6888 71.8569 62.7069C72.1026 62.7216 72.38 62.7624 72.6025 62.8721C73.0171 63.0767 73.2153 63.5892 73.2788 64.0195C73.3143 64.2598 73.3356 64.5438 73.2781 64.7871C73.2268 65.0042 73.0044 65.1732 72.8939 65.3597C72.8356 65.4582 72.7799 65.494 72.6781 65.5398C72.5529 65.5961 72.4458 65.7076 72.3128 65.7472C72.1948 65.7823 72.1088 65.8794 71.9859 65.9176C71.9105 65.9411 71.7875 66.0143 71.715 66.01" stroke="#A58466" stroke-width="2" stroke-linecap="round"/>
<path d="M76.352 49.3448C76.999 48.8596 77.9351 48.9139 78.6979 48.9139C79.3148 48.9139 80.0177 48.8939 80.5747 49.1725" stroke="#A58466" stroke-width="2" stroke-linecap="round"/>
<path d="M61.5503 52.3608C60.7516 52.2334 59.9489 52.7181 59.2742 53.0739C58.7286 53.3617 58.0975 53.6719 57.7347 54.178" stroke="#A58466" stroke-width="2" stroke-linecap="round"/>
<path d="M44.2417 46.4912C44.0794 46.7486 43.9372 47.0204 43.7675 47.2727C43.4492 47.746 43.0801 48.1828 42.7584 48.6536C42.4603 49.0899 42.2004 49.4323 41.7341 49.7007C41.3897 49.8989 41.0138 50.0427 40.6567 50.2128" stroke="#515151" stroke-linecap="round"/>
<path d="M52.4248 39.9971C52.1358 40.3845 51.8541 40.7917 51.5001 41.1244C51.1158 41.4856 50.6475 41.7648 50.2169 42.0647C49.2486 42.7392 48.2922 43.4312 47.3284 44.1116" stroke="#515151" stroke-linecap="round"/>
<path d="M84.8743 25.9932C85.8688 27.2761 86.7815 28.6178 87.6547 29.9859C87.772 30.1696 87.791 30.3556 87.8145 30.5667" stroke="#515151" stroke-linecap="round"/>
<path d="M74.0942 25.6012C72.9507 25.3587 71.8103 24.9389 70.675 24.6539C68.0866 24.004 65.5019 23.3435 62.9218 22.6611" stroke="#515151" stroke-linecap="round"/>
<path d="M84.322 26.5997C84.6694 25.5574 82.5318 24.343 81.8203 23.9427C80.3877 23.1369 79.1022 22.2072 77.5762 21.5532C77.2941 21.4323 77.2106 21.2532 76.9896 21.0874C76.5592 20.7646 75.7856 20.7752 75.2729 20.6992C74.6969 20.6139 74.1497 19.9954 73.5735 19.7676C73.0228 19.5498 72.4939 19.3557 71.9777 19.0689C71.3637 18.7277 70.6385 18.9265 70.0367 18.5254" stroke="#515151" stroke-width="4" stroke-linecap="round"/>
<path d="M88.5367 30.0352C88.5448 30.496 88.8144 30.938 88.84 31.3981C88.8515 31.6053 88.9595 31.7911 88.9748 31.9971C88.9899 32.2009 89.065 32.4292 89.1096 32.6299C89.3224 33.5876 89.5499 34.5461 89.7236 35.5017C89.8115 35.9852 89.9806 36.4533 90.0793 36.9358C90.1444 37.2541 90.2429 37.5706 90.3152 37.8868C90.3768 38.1562 90.3722 38.4524 90.392 38.7293C90.4036 38.8917 90.4575 39.0329 90.4575 39.2011C90.4575 39.3571 90.4575 39.5131 90.4575 39.6691C90.4575 39.9257 90.4793 40.1745 90.4893 40.4292C90.4985 40.6644 90.4938 40.8874 90.5268 41.1181C90.5498 41.2792 90.5923 41.416 90.5923 41.5936" stroke="#515151" stroke-width="4" stroke-linecap="round"/>
<path d="M83.1699 37.0806C83.4132 37.0993 83.4581 37.2513 83.6135 37.4067C83.7924 37.5856 84.0192 37.7356 84.1712 37.9351C84.4654 38.3212 84.7372 38.786 85.1594 39.0439C86.2186 39.6913 86.806 40.8135 87.3967 41.8683C87.8505 42.6787 88.3656 43.4894 88.6165 44.3927C88.7403 44.8384 88.9049 45.2939 89.0405 45.7429C89.1743 46.1864 89.334 46.71 89.334 47.1779" stroke="#FFE6CF" stroke-width="4" stroke-linecap="round"/>
<path d="M80.6533 54.312C80.5856 54.561 80.5161 54.8119 80.4141 55.0495C80.3114 55.2887 80.198 55.4038 80.0138 55.5662" stroke="#A58466" stroke-linecap="round"/>
<path d="M59.9697 59.1255C60.1218 59.3339 60.2763 59.5436 60.4564 59.7291C60.6377 59.9159 60.7846 59.983 61.0146 60.069" stroke="#A58466" stroke-linecap="round"/>
</svg>
