<svg width="220" height="126" viewBox="0 0 220 126" fill="none" xmlns="http://www.w3.org/2000/svg">
<path d="M196.69 62.1597C196.69 62.0322 196.69 61.984 196.69 62.1035C196.69 62.1223 196.69 62.141 196.69 62.1597Z" fill="#515151"/>
<path d="M201.5 55.9121C201.5 58.0189 200.761 63.106 200.259 65.1023C199.78 67.0088 198.669 68.6322 197.904 70.3312C197.714 70.7541 196.912 72.5451 196.458 72.471C196.176 72.425 196.654 71.2632 196.69 71.1751C197.104 70.1724 197.359 69.2045 197.383 68.0483C197.4 67.2351 197.462 66.3256 197.278 65.5393C197.091 64.7404 196.863 63.9515 196.735 63.1282C196.683 62.7936 196.69 61.7614 196.69 62.1035C196.69 63.2189 196.679 64.3234 196.585 65.4338C196.511 66.3113 196.292 67.1104 196.292 67.9805" stroke="#515151" stroke-width="4" stroke-linecap="round"/>
<path d="M144.436 29.209C143.303 28.4956 141.79 28.7752 140.499 28.7752C139.24 28.7752 138.15 28.8739 137.052 29.5144C135.882 30.1971 134.832 31.0502 133.702 31.7802C132.671 32.4462 132.332 33.1634 131.757 34.1585C131.216 35.0956 130.717 36.0568 130.118 36.9546C129.69 37.5975 129.586 38.538 129.323 39.2686C128.976 40.2324 128.749 41.347 128.664 42.362C128.609 43.0254 128.292 43.6435 128.246 44.3145C128.204 44.9309 128.238 45.5614 128.238 46.1786C128.238 48.2814 127.804 50.335 127.804 52.4457C127.804 53.8684 127.874 55.1698 128.31 56.5274C128.377 56.7336 128.609 57.8077 128.768 57.9094C129.293 58.2434 129.718 57.6686 129.829 57.2345C130.09 56.2173 130.341 55.6256 130.954 54.7758C131.984 53.3464 133.047 52.0002 134.216 50.6781C135.058 49.726 135.611 48.6043 136.273 47.5284C137.603 45.3672 139.112 43.2837 140.531 41.1809C141.054 40.4068 141.443 39.635 142.315 39.2204C142.915 38.9354 143.451 38.5434 144.002 38.1759" stroke="#515151" stroke-width="12" stroke-linecap="round"/>
<path fill-rule="evenodd" clip-rule="evenodd" d="M195.494 63.7094C193.524 60.9807 189.748 60.2816 186.935 62.1697C186.166 62.6857 185.65 63.2537 185.352 63.6163C185.304 63.6751 185.259 63.7318 185.218 63.7854C184.648 64.2746 184.237 64.7383 184.015 64.9893C183.896 65.1251 183.729 65.3207 183.632 65.4337C183.601 65.4698 183.578 65.4975 183.565 65.5121C183.515 65.5703 183.484 65.605 183.468 65.6229C183.452 65.6376 183.424 65.6629 183.38 65.7019C183.367 65.7136 183.35 65.7289 183.329 65.7472C183.23 65.8352 183.054 65.9914 182.896 66.1375C182.576 66.4352 181.827 67.1381 181.195 68.1505L181.144 68.2174C181.12 68.2485 181.089 68.2894 181.056 68.3339C181.023 68.3786 180.982 68.4339 180.937 68.4957C180.481 69.1267 180.202 69.7228 180.032 70.1492C179.957 70.336 179.894 70.5136 179.845 70.6613C179.325 71.5255 178.623 72.7778 178.151 74.1078C177.319 76.4517 177.307 78.4311 177.307 79.8718C177.307 81.9815 177.463 84.1664 178.261 86.667C178.297 86.7816 178.346 86.9675 178.442 87.4067C178.452 87.4513 178.463 87.5008 178.475 87.5544C178.556 87.9254 178.68 88.4971 178.834 89.0537C179.314 90.7951 180.365 92.6076 182.264 93.8463C184.021 94.9928 185.847 95.2115 187.108 95.2115C188.999 95.2115 190.952 94.8613 192.836 93.8084C194.621 92.8104 195.861 91.4437 196.757 90.3004C197.398 89.4828 197.76 88.7012 197.921 88.3456C197.959 88.2616 197.995 88.1804 198.018 88.129L198.023 88.1172L198.04 88.0791C198.068 88.0375 198.116 87.9651 198.201 87.8441C198.215 87.8235 198.232 87.7994 198.251 87.7724C198.404 87.5553 198.694 87.1419 198.963 86.6989C199.152 86.3872 199.313 86.0928 199.421 85.8926C199.463 85.8153 199.497 85.7525 199.526 85.6986C199.588 85.5838 199.628 85.5093 199.677 85.4211C199.694 85.3908 199.708 85.366 199.72 85.3462C200.732 84.1577 201.208 82.9008 201.374 82.4627C201.38 82.4454 201.386 82.4294 201.392 82.4147C201.439 82.2908 201.449 82.2624 201.458 82.2396C201.46 82.2332 201.462 82.2272 201.465 82.2197C202.021 81.2903 202.281 80.3966 202.413 79.7579C202.566 79.0187 202.601 78.3618 202.608 77.9184C202.616 77.4683 202.597 77.0589 202.586 76.8323C202.573 76.5644 202.572 76.5214 202.572 76.5214C202.572 76.5214 202.572 76.5226 202.572 76.5242C202.572 75.5642 202.437 74.6887 202.373 74.2711C202.37 74.2464 202.366 74.2233 202.363 74.2019C202.318 73.9046 202.302 73.7803 202.298 73.7491C202.286 72.5343 202.008 71.5398 201.693 70.7723C201.569 70.4701 201.441 70.2107 201.393 70.112C201.39 70.107 201.388 70.1024 201.386 70.0982C201.356 70.0375 201.343 70.0101 201.338 70.001C201.218 69.7296 201.099 69.508 201.014 69.3568C200.986 69.3064 200.958 69.2586 200.932 69.2138C200.177 67.0613 198.624 65.882 198.125 65.5118C197.976 65.4005 197.835 65.3026 197.739 65.2359C197.018 64.5253 196.24 64.0407 195.494 63.7094Z" fill="#FDEAD8"/>
<path fill-rule="evenodd" clip-rule="evenodd" d="M155.557 30.991C152.322 30.8854 147.818 30.7385 143.601 31.6505C143.523 31.6675 143.363 31.6983 143.144 31.7405C142.29 31.9051 140.54 32.2425 139.216 32.6067C137.646 33.0386 134.423 34.0301 132.154 36.5306C132.141 36.5433 132.116 36.5664 132.077 36.602C132.021 36.6527 131.964 36.7035 131.871 36.7857L131.843 36.811C131.746 36.8972 131.61 37.0179 131.467 37.1487C130.984 37.5924 130.076 38.453 129.316 39.7136C129.287 39.7428 129.257 39.7739 129.218 39.8125C129.188 39.8436 129.152 39.8796 129.109 39.9235L129.103 39.9288C128.886 40.1483 128.459 40.5803 128.04 41.0984C127.686 41.5351 127.253 42.1321 126.872 42.8825C126.856 42.9056 126.839 42.9296 126.823 42.9537C126.527 43.3837 125.632 44.6939 125.404 46.5872C125.347 46.6995 125.278 46.8278 125.175 47.0229L125.11 47.1451C124.836 47.6592 124.321 48.628 123.944 49.7741C123.297 51.7396 123.246 54.1172 123.227 54.9894C123.226 55.0275 123.226 55.0626 123.225 55.0948C123.209 55.798 123.19 56.2747 123.14 56.6774C123.127 56.7857 123.114 56.8643 123.104 56.9171C123.077 56.9705 123.048 57.0269 123.018 57.0862C122.512 58.0911 121.589 59.9247 121.11 61.8437C120.396 64.7053 119.844 67.4787 119.337 70.2508C119.071 71.7038 119.058 73.0741 119.076 74.0759C119.088 74.7545 119.104 75.1392 119.117 75.4594C119.131 75.7971 119.143 76.0631 119.143 76.5266C119.143 77.1537 119.119 77.616 119.09 78.1952C119.066 78.6761 119.038 79.2375 119.016 80.0409C118.977 81.4302 118.981 83.2872 119.375 85.1952C119.755 87.038 120.434 88.5887 120.97 89.7168C121.234 90.2731 121.433 90.6732 121.599 91.0064C121.843 91.4959 122.015 91.8406 122.215 92.3229C123.065 94.3718 124.655 97.1894 127.024 99.2717C127.079 99.3483 127.162 99.471 127.323 99.7082C127.341 99.7359 127.362 99.7667 127.384 99.8004C127.767 100.371 128.698 101.76 130.163 102.929C130.271 103.015 130.391 103.117 130.62 103.31L130.63 103.319C130.829 103.487 131.118 103.732 131.431 103.98C132.058 104.477 133.063 105.22 134.385 105.808C135.835 106.454 137.252 106.967 138.563 107.407C139.277 107.646 139.906 107.767 140.312 107.834C140.352 107.84 140.392 107.847 140.43 107.853C140.508 107.898 140.589 107.944 140.669 107.988C141.168 108.267 142.326 108.901 143.806 109.242C148.555 110.337 153.397 110.11 158.116 108.412C158.601 108.238 159.013 108.057 159.313 107.92C159.462 107.852 159.6 107.787 159.704 107.738C159.822 107.682 159.888 107.65 159.962 107.616C159.968 107.613 159.974 107.61 159.98 107.607C160.608 107.458 161.246 107.295 161.798 107.154C161.997 107.103 162.185 107.055 162.357 107.011C162.446 106.989 162.59 106.956 162.777 106.913C163.645 106.715 165.435 106.308 166.876 105.756C168.564 105.109 170.182 104.335 171.818 103.306C172.121 103.116 172.45 102.923 172.911 102.653L172.92 102.648C173.343 102.4 173.884 102.083 174.431 101.737C175.524 101.046 176.973 100.035 178.264 98.5892C178.386 98.4534 178.505 98.328 178.71 98.1139C178.78 98.0408 178.86 97.9573 178.953 97.8596C179.263 97.5347 179.701 97.0701 180.138 96.5399C180.918 95.5949 182.055 94.0248 182.582 91.9039C182.608 91.86 182.639 91.8086 182.675 91.7494C182.686 91.7321 182.698 91.7132 182.71 91.6926C182.867 91.4373 183.176 90.936 183.454 90.3836C183.777 89.7432 184.143 88.8819 184.366 87.8334C184.459 87.3919 184.624 86.9095 184.946 86.2193C185.47 85.0956 185.746 84.0296 185.909 83.3414C186.026 82.8434 186.077 82.5978 186.115 82.4169C186.153 82.2354 186.177 82.119 186.241 81.8781C186.302 81.6483 186.355 81.4753 186.436 81.2126C186.485 81.0543 186.543 80.8634 186.62 80.608C186.787 80.0481 187.012 79.2559 187.165 78.3527C187.441 76.7256 187.857 75.1351 188.294 74.1576C188.867 72.8744 189.225 71.6434 189.474 70.7468C189.544 70.4983 189.604 70.2792 189.658 70.0818C189.827 69.4622 189.939 69.0554 190.09 68.6205C191.065 65.8116 191.016 62.9387 190.99 61.3528C190.986 61.13 190.982 60.9325 190.982 60.7643C190.982 58.7609 190.744 56.442 189.869 54.0708C189.177 52.1924 188.066 49.8209 186.241 47.7216C186.025 47.4732 185.78 47.1357 185.382 46.522C184.979 45.8994 184.555 45.414 184.227 45.0708C183.914 44.7437 183.614 44.4701 183.466 44.3356L183.461 44.3314C183.432 44.3043 183.408 44.2825 183.387 44.2639C183.313 44.1575 183.227 44.0311 183.116 43.8674C183.107 43.8543 183.098 43.8409 183.088 43.8271C182.909 43.5633 182.646 43.1761 182.355 42.7845C181.711 41.9187 180.739 40.7619 179.259 39.7284C179.173 39.6686 179.041 39.5712 178.871 39.4465C178.201 38.9535 176.95 38.0339 175.724 37.3275C175.066 36.696 174.432 36.309 174.077 36.1077C173.437 35.7448 172.847 35.5178 172.607 35.4264C172.606 35.4261 172.607 35.4266 172.607 35.4264C171.894 34.9801 170.968 34.4566 169.871 34.0436C168.386 33.4845 166.883 33.23 165.318 33.2074C164.49 32.7859 163.375 32.3233 162.024 32.0723C162.008 32.0684 161.953 32.0544 161.844 32.0219C161.679 31.973 161.599 31.9473 161.486 31.9113C161.378 31.8765 161.239 31.8321 160.966 31.7481C160.246 31.5265 158.754 31.0752 156.969 31.0331C156.533 31.0228 156.061 31.0074 155.557 30.991ZM150.135 55.58C150.135 55.5794 150.129 55.5877 150.116 55.6066C150.128 55.5901 150.135 55.5806 150.135 55.58Z" fill="#FDEAD8"/>
<path fill-rule="evenodd" clip-rule="evenodd" d="M183.221 67.4336C182.099 67.3748 180.975 67.2631 179.879 67.0946C176.289 66.5423 172.57 65.317 169.229 63.2012C168.84 62.9546 168.515 62.7664 168.099 62.525C167.838 62.3736 167.541 62.2013 167.169 61.9804C166.346 61.4918 165.303 60.8449 164.263 60.0093C163.169 59.1294 162.353 58.2512 161.727 57.5364C161.419 57.1853 161.207 56.9348 161.027 56.7231C160.824 56.4826 160.662 56.2919 160.451 56.0602C160.413 56.0346 160.364 56.0019 160.302 55.9616C160.276 55.945 160.24 55.922 160.197 55.8943C160.031 55.7883 159.757 55.6128 159.527 55.4574C159.198 55.2352 158.76 54.9242 158.298 54.5283C158.162 54.4123 158.02 54.2911 157.871 54.1645C156.869 53.3137 155.581 52.2201 154.355 50.8578C154.174 50.6569 153.936 50.4356 153.383 49.9412C153.361 49.9217 153.339 49.9015 153.316 49.8808C152.844 49.4596 152.101 48.7963 151.395 48.012C150.609 47.1383 150.234 46.782 149.69 46.3936C145.961 43.7294 143.825 40.3808 142.758 36.2312C142.271 34.3373 142.277 32.7016 142.344 31.4915C142.385 30.7539 142.421 30.3683 142.447 30.085C142.476 29.7715 142.493 29.5832 142.493 29.1819C142.493 27.4971 142.985 26.0268 143.223 25.3462C143.261 25.2379 143.3 25.1311 143.337 25.0278C143.723 21.8916 145.597 19.7008 147.586 18.4382C149.197 17.4157 151.05 16.9091 151.849 16.6906C151.91 16.674 151.965 16.6591 152.012 16.6457C154.149 16.0504 156.246 15.9834 157.827 16.0028C158.641 16.0128 159.435 16.0495 160.099 16.0804L160.125 16.0816C160.817 16.1139 161.359 16.1392 161.864 16.1468C164.101 16.1807 166.038 16.7409 167.246 17.0998C167.408 17.148 167.559 17.1928 167.698 17.2344C168.807 17.5651 169.251 17.6973 169.718 17.7557C170.899 17.9033 171.845 18.2893 172.46 18.5905C173.089 18.899 173.609 19.2373 173.956 19.4757C174.245 19.6743 174.536 19.8898 174.702 20.0129C174.728 20.0327 174.752 20.0501 174.772 20.0647C174.872 20.1389 174.924 20.1758 174.942 20.189C176.125 20.9192 177.414 21.7265 178.676 22.5902C179.491 23.1476 180.444 23.7749 181.456 24.4407C183.277 25.6389 185.288 26.9618 187.02 28.2263C187.187 28.3483 187.417 28.5099 187.687 28.6998C188.525 29.2883 189.75 30.1488 190.69 30.9451C191.338 31.4946 192.021 32.1395 192.676 32.9037C193.706 33.65 194.474 34.4189 194.976 34.9327C195.093 35.0523 195.194 35.1559 195.282 35.2468C195.638 35.612 195.795 35.7741 196.012 35.9605C197.249 37.0237 198.306 38.4135 199.058 39.5989C199.784 40.7443 200.693 42.4295 201.098 44.2522C201.253 44.9522 201.346 45.6079 201.409 46.1014C201.448 46.4027 201.471 46.595 201.49 46.7587C201.512 46.9473 201.53 47.0978 201.563 47.3333C201.605 47.6384 201.639 47.8037 201.654 47.8725C201.656 47.8762 201.658 47.8798 201.66 47.8834C202.165 48.5046 202.548 49.1834 202.816 49.8827C203.06 50.517 203.177 51.0914 203.236 51.4885C204.208 54.4512 203.443 57.0988 202.677 58.7401C202.052 60.0793 201.052 61.4544 200.703 61.9344C200.653 62.003 200.616 62.0534 200.596 62.0827C200.557 62.1386 200.5 62.2248 200.427 62.3346C200.047 62.9046 199.243 64.1126 198.412 65.0492C197.233 66.3759 195.393 67.9512 192.666 68.6331C189.347 69.4628 186.399 68.6433 184.552 67.9658C184.086 67.7948 183.636 67.6114 183.221 67.4336ZM203.312 52.1986L203.312 52.1964C203.313 52.205 203.313 52.2063 203.312 52.1986ZM194.926 36.1517C194.926 36.1524 194.932 36.1673 194.942 36.1941C194.93 36.1644 194.925 36.1511 194.926 36.1517Z" fill="#515151"/>
<path d="M123.988 55.6411C124.093 55.5145 124.17 55.4134 124.234 55.3158C124.142 55.9155 124.078 56.522 123.987 57.1166C123.927 57.5038 123.782 57.8575 123.739 58.2459C123.716 58.4561 123.628 60.1615 123.628 59.3035C123.628 58.6761 123.693 57.9454 123.876 57.3516C123.968 57.0512 123.971 56.452 123.987 56.1243C123.994 55.9939 123.9 55.7462 123.988 55.6411Z" fill="#515151"/>
<path d="M143.252 37.4471C144.547 37.4471 140.447 37.3292 139.426 38.126C138.651 38.7312 137.969 39.3793 137.141 39.9148C136.621 40.2512 136.098 40.4823 135.588 40.8548C135.134 41.1858 134.555 41.3255 134.086 41.6513C133.529 42.0383 132.931 42.3519 132.35 42.7088C131.335 43.3314 130.234 44.136 129.647 45.2026C128.673 46.9731 127.4 48.5592 126.331 50.2815C125.86 51.0405 125.301 51.8805 124.947 52.7231C124.684 53.3474 124.796 54.155 124.509 54.786C124.341 55.156 124.261 55.313 123.988 55.6411C123.9 55.7462 123.994 55.9939 123.987 56.1243C123.971 56.452 123.968 57.0512 123.876 57.3516C123.693 57.9454 123.628 58.6761 123.628 59.3035C123.628 60.1615 123.716 58.4561 123.739 58.2459C123.782 57.8575 123.927 57.5038 123.987 57.1166C124.149 56.0618 124.225 54.9694 124.522 53.9439C125.064 52.0785 125.4 50.1866 125.926 48.3231C126.289 47.0339 127.254 45.7994 128.028 44.7326C129.005 43.3844 129.812 41.6896 131.037 40.561C131.78 39.8775 132.522 39.3017 133.446 38.8833C134.133 38.5721 134.635 38.0427 135.3 37.7017C136.506 37.0836 137.514 36.0608 138.747 35.5082C139.38 35.2244 140.328 35.0799 140.882 34.6922C141.341 34.371 142.528 34.1139 142.899 34.3919" stroke="#515151" stroke-width="4" stroke-linecap="round"/>
<path d="M174 68.9121C172.5 66.9121 169.078 64.38 169.497 63.1235C169.497 62.1542 178.135 64.7631 178.673 63.9667C179.128 63.2946 180.158 62.8805 180.846 62.4646C181.47 62.0874 182.023 61.579 182.67 61.2441C183.94 60.5873 185.106 59.6954 186.358 58.991C187.441 58.3821 188.667 58.182 189.859 57.851C191.586 57.3712 192.939 57.1611 194.714 57.1804C195.512 57.1891 196.369 57.4006 196.947 57.9784C197.518 58.5501 198.462 59.0071 198.865 59.7219C199.196 60.3112 199.636 60.9559 199.649 61.6465C199.662 62.3083 199.564 62.9302 199.528 63.5777C199.456 64.8904 202.166 66.3233 201.5 67.4126C201.073 68.1115 196.381 68.389 195.639 68.6742C195.244 68.8263 194.834 69.1686 194.513 69.4319C194.018 69.8366 193.338 69.9872 192.836 70.3975C192.07 71.0245 190.963 71.1958 190.241 71.846C189.236 72.7507 187.947 73.4402 186.828 74.1997C186.261 74.5841 185.704 75.0354 185.098 75.3531C184.582 75.6231 183.659 76.1715 183.294 76.6205C183.047 76.9243 182.706 77.1025 182.456 77.3984C182.283 77.602 182.206 77.8623 182.026 78.0623C181.707 78.4167 181.555 78.8561 181.302 79.2425C181.302 79.2425 180.718 84.3195 179.471 83.696C177.799 82.8597 177.244 78.5456 177 76.6205C176.862 75.5314 176.5 74.0068 176.5 72.9121C175.319 71.1936 175.114 70.3975 174 68.9121Z" fill="#515151"/>
<path d="M140.552 31.684C140.367 31.6819 140.182 31.6806 139.998 31.6806C139.744 31.6806 139.44 31.6518 139.128 31.6292C139.11 31.635 139.091 31.6408 139.073 31.6467C138.106 31.9609 137.165 32.2132 136.326 32.7918C134.287 34.1989 132.186 35.5405 130.307 37.1634C129.986 37.4408 129.656 37.7473 129.341 38.0599C129.216 38.2086 129.089 38.3575 128.959 38.5059C128.852 38.6293 128.742 38.9827 128.627 38.8669C128.519 38.759 128.804 38.6175 128.909 38.5059C129.047 38.3576 129.192 38.2081 129.341 38.0599C130.17 37.0795 130.945 36.1075 132.017 35.3471C133.257 34.4671 134.415 33.3454 135.802 32.6959C136.435 32.3991 137.079 31.9222 137.736 31.7031C138.125 31.5736 138.638 31.5938 139.128 31.6292C139.667 31.4563 140.209 31.3146 140.76 31.1842C140.825 31.1687 141.69 30.867 141.228 31.2237C141.011 31.391 140.785 31.5434 140.552 31.684Z" fill="#515151"/>
<path d="M144.669 31.579C143.134 31.7771 141.545 31.6806 139.998 31.6806C139.344 31.6806 138.373 31.4909 137.736 31.7031C137.079 31.9222 136.435 32.3991 135.802 32.6959C134.415 33.3454 133.257 34.4671 132.017 35.3471C130.783 36.2228 129.942 37.3793 128.959 38.5059C128.852 38.6293 128.742 38.9827 128.627 38.8669C128.519 38.759 128.804 38.6175 128.909 38.5059C129.34 38.0445 129.834 37.5723 130.307 37.1634C132.186 35.5405 134.287 34.1989 136.326 32.7918C137.165 32.2132 138.106 31.9609 139.073 31.6467C139.63 31.4659 140.191 31.319 140.76 31.1842C140.825 31.1687 141.69 30.867 141.228 31.2237C139.623 32.4636 137.495 32.8799 135.7 33.7677C134.784 34.2206 134.007 34.8794 133.094 35.3358" stroke="#515151" stroke-width="3" stroke-linecap="round"/>
<path d="M151.78 73.7936C152.708 73.8306 153.294 75.2319 153.243 75.824C153.173 76.6227 152.935 77.5318 152.523 78.2098C152.369 78.4638 152.182 78.6186 151.913 78.7492C151.704 78.8509 151.596 78.9136 151.363 78.8394C151.244 78.8018 150.763 78.4154 150.661 78.3213C150.148 77.8484 150.458 77.4464 150.271 76.791C150.179 76.4688 150.216 76.0581 150.336 75.7608C150.457 75.4601 150.341 75.0835 150.45 74.7932C150.581 74.4438 151.407 73.8053 151.78 73.7936ZM151.78 73.7936C152.202 73.7804 152.242 74.0674 152.15 74.4379C152.052 74.8306 152.038 75.2889 152.037 75.6917C152.035 76.3214 151.844 77.105 151.646 77.7022" stroke="#A58466" stroke-width="2" stroke-linecap="round"/>
<path d="M136.37 70.2716C137.299 70.3087 137.884 71.7099 137.833 72.302C137.764 73.1007 137.525 74.0098 137.113 74.6879C136.959 74.9418 136.772 75.0966 136.504 75.2273C136.295 75.3289 136.187 75.3917 135.953 75.3175C135.834 75.2799 135.353 74.8934 135.251 74.7993C134.739 74.3264 135.049 73.9244 134.861 73.269C134.769 72.9468 134.807 72.5361 134.926 72.2389C135.047 71.9381 134.931 71.5615 135.04 71.2712C135.171 70.9218 135.997 70.2833 136.37 70.2716ZM136.37 70.2716C136.792 70.2584 136.832 70.5455 136.74 70.9159C136.643 71.3087 136.628 71.7669 136.627 72.1697C136.625 72.7994 136.435 73.583 136.236 74.1802" stroke="#A58466" stroke-width="2" stroke-linecap="round"/>
<path d="M152.419 86.4961C152.079 86.3187 151.172 87.4411 150.76 87.5683C150.169 87.7507 149.573 87.94 148.972 88.1062C147.659 88.4687 146.316 88.6126 144.949 88.6945C142.261 88.8554 139.799 88.1616 137.335 87.2254C136.453 86.8905 135.546 86.1649 134.692 85.688C133.919 85.2557 133.45 84.9337 132.957 84.2145C132.647 83.7616 132.455 83.2749 132.124 82.8259C131.931 82.5655 131.607 82.255 131.514 81.9312C131.366 81.4132 131.073 80.9473 131.04 80.3961" stroke="#A58466" stroke-width="2" stroke-linecap="round"/>
<path d="M143.608 77.9321C143.342 77.8115 143.139 77.6888 142.836 77.7069C142.591 77.7216 142.313 77.7624 142.091 77.8721C141.676 78.0767 141.478 78.5892 141.415 79.0195C141.379 79.2598 141.358 79.5438 141.415 79.7871C141.467 80.0042 141.689 80.1732 141.799 80.3597C141.858 80.4582 141.913 80.494 142.015 80.5398C142.14 80.5961 142.248 80.7076 142.381 80.7472C142.499 80.7823 142.585 80.8794 142.707 80.9176C142.783 80.9411 142.906 81.0143 142.978 81.01" stroke="#A58466" stroke-width="2" stroke-linecap="round"/>
<path d="M138.341 64.3448C137.694 63.8596 136.758 63.9139 135.995 63.9139C135.379 63.9139 134.676 63.8939 134.119 64.1725" stroke="#A58466" stroke-width="2" stroke-linecap="round"/>
<path d="M153.143 67.3608C153.942 67.2334 154.744 67.7181 155.419 68.0739C155.965 68.3617 156.596 68.6719 156.959 69.178" stroke="#A58466" stroke-width="2" stroke-linecap="round"/>
<path d="M129.379 49.3018C129.446 49.9364 129.942 50.6246 130.205 51.2068C130.378 51.5886 130.646 51.8701 130.905 52.1937C131.346 52.7445 131.664 53.3978 132.087 53.9668C133.368 55.6889 134.703 57.5869 136.529 58.804C136.852 59.0196 137.177 59.2313 137.515 59.4237C137.705 59.5313 138.208 59.9286 138.416 59.9286C138.516 59.9286 138.468 58.467 138.468 58.2875C138.468 57.0307 138.571 55.7601 138.571 54.489C138.571 53.1059 138.81 51.9961 139.449 50.7879C139.521 50.652 140.021 49.6614 140.281 49.7838C140.394 49.837 140.525 50.2208 140.585 50.3289C140.807 50.7233 141.234 51.0214 141.544 51.3445C141.966 51.785 142.237 52.3984 142.553 52.9167C143.039 53.7111 143.678 54.2262 144.252 54.9308C144.665 55.4371 145.185 55.8559 145.629 56.3366C146.992 57.8109 148.343 59.3044 149.829 60.6574C150.393 61.1707 151.028 61.5583 151.648 61.9599C152.1 62.2521 152.736 62.7133 152.721 61.9599C152.709 61.2987 152.404 60.6639 152.205 60.0434C152.007 59.4281 152.102 58.72 152.102 58.081C152.102 57.4548 152.036 56.852 152.308 56.2735C152.529 55.8045 152.77 55.3491 152.985 54.8791C153.159 54.4984 153.178 53.9791 153.502 54.6267C153.717 55.0569 154.254 55.4619 154.626 55.7571C155.287 56.2813 155.832 56.9454 156.491 57.4613C159.31 59.6672 162.498 61.6645 166.097 62.2181C166.155 62.227 166.447 62.2895 166.447 62.3673C166.447 62.4385 165.803 61.9521 165.735 61.9025C165.048 61.403 164.545 60.5617 164.266 59.768C163.906 58.7396 163.669 57.9449 163.669 56.8416C163.669 56.4284 163.669 56.0153 163.669 55.6021" stroke="#515151" stroke-width="4" stroke-linecap="round"/>
<path d="M127.726 41.3493C127.537 42.2312 127.232 43.0552 127.577 43.9429C127.951 44.9038 128.452 45.5503 129.167 46.307C129.503 46.6631 129.93 47.0021 130.228 47.3857C130.475 47.7029 130.592 48.1019 130.836 48.43C131.917 49.8827 133.531 51.1605 134.314 52.8369C134.558 53.3613 135.001 54.0978 135.415 54.5124C135.503 54.5998 136.184 55.2589 136.184 55.0173C136.184 54.5889 135.887 54.1447 135.725 53.7664C135.378 52.9531 135.209 52.1617 134.635 51.4597C134.051 50.7462 133.517 50.0279 133.103 49.1989C132.753 48.4986 132.545 47.787 132.116 47.1275C131.921 46.8282 131.576 45.1277 131.967 45.4405C133.19 46.4194 134.209 47.5828 135.163 48.8088C135.669 49.46 135.884 49.9243 136.586 50.4154C137.627 51.1439 136.545 48.862 136.448 48.5219C136.205 47.6695 135.693 47.0203 135.186 46.307C134.478 45.3114 134.44 44.062 134.44 42.8986C134.44 42.6463 134.755 42.2207 134.91 42.0206C134.941 41.9807 135.155 41.6876 135.186 41.6821C135.306 41.6603 135.655 42.9467 135.731 43.0994C135.927 43.4912 136.055 43.9247 136.305 44.2872C136.725 44.8971 137.386 45.3539 137.952 45.8135C138.307 46.1024 138.565 46.3744 138.841 46.7316C139.116 47.0878 139.489 47.255 139.811 47.5464C140.691 48.3431 140.022 46.8522 139.868 46.4447C139.594 45.721 139.266 45.0436 139.065 44.2987C138.831 43.4348 138.261 42.6186 138.261 41.7223C138.261 41.2227 138.725 42.3143 138.835 42.4625C139.547 43.423 140.256 44.3523 140.889 45.3659C141.42 46.2152 141.92 47.0123 142.594 47.753C143.803 49.083 144.418 50.9232 145.744 52.1426C146.284 52.6398 146.615 53.2632 147.23 53.6861C147.764 54.0533 148.211 54.593 148.745 54.9886C149.308 55.4058 149.589 55.9299 150.036 56.4289C150.913 57.4087 148.95 55.7205 148.774 55.5797C147.288 54.3976 146.496 52.5731 145.445 51.0236C144.366 49.4321 142.773 47.9293 142.083 46.1004C141.486 44.5161 140.017 43.0623 140.017 41.2977C140.017 41.0265 139.999 40.7478 140.017 40.4771C140.03 40.292 140.121 40.4765 140.178 40.5574C140.663 41.2527 141.176 41.9273 141.653 42.6289C142.585 44.0019 143.498 45.3756 144.401 46.7603C145.845 48.9743 147.503 50.9972 149.301 52.9287C149.782 53.4447 150.249 53.9201 150.656 54.4894C150.842 54.7507 151.051 54.924 151.304 55.1206C151.714 55.4394 150.768 54.2312 150.495 53.7894C149.27 51.8068 147.925 49.8636 146.937 47.7472C146.614 47.054 146.467 46.2337 146.318 45.4864C146.249 45.1451 146.125 44.8063 146.031 44.4708C145.918 44.0669 145.55 43.8022 145.44 43.4035C145.09 42.1458 143.779 41.4095 143.449 40.1558C143.383 39.9081 143.448 39.6391 143.42 39.3869C143.347 38.7304 143.218 39.4682 143.265 39.7771C143.462 41.0765 144.119 42.2889 144.837 43.3576C146.023 45.1234 147.652 46.6245 149.118 48.1718C149.638 48.7205 150.265 49.1803 150.736 49.7728C150.851 49.9171 150.812 50.1089 150.92 50.2318C151.491 50.8851 151.966 51.4325 152.652 51.9819C152.832 52.1258 152.852 52.3135 152.997 52.4582C153.305 52.766 153.691 53.0493 154.041 53.3074C154.465 53.6199 154.892 53.9085 155.326 54.2025C156.165 54.771 156.986 55.3387 157.702 56.0387C158.376 56.6983 159.267 57.3303 160.1 57.7716C160.257 57.8546 161.202 58.4011 161.064 57.8519C160.928 57.3062 160.255 56.7297 159.894 56.3313C159.269 55.6422 158.494 55.1443 157.84 54.4894C156.586 53.2356 155.416 51.8938 154.167 50.6449C153.474 49.9513 152.638 48.9991 151.688 48.6825" stroke="#515151" stroke-width="4" stroke-linecap="round"/>
<path d="M168.563 62.2153C168.54 63.1201 168.397 64.01 168.389 64.9174C168.382 65.8722 168.395 66.8227 168.332 67.7739" stroke="#FDEAD8" stroke-linecap="round"/>
<path d="M168.531 62.1973C168.639 62.3181 168.659 62.5249 168.707 62.6703C168.744 62.7821 168.738 62.9125 168.779 63.0294C168.834 63.1855 168.843 63.3188 168.921 63.4693C169.14 63.8965 169.39 64.3062 169.665 64.7009C170.07 65.2822 170.477 65.8725 170.85 66.4748C171.076 66.8392 171.377 67.139 171.62 67.493" stroke="#FDEAD8" stroke-linecap="round"/>
<path d="M19.0654 56.4771C18.8551 57.15 18.8931 57.7196 18.8029 58.3958C18.7466 58.8179 18.587 59.2026 18.5766 59.6357C18.5657 60.0951 18.5766 60.5563 18.5766 61.0159C18.5766 62.4338 18.5766 63.8517 18.5766 65.2696C18.5766 66.2218 18.8504 67.0729 19.1468 67.9621" stroke="#515151" stroke-width="4" stroke-linecap="round"/>
<path d="M93.6905 62.1597C93.6895 62.0322 93.6905 61.984 93.6905 62.1035C93.6905 62.1223 93.6905 62.141 93.6905 62.1597Z" fill="#515151"/>
<path d="M98.5 55.9121C98.5 58.0189 97.7609 63.106 97.2592 65.1023C96.7799 67.0088 95.6691 68.6322 94.9041 70.3312C94.7137 70.7541 93.9116 72.5451 93.4577 72.471C93.176 72.425 93.6542 71.2632 93.6905 71.1751C94.1038 70.1724 94.3585 69.2045 94.3832 68.0483C94.4005 67.2351 94.4619 66.3256 94.2779 65.5393C94.0909 64.7404 93.8635 63.9515 93.7348 63.1282C93.6825 62.7936 93.6905 61.7614 93.6905 62.1035C93.6905 63.2189 93.6785 64.3234 93.5852 65.4338C93.5114 66.3113 93.2915 67.1104 93.2915 67.9805" stroke="#515151" stroke-width="4" stroke-linecap="round"/>
<path d="M41.4363 29.209C40.3031 28.4956 38.7896 28.7752 37.4992 28.7752C36.2397 28.7752 35.1503 28.8739 34.0523 29.5144C32.8819 30.1971 31.8321 31.0502 30.7017 31.7802C29.6705 32.4462 29.3323 33.1634 28.7573 34.1585C28.2159 35.0956 27.7168 36.0568 27.1182 36.9546C26.6896 37.5975 26.5858 38.538 26.3228 39.2686C25.9758 40.2324 25.7485 41.347 25.6639 42.362C25.6086 43.0254 25.2924 43.6435 25.2461 44.3145C25.2036 44.9309 25.2381 45.5614 25.2381 46.1786C25.2381 48.2814 24.8042 50.335 24.8042 52.4457C24.8042 53.8684 24.874 55.1698 25.3104 56.5274C25.3767 56.7336 25.6086 57.8077 25.7684 57.9094C26.2932 58.2434 26.7176 57.6686 26.829 57.2345C27.0898 56.2173 27.3415 55.6256 27.9538 54.7758C28.9839 53.3464 30.0469 52.0002 31.216 50.6781C32.0578 49.726 32.6108 48.6043 33.2729 47.5284C34.6029 45.3672 36.112 43.2837 37.5313 41.1809C38.0539 40.4068 38.443 39.635 39.3151 39.2204C39.9146 38.9354 40.4511 38.5434 41.0024 38.1759" stroke="#515151" stroke-width="12" stroke-linecap="round"/>
<path fill-rule="evenodd" clip-rule="evenodd" d="M92.4938 63.7094C90.5241 60.9807 86.7479 60.2816 83.9348 62.1697C83.166 62.6857 82.6495 63.2537 82.3524 63.6163C82.3042 63.6751 82.2592 63.7318 82.2176 63.7854C81.6484 64.2746 81.2366 64.7383 81.0155 64.9893C80.8959 65.1251 80.7287 65.3207 80.632 65.4337C80.6012 65.4698 80.5775 65.4975 80.5649 65.5121C80.5147 65.5703 80.4839 65.605 80.4678 65.6229C80.4517 65.6376 80.4238 65.6629 80.3801 65.7019C80.367 65.7136 80.3497 65.7289 80.3292 65.7472C80.23 65.8352 80.054 65.9914 79.8965 66.1375C79.5757 66.4352 78.8271 67.1381 78.195 68.1505L78.144 68.2174C78.1204 68.2485 78.0894 68.2894 78.0561 68.3339C78.0226 68.3786 77.9816 68.4339 77.9369 68.4957C77.4811 69.1267 77.2024 69.7228 77.0317 70.1492C76.957 70.336 76.8942 70.5136 76.8451 70.6613C76.3246 71.5255 75.6227 72.7778 75.1509 74.1078C74.3194 76.4517 74.3068 78.4311 74.3068 79.8718C74.3068 81.9815 74.4625 84.1664 75.2609 86.667C75.2975 86.7816 75.3455 86.9675 75.4423 87.4067C75.4522 87.4513 75.463 87.5008 75.4747 87.5544C75.5557 87.9254 75.6804 88.4971 75.834 89.0537C76.3145 90.7951 77.3646 92.6076 79.2637 93.8463C81.0214 94.9928 82.8474 95.2115 84.1076 95.2115C85.9986 95.2115 87.952 94.8613 89.8358 93.8084C91.6213 92.8104 92.8607 91.4437 93.7572 90.3004C94.3984 89.4828 94.7603 88.7012 94.9213 88.3456C94.9593 88.2616 94.9952 88.1804 95.0179 88.129L95.0231 88.1172L95.04 88.0791C95.0675 88.0375 95.1164 87.9651 95.2009 87.8441C95.2154 87.8235 95.2322 87.7994 95.2512 87.7724C95.4038 87.5553 95.6941 87.1419 95.963 86.6989C96.1523 86.3872 96.313 86.0928 96.4213 85.8926C96.463 85.8153 96.4968 85.7525 96.5259 85.6986C96.5876 85.5838 96.6278 85.5093 96.6772 85.4211C96.6942 85.3908 96.7085 85.366 96.72 85.3462C97.732 84.1577 98.2077 82.9008 98.3736 82.4627C98.3801 82.4454 98.3862 82.4294 98.3918 82.4147C98.4389 82.2908 98.4495 82.2624 98.4579 82.2396C98.4603 82.2332 98.4625 82.2272 98.4653 82.2197C99.0214 81.2903 99.2811 80.3966 99.4133 79.7579C99.5663 79.0187 99.6005 78.3618 99.6081 77.9184C99.6157 77.4683 99.5968 77.0589 99.5861 76.8323C99.5735 76.5644 99.5718 76.5214 99.5716 76.5214C99.5715 76.5214 99.5715 76.5226 99.5715 76.5242C99.5715 75.5642 99.4374 74.6887 99.3734 74.2711C99.3696 74.2464 99.3661 74.2233 99.3628 74.2019C99.3177 73.9046 99.3024 73.7803 99.2979 73.7491C99.2865 72.5343 99.0076 71.5398 98.6928 70.7723C98.5689 70.4701 98.4413 70.2107 98.3927 70.112C98.3903 70.107 98.388 70.1024 98.386 70.0982C98.3562 70.0375 98.3428 70.0101 98.3384 70.001C98.2176 69.7296 98.0989 69.508 98.014 69.3568C97.9857 69.3064 97.9581 69.2586 97.9318 69.2138C97.1773 67.0613 95.6238 65.882 95.1255 65.5118C94.9757 65.4005 94.8354 65.3026 94.7386 65.2359C94.0181 64.5253 93.24 64.0407 92.4938 63.7094Z" fill="#FDEAD8"/>
<path fill-rule="evenodd" clip-rule="evenodd" d="M52.5573 30.991C49.3219 30.8854 44.8183 30.7385 40.6011 31.6505C40.5226 31.6675 40.3626 31.6983 40.1435 31.7405C39.2901 31.9051 37.5397 32.2425 36.2159 32.6067C34.6458 33.0386 31.4226 34.0301 29.1541 36.5306C29.1408 36.5433 29.1161 36.5664 29.0769 36.602C29.021 36.6527 28.9637 36.7035 28.8711 36.7857L28.8427 36.811C28.7456 36.8972 28.6098 37.0179 28.4673 37.1487C27.9839 37.5924 27.0764 38.453 26.3162 39.7136C26.2875 39.7428 26.2566 39.7739 26.2185 39.8125C26.1876 39.8436 26.1519 39.8796 26.1086 39.9235L26.1034 39.9288C25.8864 40.1483 25.4594 40.5803 25.0396 41.0984C24.6856 41.5351 24.2529 42.1321 23.8719 42.8825C23.8557 42.9056 23.8391 42.9296 23.8225 42.9537C23.527 43.3837 22.6318 44.6939 22.4039 46.5872C22.3465 46.6995 22.2784 46.8278 22.1747 47.0229L22.1097 47.1451C21.8364 47.6592 21.3213 48.628 20.944 49.7741C20.2971 51.7396 20.246 54.1172 20.2273 54.9894C20.2265 55.0275 20.2257 55.0626 20.225 55.0948C20.2087 55.798 20.1903 56.2747 20.1402 56.6774C20.1268 56.7857 20.1137 56.8643 20.1035 56.9171C20.0768 56.9705 20.0483 57.0269 20.0185 57.0862C19.5123 58.0911 18.5888 59.9247 18.11 61.8437C17.3959 64.7053 16.8439 67.4787 16.337 70.2508C16.0713 71.7038 16.0584 73.0741 16.0759 74.0759C16.0878 74.7545 16.1039 75.1392 16.1173 75.4594C16.1315 75.7971 16.1426 76.0631 16.1426 76.5266C16.1426 77.1537 16.1194 77.616 16.0903 78.1952C16.0661 78.6761 16.0379 79.2375 16.0156 80.0409C15.977 81.4302 15.9813 83.2872 16.3748 85.1952C16.7548 87.038 17.4336 88.5887 17.9698 89.7168C18.2341 90.2731 18.4334 90.6732 18.5993 91.0064C18.843 91.4959 19.0147 91.8406 19.2148 92.3229C20.0651 94.3718 21.6552 97.1894 24.0243 99.2717C24.0787 99.3483 24.1623 99.471 24.3225 99.7082C24.3412 99.7359 24.3619 99.7667 24.3844 99.8004C24.7668 100.371 25.698 101.76 27.1626 102.929C27.2708 103.015 27.3913 103.117 27.6195 103.31L27.6305 103.319C27.8287 103.487 28.1177 103.732 28.4311 103.98C29.0575 104.477 30.0628 105.22 31.3852 105.808C32.8352 106.454 34.252 106.967 35.5627 107.407C36.2771 107.646 36.9063 107.767 37.3124 107.834C37.3525 107.84 37.3917 107.847 37.4299 107.853C37.508 107.898 37.5891 107.944 37.6689 107.988C38.1678 108.267 39.326 108.901 40.8057 109.242C45.5546 110.337 50.3971 110.11 55.1164 108.412C55.6014 108.238 56.0131 108.057 56.3127 107.92C56.4622 107.852 56.6 107.787 56.7043 107.738C56.822 107.682 56.8885 107.65 56.9618 107.616C56.9681 107.613 56.9743 107.61 56.9802 107.607C57.6083 107.458 58.2458 107.295 58.7981 107.154C58.9968 107.103 59.1845 107.055 59.3568 107.011C59.4456 106.989 59.59 106.956 59.7771 106.913C60.6453 106.715 62.4352 106.308 63.8755 105.756C65.5641 105.109 67.182 104.335 68.8183 103.306C69.1207 103.116 69.45 102.923 69.9109 102.653L69.9204 102.648C70.3434 102.4 70.8844 102.083 71.431 101.737C72.5236 101.046 73.9727 100.035 75.2643 98.5892C75.3855 98.4534 75.5054 98.328 75.7103 98.1139C75.7802 98.0408 75.8599 97.9573 75.9531 97.8596C76.2627 97.5347 76.7006 97.0701 77.1379 96.5399C77.9175 95.5949 79.055 94.0248 79.582 91.9039C79.6081 91.86 79.639 91.8086 79.6754 91.7494C79.686 91.7321 79.6976 91.7132 79.7102 91.6926C79.8672 91.4373 80.1756 90.936 80.4541 90.3836C80.777 89.7432 81.1431 88.8819 81.3656 87.8334C81.4592 87.3919 81.6239 86.9095 81.9459 86.2193C82.4704 85.0956 82.7463 84.0296 82.9086 83.3414C83.0261 82.8434 83.0774 82.5978 83.1152 82.4169C83.1531 82.2354 83.1774 82.119 83.2413 81.8781C83.3022 81.6483 83.3554 81.4753 83.436 81.2126C83.4846 81.0543 83.5432 80.8634 83.6196 80.608C83.7869 80.0481 84.0121 79.2559 84.1654 78.3527C84.4415 76.7256 84.8573 75.1351 85.2938 74.1576C85.8669 72.8744 86.225 71.6434 86.4744 70.7468C86.5435 70.4983 86.6035 70.2792 86.6576 70.0818C86.8274 69.4622 86.9388 69.0554 87.0898 68.6205C88.0647 65.8116 88.0163 62.9387 87.9896 61.3528C87.9858 61.13 87.9825 60.9325 87.9825 60.7643C87.9825 58.7609 87.7442 56.442 86.8695 54.0708C86.1765 52.1924 85.0657 49.8209 83.2408 47.7216C83.0248 47.4732 82.78 47.1357 82.3823 46.522C81.9787 45.8994 81.5547 45.414 81.2266 45.0708C80.9139 44.7437 80.6136 44.4701 80.4659 44.3356L80.4613 44.3314C80.4316 44.3043 80.4075 44.2825 80.3871 44.2639C80.3129 44.1575 80.2267 44.0311 80.1155 43.8674C80.1067 43.8543 80.0975 43.8409 80.0882 43.8271C79.909 43.5633 79.6462 43.1761 79.355 42.7845C78.7111 41.9187 77.7386 40.7619 76.2588 39.7284C76.1733 39.6686 76.0408 39.5712 75.8712 39.4465C75.2007 38.9535 73.95 38.0339 72.7244 37.3275C72.0665 36.696 71.432 36.309 71.0773 36.1077C70.4375 35.7448 69.8469 35.5178 69.6066 35.4264C69.606 35.4261 69.6072 35.4266 69.6066 35.4264C68.8943 34.9801 67.9677 34.4566 66.8708 34.0436C65.3856 33.4845 63.8827 33.23 62.3181 33.2074C61.4895 32.7859 60.3754 32.3233 59.0238 32.0723C59.0079 32.0684 58.9529 32.0544 58.8438 32.0219C58.6793 31.973 58.5989 31.9473 58.4865 31.9113C58.3778 31.8765 58.2392 31.8321 57.9661 31.7481C57.2463 31.5265 55.7544 31.0752 53.9691 31.0331C53.533 31.0228 53.0605 31.0074 52.5573 30.991ZM47.1349 55.58C47.1352 55.5794 47.1291 55.5877 47.1157 55.6066C47.1279 55.5901 47.1346 55.5806 47.1349 55.58Z" fill="#FDEAD8"/>
<path fill-rule="evenodd" clip-rule="evenodd" d="M80.2209 67.4336C79.0986 67.3748 77.975 67.2631 76.8794 67.0946C73.2893 66.5423 69.5697 65.317 66.2289 63.2012C65.8396 62.9546 65.5151 62.7664 65.0989 62.525C64.8378 62.3736 64.5406 62.2013 64.1686 61.9804C63.3457 61.4918 62.3028 60.8449 61.2634 60.0093C60.1689 59.1294 59.3525 58.2512 58.7267 57.5364C58.4193 57.1853 58.207 56.9348 58.0274 56.7231C57.8235 56.4826 57.6618 56.2919 57.4512 56.0602C57.4132 56.0346 57.3639 56.0019 57.3016 55.9616C57.2759 55.945 57.24 55.922 57.1967 55.8943C57.0314 55.7883 56.7575 55.6128 56.5274 55.4574C56.1982 55.2352 55.7595 54.9242 55.2976 54.5283C55.1623 54.4123 55.0196 54.2911 54.8706 54.1645C53.8688 53.3137 52.5812 52.2201 51.3551 50.8578C51.1743 50.6569 50.9363 50.4356 50.3831 49.9412C50.3612 49.9217 50.3387 49.9015 50.3155 49.8808C49.8437 49.4596 49.1008 48.7963 48.395 48.012C47.6086 47.1383 47.2342 46.782 46.6905 46.3936C42.9605 43.7294 40.8255 40.3808 39.7584 36.2312C39.2714 34.3373 39.2768 32.7016 39.3439 31.4915C39.3848 30.7539 39.4205 30.3683 39.4468 30.085C39.4758 29.7715 39.4933 29.5832 39.4933 29.1819C39.4933 27.4971 39.9854 26.0268 40.2233 25.3462C40.2612 25.2379 40.2996 25.1311 40.3374 25.0278C40.7226 21.8916 42.5973 19.7008 44.5862 18.4382C46.1969 17.4157 48.0502 16.9091 48.8494 16.6906C48.91 16.674 48.9645 16.6591 49.0125 16.6457C51.1486 16.0504 53.2461 15.9834 54.8275 16.0028C55.6407 16.0128 56.4347 16.0495 57.0987 16.0804L57.1251 16.0816C57.8168 16.1139 58.3594 16.1392 58.8639 16.1468C61.1011 16.1807 63.0383 16.7409 64.2462 17.0998C64.4084 17.148 64.5586 17.1928 64.6983 17.2344C65.8075 17.5651 66.2511 17.6973 66.7184 17.7557C67.8994 17.9033 68.8446 18.2893 69.4596 18.5905C70.0895 18.899 70.6092 19.2373 70.9559 19.4757C71.2448 19.6743 71.5356 19.8898 71.7015 20.0129C71.7283 20.0327 71.7518 20.0501 71.7715 20.0647C71.872 20.1389 71.9239 20.1758 71.9423 20.189C73.1254 20.9192 74.4137 21.7265 75.676 22.5902C76.4907 23.1476 77.4442 23.7749 78.456 24.4407C80.2773 25.6389 82.2879 26.9618 84.0202 28.2263C84.1872 28.3483 84.4172 28.5099 84.6875 28.6998C85.5251 29.2883 86.7498 30.1488 87.6895 30.9451C88.338 31.4946 89.0207 32.1395 89.6762 32.9037C90.7062 33.65 91.4737 34.4189 91.9761 34.9327C92.0931 35.0523 92.1938 35.1559 92.2823 35.2468C92.6378 35.612 92.7955 35.7741 93.0123 35.9605C94.2485 37.0237 95.3056 38.4135 96.0575 39.5989C96.7841 40.7443 97.6927 42.4295 98.0977 44.2522C98.2533 44.9522 98.3459 45.6079 98.4092 46.1014C98.4479 46.4027 98.4706 46.595 98.49 46.7587C98.5123 46.9473 98.5301 47.0978 98.5626 47.3333C98.6046 47.6384 98.6391 47.8037 98.6544 47.8725C98.6562 47.8762 98.658 47.8798 98.6598 47.8834C99.1653 48.5046 99.5482 49.1834 99.8164 49.8827C100.06 50.517 100.177 51.0914 100.236 51.4885C101.208 54.4512 100.443 57.0988 99.6768 58.7401C99.0517 60.0793 98.0518 61.4544 97.7028 61.9344C97.6529 62.003 97.6163 62.0534 97.596 62.0827C97.5573 62.1386 97.5 62.2248 97.4268 62.3346C97.0475 62.9046 96.2434 64.1126 95.4117 65.0492C94.2335 66.3759 92.393 67.9512 89.6657 68.6331C86.3466 69.4628 83.3986 68.6433 81.5524 67.9658C81.0862 67.7948 80.6361 67.6114 80.2209 67.4336ZM100.312 52.1986L100.312 52.1964C100.313 52.205 100.313 52.2063 100.312 52.1986ZM91.9258 36.1517C91.9262 36.1524 91.9323 36.1673 91.9424 36.1941C91.9303 36.1644 91.9253 36.1511 91.9258 36.1517Z" fill="#515151"/>
<path d="M19.8286 54.1683C19.9512 54.0583 20.0416 53.9693 20.1191 53.8819C19.9419 54.4622 19.7913 55.0531 19.615 55.6283C19.5002 56.0028 19.3054 56.3319 19.2067 56.7101C19.1533 56.9146 18.8206 58.5896 18.9443 57.7406C19.0348 57.1197 19.2049 56.4061 19.4713 55.8448C19.6061 55.5609 19.6947 54.9683 19.7581 54.6463C19.7834 54.5182 19.7267 54.2597 19.8286 54.1683Z" fill="#515151"/>
<path d="M41.5151 38.9428C42.7967 39.1296 38.7569 38.4217 37.6317 39.0629C36.7771 39.55 36.0088 40.0929 35.1127 40.5034C34.5496 40.7614 33.9989 40.9147 33.4397 41.2096C32.9427 41.4717 32.3502 41.5264 31.839 41.7811C31.2317 42.0838 30.5952 42.3079 29.9681 42.5772C28.8743 43.047 27.6684 43.6843 26.9341 44.6551C25.7151 46.2667 24.2262 47.6526 22.9199 49.2027C22.3443 49.8858 21.6709 50.6365 21.1983 51.4191C20.8481 51.999 20.8428 52.8144 20.468 53.3974C20.2482 53.7393 20.1464 53.8831 19.8286 54.1683C19.7267 54.2597 19.7834 54.5182 19.7581 54.6463C19.6947 54.9683 19.6061 55.5609 19.4713 55.8448C19.2049 56.4061 19.0348 57.1197 18.9443 57.7406C18.8206 58.5896 19.1533 56.9146 19.2067 56.7101C19.3054 56.3319 19.5002 56.0028 19.615 55.6283C19.9277 54.608 20.1598 53.5378 20.6023 52.5659C21.4072 50.7982 22.013 48.9745 22.8019 47.2063C23.3476 45.9831 24.4805 44.9007 25.3998 43.9565C26.5614 42.7634 27.6042 41.2027 28.9794 40.2626C29.8124 39.6932 30.6305 39.2306 31.6051 38.9499C32.3299 38.7411 32.9029 38.2896 33.6102 38.048C34.892 37.6102 36.0378 36.7436 37.3374 36.3746C38.0048 36.185 38.9635 36.1787 39.5675 35.8749C40.0679 35.6233 41.2802 35.5401 41.6069 35.8687" stroke="#515151" stroke-width="4" stroke-linecap="round"/>
<path d="M71.0002 68.9121C69.5 66.9121 66.0778 64.38 66.4967 63.1235C66.4967 62.1542 75.1347 64.7631 75.6734 63.9667C76.1281 63.2946 77.1577 62.8805 77.8461 62.4646C78.4704 62.0874 79.0226 61.579 79.6701 61.2441C80.9399 60.5873 82.106 59.6954 83.3583 58.991C84.4408 58.3821 85.6671 58.182 86.8587 57.851C88.5858 57.3712 89.939 57.1611 91.7137 57.1804C92.5125 57.1891 93.369 57.4006 93.9467 57.9784C94.5185 58.5501 95.4625 59.0071 95.8646 59.7219C96.1961 60.3112 96.6361 60.9559 96.6492 61.6465C96.6617 62.3083 96.5644 62.9302 96.5285 63.5777C96.4555 64.8904 99.1659 66.3233 98.5002 67.4126C98.0731 68.1115 93.3806 68.389 92.6391 68.6742C92.2436 68.8263 91.8343 69.1686 91.5125 69.4319C91.0179 69.8366 90.3376 69.9872 89.8361 70.3975C89.0697 71.0245 87.9634 71.1958 87.2409 71.846C86.2357 72.7507 84.947 73.4402 83.8277 74.1997C83.2613 74.5841 82.7041 75.0354 82.0976 75.3531C81.5822 75.6231 80.6586 76.1715 80.2937 76.6205C80.0469 76.9243 79.7059 77.1025 79.4555 77.3984C79.2832 77.602 79.2063 77.8623 79.0263 78.0623C78.7073 78.4167 78.5548 78.8561 78.3021 79.2425C78.3021 79.2425 77.7183 84.3195 76.4714 83.696C74.7987 82.8597 74.2439 78.5456 74.0002 76.6205C73.8623 75.5314 73.5002 74.0068 73.5002 72.9121C72.3192 71.1936 72.1144 70.3975 71.0002 68.9121Z" fill="#515151"/>
<path d="M37.5516 31.684C37.3667 31.6819 37.1822 31.6806 36.9984 31.6806C36.7435 31.6806 36.4404 31.6518 36.1277 31.6292C36.1096 31.635 36.0914 31.6408 36.0733 31.6467C35.1057 31.9609 34.1646 32.2132 33.3262 32.7918C31.2873 34.1989 29.1857 35.5405 27.3075 37.1634C26.9865 37.4408 26.6555 37.7473 26.3413 38.0599C26.2156 38.2086 26.0887 38.3575 25.9593 38.5059C25.8518 38.6293 25.7422 38.9827 25.6265 38.8669C25.5185 38.759 25.8043 38.6175 25.9086 38.5059C26.0472 38.3576 26.1924 38.2081 26.3413 38.0599C27.1699 37.0795 27.9452 36.1075 29.0166 35.3471C30.2566 34.4671 31.4152 33.3454 32.8016 32.6959C33.4351 32.3991 34.0793 31.9222 34.7364 31.7031C35.1249 31.5736 35.6381 31.5938 36.1277 31.6292C36.6668 31.4563 37.2091 31.3146 37.7599 31.1842C37.8252 31.1687 38.6896 30.867 38.2281 31.2237C38.0114 31.391 37.7852 31.5434 37.5516 31.684Z" fill="#515151"/>
<path d="M41.669 31.579C40.1338 31.7771 38.5447 31.6806 36.9984 31.6806C36.3445 31.6806 35.3729 31.4909 34.7364 31.7031C34.0793 31.9222 33.4351 32.3991 32.8016 32.6959C31.4152 33.3454 30.2566 34.4671 29.0166 35.3471C27.7826 36.2228 26.9415 37.3793 25.9593 38.5059C25.8518 38.6293 25.7422 38.9827 25.6265 38.8669C25.5185 38.759 25.8043 38.6175 25.9086 38.5059C26.3396 38.0445 26.8343 37.5723 27.3075 37.1634C29.1857 35.5405 31.2873 34.1989 33.3262 32.7918C34.1646 32.2132 35.1057 31.9609 36.0733 31.6467C36.6303 31.4659 37.1905 31.319 37.7599 31.1842C37.8252 31.1687 38.6896 30.867 38.2281 31.2237C36.6235 32.4636 34.4948 32.8799 32.7001 33.7677C31.7844 34.2206 31.0068 34.8794 30.094 35.3358" stroke="#515151" stroke-width="3" stroke-linecap="round"/>
<path d="M80.2249 30.2414C80.2247 30.2179 80.2246 30.1942 80.2246 30.1701C80.2246 28.0487 80.3837 26.175 81.0035 24.1346C82.1552 20.3437 87.1436 18.8343 90.5699 18.1478C91.8254 17.8963 92.9857 17.7968 94.2456 18.099C95.6395 18.4334 97.2838 18.5461 98.6028 19.0867C99.5402 19.4708 100.759 19.5762 101.487 20.306C102.286 21.1064 102.613 22.1471 103.35 22.9762C105.552 25.4543 106.952 27.7803 106.952 31.1577C106.952 34.2961 107.404 37.6849 105.528 40.4C105.108 41.0082 104.903 41.7798 104.421 42.3509C103.671 43.2383 102.442 43.5399 101.512 44.1921C100.234 45.0884 98.841 45.1597 97.3492 45.5333C95.0663 46.105 92.9208 45.9303 90.5943 45.6552C84.6246 44.9495 80.0874 39.9752 80.0055 33.9012C79.9888 32.6628 79.9968 31.4556 80.2249 30.2414Z" fill="#515151"/>
<path d="M82.6344 27.5364C82.6344 26.3305 82.1381 25.0391 82.464 23.8054C82.8856 22.2098 84.8251 21.8258 86.0423 21.0497C87.2166 20.3011 89.2287 20.5132 90.5578 20.5132C92.1885 20.5132 93.6741 20.6243 95.2436 21.1229C96.1396 21.4075 97.3006 22.5259 98.0916 23.0982C98.885 23.6722 99.0821 24.6587 99.613 25.427C101.631 28.3473 102.79 31.1933 102.79 34.7791C102.79 36.0208 103.249 38.7421 102.351 39.705C100.569 41.6178 98.1641 42.6681 95.6818 43.2898C94.2988 43.6362 93.2492 43.3409 91.8844 43.1678C89.9752 42.9257 89.5353 42.2289 88.2088 40.8999C87.2541 39.9435 86.4468 39.2464 85.6285 38.1443C84.8149 37.0486 83.4023 36.6465 82.7318 35.4253C82.2158 34.4854 81.2715 33.9504 80.8818 32.9257C80.4706 31.8444 80.2246 31.3957 80.2246 30.1701C80.2246 28.0487 80.3837 26.175 81.0035 24.1346C82.1552 20.3437 87.1436 18.8343 90.5699 18.1478C91.8254 17.8963 92.9857 17.7968 94.2456 18.099C95.6395 18.4334 97.2838 18.5461 98.6028 19.0867C99.5402 19.4708 100.759 19.5762 101.487 20.306C102.286 21.1064 102.613 22.1471 103.35 22.9762C105.552 25.4543 106.952 27.7803 106.952 31.1577C106.952 34.2961 107.404 37.6849 105.528 40.4C105.108 41.0082 104.903 41.7798 104.421 42.3509C103.671 43.2383 102.442 43.5399 101.512 44.1921C100.234 45.0884 98.841 45.1597 97.3492 45.5333C95.0663 46.105 92.9208 45.9303 90.5943 45.6552C84.6246 44.9495 80.0874 39.9752 80.0055 33.9012C79.9877 32.5805 79.998 31.2954 80.2733 29.9994C80.5871 28.5215 81.5211 27.6474 82.318 26.439C82.96 25.4657 83.1679 24.295 84.0463 23.464C85.0322 22.5312 86.9846 22.4885 88.2331 22.4885C91.2559 22.4885 94.3614 22.1116 97.0449 23.7078C98.6505 24.6629 100.931 24.8653 102.132 26.4878C102.848 27.4537 103.877 28.9027 104.092 30.0848C104.389 31.7205 104.761 33.0106 104.761 34.7181C104.761 37.3025 104.039 33.0485 103.885 32.4258C102.997 28.8268 102.707 24.8975 100.112 22.0983C98.9649 20.8607 99.0024 21.5159 99.9173 22.8055C101.417 24.9197 103.009 26.3978 103.009 29.0727C103.009 32.2484 104.178 35.4352 103.569 38.632C103.533 38.8167 103.029 40.7112 103.143 39.7782C103.269 38.7403 103.345 37.6333 103.666 36.6324C104.094 35.2992 104.017 37.7208 103.885 38.1443C103.438 39.5781 99.3108 39.7711 98.189 39.9977C96.6152 40.3155 94.9754 40.5574 93.3815 40.7171C91.6721 40.8883 90.6883 41.5364 88.939 40.9731C87.5718 40.5328 86.2884 39.864 85.7137 38.4248C85.3674 37.5574 85.4424 40.2735 85.2756 41.1926C85.2471 41.3496 85.226 40.6336 85.2147 40.5585C85.0704 39.601 85.0792 40.4392 85.1538 40.8878C85.2045 41.1924 85.1448 41.8638 84.9226 41.1682C84.6714 40.3817 84.8387 39.3927 84.8131 38.5833C84.7753 37.3928 84.9675 34.9023 84.168 33.9012C83.641 33.2413 83.9489 31.656 83.9489 30.8773C83.9489 29.937 84.1421 28.7915 83.9367 27.8656C83.7811 27.1638 81.8841 30.1993 81.7094 30.4993C81.0808 31.5789 82.8206 28.2375 83.6081 27.2682C84.9545 25.6111 87.3508 25.1222 89.3772 25.1222C90.5002 25.1222 91.7767 24.9589 92.8824 25.171C94.078 25.4003 95.4932 26.305 96.5581 26.9024C97.7574 27.5752 98.5653 27.8555 98.9801 29.1947C99.279 30.1595 99.9416 30.8939 99.9416 31.9259C99.9416 33.6852 100.552 36.8274 99.2601 38.1809C98.5973 38.8751 97.8548 39.3272 96.9354 39.4978C95.8166 39.7053 93.8162 39.9159 92.7364 39.4734C91.8019 39.0904 90.8485 38.5943 90.0709 37.9614C89.5118 37.5063 89.0287 36.973 88.4765 36.5105C88.0015 36.1126 87.2692 35.9932 86.8943 35.4863C85.6155 33.7567 86.7153 30.634 87.1255 28.7435C87.5742 26.6762 89.7117 26.1529 91.5923 26.4878C92.9744 26.734 94.7266 26.7586 95.7548 27.829C96.5557 28.6628 97.6662 29.7397 98.0186 30.8773C98.4471 32.2606 98.5269 34.9479 97.8117 36.2544C97.4382 36.9368 96.0161 39.256 95.0002 39.071C93.5802 38.8124 92.2409 37.9703 90.8377 37.5835C90.4618 37.4798 89.3467 37.4036 89.0364 37.1445C87.4294 35.803 87.016 34.0182 87.016 32.0722C87.016 29.9727 90.1397 29.0727 91.8236 29.0727C93.1615 29.0727 94.9028 30.5971 94.9028 31.9747C94.9028 33.0286 94.9819 33.7136 94.1482 34.4864C93.3345 35.2408 92.4481 36.4885 91.2515 36.6324C89.1209 36.8885 87.8802 34.465 88.4278 32.6819C89.9226 27.8151 96.1549 35.3145 93.4301 36.7299C92.8713 37.0202 90.8719 37.5571 90.4239 36.8519C89.9026 36.0313 90.7571 34.4229 91.568 34.1206C92.5991 33.7363 93.3326 36.2598 92.5417 35.8277C91.5625 35.2926 90.064 34.223 92.0061 33.8158C93.4763 33.5076 95.6255 33.3552 96.4242 34.8888C97.0716 36.1319 95.0742 37.2157 94.0143 37.1567C92.79 37.0886 92.1426 35.695 93.418 35.0961C94.6097 34.5364 96.3262 33.6206 96.2173 35.657C96.1466 36.9785 93.9217 39.2724 92.493 38.5833C91.0628 37.8934 90.6052 35.1425 92.2861 34.4986C94.4844 33.6566 96.488 36.8915 96.8258 38.6686C97.2605 40.9544 93.4368 40.2659 92.0548 40.2659" stroke="#515151" stroke-width="4" stroke-linecap="round"/>
<path d="M46.7401 73.7936C47.6684 73.8306 48.2541 75.2319 48.2026 75.824C48.1332 76.6227 47.8945 77.5318 47.4828 78.2098C47.3285 78.4638 47.1417 78.6186 46.8731 78.7492C46.6643 78.8509 46.5562 78.9136 46.3225 78.8394C46.204 78.8018 45.7229 78.4154 45.6209 78.3213C45.1084 77.8484 45.4182 77.4464 45.2308 76.791C45.1387 76.4688 45.1763 76.0581 45.2959 75.7608C45.4169 75.4601 45.301 75.0835 45.4097 74.7932C45.5406 74.4438 46.3668 73.8053 46.7401 73.7936ZM46.7401 73.7936C47.1618 73.7804 47.2016 74.0674 47.1098 74.4379C47.0124 74.8306 46.9978 75.2889 46.9967 75.6917C46.9951 76.3214 46.8044 77.105 46.606 77.7022" stroke="#A58466" stroke-width="2" stroke-linecap="round"/>
<path d="M31.3304 70.2716C32.2587 70.3087 32.8444 71.7099 32.793 72.302C32.7235 73.1007 32.4849 74.0098 32.0731 74.6879C31.9189 74.9418 31.7321 75.0966 31.4635 75.2273C31.2546 75.3289 31.1465 75.3917 30.9128 75.3175C30.7943 75.2799 30.3132 74.8934 30.2113 74.7993C29.6987 74.3264 30.0085 73.9244 29.8212 73.269C29.7291 72.9468 29.7666 72.5361 29.8863 72.2389C30.0073 71.9381 29.8913 71.5615 30 71.2712C30.1309 70.9218 30.9571 70.2833 31.3304 70.2716ZM31.3304 70.2716C31.7521 70.2584 31.792 70.5455 31.7001 70.9159C31.6027 71.3087 31.5881 71.7669 31.5871 72.1697C31.5854 72.7994 31.3947 73.583 31.1964 74.1802" stroke="#A58466" stroke-width="2" stroke-linecap="round"/>
<path d="M47.3792 86.4961C47.0389 86.3187 46.132 87.4411 45.72 87.5683C45.1293 87.7507 44.5334 87.94 43.9316 88.1062C42.6188 88.4687 41.2759 88.6126 39.9085 88.6945C37.2214 88.8554 34.759 88.1616 32.2948 87.2254C31.4133 86.8905 30.5059 86.1649 29.6525 85.688C28.8786 85.2557 28.4096 84.9337 27.9173 84.2145C27.6073 83.7616 27.4153 83.2749 27.0837 82.8259C26.8914 82.5655 26.5668 82.255 26.4742 81.9312C26.3261 81.4132 26.0331 80.9473 26.0001 80.3961" stroke="#A58466" stroke-width="2" stroke-linecap="round"/>
<path d="M38.5684 77.9321C38.3018 77.8115 38.0985 77.6888 37.7964 77.7069C37.5507 77.7216 37.2733 77.7624 37.0508 77.8721C36.6362 78.0767 36.438 78.5892 36.3745 79.0195C36.3391 79.2598 36.3178 79.5438 36.3752 79.7871C36.4265 80.0042 36.6489 80.1732 36.7594 80.3597C36.8177 80.4582 36.8734 80.494 36.9753 80.5398C37.1005 80.5961 37.2075 80.7076 37.3405 80.7472C37.4585 80.7823 37.5445 80.8794 37.6674 80.9176C37.7428 80.9411 37.8658 81.0143 37.9384 81.01" stroke="#A58466" stroke-width="2" stroke-linecap="round"/>
<path d="M33.3013 64.3448C32.6543 63.8596 31.7182 63.9139 30.9554 63.9139C30.3385 63.9139 29.6356 63.8939 29.0786 64.1725" stroke="#A58466" stroke-width="2" stroke-linecap="round"/>
<path d="M48.103 67.3608C48.9017 67.2334 49.7044 67.7181 50.3791 68.0739C50.9247 68.3617 51.5558 68.6719 51.9186 69.178" stroke="#A58466" stroke-width="2" stroke-linecap="round"/>
<path d="M65.4116 61.4912C65.5739 61.7486 65.7161 62.0204 65.8858 62.2727C66.2042 62.746 66.5732 63.1828 66.8949 63.6536C67.1931 64.0899 67.4529 64.4323 67.9192 64.7007C68.2637 64.8989 68.6395 65.0427 68.9966 65.2128" stroke="#515151" stroke-linecap="round"/>
<path d="M57.2285 54.9971C57.5176 55.3845 57.7992 55.7917 58.1532 56.1244C58.5376 56.4856 59.0058 56.7648 59.4364 57.0647C60.4047 57.7392 61.3611 58.4312 62.3249 59.1116" stroke="#515151" stroke-linecap="round"/>
<path d="M24.779 40.9932C23.7845 42.2761 22.8719 43.6178 21.9986 44.9859C21.8813 45.1696 21.8623 45.3556 21.8389 45.5667" stroke="#515151" stroke-linecap="round"/>
<path d="M35.5591 40.6012C36.7026 40.3587 37.843 39.9389 38.9783 39.6539C41.5667 39.004 44.1514 38.3435 46.7315 37.6611" stroke="#515151" stroke-linecap="round"/>
<path d="M25.3313 41.5997C24.9839 40.5574 27.1215 39.343 27.833 38.9427C29.2656 38.1369 30.5512 37.2072 32.0772 36.5532C32.3593 36.4323 32.4427 36.2532 32.6637 36.0874C33.0941 35.7646 33.8677 35.7752 34.3804 35.6992C34.9564 35.6139 35.5036 34.9954 36.0798 34.7676C36.6306 34.5498 37.1594 34.3557 37.6757 34.0689C38.2897 33.7277 39.0149 33.9265 39.6166 33.5254" stroke="#515151" stroke-width="4" stroke-linecap="round"/>
<path d="M21.1166 45.0352C21.1085 45.496 20.8389 45.938 20.8133 46.3981C20.8018 46.6053 20.6938 46.7911 20.6785 46.9971C20.6635 47.2009 20.5884 47.4292 20.5438 47.6299C20.3309 48.5876 20.1035 49.5461 19.9297 50.5017C19.8418 50.9852 19.6727 51.4533 19.574 51.9358C19.5089 52.2541 19.4104 52.5706 19.3381 52.8868C19.2765 53.1562 19.2811 53.4524 19.2614 53.7293C19.2498 53.8917 19.1958 54.0329 19.1958 54.2011C19.1958 54.3571 19.1958 54.5131 19.1958 54.6691C19.1958 54.9257 19.174 55.1745 19.164 55.4292C19.1548 55.6644 19.1595 55.8874 19.1266 56.1181C19.1036 56.2792 19.061 56.416 19.061 56.5936" stroke="#515151" stroke-width="4" stroke-linecap="round"/>
<path d="M26.4834 52.0806C26.2401 52.0993 26.1953 52.2513 26.0399 52.4067C25.8609 52.5856 25.6341 52.7356 25.4822 52.9351C25.1879 53.3212 24.9161 53.786 24.494 54.0439C23.4347 54.6913 22.8474 55.8135 22.2566 56.8683C21.8028 57.6787 21.2878 58.4894 21.0368 59.3927C20.913 59.8384 20.7484 60.2939 20.6129 60.7429C20.479 61.1864 20.3193 61.71 20.3193 62.1779" stroke="#FDEAD8" stroke-width="4" stroke-linecap="round"/>
<path d="M29 69.312C29.0677 69.561 29.1372 69.8119 29.2392 70.0495C29.3419 70.2887 29.4553 70.4038 29.6395 70.5662" stroke="#A58466" stroke-linecap="round"/>
<path d="M49.6836 74.1255C49.5315 74.3339 49.377 74.5436 49.197 74.7291C49.0157 74.9159 48.8687 74.983 48.6387 75.069" stroke="#A58466" stroke-linecap="round"/>
</svg>
