<svg width="350" height="264" viewBox="0 0 350 264" fill="none" xmlns="http://www.w3.org/2000/svg">
<g filter="url(#filter0_d_389_2630)">
<rect x="4" width="342" height="256" rx="20" fill="#FFCE51" shape-rendering="crispEdges"/>
<path fill-rule="evenodd" clip-rule="evenodd" d="M152.523 165.595C151.081 165.166 149.548 164.559 148.018 163.695C145.958 162.53 144.301 161.147 143.332 160.312C142.578 159.661 142.229 159.345 141.979 159.118C141.738 158.9 141.588 158.765 141.256 158.493C140.327 157.733 139.291 156.906 138.187 156.025L138.186 156.024L138.186 156.024C134.866 153.374 130.939 150.24 127.528 147.011C124.775 144.405 122.557 141.377 120.951 137.688C120.869 137.5 120.686 137.147 120.013 136.071C119.955 135.979 119.89 135.875 119.819 135.762L119.818 135.76C119.241 134.843 118.262 133.288 117.427 131.618C116.068 128.9 114.977 125.762 114.298 123.807C114.179 123.464 114.072 123.158 113.979 122.897C113.079 120.369 112.871 118.123 112.792 116.776C112.76 116.231 112.743 115.67 112.733 115.347L112.729 115.227L112.716 115.184C112.622 114.88 112.437 114.279 112.273 113.661C112.076 112.916 111.841 111.903 111.694 110.712C111.263 107.217 111.394 102.773 111.468 100.265L111.468 100.264C111.487 99.5982 111.503 99.0684 111.503 98.7291C111.503 97.8733 111.487 96.8445 111.47 95.709L111.47 95.709C111.424 92.7767 111.368 89.1327 111.546 85.9187C111.785 81.6181 112.999 76.9539 113.702 74.2522C113.853 73.6701 113.981 73.179 114.07 72.8024C114.891 69.3361 116.356 66.1588 118.667 63.3262C120.804 60.7066 123.237 58.9252 125.034 57.7125C126.59 56.6619 127.596 56.0317 128.402 55.5268C129.384 54.9115 130.068 54.4824 131.091 53.7053C135.268 50.5303 139.857 49.8789 142.236 49.6689C144.163 49.4988 146.655 49.5304 147.493 49.541L147.493 49.541C147.629 49.5427 147.721 49.5439 147.761 49.5436L147.76 49.5436C147.76 49.5436 147.77 49.5435 147.79 49.543L147.888 49.5399C147.982 49.5364 148.096 49.5313 148.266 49.5232L148.374 49.518C148.678 49.5032 149.168 49.4794 149.661 49.4669C150.69 49.4409 152.753 49.4194 155.061 49.9323C159.58 50.9365 162.634 53.5718 163.811 54.6152C164.393 55.1318 164.973 55.6914 165.284 55.9922L165.284 55.9922L165.41 56.1135C165.579 56.2763 165.673 56.3637 165.713 56.4005C166.005 56.6289 166.407 56.9162 167.132 57.4187L167.336 57.56C168.013 58.0284 168.993 58.7065 169.95 59.4385C172.06 61.0529 175.318 63.8412 177.519 68.2429C177.823 68.8521 178.106 69.4743 178.369 70.0995C182.203 66.1519 187.193 62.4172 193.616 60.5715C199.485 58.885 204.701 60.5741 206.965 61.3849C208.262 61.8496 209.473 62.3737 210.248 62.7096L210.32 62.7405C211.274 63.1536 211.589 63.2838 211.777 63.3499C216.181 64.9007 219.19 67.7829 220.721 69.3662C221.575 70.2501 222.328 71.1216 222.843 71.72L223.008 71.9123C223.501 72.4851 223.73 72.7518 223.94 72.9764C224.06 73.1043 224.219 73.2704 224.411 73.4699C225.569 74.6746 227.898 77.0984 229.627 79.6919C231.668 82.7535 232.38 85.7405 232.681 87.0174C232.783 87.4467 232.831 87.6619 232.862 87.7971L232.882 87.8853C234.074 90.491 235.907 94.8099 235.907 100.309C235.907 109.789 234.448 118.52 231.691 127.382C229.396 134.757 225.371 144.105 215.859 150.446C215.055 150.983 214.059 151.683 212.932 152.476C209.679 154.763 205.326 157.824 201.282 159.962C201.032 160.094 200.872 160.204 200.353 160.559L200.353 160.56C200.024 160.785 199.551 161.109 198.821 161.601C197.467 162.51 194.873 164.224 191.59 165.283C189.777 165.868 187.94 166.506 186.18 167.166C182.46 168.561 178.106 168.98 174.216 168.726C172.264 169.175 170.153 169.456 167.933 169.456C165.787 169.456 163.208 169.34 160.487 168.852C161.027 168.949 159.278 168.677 158.03 168.33C157.254 168.113 156.021 167.716 154.659 166.984C154.051 166.657 153.309 166.206 152.523 165.595Z" fill="white"/>
<path d="M262.081 108.616C262.08 108.488 262.081 108.44 262.081 108.56C262.081 108.578 262.081 108.597 262.081 108.616Z" fill="#515151"/>
<path d="M266.89 102.368C266.89 104.475 266.151 109.562 265.649 111.558C265.17 113.465 264.059 115.088 263.294 116.787C263.104 117.21 262.302 119.001 261.848 118.927C261.566 118.881 262.044 117.719 262.081 117.631C262.494 116.628 262.749 115.661 262.773 114.504C262.791 113.691 262.852 112.782 262.668 111.995C262.481 111.196 262.254 110.408 262.125 109.584C262.073 109.25 262.081 108.217 262.081 108.56C262.081 109.675 262.069 110.779 261.975 111.89C261.902 112.767 261.682 113.566 261.682 114.437" stroke="#515151" stroke-width="4" stroke-linecap="round"/>
<path d="M209.825 75.6651C208.692 74.9516 207.179 75.2312 205.888 75.2312C204.629 75.2312 203.539 75.3299 202.441 75.9704C201.271 76.6531 200.221 77.5062 199.091 78.2362C198.06 78.9022 197.721 79.6195 197.146 80.6145C196.605 81.5517 196.106 82.5128 195.507 83.4107C195.079 84.0535 194.975 84.994 194.712 85.7247C194.365 86.6885 194.138 87.8031 194.053 88.8181C193.998 89.4815 193.682 90.0996 193.635 90.7705C193.593 91.387 193.627 92.0174 193.627 92.6346C193.627 94.7375 193.193 96.7911 193.193 98.9018C193.193 100.324 193.263 101.626 193.7 102.983C193.766 103.19 193.998 104.264 194.158 104.365C194.682 104.699 195.107 104.125 195.218 103.691C195.479 102.673 195.731 102.082 196.343 101.232C197.373 99.8024 198.436 98.4562 199.605 97.1341C200.447 96.182 201 95.0604 201.662 93.9845C202.992 91.8232 204.501 89.7398 205.92 87.637C206.443 86.8628 206.832 86.0911 207.704 85.6765C208.304 85.3914 208.84 84.9995 209.392 84.6319" stroke="#515151" stroke-width="12" stroke-linecap="round"/>
<path fill-rule="evenodd" clip-rule="evenodd" d="M260.884 110.165C258.914 107.437 255.138 106.738 252.325 108.626C251.556 109.142 251.04 109.71 250.743 110.072C250.694 110.131 250.649 110.188 250.608 110.241C250.039 110.731 249.627 111.194 249.406 111.445C249.286 111.581 249.119 111.777 249.022 111.89C248.991 111.926 248.968 111.954 248.955 111.968C248.905 112.026 248.874 112.061 248.858 112.079C248.842 112.094 248.814 112.119 248.77 112.158C248.757 112.17 248.74 112.185 248.719 112.203C248.62 112.291 248.444 112.447 248.287 112.594C247.966 112.891 247.217 113.594 246.585 114.607L246.534 114.673C246.511 114.705 246.48 114.745 246.446 114.79C246.413 114.835 246.372 114.89 246.327 114.952C245.871 115.583 245.593 116.179 245.422 116.605C245.347 116.792 245.284 116.97 245.235 117.117C244.715 117.982 244.013 119.234 243.541 120.564C242.71 122.908 242.697 124.887 242.697 126.328C242.697 128.438 242.853 130.622 243.651 133.123C243.688 133.238 243.736 133.424 243.832 133.863C243.842 133.907 243.853 133.957 243.865 134.01C243.946 134.381 244.071 134.953 244.224 135.51C244.705 137.251 245.755 139.064 247.654 140.302C249.412 141.449 251.238 141.668 252.498 141.668C254.389 141.668 256.342 141.317 258.226 140.264C260.011 139.266 261.251 137.9 262.147 136.756C262.789 135.939 263.15 135.157 263.311 134.802C263.349 134.718 263.385 134.636 263.408 134.585L263.413 134.573L263.43 134.535C263.458 134.494 263.507 134.421 263.591 134.3C263.606 134.28 263.622 134.255 263.641 134.228C263.794 134.011 264.084 133.598 264.353 133.155C264.542 132.843 264.703 132.549 264.811 132.349C264.853 132.271 264.887 132.209 264.916 132.155C264.978 132.04 265.018 131.965 265.067 131.877C265.084 131.847 265.099 131.822 265.11 131.802C266.122 130.614 266.598 129.357 266.764 128.919C266.77 128.901 266.776 128.885 266.782 128.871C266.829 128.747 266.84 128.718 266.848 128.696C266.85 128.689 266.853 128.683 266.855 128.676C267.412 127.746 267.671 126.853 267.803 126.214C267.956 125.475 267.991 124.818 267.998 124.374C268.006 123.924 267.987 123.515 267.976 123.288C267.964 123.02 267.962 122.977 267.962 122.977C267.962 122.977 267.962 122.979 267.962 122.98C267.962 122.02 267.827 121.145 267.764 120.727C267.76 120.702 267.756 120.679 267.753 120.658C267.708 120.361 267.693 120.236 267.688 120.205C267.677 118.99 267.398 117.996 267.083 117.228C266.959 116.926 266.831 116.667 266.783 116.568C266.78 116.563 266.778 116.558 266.776 116.554C266.746 116.494 266.733 116.466 266.729 116.457C266.608 116.186 266.489 115.964 266.404 115.813C266.376 115.762 266.348 115.715 266.322 115.67C265.567 113.517 264.014 112.338 263.516 111.968C263.366 111.857 263.226 111.759 263.129 111.692C262.408 110.981 261.63 110.497 260.884 110.165Z" fill="#FFE6CF"/>
<path fill-rule="evenodd" clip-rule="evenodd" d="M220.947 77.447C217.712 77.3415 213.208 77.1945 208.991 78.1065C208.912 78.1235 208.752 78.1543 208.533 78.1966C207.68 78.3611 205.929 78.6985 204.606 79.0627C203.035 79.4946 199.812 80.4861 197.544 82.9867C197.53 82.9993 197.506 83.0224 197.467 83.0581C197.411 83.1087 197.353 83.1596 197.261 83.2418L197.232 83.2671C197.135 83.3533 196.999 83.4739 196.857 83.6048C196.374 84.0485 195.466 84.9091 194.706 86.1696C194.677 86.1989 194.646 86.23 194.608 86.2685C194.577 86.2997 194.542 86.3357 194.498 86.3795L194.493 86.3848C194.276 86.6043 193.849 87.0364 193.429 87.5544C193.075 87.9912 192.643 88.5881 192.262 89.3385C192.245 89.3617 192.229 89.3856 192.212 89.4098C191.917 89.8397 191.021 91.15 190.794 93.0432C190.736 93.1556 190.668 93.2838 190.564 93.4789L190.499 93.6012C190.226 94.1153 189.711 95.084 189.334 96.2302C188.687 98.1957 188.636 100.573 188.617 101.445C188.616 101.484 188.615 101.519 188.615 101.551C188.598 102.254 188.58 102.731 188.53 103.134C188.516 103.242 188.503 103.32 188.493 103.373C188.466 103.427 188.438 103.483 188.408 103.542C187.902 104.547 186.978 106.381 186.5 108.3C185.786 111.161 185.234 113.935 184.727 116.707C184.461 118.16 184.448 119.53 184.466 120.532C184.477 121.211 184.494 121.595 184.507 121.915C184.521 122.253 184.532 122.519 184.532 122.983C184.532 123.61 184.509 124.072 184.48 124.651C184.456 125.132 184.428 125.694 184.405 126.497C184.367 127.886 184.371 129.743 184.764 131.651C185.144 133.494 185.823 135.045 186.359 136.173C186.624 136.729 186.823 137.129 186.989 137.462C187.233 137.952 187.404 138.297 187.604 138.779C188.455 140.828 190.045 143.645 192.414 145.728C192.468 145.804 192.552 145.927 192.712 146.164C192.731 146.192 192.752 146.223 192.774 146.256C193.156 146.827 194.088 148.216 195.552 149.385C195.66 149.471 195.781 149.573 196.009 149.766L196.02 149.775C196.218 149.943 196.507 150.188 196.821 150.436C197.447 150.933 198.452 151.676 199.775 152.264C201.225 152.91 202.642 153.423 203.952 153.863C204.667 154.102 205.296 154.223 205.702 154.29C205.742 154.297 205.781 154.303 205.82 154.309C205.898 154.354 205.979 154.4 206.059 154.444C206.557 154.723 207.716 155.357 209.195 155.699C213.944 156.793 218.787 156.566 223.506 154.868C223.991 154.694 224.403 154.513 224.702 154.377C224.852 154.308 224.99 154.243 225.094 154.194C225.212 154.138 225.278 154.106 225.351 154.072C225.358 154.069 225.364 154.066 225.37 154.064C225.998 153.914 226.635 153.751 227.188 153.61C227.386 153.559 227.574 153.511 227.746 153.467C227.835 153.445 227.98 153.412 228.167 153.369C229.035 153.171 230.825 152.764 232.265 152.212C233.954 151.565 235.572 150.791 237.208 149.762C237.51 149.572 237.84 149.379 238.301 149.109L238.31 149.104C238.733 148.856 239.274 148.539 239.821 148.193C240.913 147.502 242.362 146.491 243.654 145.045C243.775 144.909 243.895 144.784 244.1 144.57C244.17 144.497 244.25 144.413 244.343 144.316C244.652 143.991 245.09 143.526 245.528 142.996C246.307 142.051 247.445 140.481 247.972 138.36C247.998 138.316 248.029 138.265 248.065 138.205C248.076 138.188 248.087 138.169 248.1 138.149C248.257 137.893 248.565 137.392 248.844 136.84C249.167 136.199 249.533 135.338 249.755 134.289C249.849 133.848 250.014 133.366 250.336 132.675C250.86 131.552 251.136 130.486 251.298 129.797C251.416 129.299 251.467 129.054 251.505 128.873C251.543 128.691 251.567 128.575 251.631 128.334C251.692 128.104 251.745 127.931 251.826 127.669C251.874 127.51 251.933 127.32 252.009 127.064C252.177 126.504 252.402 125.712 252.555 124.809C252.831 123.182 253.247 121.591 253.683 120.614C254.257 119.33 254.615 118.1 254.864 117.203C254.933 116.954 254.993 116.735 255.047 116.538C255.217 115.918 255.328 115.511 255.479 115.077C256.454 112.268 256.406 109.395 256.379 107.809C256.375 107.586 256.372 107.389 256.372 107.22C256.372 105.217 256.134 102.898 255.259 100.527C254.566 98.6484 253.455 96.277 251.63 94.1777C251.414 93.9293 251.17 93.5918 250.772 92.9781C250.368 92.3554 249.944 91.8701 249.616 91.5269C249.304 91.1998 249.003 90.9262 248.856 90.7916L248.851 90.7874C248.821 90.7604 248.797 90.7385 248.777 90.72C248.703 90.6135 248.616 90.4871 248.505 90.3235C248.496 90.3104 248.487 90.297 248.478 90.2832C248.299 90.0193 248.036 89.6322 247.745 89.2406C247.101 88.3748 246.128 87.218 244.648 86.1844C244.563 86.1247 244.43 86.0273 244.261 85.9026C243.59 85.4096 242.34 84.4899 241.114 83.7836C240.456 83.1521 239.822 82.765 239.467 82.5638C238.827 82.2009 238.237 81.9738 237.996 81.8824C237.997 81.8827 237.996 81.8822 237.996 81.8824C237.284 81.4361 236.357 80.9126 235.26 80.4997C233.775 79.9406 232.272 79.6861 230.708 79.6634C229.879 79.2419 228.765 78.7794 227.413 78.5284C227.398 78.5244 227.343 78.5104 227.233 78.478C227.069 78.4291 226.989 78.4033 226.876 78.3673C226.767 78.3325 226.629 78.2882 226.356 78.2041C225.636 77.9826 224.144 77.5312 222.359 77.4892C221.923 77.4789 221.45 77.4635 220.947 77.447ZM215.525 102.036C215.525 102.035 215.519 102.044 215.505 102.063C215.518 102.046 215.524 102.037 215.525 102.036Z" fill="#FFE6CF"/>
<path fill-rule="evenodd" clip-rule="evenodd" d="M248.611 113.89C247.488 113.831 246.365 113.719 245.269 113.551C241.679 112.998 237.959 111.773 234.619 109.657C234.229 109.411 233.905 109.222 233.489 108.981C233.227 108.83 232.93 108.657 232.558 108.436C231.735 107.948 230.692 107.301 229.653 106.465C228.559 105.585 227.742 104.707 227.116 103.992C226.809 103.641 226.597 103.391 226.417 103.179C226.213 102.939 226.051 102.748 225.841 102.516C225.803 102.491 225.754 102.458 225.691 102.418C225.666 102.401 225.63 102.378 225.586 102.35C225.421 102.244 225.147 102.069 224.917 101.913C224.588 101.691 224.149 101.38 223.687 100.984C223.552 100.868 223.409 100.747 223.26 100.621C222.258 99.7697 220.971 98.6762 219.745 97.3138C219.564 97.1129 219.326 96.8917 218.773 96.3972C218.751 96.3777 218.728 96.3576 218.705 96.3369C218.233 95.9156 217.49 95.2524 216.785 94.4681C215.998 93.5944 215.624 93.238 215.08 92.8497C211.35 90.1854 209.215 86.8368 208.148 82.6872C207.661 80.7933 207.666 79.1576 207.734 77.9476C207.774 77.2099 207.81 76.8243 207.836 76.541C207.865 76.2276 207.883 76.0393 207.883 75.6379C207.883 73.9532 208.375 72.4829 208.613 71.8022C208.651 71.6939 208.689 71.5872 208.727 71.4838C209.112 68.3477 210.987 66.1569 212.976 64.8943C214.587 63.8718 216.44 63.3651 217.239 63.1466C217.3 63.1301 217.354 63.1152 217.402 63.1018C219.538 62.5065 221.636 62.4394 223.217 62.4589C224.03 62.4689 224.824 62.5055 225.488 62.5365L225.515 62.5377C226.206 62.5699 226.749 62.5952 227.254 62.6029C229.491 62.6367 231.428 63.197 232.636 63.5558C232.798 63.604 232.948 63.6488 233.088 63.6905C234.197 64.0211 234.641 64.1534 235.108 64.2118C236.289 64.3594 237.234 64.7453 237.849 65.0465C238.479 65.355 238.999 65.6934 239.346 65.9318C239.634 66.1304 239.925 66.3459 240.091 66.4689C240.118 66.4888 240.141 66.5062 240.161 66.5208C240.262 66.5949 240.314 66.6319 240.332 66.645C241.515 67.3753 242.803 68.1826 244.066 69.0462C244.88 69.6037 245.834 70.231 246.846 70.8967C248.667 72.095 250.678 73.4178 252.41 74.6824C252.577 74.8043 252.807 74.9659 253.077 75.1558C253.915 75.7444 255.139 76.6049 256.079 77.4012C256.728 77.9507 257.41 78.5955 258.066 79.3597C259.096 80.1061 259.863 80.875 260.366 81.3888C260.483 81.5084 260.583 81.6119 260.672 81.7029C261.027 82.0681 261.185 82.2301 261.402 82.4166C262.638 83.4797 263.695 84.8695 264.447 86.055C265.174 87.2004 266.082 88.8856 266.487 90.7083C266.643 91.4083 266.736 92.0639 266.799 92.5574C266.838 92.8588 266.86 93.0511 266.88 93.2148C266.902 93.4033 266.92 93.5539 266.952 93.7894C266.994 94.0945 267.029 94.2598 267.044 94.3286C267.046 94.3322 267.048 94.3359 267.049 94.3395C267.555 94.9607 267.938 95.6394 268.206 96.3388C268.449 96.9731 268.566 97.5474 268.626 97.9446C269.598 100.907 268.832 103.555 268.066 105.196C267.441 106.535 266.441 107.91 266.092 108.39C266.043 108.459 266.006 108.509 265.986 108.539C265.947 108.595 265.89 108.681 265.816 108.791C265.437 109.361 264.633 110.569 263.801 111.505C262.623 112.832 260.783 114.407 258.055 115.089C254.736 115.919 251.788 115.099 249.942 114.422C249.476 114.251 249.026 114.067 248.611 113.89ZM268.702 98.6547L268.702 98.6525C268.703 98.6611 268.703 98.6624 268.702 98.6547ZM260.315 82.6078C260.316 82.6085 260.322 82.6234 260.332 82.6502C260.32 82.6205 260.315 82.6071 260.315 82.6078Z" fill="#515151"/>
<path d="M189.377 102.097C189.483 101.971 189.559 101.869 189.624 101.772C189.532 102.372 189.468 102.978 189.377 103.573C189.317 103.96 189.172 104.314 189.129 104.702C189.105 104.912 189.018 106.618 189.018 105.76C189.018 105.132 189.083 104.401 189.266 103.808C189.358 103.507 189.36 102.908 189.377 102.58C189.383 102.45 189.29 102.202 189.377 102.097Z" fill="#515151"/>
<path d="M208.641 83.9031C209.936 83.9031 205.837 83.7852 204.816 84.5821C204.04 85.1873 203.358 85.8353 202.531 86.3708C202.011 86.7073 201.488 86.9384 200.977 87.3109C200.523 87.6419 199.945 87.7816 199.476 88.1073C198.918 88.4943 198.321 88.8079 197.739 89.1649C196.725 89.7875 195.623 90.5921 195.037 91.6586C194.063 93.4291 192.789 95.0153 191.72 96.7376C191.249 97.4966 190.691 98.3365 190.336 99.1791C190.073 99.8035 190.186 100.611 189.899 101.242C189.731 101.612 189.651 101.769 189.377 102.097C189.29 102.202 189.383 102.45 189.377 102.58C189.36 102.908 189.358 103.507 189.266 103.808C189.083 104.401 189.018 105.132 189.018 105.76C189.018 106.618 189.105 104.912 189.129 104.702C189.172 104.314 189.317 103.96 189.377 103.573C189.539 102.518 189.614 101.425 189.912 100.4C190.453 98.5346 190.79 96.6426 191.316 94.7791C191.679 93.49 192.644 92.2555 193.418 91.1886C194.395 89.8404 195.202 88.1456 196.427 87.0171C197.169 86.3335 197.912 85.7578 198.836 85.3394C199.523 85.0282 200.025 84.4988 200.69 84.1577C201.895 83.5396 202.904 82.5169 204.137 81.9643C204.77 81.6805 205.718 81.536 206.272 81.1482C206.731 80.827 207.918 80.5699 208.289 80.848" stroke="#515151" stroke-width="4" stroke-linecap="round"/>
<path d="M239.39 115.368C237.89 113.368 234.468 110.836 234.887 109.58C234.887 108.61 243.525 111.219 244.064 110.423C244.518 109.751 245.548 109.337 246.236 108.921C246.861 108.543 247.413 108.035 248.06 107.7C249.33 107.043 250.496 106.151 251.748 105.447C252.831 104.838 254.057 104.638 255.249 104.307C256.976 103.827 258.329 103.617 260.104 103.636C260.903 103.645 261.759 103.857 262.337 104.434C262.909 105.006 263.853 105.463 264.255 106.178C264.586 106.767 265.026 107.412 265.039 108.103C265.052 108.764 264.955 109.386 264.919 110.034C264.846 111.346 267.556 112.779 266.89 113.869C266.463 114.568 261.771 114.845 261.029 115.13C260.634 115.282 260.224 115.625 259.903 115.888C259.408 116.293 258.728 116.443 258.226 116.854C257.46 117.481 256.353 117.652 255.631 118.302C254.626 119.207 253.337 119.896 252.218 120.656C251.651 121.04 251.094 121.491 250.488 121.809C249.972 122.079 249.049 122.628 248.684 123.077C248.437 123.38 248.096 123.559 247.846 123.854C247.673 124.058 247.596 124.318 247.416 124.518C247.097 124.873 246.945 125.312 246.692 125.699C246.692 125.699 246.108 130.776 244.862 130.152C243.189 129.316 242.634 125.002 242.39 123.077C242.252 121.987 241.89 120.463 241.89 119.368C240.709 117.65 240.505 116.854 239.39 115.368Z" fill="#515151"/>
<path d="M205.941 78.14C205.756 78.138 205.572 78.1366 205.388 78.1366C205.133 78.1366 204.83 78.1078 204.517 78.0852C204.499 78.091 204.481 78.0969 204.463 78.1028C203.495 78.4169 202.554 78.6692 201.716 79.2478C199.677 80.655 197.575 81.9966 195.697 83.6195C195.376 83.8968 195.045 84.2034 194.731 84.516C194.605 84.6647 194.478 84.8136 194.349 84.962C194.241 85.0854 194.132 85.4387 194.016 85.323C193.908 85.215 194.194 85.0736 194.298 84.962C194.437 84.8136 194.582 84.6641 194.731 84.516C195.56 83.5356 196.335 82.5635 197.406 81.8031C198.646 80.9232 199.805 79.8014 201.191 79.152C201.825 78.8552 202.469 78.3782 203.126 78.1592C203.515 78.0297 204.028 78.0498 204.517 78.0852C205.056 77.9124 205.599 77.7707 206.15 77.6402C206.215 77.6247 207.079 77.323 206.618 77.6797C206.401 77.8471 206.175 77.9995 205.941 78.14Z" fill="#515151"/>
<path d="M210.059 78.0351C208.523 78.2332 206.934 78.1366 205.388 78.1366C204.734 78.1366 203.763 77.947 203.126 78.1592C202.469 78.3782 201.825 78.8552 201.191 79.152C199.805 79.8014 198.646 80.9232 197.406 81.8031C196.172 82.6789 195.331 83.8353 194.349 84.962C194.241 85.0854 194.132 85.4387 194.016 85.323C193.908 85.215 194.194 85.0736 194.298 84.962C194.729 84.5005 195.224 84.0283 195.697 83.6195C197.575 81.9966 199.677 80.655 201.716 79.2478C202.554 78.6692 203.495 78.4169 204.463 78.1028C205.02 77.9219 205.58 77.7751 206.15 77.6402C206.215 77.6247 207.079 77.323 206.618 77.6797C205.013 78.9196 202.884 79.3359 201.09 80.2237C200.174 80.6767 199.396 81.3355 198.484 81.7919" stroke="#515151" stroke-width="3" stroke-linecap="round"/>
<path d="M217.17 120.25C218.098 120.287 218.684 121.688 218.632 122.28C218.563 123.079 218.324 123.988 217.912 124.666C217.758 124.92 217.571 125.075 217.303 125.205C217.094 125.307 216.986 125.37 216.752 125.296C216.634 125.258 216.153 124.871 216.051 124.777C215.538 124.304 215.848 123.902 215.661 123.247C215.568 122.925 215.606 122.514 215.726 122.217C215.847 121.916 215.731 121.54 215.839 121.249C215.97 120.9 216.796 120.261 217.17 120.25ZM217.17 120.25C217.591 120.236 217.631 120.523 217.539 120.894C217.442 121.287 217.427 121.745 217.426 122.148C217.425 122.777 217.234 123.561 217.036 124.158" stroke="#A58466" stroke-width="2" stroke-linecap="round"/>
<path d="M201.76 116.728C202.688 116.765 203.274 118.166 203.222 118.758C203.153 119.557 202.914 120.466 202.502 121.144C202.348 121.398 202.161 121.553 201.893 121.683C201.684 121.785 201.576 121.848 201.342 121.774C201.223 121.736 200.742 121.349 200.64 121.255C200.128 120.782 200.438 120.38 200.25 119.725C200.158 119.403 200.196 118.992 200.315 118.695C200.436 118.394 200.321 118.018 200.429 117.727C200.56 117.378 201.386 116.739 201.76 116.728ZM201.76 116.728C202.181 116.715 202.221 117.002 202.129 117.372C202.032 117.765 202.017 118.223 202.016 118.626C202.015 119.255 201.824 120.039 201.626 120.636" stroke="#A58466" stroke-width="2" stroke-linecap="round"/>
<path d="M217.809 132.952C217.469 132.775 216.562 133.897 216.15 134.024C215.56 134.207 214.964 134.396 214.362 134.562C213.049 134.925 211.706 135.069 210.339 135.151C207.652 135.311 205.189 134.618 202.725 133.681C201.843 133.347 200.936 132.621 200.083 132.144C199.309 131.712 198.84 131.39 198.347 130.671C198.038 130.218 197.846 129.731 197.514 129.282C197.322 129.022 196.997 128.711 196.904 128.387C196.756 127.869 196.463 127.403 196.43 126.852" stroke="#A58466" stroke-width="2" stroke-linecap="round"/>
<path d="M208.999 124.388C208.732 124.268 208.529 124.145 208.227 124.163C207.981 124.178 207.703 124.218 207.481 124.328C207.066 124.533 206.868 125.045 206.805 125.476C206.769 125.716 206.748 126 206.805 126.243C206.857 126.46 207.079 126.629 207.19 126.816C207.248 126.914 207.304 126.95 207.405 126.996C207.531 127.052 207.638 127.164 207.771 127.203C207.889 127.238 207.975 127.335 208.098 127.374C208.173 127.397 208.296 127.47 208.369 127.466" stroke="#A58466" stroke-width="2" stroke-linecap="round"/>
<path d="M203.731 110.801C203.084 110.316 202.147 110.37 201.385 110.37C200.768 110.37 200.065 110.35 199.508 110.629" stroke="#A58466" stroke-width="2" stroke-linecap="round"/>
<path d="M218.533 113.817C219.331 113.689 220.134 114.174 220.809 114.53C221.354 114.818 221.985 115.128 222.348 115.634" stroke="#A58466" stroke-width="2" stroke-linecap="round"/>
<path d="M194.769 95.7578C194.835 96.3924 195.332 97.0807 195.595 97.6628C195.767 98.0446 196.036 98.3261 196.295 98.6498C196.736 99.2006 197.054 99.8538 197.477 100.423C198.757 102.145 200.093 104.043 201.918 105.26C202.242 105.476 202.567 105.687 202.905 105.88C203.094 105.987 203.598 106.385 203.806 106.385C203.905 106.385 203.858 104.923 203.858 104.744C203.858 103.487 203.961 102.216 203.961 100.945C203.961 99.562 204.199 98.4521 204.839 97.244C204.911 97.1081 205.411 96.1174 205.671 96.2398C205.784 96.2931 205.914 96.6768 205.975 96.7849C206.197 97.1793 206.623 97.4774 206.933 97.8006C207.356 98.2411 207.626 98.8544 207.943 99.3728C208.429 100.167 209.067 100.682 209.642 101.387C210.054 101.893 210.574 102.312 211.019 102.793C212.382 104.267 213.733 105.76 215.219 107.113C215.783 107.627 216.417 108.014 217.038 108.416C217.49 108.708 218.125 109.169 218.111 108.416C218.098 107.755 217.794 107.12 217.595 106.499C217.397 105.884 217.491 105.176 217.491 104.537C217.491 103.911 217.426 103.308 217.698 102.73C217.919 102.261 218.16 101.805 218.375 101.335C218.549 100.954 218.568 100.435 218.891 101.083C219.106 101.513 219.644 101.918 220.016 102.213C220.677 102.737 221.222 103.401 221.881 103.917C224.699 106.123 227.888 108.121 231.486 108.674C231.544 108.683 231.836 108.746 231.836 108.823C231.836 108.895 231.193 108.408 231.125 108.359C230.438 107.859 229.934 107.018 229.656 106.224C229.295 105.196 229.059 104.401 229.059 103.298C229.059 102.884 229.059 102.471 229.059 102.058" stroke="#515151" stroke-width="4" stroke-linecap="round"/>
<path d="M193.117 87.8054C192.928 88.6873 192.622 89.5113 192.967 90.3989C193.341 91.3599 193.842 92.0064 194.557 92.763C194.893 93.1192 195.32 93.4582 195.618 93.8418C195.865 94.1589 195.982 94.5579 196.227 94.8861C197.308 96.3387 198.921 97.6165 199.704 99.2929C199.949 99.8174 200.391 100.554 200.805 100.968C200.893 101.056 201.574 101.715 201.574 101.473C201.574 101.045 201.277 100.601 201.115 100.222C200.768 99.4091 200.599 98.6177 200.025 97.9158C199.441 97.2022 198.908 96.4839 198.493 95.655C198.143 94.9547 197.935 94.2431 197.506 93.5836C197.312 93.2843 196.966 91.5838 197.357 91.8966C198.58 92.8754 199.599 94.0389 200.553 95.2648C201.06 95.916 201.274 96.3803 201.976 96.8715C203.017 97.5999 201.936 95.318 201.838 94.9779C201.595 94.1256 201.083 93.4763 200.576 92.763C199.869 91.7675 199.83 90.5181 199.83 89.3546C199.83 89.1024 200.145 88.6768 200.301 88.4767C200.332 88.4368 200.546 88.1437 200.576 88.1382C200.696 88.1163 201.045 89.4027 201.121 89.5555C201.317 89.9472 201.445 90.3808 201.695 90.7432C202.116 91.3532 202.776 91.81 203.342 92.2696C203.697 92.5584 203.955 92.8305 204.231 93.1876C204.506 93.5439 204.879 93.7111 205.201 94.0024C206.081 94.7992 205.413 93.3082 205.258 92.9007C204.984 92.1771 204.656 91.4996 204.455 90.7547C204.221 89.8908 203.652 89.0747 203.652 88.1783C203.652 87.6787 204.116 88.7704 204.225 88.9185C204.937 89.879 205.646 90.8084 206.28 91.822C206.81 92.6713 207.311 93.4684 207.984 94.209C209.193 95.5391 209.809 97.3793 211.134 98.5986C211.674 99.0958 212.005 99.7193 212.62 100.142C213.154 100.509 213.601 101.049 214.135 101.445C214.698 101.862 214.98 102.386 215.426 102.885C216.303 103.865 214.341 102.177 214.164 102.036C212.679 100.854 211.887 99.0292 210.836 97.4797C209.756 95.8882 208.163 94.3854 207.473 92.5565C206.876 90.9721 205.407 89.5184 205.407 87.7537C205.407 87.4826 205.389 87.2038 205.407 86.9332C205.42 86.7481 205.512 86.9325 205.568 87.0135C206.053 87.7088 206.566 88.3834 207.043 89.0849C207.975 90.458 208.888 91.8316 209.791 93.2163C211.235 95.4304 212.893 97.4532 214.692 99.3847C215.172 99.9008 215.639 100.376 216.046 100.945C216.232 101.207 216.441 101.38 216.694 101.577C217.104 101.895 216.158 100.687 215.885 100.245C214.661 98.2629 213.315 96.3197 212.327 94.2033C212.004 93.51 211.857 92.6897 211.708 91.9425C211.64 91.6012 211.515 91.2624 211.421 90.9268C211.308 90.523 210.941 90.2583 210.83 89.8596C210.48 88.6018 209.169 87.8656 208.839 86.6118C208.774 86.3642 208.838 86.0952 208.81 85.8429C208.737 85.1864 208.608 85.9242 208.655 86.2331C208.852 87.5326 209.51 88.7449 210.227 89.8137C211.413 91.5795 213.042 93.0805 214.508 94.6279C215.028 95.1766 215.655 95.6364 216.126 96.2288C216.241 96.3731 216.202 96.565 216.31 96.6878C216.881 97.3411 217.356 97.8886 218.043 98.438C218.222 98.5819 218.242 98.7696 218.387 98.9142C218.695 99.2221 219.081 99.5054 219.431 99.7634C219.855 100.076 220.282 100.365 220.717 100.659C221.556 101.227 222.376 101.795 223.092 102.495C223.767 103.154 224.657 103.786 225.491 104.228C225.647 104.311 226.592 104.857 226.455 104.308C226.318 103.762 225.645 103.186 225.284 102.787C224.659 102.098 223.885 101.6 223.23 100.945C221.976 99.6917 220.806 98.3499 219.557 97.101C218.864 96.4073 218.028 95.4551 217.079 95.1386" stroke="#515151" stroke-width="4" stroke-linecap="round"/>
<path d="M233.952 108.671C233.929 109.576 233.786 110.466 233.779 111.373C233.771 112.328 233.784 113.279 233.721 114.23" stroke="#FFE6CF" stroke-linecap="round"/>
<path d="M233.921 108.653C234.028 108.774 234.048 108.981 234.097 109.126C234.134 109.238 234.128 109.369 234.169 109.485C234.224 109.642 234.233 109.775 234.31 109.925C234.53 110.353 234.78 110.762 235.054 111.157C235.459 111.738 235.867 112.329 236.24 112.931C236.466 113.295 236.767 113.595 237.01 113.949" stroke="#FFE6CF" stroke-linecap="round"/>
<path d="M166.325 102.933C166.535 103.606 166.497 104.176 166.587 104.852C166.644 105.274 166.803 105.659 166.813 106.092C166.824 106.551 166.813 107.012 166.813 107.472C166.813 108.89 166.813 110.308 166.813 111.726C166.813 112.678 166.54 113.529 166.243 114.418" stroke="#515151" stroke-width="4" stroke-linecap="round"/>
<path d="M91.6987 108.616C91.6996 108.488 91.6987 108.44 91.6987 108.56C91.6987 108.578 91.6987 108.597 91.6987 108.616Z" fill="#515151"/>
<path d="M86.8892 102.368C86.8892 104.475 87.6282 109.562 88.13 111.558C88.6092 113.465 89.7201 115.088 90.4851 116.787C90.6755 117.21 91.4775 119.001 91.9314 118.927C92.2132 118.881 91.735 117.719 91.6987 117.631C91.2854 116.628 91.0306 115.661 91.006 114.504C90.9887 113.691 90.9273 112.782 91.1113 111.995C91.2982 111.196 91.5257 110.408 91.6543 109.584C91.7066 109.25 91.6987 108.217 91.6987 108.56C91.6987 109.675 91.7106 110.779 91.804 111.89C91.8777 112.767 92.0977 113.566 92.0977 114.437" stroke="#515151" stroke-width="4" stroke-linecap="round"/>
<path d="M143.954 75.6651C145.087 74.9516 146.601 75.2312 147.891 75.2312C149.15 75.2312 150.24 75.3299 151.338 75.9704C152.508 76.6531 153.558 77.5062 154.688 78.2362C155.72 78.9022 156.058 79.6195 156.633 80.6145C157.174 81.5517 157.673 82.5128 158.272 83.4107C158.7 84.0535 158.804 84.994 159.067 85.7247C159.414 86.6885 159.642 87.8031 159.726 88.8181C159.781 89.4815 160.098 90.0996 160.144 90.7705C160.187 91.387 160.152 92.0174 160.152 92.6346C160.152 94.7375 160.586 96.7911 160.586 98.9018C160.586 100.324 160.516 101.626 160.08 102.983C160.013 103.19 159.782 104.264 159.622 104.365C159.097 104.699 158.672 104.125 158.561 103.691C158.3 102.673 158.049 102.082 157.436 101.232C156.406 99.8024 155.343 98.4562 154.174 97.1341C153.332 96.182 152.779 95.0604 152.117 93.9845C150.787 91.8232 149.278 89.7398 147.859 87.637C147.336 86.8628 146.947 86.0911 146.075 85.6765C145.476 85.3914 144.939 84.9995 144.388 84.6319" stroke="#515151" stroke-width="12" stroke-linecap="round"/>
<path fill-rule="evenodd" clip-rule="evenodd" d="M92.8954 110.165C94.8651 107.437 98.6412 106.738 101.454 108.626C102.223 109.142 102.74 109.71 103.037 110.072C103.085 110.131 103.13 110.188 103.172 110.241C103.741 110.731 104.153 111.194 104.374 111.445C104.493 111.581 104.66 111.777 104.757 111.89C104.788 111.926 104.812 111.954 104.824 111.968C104.874 112.026 104.905 112.061 104.921 112.079C104.937 112.094 104.965 112.119 105.009 112.158C105.022 112.17 105.039 112.185 105.06 112.203C105.159 112.291 105.335 112.447 105.493 112.594C105.813 112.891 106.562 113.594 107.194 114.607L107.245 114.673C107.269 114.705 107.3 114.745 107.333 114.79C107.367 114.835 107.408 114.89 107.452 114.952C107.908 115.583 108.187 116.179 108.357 116.605C108.432 116.792 108.495 116.97 108.544 117.117C109.065 117.982 109.767 119.234 110.238 120.564C111.07 122.908 111.082 124.887 111.082 126.328C111.082 128.438 110.927 130.622 110.128 133.123C110.092 133.238 110.044 133.424 109.947 133.863C109.937 133.907 109.926 133.957 109.914 134.01C109.833 134.381 109.709 134.953 109.555 135.51C109.075 137.251 108.025 139.064 106.125 140.302C104.368 141.449 102.542 141.668 101.282 141.668C99.3906 141.668 97.4372 141.317 95.5534 140.264C93.7678 139.266 92.5285 137.9 91.6319 136.756C90.9908 135.939 90.6289 135.157 90.4678 134.802C90.4298 134.718 90.394 134.636 90.3713 134.585L90.3661 134.573L90.3492 134.535C90.3217 134.494 90.2728 134.421 90.1882 134.3C90.1738 134.28 90.1569 134.255 90.1379 134.228C89.9854 134.011 89.695 133.598 89.4261 133.155C89.2369 132.843 89.0762 132.549 88.9679 132.349C88.9261 132.271 88.8923 132.209 88.8633 132.155C88.8015 132.04 88.7614 131.965 88.712 131.877C88.6949 131.847 88.6807 131.822 88.6691 131.802C87.6571 130.614 87.1814 129.357 87.0156 128.919C87.0091 128.901 87.003 128.885 86.9974 128.871C86.9502 128.747 86.9397 128.718 86.9313 128.696C86.9289 128.689 86.9267 128.683 86.9239 128.676C86.3677 127.746 86.1081 126.853 85.9759 126.214C85.8228 125.475 85.7886 124.818 85.7811 124.374C85.7734 123.924 85.7924 123.515 85.803 123.288C85.8157 123.02 85.8174 122.977 85.8176 122.977C85.8176 122.977 85.8176 122.979 85.8176 122.98C85.8176 122.02 85.9518 121.145 86.0158 120.727C86.0196 120.702 86.0231 120.679 86.0264 120.658C86.0715 120.361 86.0868 120.236 86.0913 120.205C86.1027 118.99 86.3816 117.996 86.6963 117.228C86.8203 116.926 86.9479 116.667 86.9964 116.568C86.9989 116.563 87.0012 116.558 87.0032 116.554C87.033 116.494 87.0463 116.466 87.0508 116.457C87.1716 116.186 87.2902 115.964 87.3752 115.813C87.4035 115.762 87.4311 115.715 87.4574 115.67C88.2119 113.517 89.7654 112.338 90.2637 111.968C90.4135 111.857 90.5538 111.759 90.6506 111.692C91.3711 110.981 92.1492 110.497 92.8954 110.165Z" fill="#FFE6CF"/>
<path fill-rule="evenodd" clip-rule="evenodd" d="M132.832 77.447C136.068 77.3415 140.571 77.1945 144.789 78.1065C144.867 78.1235 145.027 78.1543 145.246 78.1966C146.1 78.3611 147.85 78.6985 149.174 79.0627C150.744 79.4946 153.967 80.4861 156.236 82.9867C156.249 82.9993 156.274 83.0224 156.313 83.0581C156.369 83.1087 156.426 83.1596 156.519 83.2418L156.547 83.2671C156.644 83.3533 156.78 83.4739 156.922 83.6048C157.406 84.0485 158.313 84.9091 159.073 86.1696C159.102 86.1989 159.133 86.23 159.171 86.2685C159.202 86.2997 159.238 86.3357 159.281 86.3795L159.286 86.3848C159.503 86.6043 159.93 87.0364 160.35 87.5544C160.704 87.9912 161.137 88.5881 161.518 89.3385C161.534 89.3617 161.551 89.3856 161.567 89.4098C161.863 89.8397 162.758 91.15 162.986 93.0432C163.043 93.1556 163.111 93.2838 163.215 93.4789L163.28 93.6012C163.553 94.1153 164.068 95.084 164.446 96.2302C165.093 98.1957 165.144 100.573 165.162 101.445C165.163 101.484 165.164 101.519 165.165 101.551C165.181 102.254 165.199 102.731 165.249 103.134C165.263 103.242 165.276 103.32 165.286 103.373C165.313 103.427 165.341 103.483 165.371 103.542C165.877 104.547 166.801 106.381 167.28 108.3C167.994 111.161 168.546 113.935 169.053 116.707C169.318 118.16 169.331 119.53 169.314 120.532C169.302 121.211 169.286 121.595 169.272 121.915C169.258 122.253 169.247 122.519 169.247 122.983C169.247 123.61 169.27 124.072 169.299 124.651C169.324 125.132 169.352 125.694 169.374 126.497C169.413 127.886 169.408 129.743 169.015 131.651C168.635 133.494 167.956 135.045 167.42 136.173C167.156 136.729 166.956 137.129 166.79 137.462C166.547 137.952 166.375 138.297 166.175 138.779C165.325 140.828 163.734 143.645 161.365 145.728C161.311 145.804 161.227 145.927 161.067 146.164C161.048 146.192 161.028 146.223 161.005 146.256C160.623 146.827 159.692 148.216 158.227 149.385C158.119 149.471 157.998 149.573 157.77 149.766L157.759 149.775C157.561 149.943 157.272 150.188 156.959 150.436C156.332 150.933 155.327 151.676 154.004 152.264C152.554 152.91 151.138 153.423 149.827 153.863C149.113 154.102 148.483 154.223 148.077 154.29C148.037 154.297 147.998 154.303 147.96 154.309C147.882 154.354 147.801 154.4 147.721 154.444C147.222 154.723 146.064 155.357 144.584 155.699C139.835 156.793 134.993 156.566 130.273 154.868C129.788 154.694 129.377 154.513 129.077 154.377C128.927 154.308 128.79 154.243 128.685 154.194C128.568 154.138 128.501 154.106 128.428 154.072C128.422 154.069 128.415 154.066 128.409 154.064C127.781 153.914 127.144 153.751 126.592 153.61C126.393 153.559 126.205 153.511 126.033 153.467C125.944 153.445 125.8 153.412 125.613 153.369C124.744 153.171 122.954 152.764 121.514 152.212C119.826 151.565 118.208 150.791 116.571 149.762C116.269 149.572 115.94 149.379 115.479 149.109L115.469 149.104C115.046 148.856 114.505 148.539 113.959 148.193C112.866 147.502 111.417 146.491 110.125 145.045C110.004 144.909 109.884 144.784 109.679 144.57C109.609 144.497 109.53 144.413 109.437 144.316C109.127 143.991 108.689 143.526 108.252 142.996C107.472 142.051 106.335 140.481 105.808 138.36C105.782 138.316 105.751 138.265 105.714 138.205C105.704 138.188 105.692 138.169 105.679 138.149C105.522 137.893 105.214 137.392 104.936 136.84C104.613 136.199 104.247 135.338 104.024 134.289C103.93 133.848 103.766 133.366 103.444 132.675C102.919 131.552 102.643 130.486 102.481 129.797C102.364 129.299 102.312 129.054 102.274 128.873C102.237 128.691 102.212 128.575 102.148 128.334C102.087 128.104 102.034 127.931 101.954 127.669C101.905 127.51 101.846 127.32 101.77 127.064C101.603 126.504 101.378 125.712 101.224 124.809C100.948 123.182 100.532 121.591 100.096 120.614C99.5228 119.33 99.1646 118.1 98.9152 117.203C98.8461 116.954 98.7861 116.735 98.732 116.538C98.5623 115.918 98.4508 115.511 98.2999 115.077C97.325 112.268 97.3734 109.395 97.4001 107.809C97.4039 107.586 97.4072 107.389 97.4072 107.22C97.4072 105.217 97.6455 102.898 98.5202 100.527C99.2131 98.6484 100.324 96.277 102.149 94.1777C102.365 93.9293 102.61 93.5918 103.007 92.9781C103.411 92.3554 103.835 91.8701 104.163 91.5269C104.476 91.1998 104.776 90.9262 104.924 90.7916L104.928 90.7874C104.958 90.7604 104.982 90.7385 105.003 90.72C105.077 90.6135 105.163 90.4871 105.274 90.3235C105.283 90.3104 105.292 90.297 105.301 90.2832C105.481 90.0193 105.743 89.6322 106.035 89.2406C106.679 88.3748 107.651 87.218 109.131 86.1844C109.216 86.1247 109.349 86.0273 109.518 85.9026C110.189 85.4096 111.44 84.4899 112.665 83.7836C113.323 83.1521 113.958 82.765 114.312 82.5638C114.952 82.2009 115.543 81.9738 115.783 81.8824C115.782 81.8827 115.784 81.8822 115.783 81.8824C116.495 81.4361 117.422 80.9126 118.519 80.4997C120.004 79.9406 121.507 79.6861 123.072 79.6634C123.9 79.2419 125.014 78.7794 126.366 78.5284C126.382 78.5244 126.437 78.5104 126.546 78.478C126.71 78.4291 126.791 78.4033 126.903 78.3673C127.012 78.3325 127.15 78.2882 127.424 78.2041C128.143 77.9826 129.635 77.5312 131.421 77.4892C131.857 77.4789 132.329 77.4635 132.832 77.447ZM138.255 102.036C138.254 102.035 138.261 102.044 138.274 102.063C138.262 102.046 138.255 102.037 138.255 102.036Z" fill="#FFE6CF"/>
<path fill-rule="evenodd" clip-rule="evenodd" d="M105.169 113.89C106.291 113.831 107.415 113.719 108.51 113.551C112.1 112.998 115.82 111.773 119.161 109.657C119.55 109.411 119.875 109.222 120.291 108.981C120.552 108.83 120.849 108.657 121.221 108.436C122.044 107.948 123.087 107.301 124.126 106.465C125.221 105.585 126.037 104.707 126.663 103.992C126.97 103.641 127.183 103.391 127.362 103.179C127.566 102.939 127.728 102.748 127.938 102.516C127.976 102.491 128.026 102.458 128.088 102.418C128.114 102.401 128.15 102.378 128.193 102.35C128.358 102.244 128.632 102.069 128.862 101.913C129.191 101.691 129.63 101.38 130.092 100.984C130.227 100.868 130.37 100.747 130.519 100.621C131.521 99.7697 132.808 98.6762 134.035 97.3138C134.215 97.1129 134.453 96.8917 135.007 96.3972C135.028 96.3777 135.051 96.3576 135.074 96.3369C135.546 95.9156 136.289 95.2524 136.995 94.4681C137.781 93.5944 138.155 93.238 138.699 92.8497C142.429 90.1854 144.564 86.8368 145.631 82.6872C146.118 80.7933 146.113 79.1576 146.046 77.9476C146.005 77.2099 145.969 76.8243 145.943 76.541C145.914 76.2276 145.896 76.0393 145.896 75.6379C145.896 73.9532 145.404 72.4829 145.166 71.8022C145.128 71.6939 145.09 71.5872 145.052 71.4838C144.667 68.3477 142.792 66.1569 140.803 64.8943C139.193 63.8718 137.339 63.3651 136.54 63.1466C136.48 63.1301 136.425 63.1152 136.377 63.1018C134.241 62.5065 132.144 62.4394 130.562 62.4589C129.749 62.4689 128.955 62.5055 128.291 62.5365L128.265 62.5377C127.573 62.5699 127.03 62.5952 126.526 62.6029C124.289 62.6367 122.351 63.197 121.143 63.5558C120.981 63.604 120.831 63.6488 120.691 63.6905C119.582 64.0211 119.139 64.1534 118.671 64.2118C117.49 64.3594 116.545 64.7453 115.93 65.0465C115.3 65.355 114.78 65.6934 114.434 65.9318C114.145 66.1304 113.854 66.3459 113.688 66.4689C113.661 66.4888 113.638 66.5062 113.618 66.5208C113.518 66.5949 113.466 66.6319 113.447 66.645C112.264 67.3753 110.976 68.1826 109.714 69.0462C108.899 69.6037 107.945 70.231 106.934 70.8967C105.112 72.095 103.102 73.4178 101.369 74.6824C101.202 74.8043 100.972 74.9659 100.702 75.1558C99.8646 75.7444 98.6399 76.6049 97.7001 77.4012C97.0517 77.9507 96.369 78.5955 95.7134 79.3597C94.6834 80.1061 93.9159 80.875 93.4136 81.3888C93.2966 81.5084 93.1958 81.6119 93.1073 81.7029C92.7519 82.0681 92.5942 82.2301 92.3774 82.4166C91.1411 83.4797 90.0841 84.8695 89.3321 86.055C88.6056 87.2004 87.697 88.8856 87.2919 90.7083C87.1364 91.4083 87.0437 92.0639 86.9804 92.5574C86.9418 92.8588 86.919 93.0511 86.8996 93.2148C86.8773 93.4033 86.8595 93.5539 86.8271 93.7894C86.785 94.0945 86.7506 94.2598 86.7352 94.3286C86.7334 94.3322 86.7316 94.3359 86.7299 94.3395C86.2244 94.9607 85.8414 95.6394 85.5732 96.3388C85.33 96.9731 85.2129 97.5474 85.1536 97.9446C84.1813 100.907 84.9468 103.555 85.7129 105.196C86.3379 106.535 87.3378 107.91 87.6868 108.39C87.7367 108.459 87.7733 108.509 87.7936 108.539C87.8323 108.595 87.8897 108.681 87.9628 108.791C88.3422 109.361 89.1463 110.569 89.9779 111.505C91.1562 112.832 92.9966 114.407 95.7239 115.089C99.043 115.919 101.991 115.099 103.837 114.422C104.303 114.251 104.754 114.067 105.169 113.89ZM85.0772 98.6547L85.0774 98.6525C85.0766 98.6611 85.0766 98.6624 85.0772 98.6547ZM93.4639 82.6078C93.4634 82.6085 93.4573 82.6234 93.4473 82.6502C93.4594 82.6205 93.4644 82.6071 93.4639 82.6078Z" fill="#515151"/>
<path d="M165.562 100.624C165.439 100.514 165.349 100.425 165.271 100.338C165.448 100.918 165.599 101.509 165.775 102.084C165.89 102.459 166.085 102.788 166.183 103.166C166.237 103.371 166.57 105.046 166.446 104.197C166.355 103.576 166.185 102.862 165.919 102.301C165.784 102.017 165.695 101.424 165.632 101.102C165.607 100.974 165.663 100.716 165.562 100.624Z" fill="#515151"/>
<path d="M143.875 85.3989C142.593 85.5856 146.633 84.8777 147.758 85.519C148.613 86.006 149.381 86.5489 150.277 86.9595C150.841 87.2174 151.391 87.3707 151.95 87.6656C152.447 87.9277 153.04 87.9825 153.551 88.2372C154.158 88.5398 154.795 88.7639 155.422 89.0333C156.516 89.503 157.722 90.1404 158.456 91.1112C159.675 92.7227 161.164 94.1086 162.47 95.6587C163.046 96.3418 163.719 97.0925 164.192 97.8752C164.542 98.4551 164.547 99.2704 164.922 99.8534C165.142 100.195 165.244 100.339 165.562 100.624C165.663 100.716 165.607 100.974 165.632 101.102C165.695 101.424 165.784 102.017 165.919 102.301C166.185 102.862 166.355 103.576 166.446 104.197C166.57 105.046 166.237 103.371 166.183 103.166C166.085 102.788 165.89 102.459 165.775 102.084C165.462 101.064 165.23 99.9939 164.788 99.022C163.983 97.2543 163.377 95.4306 162.588 93.6624C162.043 92.4391 160.91 91.3567 159.99 90.4126C158.829 89.2195 157.786 87.6587 156.411 86.7187C155.578 86.1493 154.76 85.6867 153.785 85.4059C153.06 85.1971 152.487 84.7456 151.78 84.504C150.498 84.0662 149.352 83.1997 148.053 82.8306C147.385 82.6411 146.427 82.6348 145.823 82.331C145.322 82.0793 144.11 81.9962 143.783 82.3248" stroke="#515151" stroke-width="4" stroke-linecap="round"/>
<path d="M114.389 115.368C115.889 113.368 119.311 110.836 118.892 109.58C118.892 108.61 110.254 111.219 109.716 110.423C109.261 109.751 108.231 109.337 107.543 108.921C106.919 108.543 106.367 108.035 105.719 107.7C104.449 107.043 103.283 106.151 102.031 105.447C100.948 104.838 99.722 104.638 98.5305 104.307C96.8033 103.827 95.4502 103.617 93.6755 103.636C92.8767 103.645 92.0202 103.857 91.4424 104.434C90.8707 105.006 89.9267 105.463 89.5246 106.178C89.1931 106.767 88.753 107.412 88.74 108.103C88.7275 108.764 88.8247 109.386 88.8607 110.034C88.9336 111.346 86.2233 112.779 86.8889 113.869C87.316 114.568 92.0085 114.845 92.7501 115.13C93.1455 115.282 93.5548 115.625 93.8766 115.888C94.3712 116.293 95.0516 116.443 95.5531 116.854C96.3194 117.481 97.4258 117.652 98.1482 118.302C99.1534 119.207 100.442 119.896 101.561 120.656C102.128 121.04 102.685 121.491 103.292 121.809C103.807 122.079 104.731 122.628 105.095 123.077C105.342 123.38 105.683 123.559 105.934 123.854C106.106 124.058 106.183 124.318 106.363 124.518C106.682 124.873 106.834 125.312 107.087 125.699C107.087 125.699 107.671 130.776 108.918 130.152C110.591 129.316 111.145 125.002 111.389 123.077C111.527 121.987 111.889 120.463 111.889 119.368C113.07 117.65 113.275 116.854 114.389 115.368Z" fill="#515151"/>
<path d="M147.838 78.14C148.023 78.138 148.207 78.1366 148.391 78.1366C148.646 78.1366 148.949 78.1078 149.262 78.0852C149.28 78.091 149.298 78.0969 149.316 78.1028C150.284 78.4169 151.225 78.6692 152.063 79.2478C154.102 80.655 156.204 81.9966 158.082 83.6195C158.403 83.8968 158.734 84.2034 159.048 84.516C159.174 84.6647 159.301 84.8136 159.43 84.962C159.538 85.0854 159.647 85.4387 159.763 85.323C159.871 85.215 159.585 85.0736 159.481 84.962C159.342 84.8136 159.197 84.6641 159.048 84.516C158.22 83.5356 157.444 82.5635 156.373 81.8031C155.133 80.9232 153.974 79.8014 152.588 79.152C151.955 78.8552 151.31 78.3782 150.653 78.1592C150.265 78.0297 149.752 78.0498 149.262 78.0852C148.723 77.9124 148.181 77.7707 147.63 77.6402C147.564 77.6247 146.7 77.323 147.162 77.6797C147.378 77.8471 147.604 77.9995 147.838 78.14Z" fill="#515151"/>
<path d="M143.721 78.0351C145.256 78.2332 146.845 78.1366 148.391 78.1366C149.045 78.1366 150.017 77.947 150.653 78.1592C151.31 78.3782 151.955 78.8552 152.588 79.152C153.974 79.8014 155.133 80.9232 156.373 81.8031C157.607 82.6789 158.448 83.8353 159.43 84.962C159.538 85.0854 159.647 85.4387 159.763 85.323C159.871 85.215 159.585 85.0736 159.481 84.962C159.05 84.5005 158.555 84.0283 158.082 83.6195C156.204 81.9966 154.102 80.655 152.063 79.2478C151.225 78.6692 150.284 78.4169 149.316 78.1028C148.759 77.9219 148.199 77.7751 147.63 77.6402C147.564 77.6247 146.7 77.323 147.162 77.6797C148.766 78.9196 150.895 79.3359 152.69 80.2237C153.605 80.6767 154.383 81.3355 155.296 81.7919" stroke="#515151" stroke-width="3" stroke-linecap="round"/>
<path d="M105.165 76.6975C105.165 76.674 105.165 76.6502 105.165 76.6262C105.165 74.5048 105.006 72.631 104.386 70.5906C103.234 66.7998 98.246 65.2904 94.8197 64.6039C93.5642 64.3523 92.404 64.2529 91.1441 64.5551C89.7501 64.8894 88.1058 65.0022 86.7868 65.5427C85.8494 65.9269 84.6308 66.0322 83.9023 66.762C83.1033 67.5625 82.777 68.6031 82.0401 69.4323C79.838 71.9103 78.4375 74.2364 78.4375 77.6138C78.4375 80.7522 77.9852 84.1409 79.8615 86.8561C80.2818 87.4643 80.4867 88.2359 80.9691 88.807C81.7186 89.6944 82.948 89.9959 83.878 90.6481C85.1561 91.5444 86.5487 91.6157 88.0404 91.9893C90.3233 92.5611 92.4688 92.3863 94.7954 92.1113C100.765 91.4055 105.302 86.4313 105.384 80.3572C105.401 79.1188 105.393 77.9116 105.165 76.6975Z" fill="#515151"/>
<path d="M102.755 73.9925C102.755 72.7866 103.252 71.4952 102.926 70.2614C102.504 68.6659 100.565 68.2818 99.3473 67.5058C98.1731 66.7572 96.1609 66.9693 94.8319 66.9693C93.2012 66.9693 91.7156 67.0804 90.146 67.579C89.25 67.8636 88.089 68.9819 87.298 69.5542C86.5047 70.1282 86.3076 71.1148 85.7766 71.8831C83.7585 74.8034 82.6 77.6494 82.6 81.2351C82.6 82.4769 82.141 85.1982 83.0382 86.1611C84.8202 88.0739 87.2256 89.1241 89.7079 89.7458C91.0909 90.0922 92.1404 89.797 93.5052 89.6239C95.4144 89.3818 95.8543 88.685 97.1809 87.356C98.1356 86.3996 98.9428 85.7024 99.7611 84.6004C100.575 83.5047 101.987 83.1026 102.658 81.8813C103.174 80.9415 104.118 80.4065 104.508 79.3818C104.919 78.3004 105.165 77.8518 105.165 76.6262C105.165 74.5048 105.006 72.631 104.386 70.5906C103.234 66.7998 98.246 65.2904 94.8197 64.6039C93.5642 64.3523 92.404 64.2529 91.1441 64.5551C89.7501 64.8894 88.1058 65.0022 86.7868 65.5427C85.8494 65.9269 84.6308 66.0322 83.9023 66.762C83.1033 67.5625 82.777 68.6031 82.0401 69.4323C79.838 71.9103 78.4375 74.2364 78.4375 77.6138C78.4375 80.7522 77.9852 84.1409 79.8615 86.8561C80.2818 87.4643 80.4867 88.2359 80.9691 88.807C81.7186 89.6944 82.948 89.9959 83.878 90.6481C85.1561 91.5444 86.5487 91.6157 88.0404 91.9893C90.3233 92.5611 92.4688 92.3863 94.7954 92.1113C100.765 91.4055 105.302 86.4313 105.384 80.3572C105.402 79.0366 105.392 77.7514 105.116 76.4555C104.803 74.9775 103.869 74.1034 103.072 72.8951C102.43 71.9217 102.222 70.7511 101.343 69.92C100.357 68.9872 98.4051 68.9446 97.1565 68.9446C94.1338 68.9446 91.0283 68.5676 88.3447 70.1639C86.7391 71.1189 84.4589 71.3214 83.2572 72.9439C82.5419 73.9097 81.5122 75.3588 81.2977 76.5408C81.0008 78.1766 80.6283 79.4667 80.6283 81.1741C80.6283 83.7586 81.351 79.5045 81.5046 78.8819C82.3926 75.2829 82.6831 71.3535 85.2776 68.5544C86.4248 67.3168 86.3873 67.972 85.4724 69.2616C83.9724 71.3758 82.3809 72.8538 82.3809 75.5288C82.3809 78.7044 81.2115 81.8912 81.8211 85.0881C81.8563 85.2728 82.3606 87.1672 82.247 86.2342C82.1207 85.1964 82.0448 84.0893 81.7237 83.0885C81.2959 81.7552 81.3725 84.1768 81.5046 84.6004C81.9519 86.0341 86.0789 86.2271 87.2006 86.4537C88.7744 86.7716 90.4143 87.0134 92.0082 87.1731C93.7176 87.3444 94.7014 87.9924 96.4506 87.4292C97.8179 86.9889 99.1013 86.3201 99.6759 84.8808C100.022 84.0135 99.9473 86.7296 100.114 87.6486C100.143 87.8056 100.164 87.0897 100.175 87.0146C100.319 86.057 100.31 86.8952 100.236 87.3438C100.185 87.6485 100.245 88.3199 100.467 87.6242C100.718 86.8377 100.551 85.8487 100.577 85.0393C100.614 83.8489 100.422 81.3584 101.222 80.3572C101.749 79.6974 101.441 78.112 101.441 77.3334C101.441 76.3931 101.248 75.2476 101.453 74.3217C101.609 73.6199 103.506 76.6554 103.68 76.9554C104.309 78.0349 102.569 74.6935 101.782 73.7242C100.435 72.0672 98.0389 71.5783 96.0125 71.5783C94.8894 71.5783 93.6129 71.4149 92.5072 71.627C91.3117 71.8564 89.8964 72.761 88.8316 73.3584C87.6322 74.0313 86.8244 74.3115 86.4095 75.6507C86.1106 76.6155 85.448 77.3499 85.448 78.382C85.448 80.1413 84.8373 83.2834 86.1296 84.637C86.7924 85.3311 87.5349 85.7832 88.4543 85.9538C89.5731 86.1614 91.5734 86.372 92.6533 85.9294C93.5877 85.5464 94.5412 85.0504 95.3187 84.4175C95.8779 83.9624 96.3609 83.429 96.9131 82.9665C97.3882 82.5686 98.1205 82.4493 98.4953 81.9423C99.7742 80.2128 98.6743 77.09 98.2641 75.1996C97.8155 73.1323 95.678 72.6089 93.7973 72.9439C92.4152 73.19 90.6631 73.2146 89.6348 74.2851C88.834 75.1189 87.7235 76.1957 87.371 77.3334C86.9425 78.7166 86.8628 81.404 87.5779 82.7105C87.9515 83.3928 89.3735 85.7121 90.3895 85.5271C91.8094 85.2684 93.1487 84.4264 94.5519 84.0395C94.9278 83.9359 96.0429 83.8596 96.3533 83.6006C97.9602 82.259 98.3736 80.4742 98.3736 78.5283C98.3736 76.4288 95.25 75.5288 93.5661 75.5288C92.2282 75.5288 90.4868 77.0531 90.4868 78.4307C90.4868 79.4847 90.4078 80.1696 91.2414 80.9425C92.0551 81.6968 92.9415 82.9446 94.1381 83.0885C96.2687 83.3446 97.5095 80.9211 96.9618 79.1379C95.467 74.2711 89.2347 81.7706 91.9595 83.186C92.5184 83.4763 94.5178 84.0132 94.9658 83.3079C95.487 82.4873 94.6325 80.879 93.8217 80.5767C92.7905 80.1923 92.0571 82.7159 92.848 82.2837C93.8272 81.7486 95.3256 80.6791 93.3835 80.2719C91.9134 79.9636 89.7641 79.8113 88.9654 81.3449C88.318 82.588 90.3155 83.6717 91.3753 83.6127C92.5996 83.5446 93.2471 82.1511 91.9717 81.5521C90.78 80.9925 89.0635 80.0766 89.1724 82.113C89.243 83.4345 91.468 85.7285 92.8967 85.0393C94.3269 84.3495 94.7844 81.5985 93.1036 80.9547C90.9052 80.1126 88.9017 83.3476 88.5638 85.1247C88.1292 87.4105 91.9528 86.722 93.3348 86.722" stroke="#515151" stroke-width="4" stroke-linecap="round"/>
<path d="M138.65 120.25C137.721 120.287 137.136 121.688 137.187 122.28C137.256 123.079 137.495 123.988 137.907 124.666C138.061 124.92 138.248 125.075 138.517 125.205C138.725 125.307 138.833 125.37 139.067 125.296C139.186 125.258 139.667 124.871 139.769 124.777C140.281 124.304 139.971 123.902 140.159 123.247C140.251 122.925 140.213 122.514 140.094 122.217C139.973 121.916 140.089 121.54 139.98 121.249C139.849 120.9 139.023 120.261 138.65 120.25ZM138.65 120.25C138.228 120.236 138.188 120.523 138.28 120.894C138.377 121.287 138.392 121.745 138.393 122.148C138.395 122.777 138.585 123.561 138.784 124.158" stroke="#A58466" stroke-width="2" stroke-linecap="round"/>
<path d="M154.059 116.728C153.13 116.765 152.545 118.166 152.596 118.758C152.666 119.557 152.904 120.466 153.316 121.144C153.47 121.398 153.657 121.553 153.926 121.683C154.135 121.785 154.243 121.848 154.476 121.774C154.595 121.736 155.076 121.349 155.178 121.255C155.69 120.782 155.381 120.38 155.568 119.725C155.66 119.403 155.623 118.992 155.503 118.695C155.382 118.394 155.498 118.018 155.389 117.727C155.258 117.378 154.432 116.739 154.059 116.728ZM154.059 116.728C153.637 116.715 153.597 117.002 153.689 117.372C153.786 117.765 153.801 118.223 153.802 118.626C153.804 119.255 153.994 120.039 154.193 120.636" stroke="#A58466" stroke-width="2" stroke-linecap="round"/>
<path d="M138.011 132.952C138.351 132.775 139.258 133.897 139.67 134.024C140.261 134.207 140.857 134.396 141.459 134.562C142.771 134.925 144.114 135.069 145.482 135.151C148.169 135.311 150.631 134.618 153.095 133.681C153.977 133.347 154.884 132.621 155.738 132.144C156.512 131.712 156.981 131.39 157.473 130.671C157.783 130.218 157.975 129.731 158.306 129.282C158.499 129.022 158.823 128.711 158.916 128.387C159.064 127.869 159.357 127.403 159.39 126.852" stroke="#A58466" stroke-width="2" stroke-linecap="round"/>
<path d="M146.822 124.388C147.088 124.268 147.292 124.145 147.594 124.163C147.839 124.178 148.117 124.218 148.339 124.328C148.754 124.533 148.952 125.045 149.016 125.476C149.051 125.716 149.072 126 149.015 126.243C148.964 126.46 148.741 126.629 148.631 126.816C148.572 126.914 148.517 126.95 148.415 126.996C148.29 127.052 148.183 127.164 148.05 127.203C147.932 127.238 147.846 127.335 147.723 127.374C147.647 127.397 147.524 127.47 147.452 127.466" stroke="#A58466" stroke-width="2" stroke-linecap="round"/>
<path d="M152.088 110.801C152.735 110.316 153.671 110.37 154.434 110.37C155.051 110.37 155.754 110.35 156.311 110.629" stroke="#A58466" stroke-width="2" stroke-linecap="round"/>
<path d="M137.287 113.817C136.488 113.689 135.685 114.174 135.011 114.53C134.465 114.818 133.834 115.128 133.471 115.634" stroke="#A58466" stroke-width="2" stroke-linecap="round"/>
<path d="M119.979 107.947C119.816 108.205 119.674 108.476 119.504 108.729C119.186 109.202 118.817 109.639 118.495 110.11C118.197 110.546 117.937 110.888 117.471 111.157C117.126 111.355 116.751 111.499 116.393 111.669" stroke="#515151" stroke-linecap="round"/>
<path d="M128.161 101.453C127.872 101.841 127.59 102.248 127.236 102.58C126.852 102.942 126.384 103.221 125.953 103.521C124.985 104.195 124.029 104.887 123.065 105.568" stroke="#515151" stroke-linecap="round"/>
<path d="M160.611 87.4492C161.605 88.7322 162.518 90.0738 163.391 91.442C163.508 91.6257 163.527 91.8117 163.551 92.0227" stroke="#515151" stroke-linecap="round"/>
<path d="M149.83 87.0573C148.687 86.8147 147.546 86.395 146.411 86.1099C143.822 85.46 141.238 84.7995 138.658 84.1172" stroke="#515151" stroke-linecap="round"/>
<path d="M160.058 88.0557C160.405 87.0134 158.268 85.799 157.556 85.3988C156.124 84.593 154.838 83.6633 153.312 83.0093C153.03 82.8884 152.946 82.7093 152.725 82.5435C152.295 82.2207 151.521 82.2312 151.009 82.1553C150.433 82.07 149.886 81.4514 149.309 81.2236C148.759 81.0059 148.23 80.8117 147.714 80.5249C147.1 80.1838 146.374 80.3826 145.773 79.9814" stroke="#515151" stroke-width="4" stroke-linecap="round"/>
<path d="M164.273 91.4912C164.281 91.9521 164.55 92.394 164.576 92.8541C164.587 93.0614 164.695 93.2471 164.711 93.4532C164.726 93.657 164.801 93.8853 164.845 94.086C165.058 95.0437 165.286 96.0021 165.459 96.9578C165.547 97.4413 165.716 97.9093 165.815 98.3918C165.88 98.7102 165.979 99.0266 166.051 99.3429C166.113 99.6123 166.108 99.9085 166.128 100.185C166.139 100.348 166.193 100.489 166.193 100.657C166.193 100.813 166.193 100.969 166.193 101.125C166.193 101.382 166.215 101.631 166.225 101.885C166.234 102.12 166.23 102.343 166.263 102.574C166.286 102.735 166.328 102.872 166.328 103.05" stroke="#515151" stroke-width="4" stroke-linecap="round"/>
<path d="M158.906 98.5366C159.15 98.5553 159.194 98.7074 159.35 98.8628C159.529 99.0417 159.756 99.1917 159.907 99.3911C160.202 99.7773 160.474 100.242 160.896 100.5C161.955 101.147 162.542 102.27 163.133 103.324C163.587 104.135 164.102 104.945 164.353 105.849C164.477 106.294 164.641 106.75 164.777 107.199C164.911 107.642 165.07 108.166 165.07 108.634" stroke="#FFE6CF" stroke-width="4" stroke-linecap="round"/>
<path d="M156.39 115.768C156.322 116.017 156.252 116.268 156.15 116.506C156.048 116.745 155.934 116.86 155.75 117.022" stroke="#A58466" stroke-linecap="round"/>
<path d="M135.706 120.582C135.858 120.79 136.013 121 136.193 121.185C136.374 121.372 136.521 121.439 136.751 121.525" stroke="#A58466" stroke-linecap="round"/>
<path fill-rule="evenodd" clip-rule="evenodd" d="M57.3297 157.827C56.9415 157.93 56.5082 158.005 56.0403 158.021C55.4102 158.043 54.8421 157.959 54.5062 157.904C54.2445 157.862 54.1216 157.838 54.0333 157.822C53.9485 157.806 53.8956 157.796 53.7824 157.78C53.4662 157.737 53.116 157.693 52.7431 157.647L52.7427 157.647L52.7427 157.647C51.621 157.507 50.2944 157.341 49.0723 157.083C48.0862 156.874 47.1642 156.496 46.2913 155.883C46.2467 155.852 46.1566 155.798 45.8554 155.647C45.8295 155.634 45.8003 155.62 45.7685 155.604L45.768 155.604C45.5106 155.476 45.0735 155.26 44.6538 154.998C43.9705 154.571 43.2908 154.011 42.8674 153.663C42.7932 153.602 42.7268 153.548 42.6697 153.501C42.1173 153.054 41.7615 152.574 41.5586 152.281C41.4765 152.162 41.3956 152.037 41.3492 151.965L41.3318 151.939L41.323 151.931C41.2598 151.875 41.1348 151.764 41.0127 151.647C40.8655 151.506 40.6729 151.309 40.4759 151.06C39.8977 150.329 39.3178 149.305 38.9904 148.727L38.9904 148.727C38.9035 148.574 38.8344 148.452 38.7878 148.375C38.6703 148.181 38.5255 147.951 38.3657 147.696L38.3657 147.696C37.9529 147.039 37.4399 146.222 37.0396 145.47C36.504 144.463 36.141 143.24 35.9308 142.531C35.8855 142.378 35.8473 142.25 35.8159 142.152C35.5277 141.254 35.4262 140.332 35.565 139.371C35.6933 138.482 36.0045 137.742 36.2483 137.219C36.4595 136.766 36.6026 136.484 36.7173 136.258C36.857 135.983 36.9545 135.791 37.0813 135.474C37.5994 134.177 38.5577 133.394 39.0719 133.017C39.4886 132.712 40.0619 132.374 40.2547 132.26L40.2548 132.26C40.286 132.242 40.3072 132.229 40.3162 132.224L40.3162 132.224C40.3162 132.224 40.3183 132.223 40.3229 132.22L40.3448 132.205C40.3657 132.192 40.391 132.175 40.4288 132.149L40.4527 132.133C40.52 132.088 40.6287 132.014 40.7396 131.943C40.971 131.795 41.439 131.505 42.0363 131.301C43.2059 130.903 44.265 131.076 44.6768 131.149C44.8806 131.186 45.0897 131.232 45.2021 131.257L45.2022 131.257L45.2475 131.267C45.3085 131.28 45.342 131.287 45.3561 131.29C45.4542 131.301 45.5854 131.311 45.8199 131.324L45.8859 131.328C46.1047 131.34 46.4215 131.358 46.7404 131.391C47.4436 131.464 48.5702 131.644 49.6767 132.335C49.8299 132.431 49.9798 132.533 50.1256 132.638C50.4593 131.214 51.086 129.678 52.2992 128.371C53.4078 127.176 54.8306 126.836 55.4587 126.707C55.8187 126.632 56.167 126.583 56.3902 126.552L56.4107 126.549C56.6853 126.51 56.7751 126.496 56.8271 126.485C58.0454 126.226 59.1281 126.462 59.6947 126.608C60.0111 126.69 60.3026 126.783 60.5023 126.847L60.5665 126.868C60.7576 126.929 60.8465 126.958 60.9252 126.979C60.9701 126.992 61.0293 127.007 61.1005 127.026C61.5301 127.138 62.3947 127.364 63.1453 127.712C64.0315 128.122 64.6038 128.7 64.8479 128.947C64.9299 129.03 64.9706 129.072 64.9961 129.098L65.0128 129.115C65.6426 129.54 66.6537 130.264 67.4083 131.508C68.7093 133.654 69.5745 135.831 70.1612 138.219C70.6494 140.205 71.0132 142.878 69.7116 145.63C69.6015 145.863 69.4703 146.159 69.3217 146.495C68.8929 147.463 68.3192 148.758 67.6891 149.802C67.6502 149.866 67.6288 149.913 67.5592 150.066L67.5591 150.066C67.515 150.162 67.4516 150.301 67.3521 150.514C67.1679 150.907 66.8108 151.654 66.2067 152.348C65.8729 152.731 65.5411 153.13 65.2299 153.523C64.572 154.354 63.6352 155.052 62.7122 155.533C62.3281 155.905 61.8849 156.26 61.3779 156.568C60.888 156.865 60.2831 157.196 59.5949 157.462C59.7316 157.409 59.2949 157.59 58.9623 157.684C58.7555 157.742 58.4195 157.823 58.008 157.846C57.8242 157.857 57.5929 157.857 57.3297 157.827Z" fill="#FFE5A3"/>
<path fill-rule="evenodd" clip-rule="evenodd" d="M291.883 105.174C292.283 105.28 292.729 105.357 293.211 105.374C293.86 105.396 294.445 105.31 294.79 105.253C295.06 105.209 295.186 105.185 295.277 105.168C295.365 105.152 295.419 105.142 295.536 105.126C295.861 105.081 296.222 105.036 296.606 104.988L296.606 104.988L296.606 104.988C297.761 104.844 299.127 104.673 300.385 104.407C301.4 104.192 302.35 103.803 303.249 103.173C303.294 103.14 303.387 103.084 303.697 102.93C303.724 102.916 303.754 102.901 303.787 102.885L303.787 102.885C304.052 102.753 304.502 102.531 304.934 102.261C305.638 101.821 306.338 101.245 306.774 100.887C306.85 100.824 306.919 100.768 306.977 100.72C307.546 100.259 307.912 99.7656 308.121 99.4631C308.206 99.3406 308.289 99.2122 308.337 99.1385L308.355 99.1109L308.364 99.1029C308.429 99.0454 308.558 98.9317 308.683 98.8112C308.835 98.6658 309.033 98.4632 309.236 98.2066C309.831 97.4537 310.428 96.3997 310.766 95.8045L310.766 95.8045C310.855 95.6465 310.926 95.5208 310.974 95.4417C311.095 95.2423 311.244 95.0049 311.409 94.7428L311.409 94.7428C311.834 94.0661 312.362 93.225 312.774 92.4507C313.326 91.4146 313.699 90.1548 313.916 89.4251C313.962 89.2678 314.002 89.1352 314.034 89.0347C314.331 88.11 314.435 87.1609 314.292 86.1715C314.16 85.2565 313.84 84.4945 313.589 83.9558C313.371 83.4892 313.224 83.199 313.106 82.9665C312.962 82.6831 312.862 82.4855 312.731 82.1587C312.198 80.8234 311.211 80.0175 310.682 79.6295C310.253 79.3151 309.662 78.9673 309.464 78.8503L309.464 78.8502C309.432 78.8313 309.41 78.8184 309.401 78.8127L309.401 78.8127C309.401 78.8127 309.398 78.8114 309.394 78.8083L309.371 78.7936C309.35 78.7795 309.323 78.7621 309.285 78.7359L309.26 78.7193C309.191 78.6725 309.079 78.5971 308.965 78.5239C308.726 78.3711 308.244 78.0721 307.629 77.8626C306.425 77.4524 305.335 77.631 304.911 77.7064C304.701 77.7438 304.486 77.7915 304.37 77.8172L304.37 77.8172L304.323 77.8275C304.26 77.8413 304.226 77.8483 304.211 77.8512C304.11 77.8628 303.975 77.8724 303.734 77.8861L303.666 77.89C303.441 77.9026 303.114 77.9209 302.786 77.9551C302.062 78.0305 300.902 78.2157 299.763 78.9276C299.605 79.0261 299.451 79.1308 299.301 79.2391C298.957 77.7726 298.312 76.1912 297.063 74.8455C295.921 73.6158 294.457 73.2658 293.81 73.1321C293.439 73.0554 293.081 73.005 292.851 72.9726L292.83 72.9697C292.547 72.9299 292.454 72.9153 292.401 72.9039C291.146 72.6375 290.032 72.88 289.448 73.0308C289.123 73.115 288.822 73.2107 288.617 73.2767L288.551 73.2979C288.354 73.3612 288.262 73.3906 288.181 73.4131C288.135 73.4258 288.074 73.4418 288.001 73.4609C287.559 73.5766 286.669 73.8092 285.896 74.1671C284.983 74.5895 284.394 75.1841 284.143 75.4386C284.058 75.5242 284.016 75.5674 283.99 75.5946L283.973 75.6123C283.324 76.0494 282.283 76.7945 281.506 78.0758C280.167 80.2846 279.276 82.527 278.672 84.9849C278.169 87.0305 277.795 89.7824 279.135 92.6159C279.248 92.8556 279.383 93.1606 279.536 93.506C279.978 94.5027 280.569 95.8365 281.217 96.9111C281.257 96.9775 281.279 97.0259 281.351 97.1826L281.351 97.1827C281.397 97.2821 281.462 97.4251 281.564 97.6438C281.754 98.0487 282.122 98.8179 282.744 99.5325C283.087 99.9273 283.429 100.338 283.749 100.742C284.427 101.598 285.391 102.316 286.342 102.811C286.737 103.194 287.193 103.561 287.715 103.877C288.22 104.183 288.843 104.524 289.551 104.798C289.41 104.743 289.86 104.93 290.202 105.026C290.415 105.087 290.761 105.17 291.185 105.194C291.374 105.204 291.612 105.205 291.883 105.174Z" fill="#FFE5A3"/>
<path fill-rule="evenodd" clip-rule="evenodd" d="M299.394 148.715C299.586 148.545 299.779 148.343 299.954 148.101C300.189 147.775 300.346 147.444 300.436 147.247C300.506 147.093 300.537 147.02 300.56 146.967C300.581 146.916 300.595 146.885 300.627 146.819C300.716 146.637 300.817 146.436 300.925 146.222L300.925 146.221L300.925 146.221C301.248 145.578 301.631 144.816 301.928 144.078C302.167 143.481 302.293 142.859 302.279 142.18C302.278 142.145 302.281 142.078 302.308 141.865C302.311 141.847 302.313 141.826 302.316 141.804L302.316 141.803C302.34 141.622 302.38 141.314 302.39 140.998C302.407 140.485 302.351 139.927 302.317 139.579C302.311 139.518 302.306 139.464 302.302 139.417C302.261 138.966 302.133 138.607 302.049 138.396C302.015 138.31 301.978 138.223 301.956 138.173L301.948 138.154L301.947 138.147C301.94 138.094 301.926 137.988 301.907 137.882C301.885 137.754 301.849 137.582 301.787 137.39C301.605 136.824 301.268 136.154 301.078 135.776L301.078 135.776C301.028 135.675 300.987 135.595 300.963 135.543C300.902 135.412 300.832 135.254 300.754 135.079L300.754 135.079C300.552 134.627 300.301 134.066 300.045 133.587C299.702 132.947 299.183 132.321 298.882 131.958C298.817 131.88 298.762 131.814 298.722 131.763C298.348 131.292 297.896 130.911 297.338 130.644C296.822 130.397 296.32 130.299 295.956 130.242C295.641 130.194 295.441 130.169 295.281 130.15C295.086 130.126 294.95 130.11 294.736 130.065C293.866 129.879 293.112 130.109 292.73 130.248C292.42 130.36 292.038 130.544 291.909 130.606L291.909 130.606C291.889 130.616 291.874 130.622 291.868 130.625L291.868 130.625C291.868 130.625 291.867 130.626 291.864 130.627L291.848 130.634C291.834 130.64 291.816 130.647 291.789 130.658L291.772 130.665C291.724 130.685 291.647 130.716 291.57 130.75C291.409 130.82 291.089 130.965 290.77 131.209C290.144 131.687 289.86 132.309 289.753 132.553C289.7 132.674 289.65 132.801 289.624 132.87L289.624 132.87L289.613 132.897C289.598 132.934 289.59 132.955 289.586 132.963C289.558 133.019 289.516 133.092 289.44 133.221L289.419 133.257C289.347 133.377 289.245 133.551 289.149 133.732C288.938 134.13 288.634 134.791 288.608 135.622C288.604 135.737 288.605 135.852 288.609 135.967C287.736 135.639 286.701 135.426 285.578 135.605C284.553 135.768 283.868 136.401 283.577 136.688C283.41 136.852 283.26 137.019 283.164 137.126L283.155 137.136C283.038 137.268 282.998 137.31 282.974 137.334C282.405 137.887 282.146 138.544 282.022 138.896C281.953 139.093 281.899 139.28 281.862 139.408L281.851 139.45C281.815 139.573 281.799 139.63 281.783 139.679C281.773 139.708 281.76 139.744 281.745 139.789C281.652 140.056 281.465 140.594 281.383 141.115C281.286 141.73 281.389 142.237 281.433 142.454C281.448 142.527 281.456 142.564 281.461 142.587L281.464 142.601C281.466 143.086 281.49 143.878 281.882 144.719C282.557 146.168 283.403 147.399 284.459 148.556C285.338 149.519 286.625 150.66 288.544 150.946C288.706 150.971 288.909 151.006 289.14 151.046C289.804 151.163 290.694 151.318 291.47 151.355C291.518 151.357 291.55 151.362 291.656 151.379L291.656 151.379C291.723 151.39 291.819 151.406 291.966 151.429C292.24 151.47 292.762 151.546 293.344 151.472C293.666 151.432 293.994 151.397 294.313 151.372C294.986 151.318 295.688 151.069 296.27 150.751C296.603 150.68 296.949 150.571 297.291 150.412C297.622 150.258 298.012 150.055 298.397 149.785C298.321 149.838 298.571 149.671 298.739 149.528C298.843 149.44 299.005 149.29 299.163 149.08C299.234 148.987 299.316 148.865 299.394 148.715Z" fill="#FFEEC1"/>
<path fill-rule="evenodd" clip-rule="evenodd" d="M44.3043 86.5479C44.1138 86.38 43.922 86.1788 43.7489 85.9387C43.5159 85.6153 43.36 85.2874 43.2707 85.0917C43.2011 84.9392 43.17 84.8665 43.1477 84.8142C43.1263 84.7641 43.1129 84.7328 43.0813 84.6679C42.9928 84.4865 42.8926 84.2871 42.7859 84.0749L42.7857 84.0747L42.7857 84.0747C42.4647 83.4362 42.085 82.6811 41.7909 81.9482C41.5536 81.3568 41.428 80.7394 41.4426 80.0655C41.4433 80.0311 41.4402 79.9646 41.4133 79.7535C41.4109 79.7353 41.4083 79.7149 41.4054 79.6926L41.4053 79.6922C41.3818 79.5122 41.3418 79.2064 41.3319 78.8937C41.3158 78.3845 41.3704 77.8308 41.4045 77.4859C41.4104 77.4254 41.4158 77.3714 41.42 77.3251C41.4606 76.8775 41.5874 76.522 41.6704 76.312C41.704 76.2271 41.741 76.1407 41.7623 76.0911L41.7703 76.0725L41.7713 76.0652C41.7783 76.0124 41.7924 75.9079 41.811 75.8025C41.8334 75.6755 41.869 75.5052 41.9306 75.314C42.1113 74.753 42.4451 74.0883 42.6336 73.713L42.6336 73.713C42.6836 73.6133 42.7234 73.5341 42.7474 73.4826C42.8078 73.3528 42.878 73.1956 42.9555 73.0221L42.9555 73.0221C43.1556 72.574 43.4042 72.0172 43.6585 71.5424C43.9987 70.907 44.5138 70.2859 44.8121 69.9262C44.8764 69.8487 44.9306 69.7833 44.9709 69.7325C45.3413 69.2652 45.7898 68.8875 46.3434 68.6224C46.8554 68.3773 47.3536 68.2804 47.7142 68.2244C48.0266 68.1759 48.225 68.1519 48.384 68.1327C48.5777 68.1093 48.7128 68.093 48.9241 68.048C49.7877 67.8639 50.536 68.092 50.9148 68.2296C51.2218 68.3411 51.6009 68.5233 51.7284 68.5846L51.7284 68.5847C51.7491 68.5946 51.7631 68.6014 51.7692 68.6041L51.7692 68.6041C51.7692 68.6041 51.7706 68.6048 51.7738 68.6061L51.789 68.6126C51.8036 68.6188 51.8213 68.6261 51.848 68.637L51.8648 68.6439C51.9124 68.6633 51.9891 68.6946 52.0655 68.7279C52.2248 68.7972 52.542 68.9409 52.859 69.1831C53.4797 69.6573 53.7612 70.2747 53.8675 70.5168C53.9202 70.6366 53.9694 70.7628 53.9958 70.8306L53.9958 70.8306L54.0065 70.858C54.0209 70.8947 54.0292 70.9147 54.0326 70.9231C54.0612 70.9786 54.1025 71.0508 54.1779 71.1787L54.1992 71.2146C54.2697 71.3339 54.3718 71.5066 54.4666 71.6858C54.6755 72.0809 54.9772 72.736 55.0033 73.5605C55.0069 73.6746 55.0062 73.7891 55.0023 73.9027C55.8678 73.577 56.8951 73.3659 58.0085 73.5434C59.0258 73.7057 59.7049 74.3335 59.9941 74.6177C60.1598 74.7806 60.3081 74.9464 60.4031 75.0526L60.4118 75.0624C60.5287 75.193 60.5677 75.2352 60.5918 75.2586C61.1564 75.8076 61.4134 76.4592 61.5358 76.8083C61.6042 77.0033 61.6579 77.1891 61.6944 77.3166L61.7062 77.3576C61.7411 77.4795 61.7574 77.5363 61.7737 77.5853C61.7829 77.6132 61.7956 77.6498 61.8109 77.6937C61.903 77.959 62.0884 78.4926 62.1699 79.0092C62.2661 79.619 62.1641 80.1228 62.1201 80.3379C62.1053 80.4103 62.0975 80.4464 62.0926 80.4691L62.0895 80.4839C62.088 80.9641 62.0635 81.7498 61.6753 82.584C61.0059 84.022 60.1662 85.2426 59.1185 86.3906C58.2467 87.3459 56.9706 88.4772 55.0671 88.7616C54.9061 88.7856 54.7043 88.8209 54.4758 88.8609C53.8164 88.9761 52.9341 89.1304 52.1642 89.1666C52.1167 89.1688 52.0844 89.1741 51.98 89.1911L51.9799 89.1911C51.9137 89.2019 51.8184 89.2174 51.6719 89.2399C51.4005 89.2815 50.8824 89.3566 50.3053 89.2834C49.9864 89.243 49.6602 89.209 49.3444 89.1838C48.6766 89.1304 47.9805 88.8837 47.4031 88.5681C47.0727 88.4971 46.7299 88.3895 46.39 88.2313C46.0616 88.0784 45.6751 87.877 45.2931 87.6092C45.3689 87.6624 45.1204 87.4966 44.9539 87.355C44.8505 87.2669 44.6898 87.1189 44.533 86.9108C44.463 86.8178 44.3813 86.6965 44.3043 86.5479Z" fill="#FFEEC1"/>
<path d="M97.2158 193.925C97.2158 196.397 99.2432 198.706 102.442 199.597L101.388 201.331C98.9502 200.64 97.1221 199.14 96.1611 197.194C95.2471 199.362 93.4189 201.085 90.9111 201.87L89.8564 200.159C93.0439 199.14 95.0127 196.632 95.0127 193.925V193.667H90.4424V191.886H95.0127V189.354H97.2393V191.886H101.786V193.667H97.2158V193.925ZM93.2314 206.511C93.2197 204.05 95.9268 202.655 100.333 202.644C104.728 202.655 107.423 204.05 107.435 206.511C107.423 208.983 104.728 210.413 100.333 210.401C95.9268 210.413 93.2197 208.983 93.2314 206.511ZM95.4346 206.511C95.4229 207.87 97.251 208.679 100.333 208.69C103.415 208.679 105.22 207.87 105.231 206.511C105.22 205.151 103.415 204.378 100.333 204.378C97.251 204.378 95.4229 205.151 95.4346 206.511ZM101.13 197.159V195.331H105.138V189.448H107.364V202.175H105.138V197.159H101.13ZM128.106 189.472V204.987H125.88V197.839H120.114V196.058H125.88V193.854H120.114V192.073H125.88V189.472H128.106ZM111.841 201.987V190.925H114.044V200.112C116.833 200.101 119.481 199.948 122.481 199.386L122.716 201.214C119.388 201.835 116.54 201.964 113.458 201.987H111.841ZM114.419 210.003V203.628H116.669V208.198H128.646V210.003H114.419ZM149.411 189.448V210.448H147.278V189.448H149.411ZM131.575 198.519C131.575 193.972 133.356 191.124 136.099 191.136C138.653 191.124 140.376 193.55 140.634 197.487H143.013V189.847H145.146V209.417H143.013V199.292H140.646C140.446 203.394 138.7 205.937 136.099 205.925C133.356 205.937 131.575 203.077 131.575 198.519ZM133.638 198.519C133.638 201.858 134.587 203.827 136.099 203.815C137.646 203.827 138.606 201.858 138.606 198.519C138.606 195.167 137.646 193.21 136.099 193.222C134.587 193.21 133.638 195.167 133.638 198.519ZM170.13 189.448V210.448H168.021V189.448H170.13ZM152.013 204.378C156.466 201.729 158.599 198.202 158.985 193.878H152.997V192.05H161.2C161.188 194.101 160.907 196.058 160.263 197.886H163.591V189.987H165.7V209.417H163.591V199.667H159.489C158.247 202.104 156.243 204.237 153.278 205.972L152.013 204.378ZM196.192 189.472V204.847H193.966V196.948H189.958V195.144H193.966V189.472H196.192ZM178.708 200.464C181.931 199.374 183.946 196.608 183.935 193.714V192.894H179.388V191.065H190.708V192.894H186.208V193.714C186.196 196.327 188.095 198.964 191.271 200.019L190.122 201.8C187.767 200.979 186.021 199.292 185.106 197.206C184.192 199.526 182.353 201.378 179.856 202.269L178.708 200.464ZM182.552 210.003V203.464H184.778V208.198H196.755V210.003H182.552ZM209.692 190.62V192.401H202.521V197.511C206.481 197.511 208.86 197.358 211.591 196.808L211.849 198.565C208.942 199.187 206.376 199.292 201.981 199.292H200.317V190.62H209.692ZM202.356 202.761V200.979H215.927V206.347H204.583V208.386H216.653V210.19H202.403V204.636H213.724V202.761H202.356ZM213.7 199.995V189.448H215.927V193.737H218.974V195.565H215.927V199.995H213.7ZM236.528 189.448V197.956H239.903V199.808H236.528V210.448H234.325V189.448H236.528ZM220.052 194.558V192.729H225.231V189.729H227.458V192.729H232.497V194.558H220.052ZM221.13 200.979C221.13 198.12 223.333 196.104 226.356 196.104C229.368 196.104 231.571 198.12 231.583 200.979C231.571 203.862 229.368 205.866 226.356 205.878C223.333 205.866 221.13 203.862 221.13 200.979ZM223.263 200.979C223.251 202.808 224.563 204.026 226.356 204.003C228.138 204.026 229.438 202.808 229.45 200.979C229.438 199.187 228.138 197.944 226.356 197.933C224.563 197.944 223.251 199.187 223.263 200.979ZM258.372 189.448V210.448H256.122V189.448H258.372ZM241.122 204.823C246.7 202.163 249.431 198.378 249.864 193.479H242.13V191.698H252.114C252.114 197.851 249.501 203.171 242.294 206.628L241.122 204.823Z" fill="#4D3E1A"/>
</g>
<defs>
<filter id="filter0_d_389_2630" x="0" y="0" width="350" height="264" filterUnits="userSpaceOnUse" color-interpolation-filters="sRGB">
<feFlood flood-opacity="0" result="BackgroundImageFix"/>
<feColorMatrix in="SourceAlpha" type="matrix" values="0 0 0 0 0 0 0 0 0 0 0 0 0 0 0 0 0 0 127 0" result="hardAlpha"/>
<feOffset dy="4"/>
<feGaussianBlur stdDeviation="2"/>
<feComposite in2="hardAlpha" operator="out"/>
<feColorMatrix type="matrix" values="0 0 0 0 0 0 0 0 0 0 0 0 0 0 0 0 0 0 0.25 0"/>
<feBlend mode="normal" in2="BackgroundImageFix" result="effect1_dropShadow_389_2630"/>
<feBlend mode="normal" in="SourceGraphic" in2="effect1_dropShadow_389_2630" result="shape"/>
</filter>
</defs>
</svg>
