<svg width="108" height="104" viewBox="0 0 108 104" fill="none" xmlns="http://www.w3.org/2000/svg">
<path d="M32.5236 97.1988C33.7986 97.9194 35.0764 98.4248 36.2784 98.7824C36.9327 99.2917 37.551 99.6678 38.0579 99.9402C39.1933 100.55 44.3537 101.82 45 102C46.8504 102 52.7287 101.766 54.3553 101.391C57.5967 101.604 61.2257 101.254 64.3257 100.092C65.7918 99.542 67.3226 99.01 68.8339 98.5225C71.5692 97.6401 73.7312 96.2118 74.8591 95.4537C75.4682 95.0443 75.8626 94.7738 76.1365 94.5859C76.5685 94.2897 76.7019 94.1982 76.9099 94.0883C80.2803 92.3068 83.9076 89.7559 86.6184 87.8496C87.558 87.1889 88.3874 86.6056 89.0579 86.1586C96.9846 80.8742 100.339 73.0843 102.251 66.9384C104.549 59.5534 105.764 52.2773 105.764 44.3773C105.764 39.7949 104.237 36.1958 103.243 34.0244L103.227 33.9509L103.227 33.9508C103.201 33.8381 103.161 33.6588 103.076 33.3011C102.825 32.237 102.232 29.7479 100.531 27.1965C99.0906 25.0353 97.1493 23.0154 96.1845 22.0116L96.1834 22.0105C96.024 21.8447 95.8914 21.7066 95.7921 21.6003C95.6173 21.4131 95.4261 21.1909 95.0156 20.7136L94.8777 20.5533C94.4487 20.0547 93.8211 19.3283 93.1092 18.5918C91.834 17.2724 89.3262 14.8705 85.6561 13.5782C85.4996 13.5231 85.2371 13.4146 84.4417 13.0703L84.3824 13.0446C83.7358 12.7647 82.727 12.3279 81.646 11.9407C79.7595 11.265 75.4126 9.85744 70.5217 11.2629C65.1691 12.801 61.0112 15.9132 57.8158 19.2029C57.5971 18.6818 57.3614 18.1634 57.1075 17.6557C55.2735 13.9876 52.5584 11.664 50.8002 10.3187C50.0031 9.7087 49.1864 9.14364 48.6223 8.75331L48.6223 8.75329L48.4522 8.63556C47.8482 8.21682 47.5131 7.97736 47.2696 7.78705C47.2365 7.75633 47.1581 7.68351 47.0169 7.54783L46.9121 7.44679C46.6525 7.19611 46.1696 6.72983 45.6842 6.29932C44.7039 5.42976 42.1583 3.23372 38.3927 2.3969C36.4693 1.96949 34.7504 1.98739 33.8927 2.00907C33.4818 2.01946 33.0733 2.0393 32.82 2.05161L32.82 2.05161L32.7304 2.05594C32.5883 2.06274 32.4935 2.06698 32.4153 2.06984L32.3337 2.07243L32.3091 2.07293C32.2762 2.0732 32.1991 2.07223 32.0859 2.07079L32.0859 2.07079C31.3875 2.06195 29.311 2.03565 27.7049 2.1774C25.7229 2.35233 21.899 2.8952 18.4177 5.54103C17.5656 6.1886 16.9949 6.54619 16.1766 7.05898L16.1766 7.059L16.1765 7.05904C15.5051 7.47972 14.6671 8.00489 13.3701 8.88037C11.8729 9.89094 9.84498 11.3755 8.06436 13.5585C6.13895 15.919 4.91805 18.5667 4.23391 21.4553C4.15958 21.7691 4.05309 22.1784 3.92686 22.6635C3.341 24.9149 2.32956 28.8017 2.13046 32.3856C1.98166 35.0639 2.02872 38.1006 2.06659 40.5441C2.08125 41.4904 2.09454 42.3477 2.09454 43.0608C2.09454 43.3436 2.08151 43.7851 2.06513 44.3403L2.06513 44.3404C2.00344 46.4311 1.89417 50.1342 2.25374 53.0467C2.37631 54.0395 2.57176 54.8834 2.73614 55.504C2.8725 56.0187 3.02732 56.5201 3.10556 56.7735L3.11645 56.8088L3.11952 56.9094C3.12761 57.178 3.14169 57.6458 3.16834 58.1C3.23418 59.2224 3.4076 61.0941 4.15784 63.2006C4.23538 63.4183 4.32409 63.6735 4.42335 63.959L4.42346 63.9594C4.98962 65.5881 5.89866 68.2032 7.03128 70.4684C7.72679 71.8594 8.54268 73.156 9.02319 73.9196L9.02325 73.9197L9.0242 73.9212L9.02577 73.9237C9.08467 74.0173 9.13849 74.1028 9.18639 74.1795C9.74657 75.0761 9.89909 75.3697 9.96747 75.5267C11.306 78.6004 13.1544 81.1239 15.4483 83.2955C18.2911 85.9867 21.5633 88.5983 24.3301 90.8065L24.3312 90.8074C25.2509 91.5414 26.1147 92.2308 26.8884 92.8639C27.1653 93.0904 27.2903 93.2036 27.4905 93.3849L27.4907 93.3851C27.6994 93.5741 27.9899 93.8372 28.619 94.3796C29.4265 95.0757 30.8072 96.2286 32.5236 97.1988Z" stroke="#FFE5A3" stroke-width="4" stroke-linecap="round"/>
<path fill-rule="evenodd" clip-rule="evenodd" d="M58.5869 42.4379C58.4655 42.4112 58.2823 42.403 57.8341 42.4068C57.5933 42.4088 57.4866 42.4376 57.4433 42.4534C57.4166 42.4631 57.3729 42.4808 57.2923 42.5629C57.2605 42.5953 57.2261 42.6309 57.1891 42.6691C56.7924 43.0795 56.0996 43.7961 55.1352 44.1855C55.1338 44.1863 55.1025 44.2013 55.0287 44.2508C54.9858 44.2796 54.9372 44.314 54.8745 44.3596C54.8578 44.3717 54.8358 44.3878 54.8114 44.4057C54.7638 44.4404 54.7069 44.482 54.6611 44.5149C54.2829 44.7867 53.821 45.0806 53.2459 45.2525C52.6441 45.4325 52.0707 45.4356 51.5154 45.3649C50.2682 45.2061 49.4886 44.7275 48.7559 44.2389C48.3322 43.9565 47.9254 43.7588 47.3495 43.4949C47.3291 43.4987 47.3061 43.5037 47.2808 43.5101C47.1922 43.5323 47.0995 43.5651 47.0187 43.6017C46.944 43.6356 46.9089 43.6592 46.9088 43.659C46.9087 43.6589 46.9096 43.6583 46.9113 43.657C46.787 43.7503 46.6821 43.8412 46.5281 43.9746C46.4738 44.0218 46.4133 44.0742 46.3437 44.1339C46.1086 44.3355 45.7892 44.6008 45.3962 44.8375C45.3666 44.8553 45.3262 44.8823 45.2757 44.9161C44.8812 45.1797 43.8711 45.8548 42.5969 45.7752C41.8483 45.7284 41.1946 45.3719 40.8135 45.1262C40.3937 44.8557 39.9492 44.4858 39.6305 44.0786C38.922 43.1733 38.6163 42.8267 38.1532 42.6448C37.1864 42.265 36.7105 41.1733 37.0903 40.2064C37.4702 39.2395 38.5619 38.7637 39.5288 39.1435C41.014 39.727 41.9026 40.8714 42.4843 41.6206C42.5199 41.6664 42.5543 41.7108 42.5877 41.7534C42.5892 41.7548 42.6097 41.7776 42.6547 41.8169C42.7106 41.8655 42.7797 41.918 42.8517 41.9644C42.8578 41.9684 42.8637 41.9721 42.8695 41.9758C42.9091 41.9537 42.9596 41.9237 43.0271 41.8819C43.07 41.8553 43.1113 41.8292 43.1598 41.7986C43.1775 41.7874 43.1961 41.7757 43.2162 41.763C43.2864 41.7187 43.3682 41.6676 43.4554 41.615C43.5692 41.5465 43.6947 41.45 43.8946 41.2785C43.9264 41.2512 43.9626 41.2198 44.0024 41.1852C44.1735 41.0365 44.4118 40.8294 44.6542 40.6475C45.137 40.2855 45.7687 40.0111 46.3649 39.8615C46.9008 39.7269 47.8368 39.5829 48.7242 39.9871L48.7513 39.9995C49.3989 40.2945 50.0998 40.6137 50.8425 41.1089C51.4303 41.5008 51.6199 41.586 51.9903 41.6332C52.0997 41.6471 52.1545 41.6466 52.1743 41.6456C52.2002 41.6339 52.2836 41.591 52.4655 41.4603C52.4836 41.4473 52.5072 41.4297 52.5358 41.4084C52.7433 41.254 53.2135 40.904 53.7266 40.6974C53.9018 40.6268 54.0586 40.4872 54.6076 39.9278C55.5783 38.9388 56.6985 38.6543 57.8027 38.6451C57.8263 38.6449 57.8511 38.6446 57.877 38.6444C58.2915 38.6399 58.9983 38.6324 59.7144 38.8467C60.1756 38.9846 60.5183 39.1952 60.763 39.3694C60.864 39.4413 60.96 39.5158 61.023 39.5647C61.0294 39.5697 61.0355 39.5744 61.0412 39.5788C61.1137 39.635 61.1546 39.666 61.1919 39.692C61.8469 40.1486 62.5142 40.5986 63.1873 41.0445C63.234 41.0755 63.3523 41.1341 63.6772 41.1595C63.8387 41.1721 64.0223 41.1747 64.2514 41.172C64.3172 41.1712 64.3995 41.1697 64.4891 41.168C64.6564 41.1649 64.8494 41.1612 65.0091 41.1612C65.1638 41.1612 65.3001 41.1624 65.4259 41.1635C65.5813 41.1648 65.7209 41.166 65.8597 41.1647L65.9667 41.0526C66.023 40.9941 66.0905 40.925 66.1663 40.8516C66.3961 40.6293 66.6319 40.4685 66.7968 40.363C66.8815 40.3088 66.9636 40.2592 67.0267 40.2211L67.0495 40.2074C67.1068 40.1729 67.148 40.1481 67.1884 40.1229C67.2007 40.1152 67.2116 40.1082 67.2212 40.1021C67.738 39.3184 68.7708 39.027 69.6314 39.4573C70.5605 39.9219 70.9371 41.0517 70.4725 41.9808C70.0944 42.7371 69.4579 43.1405 69.1825 43.3127C69.1133 43.3559 69.0433 43.398 68.9891 43.4306L68.9679 43.4434C68.9052 43.4812 68.862 43.5075 68.8246 43.5315C68.793 43.5517 68.7747 43.5645 68.7661 43.5707C68.7223 43.6137 68.6849 43.6529 68.6304 43.7102C68.6045 43.7374 68.5748 43.7687 68.5386 43.8063C68.4385 43.9106 68.2805 44.0729 68.0867 44.2295C67.6322 44.5966 67.0347 44.8899 66.2503 44.9184C65.933 44.9299 65.5873 44.9271 65.2994 44.9247C65.1933 44.9239 65.0951 44.9231 65.0091 44.9231C64.93 44.9231 64.8264 44.925 64.7065 44.9273C64.3411 44.9343 63.8238 44.9442 63.3845 44.9099C62.7283 44.8586 61.8974 44.7024 61.1097 44.1806C60.42 43.7237 59.727 43.2564 59.0409 42.7782C58.9171 42.6919 58.809 42.6082 58.7362 42.5518C58.6569 42.4903 58.62 42.4617 58.5869 42.4379Z" fill="#E4AA12"/>
<path fill-rule="evenodd" clip-rule="evenodd" d="M58.5869 35.5801C58.4655 35.5534 58.2823 35.5453 57.8341 35.549C57.5933 35.551 57.4866 35.5799 57.4433 35.5956C57.4166 35.6054 57.3729 35.623 57.2923 35.7051C57.2605 35.7375 57.2261 35.7731 57.1891 35.8114C56.7924 36.2217 56.0996 36.9384 55.1352 37.3277C55.1338 37.3285 55.1025 37.3436 55.0287 37.3931C54.9858 37.4219 54.9372 37.4563 54.8745 37.5018C54.8578 37.514 54.8358 37.53 54.8114 37.5479C54.7638 37.5826 54.7069 37.6242 54.6611 37.6572C54.2829 37.929 53.821 38.2228 53.2459 38.3948C52.6441 38.5747 52.0707 38.5778 51.5154 38.5071C50.2682 38.3484 49.4886 37.8697 48.7559 37.3812C48.3322 37.0988 47.9254 36.901 47.3495 36.6371C47.3291 36.641 47.3061 36.646 47.2808 36.6523C47.1922 36.6746 47.0995 36.7074 47.0187 36.744C46.944 36.7778 46.9089 36.8014 46.9088 36.8012C46.9087 36.8012 46.9096 36.8005 46.9113 36.7992C46.787 36.8925 46.6821 36.9834 46.5281 37.1169C46.4738 37.164 46.4133 37.2164 46.3437 37.2761C46.1086 37.4778 45.7892 37.7431 45.3962 37.9798C45.3666 37.9976 45.3262 38.0246 45.2757 38.0583C44.8812 38.322 43.8711 38.9971 42.5969 38.9174C41.8483 38.8706 41.1946 38.5142 40.8135 38.2685C40.3937 37.9979 39.9492 37.628 39.6305 37.2209C38.922 36.3155 38.6163 35.969 38.1532 35.7871C37.1864 35.4072 36.7105 34.3155 37.0903 33.3486C37.4702 32.3818 38.5619 31.9059 39.5288 32.2857C41.014 32.8692 41.9026 34.0136 42.4843 34.7629C42.5199 34.8087 42.5543 34.853 42.5877 34.8957C42.5892 34.8971 42.6097 34.9199 42.6547 34.9591C42.7106 35.0078 42.7797 35.0603 42.8517 35.1067C42.8578 35.1106 42.8637 35.1144 42.8695 35.118C42.9091 35.0959 42.9596 35.066 43.0271 35.0242C43.07 34.9975 43.1113 34.9715 43.1598 34.9408C43.1775 34.9297 43.1961 34.9179 43.2162 34.9053C43.2864 34.861 43.3682 34.8098 43.4554 34.7573C43.5692 34.6887 43.6947 34.5922 43.8946 34.4207C43.9264 34.3935 43.9626 34.3621 44.0024 34.3275C44.1735 34.1787 44.4118 33.9716 44.6542 33.7898C45.137 33.4277 45.7687 33.1534 46.3649 33.0037C46.9008 32.8692 47.8368 32.7251 48.7242 33.1294L48.7513 33.1417C49.3989 33.4367 50.0998 33.756 50.8425 34.2512C51.4303 34.643 51.6199 34.7283 51.9903 34.7754C52.0997 34.7893 52.1545 34.7888 52.1743 34.7879C52.2002 34.7761 52.2836 34.7333 52.4655 34.6025C52.4836 34.5896 52.5072 34.572 52.5358 34.5507C52.7433 34.3963 53.2135 34.0463 53.7266 33.8396C53.9018 33.7691 54.0586 33.6295 54.6076 33.0701C55.5783 32.081 56.6985 31.7965 57.8027 31.7873C57.8263 31.7871 57.8511 31.7869 57.877 31.7866C58.2915 31.7822 58.9983 31.7747 59.7144 31.9889C60.1756 32.1269 60.5183 32.3374 60.763 32.5116C60.864 32.5835 60.96 32.658 61.023 32.7069C61.0294 32.7119 61.0355 32.7166 61.0412 32.721C61.1137 32.7773 61.1546 32.8083 61.1919 32.8343C61.8469 33.2908 62.5142 33.7409 63.1873 34.1868C63.234 34.2177 63.3523 34.2763 63.6772 34.3017C63.8387 34.3143 64.0223 34.3169 64.2514 34.3142C64.3172 34.3135 64.3995 34.3119 64.4891 34.3102C64.6564 34.3071 64.8494 34.3035 65.0091 34.3035C65.1638 34.3035 65.3001 34.3047 65.4259 34.3057C65.5813 34.3071 65.7209 34.3083 65.8597 34.307L65.9667 34.1949C66.023 34.1363 66.0905 34.0672 66.1663 33.9939C66.3961 33.7715 66.6319 33.6107 66.7968 33.5052C66.8815 33.451 66.9636 33.4014 67.0267 33.3634L67.0495 33.3496C67.1068 33.3151 67.148 33.2903 67.1884 33.2651C67.2007 33.2574 67.2116 33.2505 67.2212 33.2443C67.738 32.4606 68.7708 32.1692 69.6314 32.5995C70.5605 33.0641 70.9371 34.1939 70.4725 35.1231C70.0944 35.8794 69.4579 36.2827 69.1825 36.4549C69.1133 36.4981 69.0433 36.5403 68.9891 36.5729L68.9679 36.5857C68.9052 36.6234 68.862 36.6497 68.8246 36.6737C68.793 36.6939 68.7747 36.7068 68.7661 36.713C68.7223 36.7559 68.6849 36.7952 68.6304 36.8525C68.6045 36.8797 68.5748 36.9109 68.5386 36.9486C68.4385 37.0529 68.2805 37.2151 68.0867 37.3717C67.6322 37.7389 67.0347 38.0321 66.2503 38.0607C65.933 38.0722 65.5873 38.0693 65.2994 38.067C65.1933 38.0661 65.0951 38.0653 65.0091 38.0653C64.93 38.0653 64.8264 38.0673 64.7065 38.0696C64.3411 38.0765 63.8238 38.0864 63.3845 38.0521C62.7283 38.0009 61.8974 37.8447 61.1097 37.3228C60.42 36.8659 59.727 36.3986 59.0409 35.9204C58.9171 35.8342 58.809 35.7504 58.7362 35.694C58.6569 35.6325 58.62 35.604 58.5869 35.5801Z" fill="#E4AA12"/>
<path fill-rule="evenodd" clip-rule="evenodd" d="M59.9156 74.7964C60.6947 74.7964 61.3263 74.1648 61.3263 73.3857C61.3263 72.7446 61.0891 72.1433 60.8221 71.694C60.5545 71.2436 60.1498 70.7653 59.6248 70.4614C59.439 70.3538 59.2826 70.2377 59.0628 70.0744C58.984 70.0159 58.897 69.9513 58.7976 69.8789C58.464 69.6358 58.0153 69.3272 57.4538 69.1204C56.6478 68.8234 55.7942 68.839 55.2523 68.849C55.1658 68.8506 55.0873 68.852 55.0182 68.852C54.9177 68.852 54.8112 68.8504 54.6994 68.8488C53.8478 68.8362 52.6861 68.819 51.5291 69.4573C51.0496 69.7219 50.5668 70.1096 50.1695 70.5612C49.7805 71.0034 49.3896 71.6027 49.2381 72.3094C49.0749 73.0712 49.5601 73.8211 50.3219 73.9843C51.0837 74.1476 51.8336 73.6623 51.9969 72.9005C52.0127 72.8268 52.0875 72.6524 52.2878 72.4247C52.4798 72.2065 52.7099 72.0281 52.892 71.9276C53.3619 71.6684 53.7541 71.6697 54.6802 71.6727C54.7856 71.673 54.898 71.6734 55.0182 71.6734C55.1583 71.6734 55.2835 71.6726 55.3964 71.6718C55.9468 71.6684 56.2042 71.6667 56.4784 71.7678C56.6582 71.834 56.848 71.9491 57.1362 72.1592C57.184 72.194 57.2379 72.2342 57.297 72.2782C57.5394 72.4589 57.8674 72.7034 58.2057 72.8999C58.2082 72.9018 58.2281 72.9166 58.261 72.9517C58.3043 72.9978 58.3525 73.0609 58.3966 73.1351C58.4408 73.2095 58.4716 73.2795 58.4896 73.3352C58.5009 73.3701 58.5042 73.3901 58.505 73.3954C58.5102 74.17 59.1398 74.7964 59.9156 74.7964Z" fill="#E4AA12"/>
<path fill-rule="evenodd" clip-rule="evenodd" d="M30.5 51.9243C30.5 51.0959 31.1716 50.4243 32 50.4243C36.4048 50.4243 40.7458 50.5342 45.2209 51.4546C45.6414 51.5411 46.1176 51.5648 46.682 51.5583C46.9369 51.5554 47.1932 51.5468 47.4673 51.5376C47.4956 51.5366 47.5241 51.5357 47.5528 51.5347C47.8521 51.5247 48.1725 51.5148 48.4929 51.5148C49.3213 51.5148 49.9929 52.1863 49.9929 53.0148C49.9929 53.8432 49.3213 54.5148 48.4929 54.5148C48.2282 54.5148 47.9534 54.523 47.6528 54.5331C47.6239 54.534 47.5948 54.535 47.5654 54.536C47.2964 54.545 47.0065 54.5548 46.7163 54.5581C46.0742 54.5655 45.3484 54.5437 44.6165 54.3931C40.4586 53.538 36.3756 53.4243 32 53.4243C31.1716 53.4243 30.5 52.7527 30.5 51.9243Z" fill="#E4AA12"/>
<path fill-rule="evenodd" clip-rule="evenodd" d="M36.1342 51.5258C36.9565 51.6261 37.5419 52.374 37.4416 53.1964C37.0183 56.6671 37.0291 60.2017 37.0402 63.8143C37.0419 64.3925 37.0437 64.9726 37.0437 65.5549C37.0437 66.3833 36.3721 67.0549 35.5437 67.0549C34.7153 67.0549 34.0437 66.3833 34.0437 65.5549C34.0437 64.99 34.0418 64.4207 34.04 63.8478C34.0281 60.2473 34.0159 56.505 34.4636 52.8332C34.5639 52.0109 35.3119 51.4255 36.1342 51.5258Z" fill="#E4AA12"/>
<path fill-rule="evenodd" clip-rule="evenodd" d="M44.9595 51.9234C45.7879 51.9289 46.455 52.6049 46.4495 53.4333C46.4462 53.9259 46.4449 54.4256 46.4436 54.9307C46.4371 57.5088 46.4302 60.2285 46.1535 62.8567C46.1251 63.1266 46.0964 63.3774 46.0692 63.616C45.9791 64.4039 45.9043 65.0585 45.9043 65.8271C45.9043 66.6555 45.2327 67.3271 44.4043 67.3271C43.5759 67.3271 42.9043 66.6555 42.9043 65.8271C42.9043 64.8709 43.0043 64.001 43.0984 63.1829C43.1234 62.9661 43.1479 62.7529 43.17 62.5426C43.4291 60.0816 43.4361 57.5438 43.4432 54.9658C43.4447 54.4498 43.4461 53.9322 43.4496 53.4133C43.4551 52.5849 44.1311 51.9179 44.9595 51.9234Z" fill="#E4AA12"/>
<path fill-rule="evenodd" clip-rule="evenodd" d="M77.6847 52.3208C76.0048 52.3027 74.3991 52.2854 72.7855 52.4194C72.0144 52.4835 71.2434 52.5978 70.4155 52.7204C70.3844 52.725 70.3532 52.7297 70.322 52.7343C69.4761 52.8596 68.5713 52.9916 67.6482 53.0569C65.5205 53.2076 63.358 53.0785 61.326 52.9572C60.8502 52.9288 60.3816 52.9008 59.9222 52.8769C59.0949 52.8339 58.4591 52.1284 58.5021 51.3011C58.545 50.4738 59.2505 49.838 60.0779 49.881C60.5886 49.9075 61.092 49.9373 61.5893 49.9668C63.6056 50.0863 65.5232 50.1999 67.4363 50.0644C68.2292 50.0083 69.0265 49.8934 69.8825 49.7667C69.9236 49.7606 69.965 49.7544 70.0064 49.7483C70.8094 49.6292 71.6672 49.502 72.5371 49.4297C74.3036 49.283 76.1127 49.3027 77.8309 49.3215C78.3959 49.3277 78.9511 49.3337 79.4917 49.3337C80.3201 49.3337 80.9917 50.0053 80.9917 50.8337C80.9917 51.6621 80.3201 52.3337 79.4917 52.3337C78.8778 52.3337 78.2766 52.3272 77.6847 52.3208Z" fill="#E4AA12"/>
<path fill-rule="evenodd" clip-rule="evenodd" d="M64.225 51.3784C65.0535 51.3784 65.725 52.05 65.725 52.8784C65.725 53.6479 65.7064 54.3924 65.6883 55.117C65.6367 57.1797 65.5892 59.0802 65.9869 60.9309C66.3563 62.6503 66.7246 64.3319 67.2733 65.8681C67.5519 66.6483 67.1454 67.5066 66.3652 67.7852C65.585 68.0639 64.7267 67.6573 64.4481 66.8771C63.8224 65.1253 63.4171 63.2519 63.0538 61.5612C62.5739 59.3277 62.6362 56.913 62.6917 54.7631C62.7087 54.1059 62.725 53.4734 62.725 52.8784C62.725 52.05 63.3966 51.3784 64.225 51.3784Z" fill="#E4AA12"/>
<path fill-rule="evenodd" clip-rule="evenodd" d="M74.4317 50.4292C75.2575 50.4956 75.8731 51.2188 75.8067 52.0445C75.5224 55.5836 75.5294 59.1271 75.5367 62.744C75.5378 63.3156 75.539 63.889 75.539 64.4645C75.539 65.2929 74.8674 65.9645 74.039 65.9645C73.2105 65.9645 72.539 65.2929 72.539 64.4645C72.539 63.8999 72.5378 63.3332 72.5366 62.7648C72.529 59.1558 72.5213 55.4763 72.8164 51.8042C72.8827 50.9785 73.606 50.3629 74.4317 50.4292Z" fill="#E4AA12"/>
</svg>
