<svg width="113" height="131" viewBox="0 0 113 131" fill="none" xmlns="http://www.w3.org/2000/svg">
<path fill-rule="evenodd" clip-rule="evenodd" d="M37.0207 104.525C35.7225 104.139 34.3425 103.593 32.9655 102.815C31.1117 101.767 29.6206 100.522 28.7486 99.7699C28.0691 99.1842 27.7554 98.9001 27.53 98.6959C27.3136 98.5 27.1786 98.3777 26.8795 98.133C26.0439 97.4493 25.1109 96.7047 24.1177 95.912L24.1166 95.9111L24.1164 95.9109C21.1282 93.526 17.5944 90.7056 14.5242 87.7991C12.0468 85.4538 10.0505 82.7284 8.60486 79.4089C8.53102 79.2393 8.3663 78.9222 7.7613 77.9538C7.70911 77.8703 7.65041 77.777 7.58614 77.6749L7.58511 77.6733L7.58504 77.6732C7.06609 76.8485 6.18497 75.4483 5.43378 73.9459C4.21056 71.4994 3.22879 68.6751 2.61734 66.9161C2.51009 66.6076 2.41424 66.3318 2.33047 66.0966C1.52021 63.8217 1.33292 61.8002 1.2618 60.588C1.23302 60.0974 1.21782 59.5922 1.20909 59.3022L1.20577 59.1935L1.19401 59.1554C1.1095 58.8817 0.942296 58.3402 0.795036 57.7843C0.617498 57.1141 0.406414 56.2027 0.274038 55.1304C-0.114299 51.9849 0.00371177 47.9856 0.0703395 45.7276L0.0703423 45.7275C0.0880351 45.1279 0.102104 44.6511 0.102104 44.3457C0.102104 43.5755 0.0877546 42.6496 0.0719164 41.6276L0.071916 41.6276C0.0310182 38.9886 -0.0198061 35.709 0.140894 32.8164C0.355924 28.9459 1.44828 24.7481 2.08101 22.3165L2.08102 22.3165C2.21735 21.7926 2.33234 21.3507 2.41262 21.0117C3.1515 17.892 4.47006 15.0325 6.54951 12.4831C8.47257 10.1255 10.6628 8.52221 12.2797 7.4308C13.6805 6.48525 14.5856 5.91806 15.3107 5.46372L15.3107 5.46369L15.3107 5.46369C16.1946 4.90986 16.8108 4.5237 17.7311 3.82431C21.4909 0.96682 25.6207 0.38052 27.7613 0.191594C29.4959 0.0384983 31.7385 0.0669017 32.4928 0.0764563L32.493 0.0764593C32.6152 0.0780065 32.6983 0.0790589 32.7338 0.0787627L32.7336 0.0787642C32.7336 0.0787631 32.742 0.078678 32.7604 0.0782222L32.8486 0.0754257C32.933 0.0723338 33.0353 0.0677541 33.1889 0.0604118L33.2856 0.0557362C33.5592 0.0424446 34.0003 0.0210164 34.4441 0.00979856C35.3704 -0.0136163 37.2269 -0.0329503 39.3041 0.428651C43.371 1.33242 46.1202 3.70414 47.179 4.64327C47.7031 5.10821 48.2247 5.6118 48.5051 5.88253L48.5051 5.88257L48.6182 5.99166C48.7708 6.13819 48.8554 6.21684 48.8912 6.25001C49.1541 6.45555 49.516 6.71417 50.1684 7.16641L50.3521 7.29356C50.9613 7.71511 51.8433 8.32539 52.7043 8.98417C54.603 10.4371 57.5354 12.9466 59.5161 16.9082C59.7903 17.4565 60.0448 18.0164 60.2811 18.5791C63.7321 15.0263 68.2226 11.6651 74.0035 10.0039C79.2857 8.48604 83.9802 10.0062 86.0177 10.736C87.1852 11.1542 88.2746 11.6259 88.9729 11.9282L89.037 11.956C89.896 12.3278 90.1795 12.445 90.3485 12.5045C94.3122 13.9002 97.0207 16.4942 98.3979 17.9191C99.1668 18.7146 99.8446 19.499 100.308 20.0376L100.457 20.2107C100.9 20.7262 101.107 20.9662 101.295 21.1683C101.403 21.2834 101.547 21.4329 101.719 21.6125C102.761 22.6967 104.858 24.8781 106.414 27.2122C108.251 29.9677 108.891 32.656 109.162 33.8052C109.254 34.1916 109.297 34.3853 109.325 34.507L109.343 34.5864C110.416 36.9315 112.065 40.8185 112.065 45.7674C112.065 54.2994 110.753 62.1576 108.271 70.1334C106.206 76.7711 102.583 85.1841 94.0225 90.8913C93.2984 91.3741 92.4026 92.004 91.3879 92.7176C88.4602 94.7764 84.5427 97.5313 80.9027 99.4553C80.678 99.5741 80.534 99.6728 80.0675 99.9928L80.067 99.9931C79.7712 100.196 79.3457 100.488 78.6878 100.93C77.4697 101.749 75.1347 103.291 72.1806 104.244C70.5484 104.771 68.8951 105.345 67.3118 105.939C63.9638 107.195 60.0444 107.572 56.5438 107.343C54.787 107.747 52.8876 108 50.8892 108C48.958 108 46.6365 107.895 44.1876 107.456C44.6739 107.543 43.0995 107.299 41.9765 106.986C41.2785 106.792 40.1688 106.434 38.9425 105.775C38.395 105.481 37.7273 105.075 37.0207 104.525Z" fill="#FFE5A3"/>
<path fill-rule="evenodd" clip-rule="evenodd" d="M57.0367 43.6728C56.9055 43.6439 56.7077 43.6351 56.2236 43.6392C55.9636 43.6413 55.8483 43.6725 55.8016 43.6895C55.7727 43.7001 55.7255 43.7191 55.6386 43.8078C55.6042 43.8428 55.567 43.8812 55.5271 43.9225C55.0986 44.3657 54.3504 45.1397 53.3089 45.5602C53.3073 45.5611 53.2735 45.5773 53.1938 45.6308C53.1475 45.6619 53.0951 45.699 53.0273 45.7482C53.0093 45.7613 52.9855 45.7787 52.9591 45.798C52.9078 45.8355 52.8463 45.8804 52.7968 45.916C52.3884 46.2095 51.8895 46.5269 51.2684 46.7126C50.6185 46.9069 49.9991 46.9103 49.3994 46.8339C48.0524 46.6625 47.2106 46.1455 46.4192 45.6179C45.9616 45.3129 45.5223 45.0994 44.9003 44.8144C44.8782 44.8185 44.8534 44.8239 44.8261 44.8308C44.7304 44.8548 44.6303 44.8902 44.5431 44.9297C44.4624 44.9663 44.4245 44.9918 44.4243 44.9916C44.4243 44.9915 44.4252 44.9908 44.4271 44.9894C44.2928 45.0902 44.1795 45.1884 44.0132 45.3325C43.9545 45.3834 43.8892 45.44 43.814 45.5045C43.5601 45.7222 43.2152 46.0088 42.7907 46.2644C42.7588 46.2836 42.7151 46.3128 42.6606 46.3493C42.2345 46.634 41.1436 47.3631 39.7675 47.2771C38.959 47.2265 38.253 46.8415 37.8414 46.5762C37.3881 46.284 36.9079 45.8845 36.5638 45.4448C35.7986 44.467 35.4685 44.0928 34.9683 43.8963C33.9241 43.486 33.4102 42.307 33.8204 41.2628C34.2306 40.2186 35.4097 39.7046 36.4539 40.1149C38.058 40.745 39.0176 41.981 39.6459 42.7901C39.6843 42.8396 39.7215 42.8875 39.7575 42.9336C39.7591 42.9351 39.7813 42.9597 39.8299 43.0021C39.8903 43.0547 39.9649 43.1113 40.0427 43.1615C40.0492 43.1657 40.0557 43.1698 40.0619 43.1737C40.1047 43.1498 40.1592 43.1175 40.2321 43.0723C40.2785 43.0436 40.323 43.0154 40.3755 42.9823C40.3945 42.9703 40.4147 42.9576 40.4363 42.944C40.5122 42.8961 40.6005 42.8408 40.6947 42.7841C40.8175 42.7101 40.9531 42.6058 41.1691 42.4206C41.2033 42.3912 41.2424 42.3573 41.2854 42.3199C41.4702 42.1593 41.7276 41.9356 41.9894 41.7392C42.5108 41.3482 43.1931 41.0519 43.837 40.8902C44.4157 40.745 45.4266 40.5894 46.3849 41.026L46.4142 41.0393C47.1137 41.3579 47.8706 41.7027 48.6728 42.2375C49.3076 42.6607 49.5124 42.7528 49.9124 42.8037C50.0305 42.8187 50.0897 42.8182 50.1111 42.8171C50.1391 42.8045 50.2291 42.7582 50.4256 42.617C50.4451 42.603 50.4706 42.584 50.5015 42.561C50.7256 42.3942 51.2335 42.0162 51.7876 41.793C51.9767 41.7168 52.1461 41.5661 52.739 40.9619C53.7874 39.8938 54.9972 39.5865 56.1898 39.5766C56.2152 39.5764 56.242 39.5761 56.27 39.5758C56.7177 39.571 57.481 39.5629 58.2544 39.7943C58.7525 39.9433 59.1226 40.1707 59.3869 40.3588C59.496 40.4365 59.5996 40.5169 59.6676 40.5697C59.6746 40.5751 59.6811 40.5802 59.6873 40.585C59.7656 40.6457 59.8098 40.6792 59.8501 40.7072C60.5575 41.2003 61.2782 41.6864 62.0051 42.168C62.0556 42.2014 62.1834 42.2647 62.5343 42.2921C62.7087 42.3057 62.907 42.3085 63.1543 42.3056C63.2254 42.3048 63.3142 42.3031 63.4111 42.3013C63.5918 42.2979 63.8002 42.294 63.9726 42.294C64.1397 42.294 64.2869 42.2953 64.4228 42.2965C64.5907 42.2979 64.7414 42.2992 64.8913 42.2978L65.0069 42.1767C65.0677 42.1135 65.1406 42.0388 65.2224 41.9596C65.4706 41.7195 65.7253 41.5458 65.9034 41.4319C65.9948 41.3733 66.0835 41.3198 66.1517 41.2787L66.1763 41.2639C66.2382 41.2266 66.2827 41.1998 66.3263 41.1726C66.3396 41.1643 66.3513 41.1568 66.3617 41.1501C66.9199 40.3037 68.0353 39.989 68.9647 40.4538C69.9682 40.9555 70.3749 42.1757 69.8732 43.1791C69.4648 43.996 68.7774 44.4316 68.4799 44.6175C68.4052 44.6642 68.3296 44.7097 68.2711 44.7449L68.2482 44.7588C68.1805 44.7995 68.1338 44.828 68.0934 44.8539C68.0593 44.8757 68.0395 44.8896 68.0302 44.8963C67.9829 44.9427 67.9426 44.985 67.8837 45.0469C67.8557 45.0763 67.8236 45.1101 67.7845 45.1507C67.6764 45.2634 67.5058 45.4386 67.2965 45.6077C66.8057 46.0042 66.1603 46.3209 65.3131 46.3518C64.9704 46.3642 64.5971 46.3611 64.2862 46.3586C64.1716 46.3576 64.0656 46.3568 63.9726 46.3568C63.8872 46.3568 63.7754 46.3589 63.6459 46.3614C63.2512 46.3689 62.6926 46.3796 62.2181 46.3425C61.5094 46.2872 60.612 46.1185 59.7613 45.5549C59.0164 45.0614 58.268 44.5568 57.527 44.0403C57.3934 43.9472 57.2766 43.8567 57.198 43.7958C57.1123 43.7293 57.0725 43.6985 57.0367 43.6728Z" fill="#E4AA12"/>
<path fill-rule="evenodd" clip-rule="evenodd" d="M57.0367 36.2665C56.9055 36.2377 56.7077 36.2289 56.2236 36.2329C55.9636 36.2351 55.8483 36.2662 55.8016 36.2833C55.7727 36.2938 55.7255 36.3129 55.6386 36.4015C55.6042 36.4365 55.567 36.475 55.5271 36.5163C55.0986 36.9595 54.3504 37.7334 53.3089 38.154C53.3073 38.1548 53.2735 38.1711 53.1938 38.2245C53.1475 38.2556 53.0951 38.2928 53.0273 38.342C53.0093 38.3551 52.9855 38.3724 52.9591 38.3917C52.9078 38.4292 52.8463 38.4741 52.7968 38.5097C52.3884 38.8033 51.8895 39.1206 51.2684 39.3064C50.6185 39.5007 49.9991 39.504 49.3994 39.4277C48.0524 39.2563 47.2106 38.7393 46.4192 38.2117C45.9616 37.9067 45.5223 37.6931 44.9003 37.4081C44.8782 37.4123 44.8534 37.4177 44.8261 37.4245C44.7304 37.4485 44.6303 37.484 44.5431 37.5235C44.4624 37.56 44.4245 37.5855 44.4243 37.5853C44.4243 37.5853 44.4252 37.5846 44.4271 37.5832C44.2928 37.6839 44.1795 37.7821 44.0132 37.9262C43.9545 37.9771 43.8892 38.0337 43.814 38.0982C43.5601 38.316 43.2152 38.6025 42.7907 38.8581C42.7588 38.8774 42.7151 38.9065 42.6606 38.943C42.2345 39.2277 41.1436 39.9568 39.7675 39.8708C38.959 39.8203 38.253 39.4353 37.8414 39.1699C37.3881 38.8777 36.9079 38.4783 36.5638 38.0385C35.7986 37.0608 35.4685 36.6865 34.9683 36.49C33.9241 36.0798 33.4102 34.9007 33.8204 33.8565C34.2306 32.8123 35.4097 32.2984 36.4539 32.7086C38.058 33.3388 39.0176 34.5747 39.6459 35.3839C39.6843 35.4334 39.7215 35.4813 39.7575 35.5273C39.7591 35.5288 39.7813 35.5535 39.8299 35.5959C39.8903 35.6484 39.9649 35.7051 40.0427 35.7552C40.0492 35.7594 40.0557 35.7635 40.0619 35.7675C40.1047 35.7436 40.1592 35.7113 40.2321 35.6661C40.2785 35.6373 40.323 35.6092 40.3755 35.5761C40.3945 35.564 40.4147 35.5513 40.4363 35.5377C40.5122 35.4899 40.6005 35.4346 40.6947 35.3778C40.8175 35.3038 40.9531 35.1996 41.1691 35.0144C41.2033 34.985 41.2424 34.951 41.2854 34.9137C41.4702 34.753 41.7276 34.5294 41.9894 34.333C42.5108 33.9419 43.1931 33.6456 43.837 33.484C44.4157 33.3387 45.4266 33.1831 46.3849 33.6197L46.4142 33.6331C47.1137 33.9517 47.8706 34.2964 48.6728 34.8313C49.3076 35.2545 49.5124 35.3465 49.9124 35.3974C50.0305 35.4125 50.0897 35.4119 50.1111 35.4109C50.1391 35.3982 50.2291 35.3519 50.4256 35.2107C50.4451 35.1967 50.4706 35.1777 50.5015 35.1547C50.7256 34.988 51.2335 34.61 51.7876 34.3868C51.9767 34.3106 52.1461 34.1598 52.739 33.5557C53.7874 32.4875 54.9972 32.1803 56.1898 32.1703C56.2152 32.1701 56.242 32.1698 56.27 32.1695C56.7177 32.1648 57.481 32.1566 58.2544 32.388C58.7525 32.537 59.1226 32.7644 59.3869 32.9525C59.496 33.0302 59.5996 33.1106 59.6676 33.1635C59.6746 33.1689 59.6811 33.174 59.6873 33.1787C59.7656 33.2395 59.8098 33.2729 59.8501 33.301C60.5575 33.7941 61.2782 34.2801 62.0051 34.7617C62.0556 34.7952 62.1834 34.8585 62.5343 34.8858C62.7087 34.8995 62.907 34.9023 63.1543 34.8994C63.2254 34.8985 63.3142 34.8969 63.4111 34.8951C63.5918 34.8917 63.8002 34.8878 63.9726 34.8878C64.1397 34.8878 64.2869 34.889 64.4228 34.8902C64.5907 34.8917 64.7414 34.8929 64.8913 34.8915L65.0069 34.7704C65.0677 34.7072 65.1406 34.6326 65.2224 34.5534C65.4706 34.3133 65.7253 34.1396 65.9034 34.0256C65.9948 33.9671 66.0835 33.9135 66.1517 33.8724L66.1763 33.8576C66.2382 33.8203 66.2827 33.7936 66.3263 33.7663C66.3396 33.758 66.3513 33.7505 66.3617 33.7438C66.9199 32.8975 68.0353 32.5828 68.9647 33.0475C69.9682 33.5492 70.3749 34.7694 69.8732 35.7729C69.4648 36.5897 68.7774 37.0253 68.4799 37.2113C68.4052 37.258 68.3296 37.3035 68.2711 37.3387L68.2482 37.3525C68.1805 37.3933 68.1338 37.4217 68.0934 37.4476C68.0593 37.4694 68.0395 37.4833 68.0302 37.49C67.9829 37.5364 67.9426 37.5788 67.8837 37.6407C67.8557 37.67 67.8236 37.7038 67.7845 37.7445C67.6764 37.8571 67.5058 38.0324 67.2965 38.2015C66.8057 38.598 66.1603 38.9147 65.3131 38.9455C64.9704 38.958 64.5971 38.9549 64.2862 38.9523C64.1716 38.9514 64.0656 38.9505 63.9726 38.9505C63.8872 38.9505 63.7754 38.9527 63.6459 38.9551C63.2512 38.9627 62.6926 38.9733 62.2181 38.9363C61.5094 38.881 60.612 38.7123 59.7613 38.1486C59.0164 37.6552 58.268 37.1505 57.527 36.6341C57.3934 36.5409 57.2766 36.4505 57.198 36.3895C57.1123 36.3231 57.0725 36.2923 57.0367 36.2665Z" fill="#E4AA12"/>
<path fill-rule="evenodd" clip-rule="evenodd" d="M38.5661 51.184C38.6678 51.1989 38.7431 51.2099 38.9221 51.2233C39.4757 51.2646 39.9846 51.3455 40.3755 51.4076C40.4109 51.4133 40.4453 51.4187 40.4787 51.424C40.9259 51.4946 41.162 51.5243 41.3389 51.5243C42.4007 51.5243 43.9514 51.7309 45.1505 52.8159C45.2548 52.9102 45.362 52.9874 45.5745 53.1403C45.6121 53.1674 45.653 53.1969 45.6978 53.2292C45.9542 53.4144 46.3356 53.6949 46.6944 54.0813C47.1559 54.5783 47.4753 55.0431 47.7657 55.469C47.8511 55.5943 47.922 55.6722 48.0571 55.8209C48.1353 55.9069 48.2349 56.0166 48.3713 56.1727C48.6808 56.5269 49.1111 57.0616 49.3827 57.8162C49.7739 58.9028 49.7724 59.8759 49.7712 60.6257C49.7711 60.6659 49.7711 60.7054 49.7711 60.7443C49.7711 61.4198 49.7468 62.5317 49.4535 63.4978C49.1127 64.6206 48.4958 65.6148 48.0392 66.3508C47.9302 66.5265 47.8303 66.6874 47.7455 66.8319C47.7278 66.8621 47.7097 66.893 47.6912 66.9246C47.1036 67.9279 46.1257 69.5978 44.358 70.4489C44.2622 70.495 44.1441 70.5737 43.8591 70.7837C43.8446 70.7944 43.8294 70.8056 43.8136 70.8173C43.5757 70.9931 43.1904 71.2778 42.7456 71.5002C42.4836 71.6312 42.2458 71.6943 42.0871 71.7283C42.064 71.7333 42.0418 71.7378 42.0208 71.7419C41.4337 72.0777 40.8199 72.1817 40.4158 72.2116C39.1455 72.3057 37.2949 72.4029 35.6512 71.9039C35.5148 71.8625 35.4342 71.8448 35.3125 71.8181C35.2127 71.7961 35.0853 71.7682 34.8769 71.7161C34.5115 71.6248 34.0206 71.4796 33.505 71.1802C33.2358 71.0239 32.9841 70.8602 32.7721 70.7212C32.7427 70.7019 32.7142 70.6832 32.6863 70.6649C32.501 70.5432 32.3481 70.4428 32.1924 70.3477C31.1609 69.7173 30.5714 68.7912 30.1993 68.1384C30.0295 67.8406 29.9061 67.6091 29.8036 67.417C29.6294 67.0904 29.5161 66.8778 29.3393 66.647C28.7154 65.8325 28.4832 64.8472 28.3688 64.3099C28.355 64.245 28.3352 64.161 28.3118 64.0619C28.2006 63.5915 28.0091 62.7811 28.0008 62.0535C27.9915 61.234 28.0586 60.4059 28.2435 59.5607C28.3534 59.0584 28.5378 58.6638 28.6913 58.3737C28.7515 58.26 28.8163 58.1456 28.8644 58.0606C28.8732 58.0451 28.8815 58.0305 28.8891 58.0171C28.9424 57.9226 28.9797 57.8548 29.0114 57.792C29.0139 57.7851 29.0217 57.7635 29.034 57.7211C29.0526 57.6563 29.0662 57.6008 29.0882 57.5112C29.0983 57.47 29.1102 57.4216 29.1251 57.3619L29.1274 57.3526C29.2002 57.061 29.3517 56.454 29.7486 55.8834C30.0843 55.4008 30.4067 54.9058 30.7284 54.3912C31.3049 53.4688 32.1434 52.9397 32.7297 52.6158C32.9646 52.4861 33.215 52.3605 33.4176 52.259C33.4685 52.2334 33.5165 52.2094 33.5604 52.1872C33.807 52.0625 33.9747 51.9722 34.1053 51.8884C34.7711 51.4613 35.4046 51.3309 35.8775 51.2726C36.0219 51.2548 36.1983 51.2394 36.3161 51.2292C36.3537 51.2259 36.3853 51.2231 36.4081 51.221C36.5412 51.2084 36.622 51.1972 36.6882 51.1835C37.2583 51.065 37.7455 51.0893 38.1159 51.128C38.3562 51.1532 38.4724 51.1702 38.5661 51.184ZM41.7924 71.7804C41.7924 71.7803 41.7946 71.7799 41.7992 71.7792C41.7947 71.78 41.7924 71.7804 41.7924 71.7804ZM37.5149 55.1612L37.5148 55.1612C37.2332 55.2198 36.981 55.2477 36.7907 55.2657C36.6983 55.2744 36.6322 55.2801 36.5783 55.2847C36.4984 55.2916 36.4456 55.2961 36.3744 55.3049C36.326 55.3108 36.2971 55.316 36.2815 55.3192C35.9692 55.5181 35.6498 55.6833 35.3937 55.8128C35.3229 55.8486 35.2572 55.8816 35.1955 55.9126C35.005 56.0081 34.8512 56.0853 34.6943 56.172C34.2772 56.4025 34.1886 56.5204 34.1736 56.5444C33.8375 57.0821 33.4901 57.617 33.1213 58.1494C33.1123 58.1777 33.0938 58.2382 33.0668 58.346C33.062 58.3653 33.0562 58.3891 33.0495 58.4164C33.0224 58.5273 32.9813 58.6953 32.9379 58.846C32.8787 59.0515 32.7905 59.3183 32.6496 59.6001C32.5689 59.7615 32.4887 59.905 32.4271 60.0141C32.4144 60.0367 32.4026 60.0574 32.3918 60.0767C32.3443 60.1606 32.313 60.216 32.2821 60.2743C32.2198 60.392 32.2134 60.4242 32.2125 60.4285C32.2125 60.4287 32.2125 60.4288 32.2124 60.4289C32.1033 60.9279 32.0569 61.4443 32.0633 62.0073C32.066 62.2457 32.1151 62.4585 32.2034 62.841C32.2424 63.0101 32.289 63.2123 32.3427 63.4645C32.3895 63.6846 32.4354 63.8591 32.4855 63.9982C32.5327 64.1293 32.5657 64.1776 32.5655 64.1777C32.5655 64.1777 32.5652 64.1773 32.5646 64.1766C32.8511 64.5506 33.0776 64.937 33.2563 65.2593C33.3588 65.4444 33.4295 65.5769 33.4933 65.6964C33.568 65.8364 33.6332 65.9585 33.7289 66.1265C34.0241 66.6444 34.1938 66.8094 34.3109 66.881C34.5276 67.0134 34.7408 67.1535 34.9216 67.2723C34.9485 67.2899 34.9746 67.3071 35 67.3237C35.2092 67.4609 35.3801 67.571 35.545 67.6668C35.5847 67.6898 35.6559 67.7231 35.8618 67.7745C35.9401 67.7941 36.008 67.8095 36.096 67.8294C36.1429 67.84 36.1955 67.8519 36.2584 67.8665C36.4177 67.9032 36.617 67.9512 36.8313 68.0163C37.6573 68.2671 38.7899 68.2566 40.0735 68.1631C40.4824 67.9029 40.8784 67.8155 41.0731 67.7813C41.1584 67.7252 41.2724 67.6431 41.4491 67.5129C41.4582 67.5062 41.4675 67.4994 41.477 67.4923C41.7234 67.3106 42.1231 67.0158 42.5955 66.7883C43.1277 66.5321 43.5513 65.9516 44.2417 64.7753C44.4304 64.4539 44.5963 64.184 44.7426 63.9459C45.14 63.2991 45.393 62.8873 45.5659 62.3176C45.6669 61.9851 45.7083 61.4155 45.7083 60.7443C45.7083 59.8869 45.6959 59.5696 45.5601 59.1923C45.5455 59.1516 45.5097 59.0723 45.3117 58.8457C45.2619 58.7886 45.2088 58.7298 45.1428 58.657L45.1314 58.6444C45.0714 58.5781 45.0001 58.4994 44.9286 58.4181C44.7751 58.2436 44.589 58.0217 44.409 57.7577C44.1236 57.3392 43.9521 57.0988 43.7172 56.8458C43.6508 56.7743 43.5513 56.6906 43.319 56.5227C43.2937 56.5044 43.2652 56.4841 43.2342 56.4619C43.0307 56.3166 42.7142 56.0904 42.4248 55.8285C42.3296 55.7424 42.0097 55.587 41.3389 55.587C40.7944 55.587 40.251 55.5012 39.8468 55.4373L39.8448 55.437C39.8168 55.4326 39.7891 55.4282 39.7617 55.4239C39.349 55.3586 38.998 55.303 38.6197 55.2747C38.4006 55.2584 38.2065 55.2345 38.0521 55.2143C38.0062 55.2083 37.9661 55.203 37.9303 55.1982C37.8321 55.1852 37.7648 55.1763 37.6927 55.1687C37.6076 55.1598 37.5648 55.1587 37.5421 55.159C37.5241 55.1593 37.5181 55.1606 37.5149 55.1612ZM36.2661 55.323C36.266 55.323 36.2675 55.3225 36.2713 55.3215C36.2682 55.3226 36.2663 55.3231 36.2661 55.323Z" fill="#E4AA12"/>
<path fill-rule="evenodd" clip-rule="evenodd" d="M46.935 62.4992C46.949 61.3773 47.8698 60.4793 48.9916 60.4933C49.6998 60.5022 50.3588 60.6226 50.8405 60.7106C50.863 60.7148 50.8852 60.7188 50.9069 60.7228C51.4464 60.8211 51.7858 60.8764 52.1091 60.8764H57.3217C58.4436 60.8764 59.3531 61.7859 59.3531 62.9078C59.3531 64.0297 58.4436 64.9392 57.3217 64.9392H52.1091C51.3821 64.9392 50.7078 64.8162 50.217 64.7267C50.2041 64.7244 50.1914 64.722 50.1787 64.7197C49.632 64.6201 49.2827 64.56 48.9408 64.5558C47.819 64.5417 46.921 63.621 46.935 62.4992Z" fill="#E4AA12"/>
<path fill-rule="evenodd" clip-rule="evenodd" d="M67.1679 50.4934C67.4516 50.5134 67.6564 50.5279 67.9046 50.5279C67.9236 50.5279 67.947 50.5278 67.9741 50.5276C68.1246 50.5268 68.3895 50.5255 68.6431 50.5411C68.9148 50.5578 69.4181 50.603 69.9142 50.8156C69.9142 50.8156 69.9296 50.8221 69.9728 50.8357C70.0183 50.8501 70.0651 50.8634 70.1463 50.8866L70.1867 50.8981C70.3492 50.9444 70.6548 51.0315 70.9697 51.1784C71.4057 51.3819 71.7518 51.6574 71.9236 51.7942C71.9309 51.8 71.9379 51.8055 71.9445 51.8108C72.1578 51.9802 72.1863 51.997 72.1863 51.997C72.1863 51.997 72.1864 51.9971 72.1863 51.997C73.2209 52.5359 74.1203 53.2686 74.8685 54.0534C75.3469 54.5551 75.7464 55.0953 76.0659 55.5273C76.0874 55.5564 76.1086 55.585 76.1294 55.6131C76.2029 55.7123 76.2625 55.782 76.3536 55.8883C76.4179 55.9634 76.4978 56.0567 76.6094 56.1918C76.8197 56.4462 77.1245 56.833 77.356 57.3171C77.8833 58.4197 77.8092 59.4856 77.7659 60.1083C77.7649 60.123 77.7639 60.1375 77.7629 60.1517C77.7491 60.3516 77.743 60.557 77.7367 60.8018C77.7363 60.8201 77.7358 60.8387 77.7353 60.8576C77.7297 61.0778 77.7232 61.3356 77.7078 61.5952C77.6735 62.1709 77.591 62.8656 77.3206 63.6054C77.2476 63.805 77.1899 64.0424 77.1152 64.3998C77.1059 64.4443 77.0961 64.4919 77.0858 64.5421C77.0227 64.8484 76.9399 65.2512 76.8259 65.6412C76.6103 66.3788 76.3349 67.0844 76.0395 67.7427C75.739 68.4124 75.372 69.064 74.9617 69.6652C74.9617 69.6652 74.9572 69.6721 74.9471 69.6888C74.9349 69.7091 74.9195 69.7357 74.8973 69.7749C74.8905 69.7869 74.8822 69.8016 74.8728 69.8185C74.8331 69.8892 74.7723 69.9973 74.7136 70.095C74.5787 70.3196 74.2845 70.7919 73.7824 71.1583C72.4744 72.1127 71.2463 72.4189 69.9678 72.6015C68.1497 72.8612 66.5205 72.7476 64.7998 72.3591C63.2676 72.0131 62.1621 71.3822 61.0507 70.5834C60.4223 70.1317 59.9774 69.5993 59.6489 69.1599C59.5069 68.9699 59.3708 68.7751 59.256 68.6108C59.2403 68.5882 59.2249 68.5663 59.21 68.545C59.078 68.3564 58.9697 68.204 58.8612 68.0645C58.5677 67.6871 58.2804 67.167 58.1379 66.909C58.1051 66.8497 58.08 66.8043 58.0643 66.7776C57.9915 66.6544 57.9234 66.5514 57.8299 66.41C57.7846 66.3414 57.7333 66.2638 57.6726 66.1706C57.5116 65.9231 57.3046 65.5928 57.1275 65.2065C56.8948 64.6988 56.7858 64.188 56.7208 63.8836L56.7142 63.8526C56.639 63.5004 56.6099 63.3641 56.5662 63.2458C56.2778 62.4655 56.2086 61.6084 56.1683 61.1105C56.1647 61.0656 56.1613 61.0236 56.158 60.9849C56.0294 59.4746 56.2787 57.5813 57.021 56.0969C57.9034 54.3321 59.1991 52.9738 60.7163 51.9154C61.3998 51.4385 62.0675 50.9931 63.1946 50.7028C64.1371 50.4601 64.9852 50.4565 65.7225 50.4534C65.8299 50.453 65.9349 50.4525 66.0375 50.4514C66.486 50.4463 66.847 50.4707 67.1415 50.4915L67.1679 50.4934ZM66.8555 54.5442C66.5778 54.5246 66.356 54.5108 66.0837 54.5139C65.9569 54.5153 65.8404 54.5164 65.7327 54.5174C64.9555 54.5245 64.6341 54.5274 64.208 54.6372C63.7984 54.7427 63.6122 54.8487 63.0409 55.2473C61.9813 55.9866 61.1846 56.8542 60.6548 57.9138C60.3108 58.6018 60.1276 59.7184 60.2061 60.6403C60.2624 61.3013 60.2952 61.6159 60.3771 61.8374C60.5298 62.2508 60.6204 62.684 60.6757 62.9482C60.6823 62.9798 60.6884 63.009 60.6941 63.0355C60.762 63.3539 60.7962 63.46 60.8208 63.5137C60.8703 63.6216 60.9452 63.7507 61.0783 63.9553C61.1032 63.9935 61.1333 64.0391 61.167 64.0901C61.2801 64.2612 61.4334 64.493 61.562 64.7107C61.7087 64.9591 61.7944 65.1162 61.8567 65.2304C61.9391 65.3815 61.9805 65.4575 62.0682 65.5702C62.2456 65.7983 62.4054 66.0251 62.5388 66.2157C62.5554 66.2395 62.5715 66.2626 62.5873 66.2851C62.7062 66.4551 62.8027 66.5932 62.903 66.7274C63.1247 67.0239 63.2797 67.1822 63.4219 67.2844C64.2751 67.8976 64.8781 68.2117 65.6946 68.3961C67.001 68.6911 68.1288 68.7602 69.3932 68.5796C70.254 68.4566 70.7416 68.3117 71.2482 67.9738C71.267 67.9416 71.2854 67.909 71.3109 67.8636C71.3252 67.8382 71.3417 67.8088 71.3618 67.7733C71.4155 67.6785 71.5015 67.5281 71.6055 67.3756C71.8843 66.9672 72.133 66.5247 72.3328 66.0794C72.5721 65.5462 72.7751 65.0186 72.9263 64.5013C72.9903 64.2825 73.036 64.0618 73.1008 63.7492C73.1127 63.6921 73.1251 63.6321 73.1384 63.5684C73.2161 63.1968 73.3226 62.7087 73.5048 62.2104C73.5843 61.993 73.6293 61.7376 73.6522 61.3536C73.6634 61.1663 73.6682 60.975 73.6742 60.739L73.6753 60.698C73.6815 60.456 73.6892 60.1702 73.7098 59.8722C73.7557 59.2067 73.7169 59.1244 73.6908 59.07C73.681 59.0495 73.6378 58.9736 73.4777 58.7799C73.4258 58.7171 73.3819 58.6655 73.3295 58.6041C73.295 58.5635 73.2568 58.5187 73.2102 58.4636C73.1094 58.3441 72.9861 58.1952 72.8647 58.0313L72.8525 58.0149C72.4897 57.5251 72.2271 57.1705 71.9281 56.857C71.4207 56.3248 70.8697 55.8921 70.3093 55.6002C69.9306 55.403 69.6117 55.1475 69.4552 55.0222C69.4413 55.011 69.4287 55.0009 69.4174 54.992C69.3082 54.9052 69.2569 54.8683 69.2394 54.8558C69.2185 54.8486 69.168 54.8323 69.0565 54.8005C69.0455 54.7974 69.0331 54.7939 69.0197 54.7901C68.8942 54.7546 68.671 54.6916 68.4343 54.5991C68.4227 54.5981 68.4091 54.5971 68.3936 54.5962C68.3365 54.5926 68.2678 54.5908 68.1825 54.5903C68.1405 54.59 68.0976 54.59 68.0509 54.5902L67.9046 54.5907C67.5091 54.5907 67.1755 54.5669 66.9091 54.548C66.8909 54.5467 66.8731 54.5454 66.8555 54.5442Z" fill="#E4AA12"/>
<path fill-rule="evenodd" clip-rule="evenodd" d="M58.4716 72.1924C59.313 72.1924 59.9951 72.8745 59.9951 73.7159C59.9951 74.4083 59.7389 75.0578 59.4506 75.543C59.1616 76.0294 58.7245 76.5459 58.1575 76.8742C57.9568 76.9904 57.7879 77.1158 57.5505 77.2922C57.4654 77.3554 57.3715 77.4251 57.2641 77.5033C56.9038 77.7659 56.4192 78.0991 55.8128 78.3225C54.9423 78.6432 54.0205 78.6263 53.4352 78.6156C53.3418 78.6139 53.257 78.6123 53.1823 78.6123C53.0738 78.6123 52.9588 78.614 52.8381 78.6158C51.9183 78.6294 50.6636 78.648 49.4141 77.9586C48.8962 77.6728 48.3748 77.2541 47.9457 76.7664C47.5256 76.2889 47.1034 75.6416 46.9399 74.8784C46.7636 74.0556 47.2876 73.2457 48.1104 73.0694C48.9331 72.8931 49.743 73.4172 49.9193 74.2399C49.9364 74.3196 50.0172 74.5079 50.2335 74.7538C50.4409 74.9895 50.6894 75.1821 50.8861 75.2906C51.3935 75.5706 51.8171 75.5692 52.8173 75.566C52.9311 75.5656 53.0525 75.5653 53.1823 75.5653C53.3337 75.5653 53.4689 75.5661 53.5908 75.5669C54.1853 75.5706 54.4633 75.5724 54.7594 75.4633C54.9535 75.3918 55.1585 75.2674 55.4698 75.0406C55.5214 75.003 55.5797 74.9595 55.6434 74.912C55.9053 74.7168 56.2595 74.4528 56.6248 74.2406C56.6275 74.2385 56.6491 74.2226 56.6846 74.1847C56.7313 74.1348 56.7834 74.0667 56.831 73.9866C56.8787 73.9063 56.912 73.8306 56.9315 73.7704C56.9436 73.7328 56.9472 73.7112 56.9481 73.7054C56.9537 72.8688 57.6337 72.1924 58.4716 72.1924Z" fill="#E4AA12"/>
<path d="M36.8524 105.756C34.3692 108.297 32.8477 111.133 32.0196 114.543C31.1234 118.233 29.6032 121.433 29.6032 125.295C29.6032 126.266 26.499 124.02 25.9787 123.66C24.0651 122.335 21.0621 122.891 18.8394 122.891" stroke="#E4AA12" stroke-width="6" stroke-linecap="round"/>
<path d="M64.7816 107.847C64.7816 107.847 64.1047 111.943 64.1047 113.638C64.1047 115.151 64.5794 117.296 65.283 118.677C66.5561 121.176 68.6485 122.061 71.3748 122.061C72.4294 122.061 74.3267 122.532 75.9751 121.811C77.1414 121.301 78.0782 119.831 78.5447 119.805C79.0115 119.779 79.7366 121.218 80.2369 122.275C81.2021 124.313 81 128 81 128" stroke="#E4AA12" stroke-width="6" stroke-linecap="round"/>
</svg>
