<svg width="109" height="26" viewBox="0 0 109 26" fill="none" xmlns="http://www.w3.org/2000/svg">
<path d="M5.84375 7.56641L6.26562 7.53125C6.99219 7.625 7.67188 7.71875 8.30469 7.8125L9.25391 7.98828C9.88672 8.10547 10.2617 8.1875 10.3789 8.23438L10.5547 8.30469C10.6953 8.44531 10.8008 8.58594 10.8711 8.72656L10.9766 8.97266C10.9766 9.13672 10.9414 9.32422 10.8711 9.53516L10.8008 9.78125C10.6602 9.96875 10.5195 10.1094 10.3789 10.2031L10.0273 10.4141L8.05859 10.0977L6.125 9.78125L5.28125 9.85156L4.47266 9.95703L4.26172 10.4492L4.01562 10.9062L4.19141 11.1523L4.26172 11.293C4.47266 11.5039 4.68359 11.6914 4.89453 11.8555L5.24609 12.1016C5.78516 12.3594 6.32422 12.5703 6.86328 12.7344L7.60156 12.9805C8.1875 13.2148 8.59766 13.3906 8.83203 13.5078L9.14844 13.7188C9.5 14.0234 9.79297 14.3164 10.0273 14.5977L10.3789 14.9844C10.707 15.4766 10.9531 15.875 11.1172 16.1797L11.3984 16.7773C11.5156 17.1758 11.5977 17.5742 11.6445 17.9727L11.7148 18.8867L11.3984 19.9062L11.2227 20.5039C11.0352 20.9961 10.8828 21.3594 10.7656 21.5938L10.5898 21.9453C10.332 22.2969 10.0977 22.5664 9.88672 22.7539L9.60547 23.0352C9.25391 23.2695 8.96094 23.4453 8.72656 23.5625L8.375 23.7031C7.90625 23.8438 7.49609 23.9375 7.14453 23.9844L6.61719 24.0547C6.17188 24.0781 5.85547 24.0781 5.66797 24.0547L5.38672 23.9844C4.77734 23.75 4.21484 23.5039 3.69922 23.2461L2.89062 22.8945C2.28125 22.5195 1.87109 22.2383 1.66016 22.0508L1.34375 21.7344C1.03906 21.3359 0.792969 20.9375 0.605469 20.5391L0.359375 20.0117C0.21875 19.6367 0.148438 19.4023 0.148438 19.3086V19.168C0.21875 18.9805 0.289062 18.8047 0.359375 18.6406L0.464844 18.4297C0.605469 18.2891 0.710938 18.1953 0.78125 18.1484L0.921875 18.1133C1.08594 18.0898 1.21484 18.0781 1.30859 18.0781H1.48438C1.67188 18.1484 1.8125 18.2305 1.90625 18.3242L2.08203 18.4648C2.29297 18.8164 2.48047 19.1562 2.64453 19.4844L3.06641 20.4336L4.36719 21.1016L5.66797 21.7695L6.58203 21.6992L7.10938 21.6641C7.50781 21.5938 7.78906 21.5234 7.95312 21.4531L8.23438 21.3125C8.42188 21.0781 8.62109 20.7383 8.83203 20.293L9.07812 19.8008C9.24219 19.3086 9.34766 18.9336 9.39453 18.6758L9.46484 17.9375L9.07812 17.1992L8.90234 16.7773C8.59766 16.3789 8.32812 16.0742 8.09375 15.8633L7.49609 15.2656L6.23047 14.9141L5.5625 14.7031C4.97656 14.4922 4.55469 14.3164 4.29688 14.1758L3.94531 14C3.52344 13.6719 3.18359 13.3906 2.92578 13.1562L2.53906 12.7695C2.25781 12.3711 2.07031 12.0547 1.97656 11.8203L1.69531 11.2227L1.83594 10.5547L1.90625 10.2031C2.04688 9.85156 2.16406 9.57031 2.25781 9.35938L2.39844 9.07812C2.65625 8.77344 2.89062 8.52734 3.10156 8.33984L3.41797 8.05859C3.67578 7.87109 3.86328 7.76562 3.98047 7.74219L4.15625 7.70703C4.36719 7.68359 4.55469 7.66016 4.71875 7.63672L4.96484 7.60156C5.29297 7.57813 5.58594 7.56641 5.84375 7.56641ZM21.5938 5.80859L21.8398 5.84375C22.1445 5.96094 22.4141 6.06641 22.6484 6.16016L23 6.30078C23.3281 6.48828 23.5742 6.65234 23.7383 6.79297L24.0195 6.96875C24.2305 7.22656 24.3828 7.42578 24.4766 7.56641L24.6523 7.84766C24.7227 8.12891 24.7578 8.38672 24.7578 8.62109V8.9375C24.6875 9.40625 24.6172 9.82812 24.5469 10.2031L24.4414 10.7305C24.3242 11.1758 24.2305 11.4805 24.1602 11.6445L24.0547 11.8906C23.8438 12.1719 23.6445 12.3945 23.457 12.5586L23.1758 12.8047C22.8711 12.9922 22.6133 13.1094 22.4023 13.1562L22.1211 13.2617C21.6055 13.332 21.125 13.3672 20.6797 13.3672H20.0117C19.2617 13.3438 18.6289 13.3086 18.1133 13.2617L16.7773 13.1562L16.6719 13.543L16.6367 13.7539C16.5898 14.457 16.543 15.1719 16.4961 15.8984L16.4258 17.8672L16.6719 18.7812L16.7773 19.2734C16.918 19.6484 17.0352 19.9062 17.1289 20.0469L17.2695 20.2227C17.5742 20.457 17.8672 20.6445 18.1484 20.7852L18.5703 20.9961C18.875 21.1133 19.0859 21.1719 19.2031 21.1719H19.3789C19.6133 21.0312 19.8242 20.8438 20.0117 20.6094L20.293 20.3281C20.6445 19.8359 20.9492 19.4023 21.207 19.0273L21.5938 18.4648C21.875 18.1133 22.0625 17.9258 22.1562 17.9023L22.2969 17.832C22.4609 17.8086 22.6133 17.7969 22.7539 17.7969H22.9297C23.1406 17.9141 23.3164 18.0312 23.457 18.1484L23.8086 18.5352L23.7383 18.9922L23.7031 19.2734C23.4453 19.7422 23.1758 20.1758 22.8945 20.5742L22.5078 21.1719C22.1094 21.6641 21.793 22.0273 21.5586 22.2617L21.2422 22.5781C20.8906 22.8359 20.6211 23.0234 20.4336 23.1406L20.082 23.3164C19.7539 23.3867 19.4609 23.4219 19.2031 23.4219H18.7812C18.3594 23.3047 17.9258 23.1523 17.4805 22.9648L16.7422 22.6484C16.3672 22.4375 16.0391 22.1797 15.7578 21.875L15.125 21.2422L14.7383 20.082L14.5273 19.4844C14.3633 18.8047 14.2578 18.2539 14.2109 17.832L14.1758 17.2344C14.1758 16.4609 14.1992 15.793 14.2461 15.2305L14.3164 14.4219C14.4336 13.5547 14.5391 12.8633 14.6328 12.3477L14.8086 11.6094C14.9961 10.9531 15.1484 10.4844 15.2656 10.2031L15.6172 9.42969L16.9883 8.09375L17.8672 7.25C18.4062 6.82812 18.8398 6.53516 19.168 6.37109L19.5898 6.16016C20.0117 5.99609 20.3398 5.89063 20.5742 5.84375L20.8906 5.80859C21.1953 5.78516 21.4297 5.78516 21.5938 5.80859ZM21.1367 8.09375H20.9258C20.5742 8.23438 20.2578 8.38672 19.9766 8.55078L19.5547 8.79688C19.0859 9.17188 18.6992 9.51172 18.3945 9.81641L17.9375 10.2734C17.7031 10.5547 17.5859 10.7188 17.5859 10.7656V10.8359C17.7969 10.8828 18.0195 10.9297 18.2539 10.9766L18.6055 11.0117C19.168 11.0586 19.6719 11.0938 20.1172 11.1172L21.3125 11.1875L21.6641 11.0117L21.875 10.9062C22.0156 10.6953 22.1211 10.4844 22.1914 10.2734L22.2969 9.95703C22.3672 9.62891 22.4258 9.35938 22.4727 9.14844L22.543 8.58594L22.0156 8.33984L21.7344 8.19922C21.4766 8.12891 21.2773 8.09375 21.1367 8.09375ZM35.0938 5.80859L35.3398 5.84375C35.6445 5.96094 35.9141 6.06641 36.1484 6.16016L36.5 6.30078C36.8281 6.48828 37.0742 6.65234 37.2383 6.79297L37.5195 6.96875C37.7305 7.22656 37.8828 7.42578 37.9766 7.56641L38.1523 7.84766C38.2227 8.12891 38.2578 8.38672 38.2578 8.62109V8.9375C38.1875 9.40625 38.1172 9.82812 38.0469 10.2031L37.9414 10.7305C37.8242 11.1758 37.7305 11.4805 37.6602 11.6445L37.5547 11.8906C37.3438 12.1719 37.1445 12.3945 36.957 12.5586L36.6758 12.8047C36.3711 12.9922 36.1133 13.1094 35.9023 13.1562L35.6211 13.2617C35.1055 13.332 34.625 13.3672 34.1797 13.3672H33.5117C32.7617 13.3438 32.1289 13.3086 31.6133 13.2617L30.2773 13.1562L30.1719 13.543L30.1367 13.7539C30.0898 14.457 30.043 15.1719 29.9961 15.8984L29.9258 17.8672L30.1719 18.7812L30.2773 19.2734C30.418 19.6484 30.5352 19.9062 30.6289 20.0469L30.7695 20.2227C31.0742 20.457 31.3672 20.6445 31.6484 20.7852L32.0703 20.9961C32.375 21.1133 32.5859 21.1719 32.7031 21.1719H32.8789C33.1133 21.0312 33.3242 20.8438 33.5117 20.6094L33.793 20.3281C34.1445 19.8359 34.4492 19.4023 34.707 19.0273L35.0938 18.4648C35.375 18.1133 35.5625 17.9258 35.6562 17.9023L35.7969 17.832C35.9609 17.8086 36.1133 17.7969 36.2539 17.7969H36.4297C36.6406 17.9141 36.8164 18.0312 36.957 18.1484L37.3086 18.5352L37.2383 18.9922L37.2031 19.2734C36.9453 19.7422 36.6758 20.1758 36.3945 20.5742L36.0078 21.1719C35.6094 21.6641 35.293 22.0273 35.0586 22.2617L34.7422 22.5781C34.3906 22.8359 34.1211 23.0234 33.9336 23.1406L33.582 23.3164C33.2539 23.3867 32.9609 23.4219 32.7031 23.4219H32.2812C31.8594 23.3047 31.4258 23.1523 30.9805 22.9648L30.2422 22.6484C29.8672 22.4375 29.5391 22.1797 29.2578 21.875L28.625 21.2422L28.2383 20.082L28.0273 19.4844C27.8633 18.8047 27.7578 18.2539 27.7109 17.832L27.6758 17.2344C27.6758 16.4609 27.6992 15.793 27.7461 15.2305L27.8164 14.4219C27.9336 13.5547 28.0391 12.8633 28.1328 12.3477L28.3086 11.6094C28.4961 10.9531 28.6484 10.4844 28.7656 10.2031L29.1172 9.42969L30.4883 8.09375L31.3672 7.25C31.9062 6.82812 32.3398 6.53516 32.668 6.37109L33.0898 6.16016C33.5117 5.99609 33.8398 5.89063 34.0742 5.84375L34.3906 5.80859C34.6953 5.78516 34.9297 5.78516 35.0938 5.80859ZM34.6367 8.09375H34.4258C34.0742 8.23438 33.7578 8.38672 33.4766 8.55078L33.0547 8.79688C32.5859 9.17188 32.1992 9.51172 31.8945 9.81641L31.4375 10.2734C31.2031 10.5547 31.0859 10.7188 31.0859 10.7656V10.8359C31.2969 10.8828 31.5195 10.9297 31.7539 10.9766L32.1055 11.0117C32.668 11.0586 33.1719 11.0938 33.6172 11.1172L34.8125 11.1875L35.1641 11.0117L35.375 10.9062C35.5156 10.6953 35.6211 10.4844 35.6914 10.2734L35.7969 9.95703C35.8672 9.62891 35.9258 9.35938 35.9727 9.14844L36.043 8.58594L35.5156 8.33984L35.2344 8.19922C34.9766 8.12891 34.7773 8.09375 34.6367 8.09375ZM42.2305 8.23438H42.3359C42.4766 8.25781 42.5938 8.28125 42.6875 8.30469L42.793 8.375C42.9336 8.51562 43.0391 8.65625 43.1094 8.79688L43.2148 9.00781C43.332 9.82812 43.4375 10.6836 43.5312 11.5742L43.6367 12.9102C43.707 13.7305 43.7422 14.1992 43.7422 14.3164V14.5273C43.9062 14.293 44.1172 13.918 44.375 13.4023L44.7266 12.7344C45.1016 12.1719 45.3945 11.7734 45.6055 11.5391L45.8867 11.1875C46.4023 10.7422 46.8711 10.3672 47.293 10.0625L48.0312 9.53516C48.5 9.25391 48.8984 9.06641 49.2266 8.97266L50 8.76172L51.0547 8.83203L52.1445 8.90234L53.0586 9.32422L53.5508 9.57031C54.0195 9.875 54.3828 10.1211 54.6406 10.3086L55.0273 10.5898C55.3789 10.9883 55.6484 11.3164 55.8359 11.5742L56.1172 11.9609C56.375 12.5234 56.5742 13.0039 56.7148 13.4023L56.9258 14C57.0898 14.7734 57.1953 15.4297 57.2422 15.9688L57.3477 16.8828C57.3711 17.8438 57.3711 18.7812 57.3477 19.6953L57.2773 21.9805L57.0312 22.4023L56.9258 22.6484C56.7383 22.8125 56.5859 22.9062 56.4688 22.9297L56.2578 23C56.0234 22.9766 55.8359 22.9297 55.6953 22.8594L55.4492 22.7539C55.2852 22.6133 55.1797 22.4961 55.1328 22.4023L55.0273 22.2266C55.0039 21.6641 55.0156 20.9258 55.0625 20.0117L55.1328 18.7109C55.1094 17.75 55.0625 16.9766 54.9922 16.3906L54.9219 15.582C54.7812 14.8555 54.6523 14.3281 54.5352 14L54.2188 13.0859L53.5859 12.4531L53.2344 12.1016C52.8125 11.7734 52.4492 11.5391 52.1445 11.3984L51.3359 11.0117L50.4922 11.082L49.6836 11.1172L49.0859 11.5391L48.7344 11.7852C48.3359 12.1133 48.0078 12.3945 47.75 12.6289L47.2227 13.0859C46.9414 13.4844 46.6602 13.9648 46.3789 14.5273L46.0273 15.1953C45.7695 15.8047 45.5938 16.25 45.5 16.5312L45.3945 16.9531C45.2539 17.5625 45.1484 18.1016 45.0781 18.5703L44.9727 19.2734C44.8555 20.2344 44.7734 21.0781 44.7266 21.8047L44.5859 23.7383L44.2695 24.0898L44.0938 24.3008C43.9062 24.3711 43.7188 24.4062 43.5312 24.4062H43.2852C43.0508 24.3359 42.875 24.2422 42.7578 24.125L42.4062 23.8789L42.2305 22.332L42.1602 21.5234C41.9492 19.3438 41.75 17.1992 41.5625 15.0898L41.2812 11.9609C41.1406 10.1328 41.0938 9.16016 41.1406 9.04297L41.1758 8.83203C41.3164 8.66797 41.457 8.53906 41.5977 8.44531L41.8086 8.33984C41.9961 8.26953 42.1367 8.23438 42.2305 8.23438ZM75.875 0.5H76.1211C76.332 0.570312 76.4961 0.640625 76.6133 0.710938L76.7891 0.816406C76.9062 1.02734 76.9766 1.22656 77 1.41406L77.0703 1.66016C77.0469 1.89453 77 2.07031 76.9297 2.1875L76.8594 2.36328C76.6953 2.48047 76.543 2.5625 76.4023 2.60938L76.2266 2.67969C74.3984 2.98437 72.4297 3.28906 70.3203 3.59375L67.1914 4.05078C65.3867 4.33203 64.4258 4.48438 64.3086 4.50781L63.9922 4.57812L63.7109 5.52734L63.5703 6.05469C63.4531 6.64062 63.3594 7.10938 63.2891 7.46094L63.2188 7.98828C63.1484 8.80859 63.1016 9.54688 63.0781 10.2031L62.9727 11.9258L64.3438 11.8203L65.1172 11.7852C65.8438 11.7148 66.3828 11.6562 66.7344 11.6094L67.2617 11.5039C68.1758 11.3398 69.0078 11.1875 69.7578 11.0469L70.8828 10.8008C71.7969 10.6836 72.418 10.625 72.7461 10.625H73.3438C73.6953 10.6719 73.9531 10.7422 74.1172 10.8359L74.3633 10.9414C74.5039 11.1289 74.5859 11.2812 74.6094 11.3984L74.6797 11.6094C74.6562 11.8438 74.6094 12.0312 74.5391 12.1719L74.4336 12.418C74.3164 12.582 74.2109 12.6875 74.1172 12.7344L73.9766 12.8047C73.625 12.8516 73.2969 12.875 72.9922 12.875H72.5C71.6094 12.9922 70.7891 13.1328 70.0391 13.2969L68.9141 13.5078C68.0234 13.6719 67.4141 13.7891 67.0859 13.8594L66.5938 13.9297C65.8672 14 65.2227 14.0469 64.6602 14.0703L63.1484 14.1758L63.2188 14.9141L63.2539 15.3008C63.3477 16.2852 63.4297 17.2578 63.5 18.2188L63.6406 19.6602C63.7109 20.457 63.7578 20.8672 63.7812 20.8906L63.8164 20.9258C64.1914 20.8555 64.6016 20.7852 65.0469 20.7148L65.7148 20.5742C66.4883 20.3633 67.1211 20.1758 67.6133 20.0117L68.3867 19.8008C69.207 19.4727 69.875 19.1797 70.3906 18.9219L71.3047 18.4648C71.75 18.1836 72.0898 17.9141 72.3242 17.6562L72.8867 17.0938H73.2734H73.4844C73.6953 17.1875 73.8711 17.3164 74.0117 17.4805L74.2227 17.6562C74.3398 17.8906 74.3984 18.0664 74.3984 18.1836V18.3945C74.3047 18.6289 74.2109 18.8281 74.1172 18.9922L73.9414 19.2734C73.6602 19.5547 73.4023 19.7773 73.168 19.9414L72.7812 20.2227C72.3359 20.5039 71.9492 20.7148 71.6211 20.8555L71.1641 21.1016C70.6016 21.3594 70.1445 21.5469 69.793 21.6641L69.2656 21.875C68.4688 22.1328 67.7422 22.3555 67.0859 22.543L66.0664 22.8242C65.2461 22.9648 64.6016 23.0586 64.1328 23.1055L62.9375 23.1758L62.4102 22.9648L62.0586 22.8242C61.8945 22.6602 61.7656 22.4727 61.6719 22.2617L61.5664 21.9805C61.4258 20.8789 61.2852 19.5078 61.1445 17.8672L60.9336 15.3359C60.8633 13.6953 60.8281 12.2656 60.8281 11.0469L60.8633 8.16406L61.0742 6.89844L61.2148 6.19531C61.4023 5.49219 61.5664 4.94141 61.707 4.54297L62.0586 3.45312L62.5508 2.96094L62.7969 2.71484C63.0547 2.52734 63.2539 2.42187 63.3945 2.39844L63.6055 2.32812C65.4805 2.04688 67.4844 1.74219 69.6172 1.41406L72.8164 0.921875C74.6914 0.664062 75.7109 0.523437 75.875 0.5ZM88.0039 3.03125H88.1797C88.3906 3.10156 88.5664 3.17188 88.707 3.24219L88.9531 3.34766C89.1641 3.58203 89.3398 3.79297 89.4805 3.98047L89.6914 4.29688C89.8555 4.625 89.9844 4.89453 90.0781 5.10547L90.2188 5.38672C90.6172 6.41797 91.0156 7.47266 91.4141 8.55078L92.0469 10.1328C92.5156 11.4688 92.832 12.418 92.9961 12.9805L93.4531 14.5273L93.8398 14.7383L94.0859 14.8789C94.1797 15.043 94.25 15.2422 94.2969 15.4766L94.4023 15.9688L94.1914 16.3203L93.9453 16.6367L94.1211 17.5508L94.1914 18.043C94.2383 18.8164 94.2617 19.5078 94.2617 20.1172V21.0664C94.2148 21.8164 94.1562 22.332 94.0859 22.6133L93.9102 23.4219L93.5938 23.668L93.3477 23.8086C93.1836 23.832 92.9844 23.8203 92.75 23.7734L92.4688 23.7383C92.2812 23.6211 92.1406 23.5039 92.0469 23.3867L91.8359 23.1055L91.9414 21.2422L91.9766 20.2578C91.9766 19.3672 91.9531 18.7344 91.9062 18.3594L91.8711 17.7617C91.8008 17.3867 91.7539 17.1758 91.7305 17.1289L91.625 16.9531L88.8828 17.1641L87.3711 17.2695C86.1055 17.3867 85.2031 17.4688 84.6641 17.5156L83.8555 17.6211C83.3633 17.7148 83.0938 17.7852 83.0469 17.832L82.9414 17.9375C82.7773 18.2891 82.6133 18.6641 82.4492 19.0625L82.2031 19.625C81.9453 20.2344 81.7344 20.7148 81.5703 21.0664L81.3242 21.5938C81.1133 21.9688 80.9609 22.2031 80.8672 22.2969L80.7266 22.4375C80.5156 22.5312 80.3398 22.5781 80.1992 22.5781H79.9531C79.7422 22.4844 79.5664 22.3672 79.4258 22.2266L79.2148 22.0508C79.0977 21.8398 79.0391 21.6758 79.0391 21.5586V21.3828C79.2969 20.7031 79.5781 20 79.8828 19.2734L80.375 18.2188C80.9375 16.8125 81.4062 15.5938 81.7812 14.5625L82.3789 13.0508C82.8711 11.7852 83.2227 10.8828 83.4336 10.3438L83.75 9.53516C84.1016 8.71484 84.3945 8.07031 84.6289 7.60156L84.9805 6.89844C85.4258 6.10156 85.8008 5.43359 86.1055 4.89453L86.5977 4.01562C86.9258 3.59375 87.1602 3.33594 87.3008 3.24219L87.5117 3.13672C87.7227 3.06641 87.8867 3.03125 88.0039 3.03125ZM88.0391 6.23047L88.0039 6.16016C87.6992 6.67578 87.3711 7.26172 87.0195 7.91797L86.5273 8.90234C86.0586 9.88672 85.7188 10.6484 85.5078 11.1875L85.1914 11.9961C84.8633 12.8398 84.6172 13.5078 84.4531 14L83.9609 15.3008L84.9102 15.1953L85.4375 15.1602C86.4922 15.0664 87.4883 14.9844 88.4258 14.9141L89.8672 14.8086C90.6641 14.7383 91.0742 14.6797 91.0977 14.6328L91.1328 14.5977C90.9922 14.1055 90.8281 13.5664 90.6406 12.9805L90.3594 12.1016C89.8906 10.8828 89.4805 9.80469 89.1289 8.86719L88.6016 7.46094C88.2734 6.6875 88.0859 6.27734 88.0391 6.23047ZM98.4453 1.20312H98.6562C98.8672 1.29687 99.0312 1.40234 99.1484 1.51953L99.5 1.83594H101.258L103.016 1.87109L104.246 2.25781L104.949 2.43359C105.512 2.64453 105.91 2.82031 106.145 2.96094L106.531 3.13672C106.883 3.41797 107.164 3.66406 107.375 3.875L107.656 4.19141C107.891 4.51953 108.043 4.77734 108.113 4.96484L108.254 5.28125C108.301 5.70312 108.324 6.10156 108.324 6.47656V7.46094L107.938 8.62109L107.727 9.28906C107.469 9.875 107.246 10.3086 107.059 10.5898L106.812 11.0469C106.508 11.4688 106.262 11.7852 106.074 11.9961L105.793 12.3477C105.488 12.6289 105.242 12.8398 105.055 12.9805L104.738 13.1562C104.434 13.3203 104.176 13.4375 103.965 13.5078L103.684 13.6133C103.52 13.707 103.449 13.7891 103.473 13.8594L103.508 13.9297C103.719 14.3281 103.965 14.7383 104.246 15.1602L104.633 15.793C105.312 16.8477 105.934 17.8086 106.496 18.6758L108.043 21.0312L107.938 21.5234L107.902 21.8398C107.785 22.0273 107.656 22.1562 107.516 22.2266L107.164 22.4727L106.672 22.3672L106.145 22.2969L104.562 19.8711L103.719 18.5352C102.734 17.0117 101.949 15.7695 101.363 14.8086L100.449 13.332C99.9102 12.4648 99.6172 11.9727 99.5703 11.8555L99.5 11.6445C99.4531 12.3477 99.4297 13.3438 99.4297 14.6328V16.3203C99.4062 18.3125 99.3711 19.9414 99.3242 21.207L99.2539 24.6875L98.9023 25.0391L98.6914 25.25C98.4805 25.3438 98.3047 25.3906 98.1641 25.3906H97.918C97.7305 25.2969 97.5547 25.168 97.3906 25.0039L97.0039 24.6172L97.1094 17.5859L97.1445 13.7188C97.1914 10.3203 97.2383 7.82422 97.2852 6.23047L97.3555 1.90625L97.707 1.55469L97.918 1.34375C98.1289 1.25 98.3047 1.20312 98.4453 1.20312ZM101.961 4.12109L101.539 4.08594C101.07 4.08594 100.707 4.09766 100.449 4.12109L100.027 4.15625C99.793 4.22656 99.6641 4.28516 99.6406 4.33203L99.6055 4.4375C99.582 5.53906 99.5469 6.73438 99.5 8.02344L99.4297 11.5391L99.6758 11.0469L99.8516 10.7305C99.9922 10.5898 100.168 10.4961 100.379 10.4492L100.836 10.3086L101.715 10.9062L102.594 11.5039L103.086 11.3984L103.367 11.3633C103.625 11.2227 103.848 11.0586 104.035 10.8711L104.281 10.625C104.562 10.2734 104.785 9.98047 104.949 9.74609L105.195 9.35938C105.406 8.89062 105.582 8.49219 105.723 8.16406L105.898 7.63672C105.992 7.16797 106.039 6.79297 106.039 6.51172V6.01953C105.969 5.78516 105.887 5.59766 105.793 5.45703L105.652 5.31641C105.418 5.12891 105.195 4.98828 104.984 4.89453L104.668 4.71875C104.246 4.57812 103.883 4.47266 103.578 4.40234L103.121 4.26172C102.629 4.19141 102.242 4.14453 101.961 4.12109Z" fill="#E4AA12"/>
</svg>
