<svg width="213" height="122" viewBox="0 0 213 122" fill="none" xmlns="http://www.w3.org/2000/svg">
<path fill-rule="evenodd" clip-rule="evenodd" d="M37.8391 89.1378C38.8931 88.6966 40.1051 89.1933 40.5463 90.2473C40.6453 90.4838 40.744 90.6893 40.8432 90.8503C40.9123 90.9624 40.9558 91.0104 40.9647 91.0205C41.6895 91.5412 42.7563 91.8625 43.9695 92.0141C45.1033 92.1558 45.9075 93.1898 45.7658 94.3236C45.6241 95.4573 44.5901 96.2615 43.4563 96.1198C41.9331 95.9294 40.0513 95.4763 38.5059 94.3485C37.4866 93.6047 36.9557 92.385 36.7296 91.845C36.2884 90.791 36.7852 89.579 37.8391 89.1378Z" fill="#BEBEBF"/>
<path fill-rule="evenodd" clip-rule="evenodd" d="M95.8857 44.1693C94.6348 42.3235 92.4284 41.2154 90.0583 41.4788C86.6516 41.8573 84.1967 44.9259 84.5753 48.3327C84.7363 49.7824 85.3144 50.8947 85.8652 51.6591C84.2194 54.2526 84.7141 57.7272 87.137 59.7463C89.7703 61.9407 93.6838 61.5849 95.8782 58.9516C98.391 55.9363 98.4164 52.7384 98.4164 51.0006C98.4164 50.9879 98.417 50.9654 98.4178 50.934C98.4272 50.5675 98.4678 48.9819 97.9926 47.4376C97.5358 45.953 96.6965 44.9739 96.1934 44.465C96.0855 44.3559 95.9815 44.2569 95.8857 44.1693Z" fill="#BEBEBF"/>
<path fill-rule="evenodd" clip-rule="evenodd" d="M26.2588 63.3154C28.2059 60.6362 31.9388 59.9497 34.7197 61.8036C35.4796 62.3103 35.9902 62.8679 36.2839 63.224C36.3316 63.2817 36.3761 63.3374 36.4172 63.3901C36.9798 63.8704 37.387 64.3257 37.6055 64.5722C37.7237 64.7055 37.889 64.8975 37.9846 65.0085C38.0151 65.0439 38.0385 65.0711 38.051 65.0854C38.1006 65.1426 38.131 65.1766 38.147 65.1943C38.1629 65.2087 38.1904 65.2335 38.2336 65.2718C38.2466 65.2833 38.2637 65.2983 38.284 65.3163C38.3821 65.4027 38.556 65.5561 38.7117 65.6995C39.0288 65.9918 39.7688 66.6819 40.3937 67.676L40.4441 67.7417C40.4675 67.7722 40.4981 67.8123 40.5311 67.8561C40.5641 67.8999 40.6047 67.9542 40.6488 68.015C41.0994 68.6345 41.3749 69.2198 41.5436 69.6385C41.6176 69.8219 41.6796 69.9962 41.7281 70.1413C42.2427 70.9898 42.9366 72.2194 43.403 73.5253C44.2249 75.8267 44.2373 77.7702 44.2373 79.1848C44.2373 81.2562 44.0834 83.4016 43.2942 85.8568C43.258 85.9694 43.2105 86.1518 43.1148 86.5831C43.1051 86.6269 43.0944 86.6755 43.0828 86.7282C43.0028 87.0924 42.8794 87.6537 42.7276 88.2002C42.2527 89.9101 41.2146 91.6897 39.3372 92.906C37.5997 94.0317 35.7946 94.2464 34.5488 94.2464C32.6795 94.2464 30.7485 93.9025 28.8863 92.8687C27.1212 91.8888 25.8961 90.5469 25.0098 89.4243C24.376 88.6215 24.0183 87.8541 23.859 87.5049C23.8215 87.4225 23.7861 87.3428 23.7636 87.2923L23.7585 87.2807L23.7417 87.2433C23.7145 87.2024 23.6662 87.1314 23.5826 87.0126C23.5684 86.9923 23.5517 86.9687 23.5329 86.9421C23.3821 86.729 23.0951 86.3231 22.8293 85.8882C22.6422 85.5821 22.4834 85.293 22.3763 85.0964C22.335 85.0206 22.3016 84.9589 22.2729 84.906C22.2118 84.7933 22.1722 84.7201 22.1233 84.6335C22.1065 84.6037 22.0924 84.5794 22.081 84.56C21.0806 83.393 20.6103 82.1589 20.4464 81.7287C20.4399 81.7117 20.4339 81.696 20.4284 81.6816C20.3817 81.5599 20.3713 81.532 20.363 81.5097C20.3607 81.5034 20.3585 81.4975 20.3557 81.4901C19.8059 80.5776 19.5493 79.7001 19.4186 79.073C19.2673 78.3471 19.2335 77.7022 19.226 77.2668C19.2184 76.8249 19.2372 76.4229 19.2477 76.2004C19.2602 75.9373 19.2619 75.8951 19.2621 75.8951C19.2621 75.8951 19.2621 75.8963 19.2621 75.8979C19.2621 74.9553 19.3948 74.0956 19.458 73.6857C19.4618 73.6614 19.4653 73.6388 19.4685 73.6177C19.5131 73.3258 19.5282 73.2037 19.5326 73.1731C19.5439 71.9804 19.8196 71.0039 20.1308 70.2502C20.2533 69.9536 20.3794 69.6989 20.4274 69.6019C20.4299 69.597 20.4321 69.5925 20.4341 69.5884C20.4636 69.5288 20.4768 69.5019 20.4812 69.493C20.6005 69.2265 20.7178 69.0089 20.8018 68.8604C20.8298 68.811 20.8571 68.764 20.8831 68.72C21.629 66.6065 23.1646 65.4486 23.6572 65.0851C23.8053 64.9759 23.944 64.8797 24.0397 64.8142C24.7519 64.1165 25.5211 63.6407 26.2588 63.3154Z" fill="#FDEAD8"/>
<path fill-rule="evenodd" clip-rule="evenodd" d="M63.1134 34.5129C65.8767 34.4173 69.7232 34.2842 73.325 35.1103C73.3921 35.1256 73.5287 35.1536 73.7158 35.1918C74.4448 35.3409 75.9398 35.6465 77.0704 35.9764C78.4114 36.3676 81.1643 37.2657 83.1018 39.5307C83.1132 39.5422 83.1342 39.5631 83.1678 39.5954C83.2155 39.6413 83.2644 39.6874 83.3435 39.7618L83.3678 39.7847C83.4507 39.8628 83.5667 39.9721 83.6884 40.0906C84.1013 40.4925 84.8764 41.2721 85.5256 42.4138C85.5502 42.4403 85.5765 42.4685 85.6091 42.5034C85.6355 42.5317 85.6659 42.5643 85.7029 42.604L85.7074 42.6088C85.8927 42.8076 86.2574 43.199 86.616 43.6682C86.9183 44.0638 87.2879 44.6045 87.6133 45.2843C87.6271 45.3052 87.6413 45.3269 87.6554 45.3488C87.9078 45.7383 88.6724 46.9251 88.8671 48.64C88.9161 48.7418 88.9743 48.858 89.0628 49.0347L89.1183 49.1454C89.3518 49.6111 89.7917 50.4886 90.1139 51.5268C90.6665 53.3071 90.7101 55.4608 90.7261 56.2508C90.7268 56.2853 90.7275 56.3172 90.7281 56.3463C90.7419 56.9833 90.7577 57.415 90.8004 57.7799C90.8119 57.8779 90.8231 57.9491 90.8318 57.9969C90.8547 58.0453 90.8789 58.0964 90.9044 58.1501C91.3367 59.0603 92.1255 60.7212 92.5345 62.4595C93.1444 65.0515 93.6158 67.5637 94.0488 70.0747C94.2757 71.3908 94.2867 72.6321 94.2718 73.5395C94.2616 74.1542 94.2478 74.5026 94.2364 74.7927C94.2243 75.0986 94.2148 75.3395 94.2148 75.7594C94.2148 76.3274 94.2346 76.7461 94.2595 77.2707C94.2801 77.7063 94.3042 78.2149 94.3232 78.9426C94.3562 80.201 94.3526 81.8831 94.0165 83.6114C93.6919 85.2807 93.1121 86.6853 92.6542 87.7071C92.4284 88.211 92.2582 88.5735 92.1166 88.8752C91.9084 89.3186 91.7618 89.6309 91.5908 90.0678C90.8646 91.9236 89.5065 94.4759 87.4831 96.362C87.4367 96.4314 87.3652 96.5425 87.2284 96.7574C87.2124 96.7825 87.1948 96.8104 87.1755 96.8409C86.849 97.3576 86.0536 98.616 84.8027 99.6745C84.7103 99.7527 84.6074 99.8448 84.4125 100.02L84.4031 100.028C84.2338 100.18 83.987 100.402 83.7193 100.627C83.1843 101.077 82.3257 101.75 81.1962 102.283C79.9578 102.868 78.7478 103.333 77.6283 103.731C77.0181 103.948 76.4808 104.057 76.1339 104.118C76.0996 104.124 76.0661 104.129 76.0335 104.135C75.9668 104.175 75.8975 104.217 75.8294 104.258C75.4033 104.51 74.4141 105.085 73.1503 105.394C69.0943 106.385 64.9584 106.179 60.9277 104.641C60.5135 104.483 60.1618 104.32 59.9059 104.196C59.7783 104.134 59.6606 104.075 59.5715 104.031C59.471 103.98 59.4142 103.951 59.3515 103.92C59.3461 103.918 59.3409 103.915 59.3359 103.913C58.7993 103.778 58.2549 103.63 57.7832 103.502C57.6135 103.455 57.4531 103.412 57.306 103.372C57.2302 103.352 57.1069 103.322 56.947 103.284C56.2055 103.105 54.6768 102.735 53.4466 102.236C52.0044 101.65 50.6226 100.948 49.225 100.016C48.9668 99.8443 48.6855 99.6694 48.2919 99.425L48.2838 99.4199C47.9225 99.1956 47.4604 98.9086 46.9935 98.5953C46.0604 97.969 44.8227 97.0538 43.7196 95.7438C43.616 95.6208 43.5136 95.5072 43.3387 95.3132C43.279 95.247 43.2108 95.1715 43.1313 95.0829C42.8669 94.7886 42.4928 94.3678 42.1193 93.8876C41.4535 93.0315 40.482 91.6093 40.0319 89.6882C40.0096 89.6484 39.9832 89.6019 39.9521 89.5482C39.9431 89.5326 39.9331 89.5154 39.9224 89.4968C39.7883 89.2656 39.5249 88.8115 39.287 88.3111C39.0112 87.7311 38.6985 86.9509 38.5086 86.0011C38.4286 85.6012 38.2879 85.1642 38.0129 84.5391C37.565 83.5212 37.3293 82.5556 37.1907 81.9323C37.0903 81.4812 37.0465 81.2587 37.0142 81.0949C36.9818 80.9304 36.9611 80.825 36.9065 80.6068C36.8545 80.3986 36.8091 80.2419 36.7402 80.004C36.6987 79.8606 36.6486 79.6877 36.5834 79.4563C36.4406 78.9491 36.2482 78.2315 36.1173 77.4134C35.8814 75.9396 35.5263 74.4989 35.1535 73.6135C34.6641 72.4511 34.3581 71.3362 34.1452 70.5239C34.0861 70.2989 34.0349 70.1004 33.9887 69.9216C33.8437 69.3604 33.7485 68.9919 33.6196 68.5979C32.7869 66.0536 32.8283 63.4514 32.8511 62.0148C32.8543 61.813 32.8571 61.6341 32.8571 61.4817C32.8571 59.6671 33.0607 57.5666 33.8077 55.4188C34.3996 53.7172 35.3483 51.5692 36.907 49.6676C37.0914 49.4426 37.3005 49.1369 37.6402 48.581C37.9849 48.017 38.3471 47.5774 38.6273 47.2665C38.8943 46.9702 39.1508 46.7224 39.277 46.6005L39.2809 46.5967C39.3063 46.5722 39.3268 46.5524 39.3442 46.5356C39.4076 46.4392 39.4813 46.3247 39.5762 46.1764C39.5838 46.1646 39.5916 46.1524 39.5996 46.14C39.7526 45.9009 39.977 45.5503 40.2258 45.1956C40.7757 44.4113 41.6063 43.3635 42.8702 42.4273C42.9432 42.3732 43.0564 42.2849 43.2012 42.172C43.7739 41.7254 44.8421 40.8924 45.8889 40.2526C46.4508 39.6805 46.9927 39.33 47.2957 39.1477C47.8421 38.819 48.3465 38.6133 48.5518 38.5305C48.5513 38.5307 48.5523 38.5303 48.5518 38.5305C49.1602 38.1262 49.9515 37.652 50.8884 37.278C52.1569 36.7715 53.4405 36.541 54.7768 36.5205C55.4845 36.1387 56.436 35.7197 57.5904 35.4924C57.604 35.4888 57.651 35.4761 57.7442 35.4467C57.8846 35.4024 57.9533 35.3791 58.0494 35.3465C58.1422 35.315 58.2605 35.2748 58.4938 35.1986C59.1086 34.998 60.3828 34.5892 61.9076 34.551C62.28 34.5417 62.6836 34.5278 63.1134 34.5129ZM67.7446 56.7858C67.7444 56.7852 67.7496 56.7927 67.761 56.8099C67.7506 56.7949 67.7449 56.7863 67.7446 56.7858Z" fill="#FDEAD8"/>
<path fill-rule="evenodd" clip-rule="evenodd" d="M27.2073 59.6418C27.3052 59.6589 27.407 59.68 27.5118 59.7055C27.5627 59.7614 27.6106 59.8171 27.6559 59.8724C27.9365 60.2153 28.1121 60.543 28.221 60.8006C28.2837 60.949 28.3242 61.0741 28.3498 61.1656C28.3544 61.1822 28.3586 61.1977 28.3623 61.212C28.3529 61.2302 28.3429 61.249 28.3323 61.2683C28.2068 61.3133 28.0774 61.351 27.9454 61.3805C27.7135 61.4325 27.4736 61.4597 27.2332 61.4589C27.2097 61.4588 27.1866 61.4585 27.1639 61.4579M20.3942 52.0472C18.2948 53.468 17.0316 55.567 16.4583 57.86C16.1031 59.2806 15.7209 61.6834 16.2922 64.107C16.5952 65.3929 17.2728 67.1189 18.8146 68.548C19.6324 69.306 20.5502 69.848 21.5112 70.2024C21.5674 70.2506 21.6247 70.2983 21.6833 70.3456C23.2368 71.5985 25.0022 71.9876 26.4685 71.9876C29.1687 71.9876 34.0279 71.354 36.8731 67.0682C37.3678 66.5261 37.8285 65.9145 38.224 65.2277C39.8441 62.4142 40.0305 58.8231 37.9532 55.5589C37.0826 54.1907 36.0588 53.1771 34.9778 52.4264C33.7735 51.2497 32.3253 50.2954 30.712 49.6904C28.4767 48.8522 26.0744 48.8074 23.8375 49.6993C22.4022 50.2716 21.269 51.1343 20.3942 52.0472Z" fill="#BEBEBF"/>
<path fill-rule="evenodd" clip-rule="evenodd" d="M26.369 35.7729C26.16 35.8724 25.9804 35.9616 25.8359 36.0368C24.1638 36.9063 22.6925 38.1543 21.6656 39.8627C20.6585 41.5382 20.3371 43.2277 20.2585 44.5725C20.184 45.8471 20.3205 47.0361 20.4112 47.7798C20.4389 48.0061 20.4633 48.1998 20.4846 48.3697C20.55 48.8891 20.5874 49.186 20.6036 49.5105C20.7748 52.934 23.6888 55.5705 27.1123 55.3993C27.2818 55.3908 27.4494 55.3756 27.6148 55.354C28.1488 56.0465 29.0131 57.0714 30.0502 57.8319C32.6895 59.7674 35.6204 59.4138 36.6184 59.2719C37.2778 59.1781 37.8817 59.0405 38.2401 58.9583C38.2966 58.9454 38.3461 58.934 38.3908 58.9237C38.5154 58.895 38.6019 58.8751 38.6915 58.8556C38.7783 58.8367 38.8127 58.8305 38.8127 58.8304C38.8127 58.8304 38.8093 58.831 38.803 58.832C41.3139 58.4355 43.5572 57.1401 45.0489 55.0021C46.4329 53.0186 46.8171 50.8242 46.8171 49.0611C46.8171 43.7225 44.0211 39.2969 42.0139 36.5227C41.2541 35.4112 40.0565 34.1578 38.2289 33.4725C35.4411 32.427 30.4703 31.8659 26.7043 35.4337C26.5867 35.5451 26.475 35.6583 26.369 35.7729Z" fill="#BEBEBF"/>
<path fill-rule="evenodd" clip-rule="evenodd" d="M34.4353 41.562C34.6946 42.6827 35.129 43.9046 35.8638 45.05L35.892 45.0939C36.7651 46.4551 38.2013 48.6944 40.4026 50.2901C43.0501 52.2092 46.1735 52.8286 49.5843 52.2785C54.4973 51.486 58.6978 47.4351 59.0913 41.9274C59.1992 40.4158 59.1656 38.6478 59.1404 37.3205C59.1314 36.8453 59.1235 36.4266 59.1235 36.0963C59.1235 32.2498 57.114 29.5049 56.3602 28.4753C56.2596 28.338 56.1815 28.2311 56.1333 28.1563C55.0671 26.4977 53.5057 24.5693 51.0714 23.3895C48.5121 22.1492 45.9015 22.1664 43.5986 22.6405C43.4075 22.6799 43.1925 22.7223 42.9573 22.7688C41.1832 23.1195 38.2588 23.6975 35.7535 24.8683C32.5824 26.3503 28.93 29.3243 28.4041 34.7592C28.0739 38.1709 30.572 41.2044 33.9838 41.5346C34.1351 41.5492 34.2857 41.5583 34.4353 41.562Z" fill="#BEBEBF"/>
<path fill-rule="evenodd" clip-rule="evenodd" d="M68.8788 17.9756C62.722 14.9042 55.8069 15.4868 49.8905 19.2173C46.991 21.0456 46.1226 24.8781 47.9508 27.7776C48.7009 28.9671 49.7883 29.8147 51.0102 30.2746C50.6083 32.7313 50.8664 34.9894 51.168 36.732C52.0074 41.5799 55.763 44.5002 58.3863 46.0099C61.228 47.6454 64.4477 48.6327 66.9588 49.0116C70.1199 49.4886 72.6475 47.9442 73.6701 47.25C74.9711 46.3669 76.0455 45.3074 76.7397 44.5011C77.6798 43.4091 78.6702 42.081 79.3192 40.3534C79.9726 38.6141 80.0954 36.9631 80.0954 35.5218C80.0954 29.9665 77.7001 25.131 74.0215 21.6106C73.6304 21.0196 73.1448 20.4141 72.5369 19.8619C71.483 18.9043 70.2339 18.2625 68.8788 17.9756Z" fill="#BEBEBF"/>
<path fill-rule="evenodd" clip-rule="evenodd" d="M87.7872 27.8245C87.7606 27.8068 87.7338 27.7889 87.7067 27.7709C86.4784 26.9516 84.6998 25.7653 82.6326 25.0618C80.2087 24.2369 77.6505 24.1291 74.8791 24.8849C71.5721 25.7868 69.6224 29.1988 70.5243 32.5057C71.1188 34.6856 72.8041 36.2758 74.831 36.8481C74.7553 37.8098 74.792 38.594 74.8136 39.0578C74.8195 39.1837 74.8243 39.286 74.8254 39.3619C74.8988 44.2826 78.4238 46.936 80.1298 48.0327C81.7579 49.0793 83.6494 49.5451 85.2746 49.6318C86.7115 49.7085 89.0848 49.5435 91.2053 48.0353C92.0117 47.7704 92.8245 47.3343 93.5661 46.6688C94.8909 45.48 95.4207 44.0653 95.6369 43.1434C96.0219 41.5014 95.7419 40.0255 95.6284 39.4679C95.363 38.1647 94.8565 36.8924 94.7376 36.5938C94.7297 36.5739 94.7235 36.5583 94.7192 36.5474C94.3651 35.6422 93.8854 34.8906 93.4066 34.2867C93.2328 33.7099 93.0095 33.0921 92.7214 32.4838C91.7099 30.3485 89.9973 29.1753 89.2479 28.6908C88.8379 28.4258 88.4322 28.1954 88.1924 28.0592C88.1777 28.0509 88.1637 28.0429 88.1504 28.0353C88.0127 27.957 87.9289 27.9092 87.8578 27.8672C87.8129 27.8406 87.7916 27.8273 87.7872 27.8245ZM85.8929 37.6398L85.4325 37.2945L85.8929 37.6398ZM80.1691 39.8124C80.1714 39.814 80.1738 39.8156 80.1764 39.8174C80.1445 39.7971 80.1407 39.7929 80.1691 39.8124Z" fill="#BEBEBF"/>
<path fill-rule="evenodd" clip-rule="evenodd" d="M72.3772 63.144C72.2939 63.1453 72.1732 63.1682 71.8814 63.2396C71.7247 63.278 71.6596 63.3133 71.6338 63.3302C71.6179 63.3407 71.5921 63.359 71.5522 63.4249C71.5364 63.4509 71.5195 63.4794 71.5012 63.5101C71.3057 63.8388 70.9643 64.4129 70.3953 64.8153C70.3945 64.8161 70.3764 64.8307 70.3359 64.8743C70.3124 64.8997 70.286 64.9296 70.2521 64.969C70.2431 64.9795 70.2312 64.9934 70.218 65.0088C70.1924 65.0388 70.1617 65.0746 70.1369 65.1032C69.9321 65.3387 69.6761 65.6015 69.3276 65.8022C68.9628 66.0122 68.5893 66.1026 68.2163 66.142C67.3785 66.2306 66.7964 66.0385 66.2432 65.8327C65.9235 65.7138 65.6277 65.6475 65.2115 65.5641C65.1988 65.5698 65.1845 65.5766 65.169 65.5846C65.1147 65.6128 65.0593 65.6484 65.0122 65.6847C64.9687 65.7183 64.9494 65.7391 64.9493 65.739C64.9493 65.739 64.9498 65.7384 64.9507 65.7373C64.884 65.8173 64.8296 65.8928 64.7497 66.0035C64.7215 66.0426 64.6902 66.0861 64.654 66.1358C64.5317 66.3035 64.3643 66.5257 64.1444 66.7406C64.1279 66.7567 64.1057 66.7806 64.0779 66.8104C63.8613 67.0431 63.3065 67.6389 62.4633 67.7832C61.9678 67.868 61.4867 67.7362 61.2002 67.6347C60.8848 67.5229 60.5379 67.3501 60.2674 67.1337C59.6659 66.6524 59.4132 66.4735 59.0832 66.4262C58.3941 66.3274 57.9156 65.6887 58.0144 64.9996C58.1132 64.3106 58.7519 63.8321 59.4409 63.9309C60.4994 64.0827 61.2552 64.6921 61.75 65.0911C61.7802 65.1156 61.8095 65.1392 61.8378 65.1618C61.839 65.1625 61.8559 65.1742 61.8913 65.1929C61.9352 65.216 61.9884 65.2396 62.0425 65.2588C62.0471 65.2604 62.0515 65.262 62.0559 65.2634C62.0783 65.2429 62.1066 65.2156 62.1441 65.178C62.1681 65.154 62.191 65.1306 62.2179 65.1031C62.2277 65.0932 62.238 65.0826 62.2492 65.0713C62.2882 65.0316 62.3336 64.9856 62.3824 64.9379C62.446 64.8757 62.513 64.7934 62.617 64.6508C62.6335 64.6281 62.6523 64.6021 62.6729 64.5734C62.7616 64.45 62.8851 64.2783 63.0152 64.1223C63.2743 63.8118 63.644 63.5356 64.0098 63.3462C64.3385 63.1759 64.9267 62.9378 65.5677 63.0648L65.5873 63.0687C66.0551 63.1613 66.5613 63.2616 67.122 63.4701C67.5657 63.6351 67.7025 63.6615 67.9513 63.6352C68.0247 63.6274 68.0604 63.6187 68.0732 63.615C68.0883 63.6033 68.136 63.5626 68.2346 63.4493C68.2443 63.438 68.257 63.4229 68.2724 63.4046C68.3839 63.272 68.6367 62.9713 68.9395 62.7575C69.0428 62.6845 69.1236 62.5693 69.3955 62.1199C69.8762 61.3254 70.5629 60.9673 71.2816 60.7913C71.297 60.7875 71.3131 60.7835 71.3299 60.7794C71.5996 60.7126 72.0593 60.5989 72.5594 60.6283C72.8814 60.6472 73.1373 60.7318 73.3237 60.8077C73.4007 60.839 73.4747 60.8728 73.5233 60.895C73.5283 60.8973 73.533 60.8994 73.5374 60.9014C73.5933 60.9269 73.6248 60.9408 73.6531 60.952C74.1506 61.1489 74.6551 61.3396 75.1627 61.5267C75.198 61.5397 75.2842 61.5597 75.5 61.5262C75.6072 61.5096 75.7274 61.483 75.8763 61.446C75.9191 61.4353 75.9725 61.4217 76.0307 61.4068C76.1394 61.3789 76.2647 61.3469 76.3688 61.3223C76.4697 61.2984 76.5588 61.2782 76.641 61.2595C76.7426 61.2365 76.8337 61.2158 76.9241 61.1935L76.9766 61.1039C77.0043 61.0571 77.0377 61.0016 77.0758 60.9421C77.1914 60.7617 77.3205 60.6205 77.4117 60.5263C77.4586 60.4779 77.5045 60.4329 77.5398 60.3984L77.5526 60.3859C77.5846 60.3546 77.6077 60.3321 77.6301 60.3094C77.6369 60.3025 77.643 60.2963 77.6483 60.2908C77.8646 59.7001 78.4933 59.351 79.1208 59.4991C79.7983 59.659 80.2179 60.3378 80.0581 61.0152C79.9279 61.5667 79.575 61.9278 79.4219 62.0825C79.3834 62.1214 79.3443 62.1596 79.314 62.1892L79.3021 62.2008C79.267 62.2351 79.2429 62.2589 79.2222 62.2803C79.2047 62.2984 79.1947 62.3096 79.19 62.315C79.1681 62.3497 79.1498 62.3811 79.1231 62.4268C79.1104 62.4485 79.0958 62.4735 79.078 62.5036C79.0288 62.5871 78.9508 62.7172 78.8485 62.8492C78.6086 63.1586 78.2641 63.4419 77.757 63.5813C77.5518 63.6377 77.3259 63.6891 77.1378 63.7319C77.0685 63.7477 77.0043 63.7623 76.9482 63.7755C76.8966 63.7877 76.8294 63.805 76.7515 63.8249C76.5143 63.8858 76.1785 63.9719 75.8867 64.0172C75.4508 64.0848 74.8849 64.1109 74.2908 63.8919C73.7707 63.7002 73.2468 63.5022 72.7257 63.296C72.6317 63.2588 72.5483 63.2208 72.4921 63.1953C72.4309 63.1674 72.4025 63.1544 72.3772 63.144Z" fill="#A58466"/>
<path fill-rule="evenodd" clip-rule="evenodd" d="M71.3199 58.6741C71.2366 58.6754 71.1159 58.6983 70.8242 58.7698C70.6675 58.8082 70.6023 58.8434 70.5765 58.8604C70.5606 58.8708 70.5348 58.8891 70.4949 58.955C70.4792 58.981 70.4622 59.0096 70.444 59.0402C70.2485 59.3689 69.907 59.943 69.3381 60.3454C69.3373 60.3462 69.3192 60.3608 69.2787 60.4045C69.2551 60.4299 69.2288 60.4598 69.1949 60.4991C69.1858 60.5096 69.174 60.5235 69.1608 60.5389C69.1351 60.5689 69.1044 60.6048 69.0796 60.6333C68.8749 60.8688 68.6189 61.1316 68.2703 61.3323C67.9056 61.5423 67.5321 61.6327 67.159 61.6721C66.3212 61.7607 65.7391 61.5686 65.186 61.3629C64.8662 61.2439 64.5705 61.1776 64.1543 61.0942C64.1415 61.0999 64.1273 61.1067 64.1118 61.1147C64.0574 61.1429 64.002 61.1786 63.955 61.2149C63.9115 61.2484 63.8922 61.2692 63.8921 61.2691C63.892 61.2691 63.8925 61.2686 63.8934 61.2674C63.8267 61.3474 63.7723 61.4229 63.6925 61.5336C63.6643 61.5727 63.6329 61.6162 63.5967 61.6659C63.4745 61.8336 63.307 62.0558 63.0872 62.2707C63.0706 62.2869 63.0484 62.3107 63.0207 62.3405C62.804 62.5732 62.2492 63.169 61.406 63.3133C60.9106 63.3981 60.4294 63.2663 60.143 63.1648C59.8276 63.053 59.4807 62.8803 59.2102 62.6638C58.6087 62.1825 58.356 62.0036 58.0259 61.9563C57.3369 61.8575 56.8584 61.2188 56.9572 60.5298C57.056 59.8407 57.6947 59.3622 58.3837 59.461C59.4422 59.6128 60.1979 60.2223 60.6927 60.6213C60.723 60.6457 60.7523 60.6693 60.7806 60.692C60.7818 60.6926 60.7986 60.7044 60.8341 60.723C60.878 60.7461 60.9311 60.7697 60.9852 60.7889C60.9898 60.7905 60.9943 60.7921 60.9986 60.7936C61.021 60.773 61.0494 60.7457 61.0869 60.7081C61.1108 60.6841 61.1337 60.6608 61.1607 60.6333C61.1705 60.6233 61.1808 60.6127 61.1919 60.6014C61.2309 60.5617 61.2763 60.5157 61.3251 60.4681C61.3888 60.4058 61.4558 60.3235 61.5598 60.1809C61.5763 60.1583 61.595 60.1322 61.6156 60.1035C61.7044 59.9801 61.8278 59.8084 61.958 59.6525C62.217 59.342 62.5868 59.0658 62.9525 58.8763C63.2813 58.7061 63.8695 58.468 64.5105 58.5949L64.53 58.5988C64.9978 58.6914 65.5041 58.7917 66.0647 59.0002C66.5084 59.1652 66.6452 59.1916 66.894 59.1653C66.9675 59.1576 67.0032 59.1488 67.0159 59.1451C67.031 59.1335 67.0788 59.0927 67.1773 58.9794C67.1871 58.9681 67.1998 58.953 67.2152 58.9347C67.3267 58.8021 67.5794 58.5014 67.8822 58.2876C67.9856 58.2146 68.0663 58.0994 68.3382 57.6501C68.8189 56.8556 69.5057 56.4975 70.2244 56.3214C70.2397 56.3176 70.2558 56.3136 70.2727 56.3095C70.5423 56.2428 71.0021 56.129 71.5021 56.1584C71.8242 56.1773 72.0801 56.2619 72.2665 56.3378C72.3434 56.3691 72.4175 56.4029 72.4661 56.4251C72.471 56.4274 72.4757 56.4295 72.4801 56.4315C72.5361 56.457 72.5676 56.4709 72.5959 56.4821C73.0934 56.679 73.5979 56.8697 74.1055 57.0569C74.1407 57.0699 74.2269 57.0899 74.4427 57.0564C74.55 57.0397 74.6701 57.0131 74.8191 56.9761C74.8619 56.9655 74.9153 56.9518 74.9735 56.9369C75.0821 56.9091 75.2074 56.877 75.3116 56.8524C75.4125 56.8286 75.5015 56.8083 75.5838 56.7897C75.6853 56.7666 75.7765 56.7459 75.8668 56.7236L75.9193 56.634C75.947 56.5872 75.9804 56.5317 76.0186 56.4722C76.1342 56.2918 76.2632 56.1506 76.3545 56.0564C76.4014 56.008 76.4473 55.963 76.4826 55.9285L76.4953 55.9161C76.5274 55.8847 76.5504 55.8622 76.5729 55.8395C76.5797 55.8326 76.5857 55.8264 76.591 55.8209C76.8074 55.2302 77.436 54.8811 78.0636 55.0292C78.7411 55.1891 79.1607 55.8679 79.0008 56.5454C78.8707 57.0968 78.5177 57.4579 78.3646 57.6126C78.3262 57.6515 78.287 57.6897 78.2567 57.7193L78.2448 57.731C78.2098 57.7652 78.1856 57.7891 78.1649 57.8105C78.1474 57.8285 78.1375 57.8397 78.1328 57.8451C78.1109 57.8798 78.0926 57.9112 78.0658 57.957C78.0531 57.9787 78.0385 58.0036 78.0208 58.0338C77.9715 58.1172 77.8935 58.2474 77.7912 58.3793C77.5514 58.6888 77.2069 58.972 76.6997 59.1115C76.4945 59.1679 76.2687 59.2192 76.0806 59.262C76.0113 59.2778 75.9471 59.2924 75.891 59.3057C75.8394 59.3178 75.7722 59.3351 75.6943 59.355C75.4571 59.4159 75.1213 59.502 74.8294 59.5473C74.3936 59.615 73.8277 59.6411 73.2336 59.422C72.7134 59.2303 72.1895 59.0323 71.6684 58.8261C71.5744 58.7889 71.491 58.751 71.4349 58.7254C71.3736 58.6975 71.3452 58.6845 71.3199 58.6741Z" fill="#A58466"/>
<path fill-rule="evenodd" clip-rule="evenodd" d="M62.2931 70.3152C62.3566 70.3097 62.4037 70.3057 62.5137 70.2882C62.8539 70.2342 63.1727 70.2105 63.4176 70.1923C63.4397 70.1906 63.4613 70.189 63.4822 70.1874C63.7623 70.1663 63.9091 70.1505 64.016 70.1253C64.6571 69.9739 65.623 69.8775 66.5018 70.3616C66.5782 70.4037 66.6539 70.435 66.8041 70.4971C66.8307 70.5081 66.8596 70.5201 66.8912 70.5332C67.0724 70.6084 67.3428 70.7234 67.6145 70.9056C67.9641 71.1399 68.2232 71.375 68.4593 71.5908C68.5288 71.6542 68.5827 71.6912 68.6855 71.7617C68.7449 71.8025 68.8208 71.8545 68.9254 71.9293C69.1628 72.0991 69.4988 72.3606 69.7705 72.7775C70.1617 73.3778 70.2995 73.9657 70.4058 74.4186C70.4115 74.4429 70.4171 74.4668 70.4226 74.4902C70.5189 74.8982 70.6628 75.573 70.6235 76.1982C70.5778 76.9248 70.3471 77.6132 70.1764 78.1227C70.1356 78.2443 70.0982 78.3557 70.0676 78.4551C70.0612 78.4759 70.0547 78.4971 70.048 78.5188C69.8363 79.2084 69.4839 80.3563 68.5379 81.1223C68.4867 81.1638 68.4265 81.2282 68.2844 81.3956C68.2772 81.4041 68.2696 81.4131 68.2617 81.4224C68.1431 81.5625 67.9511 81.7894 67.7142 81.9871C67.5747 82.1035 67.4401 82.1756 67.3491 82.2188C67.3359 82.225 67.3231 82.2309 67.311 82.2364C67.0044 82.5229 66.6486 82.6732 66.4088 82.7489C65.6552 82.9869 64.5516 83.3095 63.4878 83.2426C63.3996 83.237 63.3484 83.2378 63.2711 83.2391C63.2077 83.2401 63.1268 83.2413 62.9935 83.2396C62.7599 83.2366 62.4427 83.2189 62.0887 83.1117C61.9038 83.0557 61.7285 82.9927 61.5806 82.939C61.5602 82.9316 61.5402 82.9243 61.5209 82.9173C61.3916 82.8702 61.2849 82.8314 61.1773 82.7962C60.4646 82.5626 59.9765 82.0875 59.6587 81.7463C59.5138 81.5907 59.4062 81.4685 59.3169 81.3671C59.1652 81.1948 59.0664 81.0826 58.9267 80.9684C58.4339 80.5656 58.1531 80.0037 58.0074 79.6956C57.9898 79.6583 57.9659 79.6104 57.9376 79.5539C57.8034 79.2857 57.5722 78.8237 57.4634 78.3855C57.3409 77.892 57.2634 77.3824 57.2545 76.8456C57.2492 76.5267 57.3042 76.2621 57.3556 76.065C57.3757 75.9878 57.3985 75.9095 57.4155 75.8513C57.4186 75.8406 57.4215 75.8306 57.4241 75.8215C57.4429 75.7568 57.4557 75.7105 57.4659 75.6681C57.4665 75.6636 57.4681 75.6494 57.4694 75.6221C57.4715 75.5803 57.4718 75.5448 57.4722 75.4876C57.4725 75.4613 57.4727 75.4304 57.4732 75.3922L57.4733 75.3862C57.4756 75.1997 57.4806 74.8117 57.6389 74.4105C57.7728 74.0712 57.8969 73.7263 58.0177 73.3696C58.2343 72.7305 58.6652 72.2914 58.973 72.0122C59.0963 71.9004 59.2297 71.7888 59.3375 71.6987C59.3646 71.6759 59.3901 71.6546 59.4135 71.6349C59.5446 71.5245 59.633 71.446 59.6999 71.3768C60.0411 71.0239 60.405 70.8548 60.6822 70.7522C60.7669 70.7209 60.8712 70.6864 60.9409 70.6634C60.9631 70.6561 60.9818 70.6499 60.9953 70.6454C61.0738 70.6188 61.1211 70.6005 61.1591 70.5827C61.4864 70.4299 61.784 70.3751 62.0132 70.3457C62.162 70.3266 62.2345 70.3203 62.2931 70.3152ZM67.1786 82.2922C67.1786 82.2922 67.1798 82.2916 67.1825 82.2905C67.1799 82.2916 67.1786 82.2922 67.1786 82.2922ZM62.2256 72.8668L62.2255 72.8668C62.0638 72.9423 61.9155 72.9952 61.8031 73.0332C61.7486 73.0516 61.7094 73.0645 61.6776 73.075C61.6303 73.0905 61.599 73.1008 61.5573 73.1162C61.529 73.1267 61.5122 73.1339 61.5033 73.1381C61.343 73.3028 61.1738 73.448 61.0376 73.5628C60.9999 73.5945 60.965 73.6238 60.9321 73.6513C60.8307 73.7362 60.7488 73.8047 60.6665 73.8794C60.4474 74.0781 60.4108 74.1619 60.4052 74.1786C60.2789 74.5512 60.1454 74.9237 59.9986 75.2978C59.9972 75.3162 59.9947 75.3553 59.9938 75.4243C59.9936 75.4366 59.9935 75.4518 59.9934 75.4693C59.9928 75.5401 59.9919 75.6474 59.9872 75.7446C59.9808 75.8771 59.9656 76.0508 59.9207 76.241C59.895 76.35 59.867 76.4481 59.8454 76.5228C59.8409 76.5382 59.8368 76.5524 59.8329 76.5656C59.8163 76.6231 59.8052 76.661 59.7949 76.7006C59.7741 76.7806 59.7748 76.8009 59.7749 76.8036C59.7749 76.8037 59.7749 76.8038 59.7749 76.8039C59.7801 77.1208 59.8258 77.4392 59.91 77.7783C59.9456 77.9218 60.0056 78.0433 60.1134 78.2617C60.1611 78.3582 60.2181 78.4737 60.2864 78.6183C60.3461 78.7446 60.3987 78.8434 60.4488 78.9202C60.496 78.9927 60.5228 79.0171 60.5227 79.0172C60.5227 79.0172 60.5225 79.017 60.522 79.0167C60.7484 79.2017 60.9402 79.4027 61.0941 79.5718C61.1824 79.669 61.244 79.7389 61.2995 79.8019C61.3646 79.8758 61.4214 79.9403 61.5032 80.0281C61.7553 80.2987 61.8813 80.3742 61.9622 80.4007C62.1119 80.4497 62.2606 80.5039 62.3867 80.5499C62.4055 80.5567 62.4237 80.5633 62.4414 80.5698C62.5873 80.6228 62.7063 80.6649 62.8195 80.6992C62.8467 80.7074 62.8945 80.7174 63.0261 80.7191C63.0762 80.7197 63.1194 80.7193 63.1754 80.7188C63.2052 80.7185 63.2387 80.7182 63.2787 80.718C63.3802 80.7175 63.5074 80.7181 63.6461 80.7268C64.1806 80.7604 64.863 80.5926 65.6247 80.353C65.8346 80.1376 66.0613 80.0284 66.1739 79.98C66.2174 79.9339 66.2745 79.8681 66.3627 79.7643C66.3672 79.7589 66.3719 79.7535 66.3766 79.7478C66.4995 79.603 66.6988 79.368 66.9516 79.1632C67.2364 78.9326 67.4094 78.5217 67.6586 77.7129C67.7267 77.4919 67.7883 77.3053 67.8427 77.1406C67.9905 76.6934 68.0845 76.4087 68.1077 76.04C68.1212 75.8248 68.065 75.475 67.9693 75.0696C67.847 74.5519 67.7943 74.3621 67.6585 74.1536C67.6438 74.1311 67.6109 74.0883 67.459 73.9797C67.4208 73.9524 67.3804 73.9244 67.3302 73.8899L67.3214 73.8839C67.2758 73.8525 67.2215 73.8151 67.1667 73.7762C67.0492 73.6927 66.9051 73.5853 66.7588 73.4515C66.5268 73.2395 66.3889 73.1188 66.211 72.9995C66.1607 72.9658 66.0887 72.9294 65.9245 72.8612C65.9066 72.8538 65.8865 72.8456 65.8646 72.8366C65.721 72.7778 65.4976 72.6864 65.2855 72.5696C65.2157 72.5311 65.0004 72.4829 64.5954 72.5786C64.2666 72.6562 63.9262 72.6819 63.673 72.701L63.6718 72.7011C63.6542 72.7024 63.6369 72.7037 63.6197 72.705C63.3612 72.7244 63.1413 72.7409 62.9088 72.7778C62.7742 72.7992 62.6536 72.8124 62.5575 72.8222C62.5289 72.8252 62.504 72.8277 62.4816 72.8299C62.4205 72.8361 62.3786 72.8403 62.334 72.846C62.2813 72.8527 62.2553 72.8582 62.2416 72.8616C62.2308 72.8643 62.2273 72.866 62.2256 72.8668ZM61.4945 73.1426C61.4944 73.1426 61.4953 73.1421 61.4974 73.141C61.4957 73.142 61.4946 73.1426 61.4945 73.1426Z" fill="#A58466"/>
<path fill-rule="evenodd" clip-rule="evenodd" d="M68.9615 75.9541C68.81 75.2747 69.2379 74.6011 69.9173 74.4495C70.3462 74.3539 70.7613 74.3326 71.0647 74.3171C71.0789 74.3164 71.0929 74.3157 71.1066 74.3149C71.4464 74.2974 71.6592 74.2824 71.8544 74.2363L75.0021 73.4929C75.6795 73.3329 76.3584 73.7524 76.5184 74.4298C76.6784 75.1073 76.2589 75.7862 75.5815 75.9462L72.4338 76.6896C71.9948 76.7933 71.5702 76.8152 71.261 76.8311C71.2529 76.8315 71.2448 76.8319 71.2369 76.8324C70.8925 76.8502 70.673 76.8637 70.466 76.9099C69.7866 77.0614 69.113 76.6335 68.9615 75.9541Z" fill="#A58466"/>
<path fill-rule="evenodd" clip-rule="evenodd" d="M79.467 65.8193C79.6411 65.791 79.7669 65.7705 79.9167 65.7351C79.9282 65.7324 79.9423 65.729 79.9586 65.725C80.0494 65.7031 80.2092 65.6645 80.3645 65.6377C80.531 65.6091 80.8414 65.5646 81.1713 65.6222C81.1713 65.6222 81.1815 65.6239 81.2095 65.626C81.239 65.6282 81.2692 65.6296 81.3215 65.632L81.3476 65.6332C81.4523 65.638 81.6493 65.647 81.8603 65.6908C82.1526 65.7515 82.4009 65.8685 82.5242 65.9266C82.5294 65.929 82.5344 65.9314 82.5392 65.9336C82.6921 66.0055 82.7117 66.0116 82.7117 66.0116C82.7117 66.0116 82.7118 66.0116 82.7117 66.0116C83.4133 66.1894 84.0609 66.5036 84.6246 66.8708C84.9851 67.1056 85.3033 67.3747 85.5579 67.59C85.575 67.6045 85.5919 67.6188 85.6085 67.6328C85.667 67.6823 85.7129 67.7158 85.7831 67.767C85.8326 67.8032 85.8942 67.8482 85.9808 67.9138C86.1441 68.0374 86.3833 68.2276 86.5921 68.4868C87.0678 69.0774 87.1751 69.7316 87.2377 70.1139C87.2392 70.1229 87.2407 70.1318 87.2421 70.1405C87.2623 70.2632 87.2879 70.3881 87.319 70.5368C87.3213 70.5479 87.3237 70.5592 87.3261 70.5707C87.3542 70.7044 87.387 70.861 87.4147 71.02C87.4761 71.3725 87.5253 71.8038 87.4675 72.289C87.4519 72.42 87.451 72.5715 87.4568 72.7981C87.4576 72.8263 87.4584 72.8564 87.4593 72.8882C87.465 73.0821 87.4724 73.3372 87.4592 73.5889C87.4342 74.0651 87.3685 74.5304 87.284 74.97C87.1981 75.4173 87.0693 75.8631 86.9074 76.2846C86.9074 76.2846 86.9056 76.2895 86.9019 76.301C86.8974 76.315 86.8919 76.3332 86.8841 76.3601C86.8817 76.3683 86.8788 76.3784 86.8755 76.3899C86.8616 76.4382 86.8404 76.5122 86.8189 76.5795C86.7694 76.7345 86.6591 77.0616 86.4081 77.3544C85.7544 78.1173 85.0565 78.4773 84.3105 78.7699C83.2497 79.186 82.2498 79.3498 81.1553 79.3606C80.1808 79.3702 79.4232 79.1469 78.6382 78.823C78.1943 78.6399 77.8498 78.3818 77.5887 78.1633C77.4759 78.0689 77.3659 77.9706 77.2732 77.8878C77.2604 77.8764 77.248 77.8653 77.236 77.8546C77.1294 77.7595 77.0423 77.683 76.9569 77.6142C76.7258 77.4282 76.4781 77.1551 76.3553 77.0196C76.3271 76.9885 76.3054 76.9646 76.2921 76.9508C76.2306 76.8868 76.1747 76.8343 76.0981 76.7622C76.061 76.7273 76.019 76.6877 75.969 76.6401C75.8365 76.5136 75.6644 76.3437 75.5024 76.1356C75.2895 75.8623 75.1508 75.5694 75.0681 75.3949L75.0597 75.3771C74.9641 75.1751 74.9271 75.0969 74.8838 75.0318C74.5984 74.6017 74.4343 74.094 74.339 73.7991C74.3304 73.7725 74.3224 73.7476 74.3149 73.7247C74.0219 72.831 73.9024 71.6523 74.1389 70.65C74.42 69.4585 75.0088 68.4536 75.7739 67.5981C76.1187 67.2126 76.4584 66.8485 77.0976 66.5124C77.6321 66.2314 78.1437 66.1083 78.5885 66.0013C78.6532 65.9857 78.7166 65.9705 78.7784 65.9552C79.0484 65.8881 79.2699 65.8514 79.4507 65.822L79.467 65.8193ZM79.856 68.3099C79.6855 68.3377 79.5496 68.361 79.3856 68.4017C79.3093 68.4206 79.2391 68.4379 79.1742 68.4539C78.7059 68.569 78.5122 68.6166 78.2706 68.7436C78.0383 68.8658 77.941 68.9564 77.6529 69.2785C77.1185 69.876 76.7611 70.5136 76.5923 71.229C76.4827 71.6935 76.5313 72.3938 76.7102 72.9394C76.8384 73.3305 76.9031 73.5157 76.9841 73.6378C77.1353 73.8656 77.2518 74.1143 77.3229 74.266C77.3314 74.2841 77.3392 74.3009 77.3464 74.3161C77.4329 74.4986 77.4686 74.5579 77.4912 74.5868C77.5364 74.6449 77.6 74.7121 77.7096 74.8167C77.7301 74.8362 77.7548 74.8595 77.7824 74.8854C77.8751 74.9727 78.0007 75.0908 78.1094 75.2039C78.2335 75.3329 78.3076 75.4156 78.3615 75.4757C78.4328 75.5551 78.4687 75.5951 78.5376 75.6507C78.6773 75.7631 78.8061 75.8773 78.9139 75.9734C78.9273 75.9853 78.9403 75.997 78.9531 76.0084C79.0491 76.0941 79.1271 76.1637 79.2068 76.2304C79.3829 76.3778 79.4991 76.4513 79.5996 76.4927C80.2022 76.7414 80.6112 76.845 81.1305 76.8399C81.9614 76.8317 82.6523 76.7126 83.39 76.4232C83.8923 76.2262 84.166 76.0692 84.4237 75.7929C84.4305 75.7708 84.437 75.7484 84.4459 75.7174C84.4509 75.7001 84.4567 75.6799 84.4638 75.6556C84.4827 75.5907 84.5131 75.4876 84.5542 75.3807C84.6643 75.0944 84.7514 74.7917 84.8085 74.4943C84.877 74.1382 84.9243 73.7906 84.9419 73.4568C84.9493 73.3155 84.9454 73.1757 84.94 72.9777C84.939 72.9415 84.9379 72.9035 84.9369 72.8631C84.9308 72.6276 84.9255 72.3178 84.9645 71.9909C84.9815 71.8482 84.9722 71.6876 84.9313 71.4524C84.9113 71.3378 84.887 71.2215 84.8569 71.0782L84.8517 71.0533C84.821 70.9063 84.7849 70.7326 84.7548 70.5497C84.6876 70.1413 84.6524 70.0972 84.6289 70.068C84.6201 70.057 84.5831 70.0174 84.4589 69.9232C84.4186 69.8927 84.3847 69.8678 84.3443 69.8382C84.3177 69.8187 84.2882 69.797 84.2522 69.7704C84.1743 69.7126 84.0786 69.6403 83.982 69.5586L83.9723 69.5504C83.6833 69.3064 83.4742 69.1298 83.2489 68.9831C82.8666 68.7341 82.4722 68.5514 82.0922 68.455C81.8354 68.3899 81.6064 68.2812 81.494 68.2278C81.484 68.2231 81.475 68.2188 81.4669 68.215C81.3886 68.1782 81.3523 68.1632 81.34 68.1581C81.3263 68.1568 81.2935 68.1541 81.2217 68.1508C81.2145 68.1505 81.2066 68.1501 81.1979 68.1498C81.1171 68.1463 80.9733 68.14 80.8172 68.118C80.81 68.119 80.8017 68.1203 80.7922 68.122C80.7572 68.128 80.7155 68.1367 80.6639 68.1485C80.6385 68.1543 80.6126 68.1605 80.5844 68.1673L80.4961 68.1884C80.2573 68.2448 80.0525 68.278 79.8889 68.3046C79.8778 68.3064 79.8668 68.3082 79.856 68.3099Z" fill="#A58466"/>
<path fill-rule="evenodd" clip-rule="evenodd" d="M77.3104 80.1612C77.8185 80.0412 78.3277 80.3558 78.4477 80.8639C78.5464 81.282 78.4843 81.7108 78.3794 82.0449C78.2743 82.3798 78.084 82.754 77.7884 83.0331C77.6838 83.1319 77.5997 83.2317 77.4815 83.3721C77.4391 83.4224 77.3923 83.4779 77.3387 83.5404C77.1585 83.7503 76.9135 84.0207 76.5791 84.2421C76.0992 84.5599 75.5402 84.6811 75.1852 84.7581C75.1286 84.7704 75.0771 84.7816 75.032 84.7922C74.9666 84.8077 74.8974 84.8251 74.8247 84.8434C74.2712 84.9828 73.5162 85.1729 72.6634 84.9348C72.3099 84.8361 71.9354 84.6577 71.6067 84.4244C71.2849 84.1959 70.9377 83.8653 70.7301 83.4277C70.5063 82.956 70.7072 82.3923 71.1789 82.1685C71.6506 81.9447 72.2144 82.1456 72.4381 82.6173C72.4598 82.663 72.5355 82.7652 72.7011 82.8828C72.86 82.9955 73.0375 83.0764 73.1718 83.1139C73.5181 83.2106 73.7737 83.1493 74.3772 83.0048C74.4459 82.9883 74.5191 82.9708 74.5975 82.9523C74.6889 82.9307 74.7707 82.9119 74.8444 82.895C75.2039 82.8125 75.372 82.7739 75.5353 82.6658C75.6423 82.5949 75.7483 82.4906 75.904 82.3092C75.9298 82.2791 75.9588 82.2446 75.9905 82.2068C76.1207 82.0516 76.297 81.8416 76.4873 81.6614C76.4887 81.6598 76.4994 81.6471 76.5154 81.6191C76.5365 81.5824 76.5583 81.5338 76.5756 81.4786C76.593 81.4233 76.6023 81.3729 76.6054 81.3338C76.6074 81.3093 76.6065 81.2958 76.6062 81.2922C76.4903 80.7862 76.8044 80.2807 77.3104 80.1612Z" fill="#A58466"/>
<path fill-rule="evenodd" clip-rule="evenodd" d="M38.5494 64.4487C37.9513 63.6061 36.9634 62.5949 35.4111 62.0182C33.8679 61.445 30.6225 60.9088 27.8808 63.1817C26.9277 63.741 25.9942 64.5594 25.2966 65.709C24.5246 66.9812 24.3036 68.2283 24.2519 69.1055C24.2054 69.8923 24.2894 70.5714 24.32 70.8192C24.3207 70.825 24.3214 70.8305 24.322 70.8357C24.3431 71.0065 24.3523 71.0814 24.3555 71.1044C24.5256 73.754 26.3401 75.9175 28.7509 76.6472C28.8066 76.6905 28.8636 76.7334 28.9219 76.7757C30.0975 77.6297 31.3004 77.9239 32.146 78.0193C32.965 78.1117 33.6446 78.0408 34.0265 77.987C34.4043 77.9338 34.7292 77.8599 34.8468 77.8331L34.8587 77.8304C34.8718 77.8274 34.8836 77.8248 34.8941 77.8224C36.635 77.5097 38.3183 76.5591 39.4657 74.9302C40.5432 73.4004 40.7883 71.7888 40.7883 70.6649C40.7883 67.6524 39.2392 65.3913 38.5494 64.4487ZM36.6356 69.261C36.6359 69.2616 36.6374 69.2745 36.6393 69.2978C36.6363 69.272 36.6354 69.2604 36.6356 69.261Z" fill="#BEBEBF"/>
<path d="M28.1069 57.8414C27.7787 58.7861 27.5079 59.7264 27.441 60.729C27.4328 60.8518 27.4031 61.8141 27.3788 61.7995C27.1877 61.6849 27.2398 59.9398 27.3788 59.6897C27.7541 59.0142 27.9949 60.7001 27.9949 60.8909C27.9949 61.0362 28.0564 61.9074 27.7957 61.9364C27.7606 61.9403 27.7709 61.163 27.7709 61.09" stroke="#BEBEBF" stroke-linecap="round"/>
<path d="M194.423 51.5004C194.423 53.4369 193.577 59.2999 193.115 61.1349C192.675 62.8873 191.654 64.3796 190.951 65.9413C190.776 66.3299 190.038 67.9762 189.621 67.9081C189.362 67.8659 189.802 66.7979 189.835 66.7169C190.215 65.7952 190.449 64.9056 190.472 63.8428C190.488 63.0954 190.544 62.2593 190.375 61.5365C190.203 60.8023 189.994 60.0771 189.876 59.3203C189.828 59.0127 189.835 58.0639 189.835 58.3784C189.835 59.4037 189.824 60.4189 189.738 61.4396C189.671 62.2462 189.468 62.9807 189.468 63.7805" stroke="#BEBEBF" stroke-width="4" stroke-linecap="round"/>
<path d="M141.803 28.1418C140.762 27.486 139.37 27.743 138.184 27.743C137.027 27.743 136.025 27.8337 135.016 28.4224C133.94 29.05 132.975 29.8341 131.936 30.5052C130.988 31.1173 130.677 31.7766 130.149 32.6913C129.651 33.5527 129.192 34.4361 128.642 35.2614C128.248 35.8524 128.153 36.7169 127.911 37.3885C127.592 38.2744 127.383 39.2989 127.305 40.2319C127.255 40.8417 126.964 41.4099 126.921 42.0266C126.882 42.5932 126.914 43.1727 126.914 43.74C126.914 45.673 126.515 47.5606 126.515 49.5007C126.515 50.8085 126.579 52.0047 126.98 53.2526C127.041 53.4421 127.254 54.4294 127.401 54.5229C127.884 54.8299 128.274 54.3016 128.376 53.9025C128.616 52.9675 128.847 52.4237 129.41 51.6425C130.357 50.3286 131.334 49.0912 132.409 47.8759C133.183 47.0008 133.691 45.9698 134.299 44.9808C135.522 42.9942 136.909 41.0791 138.214 39.1462C138.694 38.4347 139.052 37.7253 139.853 37.3442C140.404 37.0822 140.898 36.7219 141.404 36.384" stroke="#BEBEBF" stroke-width="12" stroke-linecap="round"/>
<path fill-rule="evenodd" clip-rule="evenodd" d="M188.736 59.8533C186.925 57.3451 183.454 56.7025 180.868 58.438C180.162 58.9123 179.687 59.4344 179.414 59.7677C179.369 59.8218 179.328 59.8739 179.29 59.9232C178.767 60.3729 178.388 60.799 178.185 61.0298C178.075 61.1546 177.921 61.3344 177.832 61.4383C177.804 61.4714 177.782 61.4969 177.771 61.5103C177.724 61.5638 177.696 61.5957 177.681 61.6122C177.667 61.6257 177.641 61.6489 177.601 61.6848C177.589 61.6955 177.573 61.7096 177.554 61.7264C177.463 61.8073 177.301 61.9509 177.156 62.0852C176.861 62.3588 176.173 63.0049 175.592 63.9355L175.545 63.997C175.524 64.0256 175.495 64.0632 175.465 64.1041C175.434 64.1452 175.396 64.196 175.355 64.2529C174.936 64.8329 174.68 65.3808 174.523 65.7727C174.454 65.9444 174.397 66.1076 174.351 66.2434C173.873 67.0378 173.228 68.1889 172.794 69.4114C172.03 71.5659 172.018 73.3853 172.018 74.7097C172.018 76.6488 172.161 78.6572 172.895 80.9557C172.929 81.0611 172.973 81.2319 173.062 81.6357C173.071 81.6767 173.081 81.7221 173.092 81.7715C173.166 82.1125 173.281 82.638 173.422 83.1495C173.864 84.7503 174.829 86.4163 176.575 87.5549C178.19 88.6087 179.869 88.8098 181.027 88.8098C182.765 88.8098 184.561 88.4879 186.292 87.52C187.934 86.6027 189.073 85.3464 189.897 84.2955C190.486 83.544 190.819 82.8256 190.967 82.4986C191.002 82.4215 191.035 82.3469 191.056 82.2996L191.06 82.2888L191.076 82.2538C191.101 82.2155 191.146 82.149 191.224 82.0377C191.237 82.0187 191.253 81.9967 191.27 81.9718C191.41 81.7722 191.677 81.3923 191.924 80.9851C192.098 80.6985 192.246 80.4279 192.346 80.2439C192.384 80.1729 192.415 80.1152 192.442 80.0656C192.499 79.9601 192.535 79.8916 192.581 79.8106C192.597 79.7826 192.61 79.7598 192.62 79.7417C193.551 78.6492 193.988 77.4939 194.14 77.0911C194.146 77.0753 194.152 77.0605 194.157 77.0471C194.2 76.9332 194.21 76.907 194.218 76.8861C194.22 76.8802 194.222 76.8747 194.225 76.8678C194.736 76.0135 194.974 75.192 195.096 74.605C195.237 73.9255 195.268 73.3217 195.275 72.9141C195.282 72.5004 195.265 72.124 195.255 71.9158C195.243 71.6695 195.242 71.63 195.241 71.63C195.241 71.63 195.241 71.6311 195.241 71.6326C195.241 70.7502 195.118 69.9453 195.059 69.5615C195.056 69.5388 195.053 69.5176 195.05 69.498C195.008 69.2247 194.994 69.1103 194.99 69.0817C194.979 67.9651 194.723 67.051 194.434 66.3454C194.32 66.0677 194.202 65.8293 194.158 65.7385C194.156 65.7339 194.153 65.7297 194.152 65.7258C194.124 65.6701 194.112 65.6448 194.108 65.6365C193.997 65.3871 193.888 65.1833 193.81 65.0443C193.784 64.998 193.758 64.954 193.734 64.9129C193.041 62.9343 191.613 61.8503 191.155 61.51C191.017 61.4078 190.888 61.3177 190.799 61.2564C190.137 60.6032 189.421 60.1578 188.736 59.8533Z" fill="#FDEAD8"/>
<path fill-rule="evenodd" clip-rule="evenodd" d="M151.821 29.5336C148.865 29.4313 144.751 29.2889 140.898 30.1726C140.826 30.189 140.68 30.2189 140.48 30.2598C139.7 30.4192 138.101 30.7462 136.892 31.099C135.457 31.5175 132.513 32.4781 130.44 34.901C130.428 34.9132 130.406 34.9356 130.37 34.9701C130.319 35.0192 130.266 35.0685 130.182 35.1481L130.156 35.1726C130.067 35.2562 129.943 35.3731 129.813 35.4998C129.371 35.9297 128.542 36.7636 127.848 37.9849C127.821 38.0132 127.793 38.0434 127.758 38.0807C127.73 38.1109 127.698 38.1458 127.658 38.1883L127.653 38.1934C127.455 38.4061 127.065 38.8247 126.681 39.3267C126.358 39.7498 125.963 40.3282 125.615 41.0553C125.6 41.0777 125.585 41.1009 125.57 41.1243C125.3 41.5409 124.482 42.8104 124.273 44.6448C124.221 44.7536 124.159 44.8779 124.064 45.0669L124.005 45.1854C123.755 45.6835 123.284 46.6221 122.94 47.7326C122.349 49.637 122.302 51.9406 122.285 52.7857C122.284 52.8226 122.283 52.8567 122.283 52.8878C122.268 53.5692 122.251 54.031 122.205 54.4213C122.193 54.5261 122.181 54.6023 122.172 54.6535C122.147 54.7052 122.121 54.7598 122.094 54.8173C121.632 55.7909 120.788 57.5675 120.351 59.4268C119.698 62.1995 119.194 64.8867 118.731 67.5726C118.488 68.9803 118.476 70.3081 118.492 71.2787C118.503 71.9362 118.518 72.3089 118.53 72.6191C118.543 72.9464 118.553 73.2041 118.553 73.6532C118.553 74.2608 118.532 74.7087 118.505 75.2698C118.483 75.7358 118.458 76.2798 118.437 77.0582C118.402 78.4043 118.406 80.2035 118.765 82.0522C119.113 83.8377 119.733 85.3402 120.223 86.4332C120.464 86.9721 120.646 87.3599 120.798 87.6827C121.02 88.1569 121.177 88.491 121.36 88.9583C122.137 90.9434 123.589 93.6734 125.754 95.691C125.803 95.7652 125.88 95.8841 126.026 96.1139C126.043 96.1407 126.062 96.1706 126.083 96.2032C126.432 96.7559 127.283 98.102 128.621 99.2342C128.72 99.3179 128.83 99.4164 129.038 99.6036L129.048 99.6126C129.229 99.7752 129.493 100.012 129.78 100.253C130.352 100.734 131.27 101.454 132.479 102.024C133.803 102.65 135.098 103.147 136.295 103.573C136.948 103.805 137.523 103.922 137.894 103.987C137.93 103.993 137.966 103.999 138.001 104.005C138.072 104.049 138.146 104.093 138.219 104.137C138.675 104.406 139.733 105.021 141.085 105.352C145.424 106.412 149.848 106.192 154.159 104.547C154.602 104.378 154.978 104.203 155.252 104.071C155.389 104.005 155.514 103.942 155.61 103.894C155.717 103.84 155.778 103.809 155.845 103.776C155.851 103.773 155.856 103.77 155.862 103.768C156.436 103.623 157.018 103.465 157.523 103.328C157.704 103.278 157.876 103.232 158.033 103.19C158.114 103.168 158.246 103.136 158.417 103.095C159.21 102.903 160.845 102.508 162.161 101.974C163.704 101.347 165.182 100.597 166.677 99.6C166.953 99.4158 167.254 99.2287 167.675 98.9673L167.684 98.9619C168.07 98.7219 168.564 98.415 169.064 98.0798C170.062 97.4099 171.386 96.4309 172.566 95.0297C172.677 94.8981 172.786 94.7766 172.973 94.5691C173.037 94.4983 173.11 94.4175 173.195 94.3228C173.478 94.0079 173.878 93.5578 174.278 93.0441C174.99 92.1285 176.029 90.6072 176.51 88.5522C176.534 88.5097 176.562 88.46 176.596 88.4026C176.605 88.3858 176.616 88.3675 176.628 88.3476C176.771 88.1002 177.053 87.6145 177.307 87.0793C177.602 86.4588 177.937 85.6243 178.14 84.6084C178.225 84.1806 178.376 83.7132 178.67 83.0445C179.149 81.9557 179.401 80.9229 179.55 80.2561C179.657 79.7736 179.704 79.5356 179.738 79.3603C179.773 79.1844 179.795 79.0717 179.853 78.8383C179.909 78.6156 179.958 78.448 180.031 78.1934C180.076 78.0401 180.129 77.8551 180.199 77.6076C180.352 77.0651 180.558 76.2975 180.698 75.4225C180.95 73.846 181.33 72.3049 181.729 71.3578C182.252 70.1145 182.579 68.9219 182.807 68.0531C182.87 67.8123 182.925 67.6001 182.975 67.4087C183.13 66.8085 183.231 66.4143 183.369 65.9929C184.26 63.2713 184.216 60.4879 184.191 58.9512C184.188 58.7353 184.185 58.544 184.185 58.381C184.185 56.4399 183.967 54.1932 183.168 51.8957C182.535 50.0756 181.52 47.778 179.853 45.744C179.656 45.5033 179.432 45.1763 179.069 44.5817C178.7 43.9784 178.313 43.5081 178.013 43.1756C177.727 42.8586 177.453 42.5936 177.318 42.4632L177.314 42.4591C177.287 42.4329 177.265 42.4118 177.246 42.3938C177.178 42.2906 177.099 42.1681 176.998 42.0096C176.99 41.9969 176.981 41.9839 176.973 41.9706C176.809 41.7149 176.569 41.3398 176.303 40.9604C175.715 40.1215 174.826 39.0007 173.474 37.9993C173.396 37.9414 173.275 37.847 173.12 37.7262C172.508 37.2485 171.365 36.3575 170.245 35.6731C169.644 35.0612 169.065 34.6862 168.741 34.4912C168.156 34.1396 167.617 33.9196 167.397 33.831C167.398 33.8313 167.396 33.8308 167.397 33.831C166.746 33.3986 165.9 32.8914 164.898 32.4913C163.541 31.9496 162.168 31.703 160.738 31.6811C159.981 31.2727 158.964 30.8245 157.729 30.5813C157.714 30.5775 157.664 30.5639 157.564 30.5325C157.414 30.4851 157.341 30.4601 157.238 30.4253C157.139 30.3915 157.012 30.3486 156.762 30.2671C156.105 30.0525 154.742 29.6152 153.111 29.5744C152.713 29.5644 152.281 29.5495 151.821 29.5336ZM146.867 53.3579C146.868 53.3573 146.862 53.3654 146.85 53.3837C146.861 53.3677 146.867 53.3585 146.867 53.3579Z" fill="#FDEAD8"/>
<path fill-rule="evenodd" clip-rule="evenodd" d="M141.912 60.1583C142.001 60.1597 142.13 60.1842 142.442 60.2606C142.61 60.3017 142.679 60.3394 142.707 60.3575C142.724 60.3687 142.752 60.3882 142.794 60.4587C142.811 60.4866 142.829 60.5171 142.849 60.5499C143.058 60.9015 143.423 61.5156 144.032 61.9461C144.033 61.9469 144.052 61.9625 144.095 62.0092C144.121 62.0364 144.149 62.0683 144.185 62.1105C144.195 62.1217 144.207 62.1365 144.221 62.153C144.249 62.1851 144.282 62.2234 144.308 62.254C144.527 62.5059 144.801 62.787 145.174 63.0017C145.564 63.2263 145.964 63.323 146.363 63.3651C147.259 63.4599 147.881 63.2544 148.473 63.0343C148.815 62.9071 149.132 62.8362 149.577 62.747C149.59 62.7531 149.606 62.7603 149.622 62.7689C149.68 62.799 149.74 62.8372 149.79 62.876C149.836 62.9119 149.857 62.9342 149.857 62.9341C149.857 62.9341 149.857 62.9335 149.856 62.9323C149.927 63.0178 149.985 63.0985 150.071 63.217C150.101 63.2588 150.134 63.3054 150.173 63.3585C150.304 63.5378 150.483 63.7755 150.718 64.0054C150.736 64.0227 150.76 64.0482 150.789 64.0801C151.021 64.329 151.614 64.9663 152.516 65.1207C153.046 65.2114 153.561 65.0704 153.867 64.9618C154.205 64.8422 154.576 64.6574 154.865 64.4259C155.509 63.9111 155.779 63.7197 156.132 63.6691C156.869 63.5634 157.381 62.8803 157.275 62.1432C157.169 61.4062 156.486 60.8943 155.749 61C154.617 61.1624 153.809 61.8143 153.279 62.2411C153.247 62.2672 153.216 62.2925 153.185 62.3167C153.184 62.3174 153.166 62.33 153.128 62.3499C153.081 62.3747 153.024 62.3999 152.966 62.4204C152.962 62.4221 152.957 62.4238 152.952 62.4254C152.928 62.4034 152.898 62.3742 152.858 62.334C152.832 62.3083 152.808 62.2833 152.779 62.2539C152.768 62.2432 152.757 62.232 152.745 62.2199C152.704 62.1774 152.655 62.1282 152.603 62.0772C152.535 62.0106 152.463 61.9226 152.352 61.7701C152.334 61.7458 152.314 61.7179 152.292 61.6873C152.197 61.5553 152.065 61.3716 151.926 61.2048C151.649 60.8727 151.253 60.5772 150.862 60.3746C150.51 60.1925 149.881 59.9378 149.196 60.0736L149.175 60.0777C148.674 60.1768 148.133 60.2841 147.533 60.5071C147.059 60.6836 146.912 60.7119 146.646 60.6837C146.568 60.6754 146.529 60.666 146.516 60.6621C146.5 60.6496 146.448 60.606 146.343 60.4848C146.333 60.4728 146.319 60.4567 146.303 60.4371C146.183 60.2952 145.913 59.9736 145.589 59.7449C145.479 59.6668 145.392 59.5436 145.101 59.0629C144.587 58.2131 143.853 57.83 143.084 57.6417C143.067 57.6377 143.05 57.6334 143.032 57.6289C142.744 57.5576 142.252 57.4359 141.717 57.4674C141.373 57.4876 141.099 57.578 140.899 57.6592C140.817 57.6928 140.738 57.7289 140.686 57.7527C140.681 57.7551 140.676 57.7574 140.671 57.7595C140.611 57.7868 140.577 57.8017 140.547 57.8136C140.015 58.0242 139.475 58.2282 138.932 58.4284C138.895 58.4423 138.802 58.4637 138.572 58.4278C138.457 58.41 138.328 58.3816 138.169 58.342C138.123 58.3306 138.066 58.316 138.004 58.3C137.888 58.2703 137.754 58.236 137.642 58.2097C137.534 58.1842 137.439 58.1625 137.351 58.1426C137.242 58.1179 137.145 58.0958 137.048 58.072L136.992 57.9761C136.962 57.926 136.927 57.8667 136.886 57.803C136.762 57.6101 136.624 57.459 136.527 57.3583C136.477 57.3065 136.427 57.2584 136.39 57.2214L136.376 57.2081C136.342 57.1746 136.317 57.1505 136.293 57.1263C136.286 57.1189 136.279 57.1123 136.274 57.1064C136.042 56.4745 135.37 56.1011 134.699 56.2595C133.974 56.4305 133.525 57.1566 133.696 57.8813C133.835 58.4712 134.213 58.8574 134.376 59.0229C134.418 59.0644 134.46 59.1054 134.492 59.137L134.505 59.1494C134.542 59.1861 134.568 59.2116 134.59 59.2345C134.609 59.2538 134.619 59.2658 134.624 59.2715C134.648 59.3087 134.667 59.3422 134.696 59.3912C134.71 59.4144 134.725 59.4411 134.744 59.4734C134.797 59.5626 134.88 59.7018 134.99 59.843C135.246 60.174 135.615 60.477 136.157 60.6261C136.377 60.6864 136.618 60.7414 136.82 60.7872C136.894 60.804 136.962 60.8197 137.022 60.8338C137.078 60.8469 137.15 60.8653 137.233 60.8867C137.487 60.9517 137.846 61.0438 138.158 61.0923C138.624 61.1647 139.229 61.1926 139.865 60.9583C140.421 60.7532 140.982 60.5414 141.539 60.3209C141.64 60.2811 141.729 60.2405 141.789 60.2131C141.854 60.1833 141.885 60.1694 141.912 60.1583Z" fill="#A58466"/>
<path fill-rule="evenodd" clip-rule="evenodd" d="M143.043 55.3777C143.132 55.379 143.261 55.4035 143.573 55.48C143.741 55.521 143.81 55.5587 143.838 55.5769C143.855 55.5881 143.882 55.6076 143.925 55.6781C143.942 55.706 143.96 55.7365 143.98 55.7693C144.189 56.1209 144.554 56.7349 145.163 57.1654C145.163 57.1662 145.183 57.1819 145.226 57.2285C145.251 57.2557 145.279 57.2877 145.316 57.3298C145.325 57.341 145.338 57.3559 145.352 57.3724C145.38 57.4044 145.412 57.4428 145.439 57.4733C145.658 57.7252 145.932 58.0063 146.305 58.221C146.695 58.4457 147.094 58.5423 147.493 58.5845C148.39 58.6793 149.012 58.4738 149.604 58.2537C149.946 58.1265 150.262 58.0556 150.707 57.9664C150.721 57.9724 150.736 57.9797 150.753 57.9883C150.811 58.0184 150.87 58.0565 150.921 58.0954C150.967 58.1313 150.988 58.1536 150.988 58.1534C150.988 58.1534 150.987 58.1528 150.986 58.1516C151.058 58.2372 151.116 58.3179 151.201 58.4363C151.232 58.4782 151.265 58.5247 151.304 58.5778C151.435 58.7572 151.614 58.9949 151.849 59.2248C151.867 59.2421 151.89 59.2676 151.92 59.2994C152.152 59.5483 152.745 60.1857 153.647 60.34C154.177 60.4307 154.692 60.2898 154.998 60.1812C155.335 60.0616 155.707 59.8768 155.996 59.6453C156.639 59.1305 156.91 58.9391 157.263 58.8885C158 58.7828 158.512 58.0996 158.406 57.3626C158.3 56.6255 157.617 56.1137 156.88 56.2194C155.748 56.3817 154.939 57.0336 154.41 57.4604C154.378 57.4866 154.346 57.5118 154.316 57.5361C154.315 57.5368 154.297 57.5493 154.259 57.5693C154.212 57.594 154.155 57.6192 154.097 57.6398C154.092 57.6415 154.088 57.6432 154.083 57.6447C154.059 57.6228 154.029 57.5936 153.988 57.5533C153.963 57.5276 153.938 57.5027 153.91 57.4733C153.899 57.4626 153.888 57.4513 153.876 57.4392C153.834 57.3967 153.786 57.3476 153.734 57.2966C153.666 57.23 153.594 57.142 153.483 56.9894C153.465 56.9652 153.445 56.9373 153.423 56.9066C153.328 56.7747 153.196 56.591 153.057 56.4242C152.78 56.092 152.384 55.7966 151.993 55.594C151.641 55.4118 151.012 55.1571 150.326 55.2929L150.305 55.2971C149.805 55.3962 149.264 55.5034 148.664 55.7265C148.189 55.903 148.043 55.9312 147.777 55.9031C147.698 55.8948 147.66 55.8854 147.646 55.8815C147.63 55.869 147.579 55.8254 147.474 55.7042C147.463 55.6922 147.45 55.676 147.433 55.6564C147.314 55.5146 147.044 55.1929 146.72 54.9642C146.609 54.8862 146.523 54.763 146.232 54.2823C145.718 53.4324 144.983 53.0494 144.215 52.8611C144.198 52.857 144.181 52.8528 144.163 52.8483C143.874 52.7769 143.383 52.6553 142.848 52.6867C142.503 52.707 142.23 52.7974 142.03 52.8786C141.948 52.9121 141.869 52.9483 141.817 52.972C141.811 52.9744 141.806 52.9767 141.802 52.9789C141.742 53.0061 141.708 53.021 141.678 53.033C141.146 53.2436 140.606 53.4476 140.063 53.6478C140.025 53.6617 139.933 53.683 139.702 53.6472C139.588 53.6294 139.459 53.601 139.3 53.5614C139.254 53.55 139.197 53.5353 139.135 53.5194C139.018 53.4897 138.884 53.4553 138.773 53.429C138.665 53.4035 138.57 53.3819 138.482 53.3619C138.373 53.3373 138.276 53.3151 138.179 53.2913L138.123 53.1955C138.093 53.1454 138.058 53.086 138.017 53.0224C137.893 52.8294 137.755 52.6784 137.657 52.5776C137.607 52.5259 137.558 52.4777 137.52 52.4408L137.507 52.4275C137.472 52.394 137.448 52.3699 137.424 52.3456C137.416 52.3382 137.41 52.3316 137.404 52.3257C137.173 51.6939 136.5 51.3205 135.829 51.4789C135.105 51.6499 134.656 52.376 134.827 53.1006C134.966 53.6905 135.343 54.0767 135.507 54.2423C135.548 54.2838 135.59 54.3247 135.623 54.3564L135.635 54.3688C135.673 54.4055 135.699 54.431 135.721 54.4539C135.74 54.4731 135.75 54.4851 135.755 54.4909C135.779 54.5281 135.798 54.5616 135.827 54.6105C135.84 54.6338 135.856 54.6605 135.875 54.6927C135.928 54.782 136.011 54.9212 136.121 55.0623C136.377 55.3933 136.746 55.6963 137.288 55.8455C137.508 55.9058 137.749 55.9608 137.95 56.0065C138.025 56.0234 138.093 56.039 138.153 56.0532C138.208 56.0662 138.28 56.0847 138.364 56.106C138.617 56.1711 138.977 56.2632 139.289 56.3117C139.755 56.384 140.36 56.412 140.996 56.1777C141.552 55.9726 142.112 55.7608 142.67 55.5402C142.77 55.5005 142.86 55.4599 142.92 55.4325C142.985 55.4026 143.016 55.3888 143.043 55.3777Z" fill="#A58466"/>
<path fill-rule="evenodd" clip-rule="evenodd" d="M152.699 67.829C152.631 67.8231 152.58 67.8188 152.463 67.8001C152.099 67.7423 151.758 67.717 151.496 67.6975C151.472 67.6957 151.449 67.694 151.427 67.6923C151.127 67.6697 150.97 67.6528 150.856 67.6258C150.17 67.4639 149.137 67.3608 148.197 67.8786C148.115 67.9237 148.034 67.9572 147.873 68.0236C147.845 68.0353 147.814 68.0481 147.78 68.0622C147.586 68.1427 147.297 68.2657 147.007 68.4605C146.633 68.7111 146.355 68.9626 146.103 69.1934C146.029 69.2613 145.971 69.3008 145.861 69.3762C145.797 69.4199 145.716 69.4755 145.604 69.5555C145.35 69.7371 144.991 70.0168 144.7 70.4628C144.282 71.1049 144.134 71.7337 144.021 72.2182C144.015 72.2442 144.009 72.2697 144.003 72.2948C143.9 72.7312 143.746 73.453 143.788 74.1218C143.837 74.899 144.084 75.6353 144.266 76.1803C144.31 76.3104 144.35 76.4296 144.383 76.5359C144.389 76.5581 144.396 76.5808 144.403 76.6041C144.63 77.3417 145.007 78.5695 146.019 79.3889C146.074 79.4332 146.138 79.5021 146.29 79.6812C146.298 79.6903 146.306 79.6999 146.314 79.7099C146.441 79.8597 146.647 80.1024 146.9 80.3139C147.049 80.4385 147.193 80.5155 147.29 80.5617C147.305 80.5684 147.318 80.5747 147.331 80.5805C147.659 80.887 148.04 81.0478 148.296 81.1288C149.102 81.3834 150.283 81.7284 151.421 81.6569C151.515 81.6509 151.57 81.6518 151.652 81.6531C151.72 81.6542 151.807 81.6555 151.949 81.6537C152.199 81.6504 152.539 81.6316 152.917 81.5168C153.115 81.4569 153.303 81.3896 153.461 81.3321C153.483 81.3242 153.504 81.3164 153.525 81.3089C153.663 81.2585 153.777 81.217 153.892 81.1793C154.655 80.9295 155.177 80.4213 155.516 80.0564C155.672 79.8899 155.787 79.7592 155.882 79.6508C156.044 79.4664 156.15 79.3464 156.299 79.2243C156.827 78.7933 157.127 78.1923 157.283 77.8628C157.302 77.8229 157.327 77.7717 157.357 77.7113C157.501 77.4244 157.748 76.9302 157.865 76.4614C157.996 75.9335 158.079 75.3884 158.088 74.8143C158.094 74.4731 158.035 74.1901 157.98 73.9793C157.959 73.8967 157.934 73.8129 157.916 73.7507C157.913 73.7393 157.91 73.7286 157.907 73.7188C157.887 73.6496 157.873 73.6001 157.862 73.5547C157.861 73.5499 157.86 73.5348 157.858 73.5055C157.856 73.4608 157.856 73.4229 157.855 73.3616C157.855 73.3335 157.855 73.3004 157.854 73.2596L157.854 73.2533C157.852 73.0538 157.846 72.6386 157.677 72.2095C157.534 71.8466 157.401 71.4777 157.272 71.0962C157.04 70.4125 156.579 69.9428 156.25 69.6442C156.118 69.5246 155.975 69.4053 155.86 69.3088C155.831 69.2845 155.804 69.2617 155.779 69.2406C155.639 69.1225 155.544 69.0386 155.472 68.9645C155.108 68.5871 154.718 68.4062 154.422 68.2964C154.331 68.2629 154.22 68.2261 154.145 68.2015C154.121 68.1936 154.101 68.187 154.087 68.1821C154.003 68.1537 153.952 68.1341 153.912 68.1152C153.562 67.9517 153.243 67.893 152.998 67.8616C152.839 67.8412 152.761 67.8345 152.699 67.829ZM147.473 80.6403C147.473 80.6402 147.471 80.6396 147.469 80.6384C147.471 80.6397 147.473 80.6403 147.473 80.6403ZM152.771 70.5583L152.771 70.5584C152.944 70.6391 153.103 70.6956 153.223 70.7363C153.281 70.756 153.323 70.7698 153.357 70.781C153.408 70.7976 153.441 70.8086 153.486 70.8251C153.516 70.8363 153.534 70.844 153.543 70.8485C153.715 71.0247 153.896 71.18 154.042 71.3028C154.082 71.3367 154.119 71.368 154.154 71.3975C154.263 71.4882 154.35 71.5616 154.439 71.6415C154.673 71.854 154.712 71.9436 154.718 71.9614C154.853 72.36 154.996 72.7585 155.153 73.1586C155.154 73.1783 155.157 73.2202 155.158 73.294C155.158 73.3071 155.158 73.3234 155.159 73.3421C155.159 73.4178 155.16 73.5326 155.165 73.6366C155.172 73.7784 155.188 73.9641 155.236 74.1676C155.264 74.2842 155.294 74.3891 155.317 74.4689C155.322 74.4855 155.326 74.5007 155.33 74.5148C155.348 74.5762 155.36 74.6168 155.371 74.6591C155.393 74.7447 155.392 74.7664 155.392 74.7694C155.392 74.7695 155.392 74.7696 155.392 74.7696C155.387 75.1086 155.338 75.4492 155.248 75.8119C155.21 75.9654 155.145 76.0954 155.03 76.329C154.979 76.4323 154.918 76.5558 154.845 76.7105C154.781 76.8455 154.725 76.9512 154.671 77.0334C154.621 77.1109 154.592 77.137 154.592 77.1372C154.592 77.1372 154.593 77.137 154.593 77.1366C154.351 77.3344 154.146 77.5495 153.981 77.7304C153.887 77.8343 153.821 77.9091 153.761 77.9765C153.692 78.0556 153.631 78.1245 153.544 78.2184C153.274 78.5079 153.139 78.5886 153.053 78.617C152.892 78.6695 152.733 78.7274 152.598 78.7766C152.578 78.7839 152.559 78.791 152.54 78.7979C152.384 78.8546 152.257 78.8996 152.136 78.9363C152.106 78.9451 152.055 78.9557 151.915 78.9575C151.861 78.9582 151.815 78.9578 151.755 78.9573C151.723 78.957 151.687 78.9566 151.644 78.9564C151.536 78.9559 151.4 78.9565 151.251 78.9658C150.68 79.0018 149.95 78.8222 149.135 78.566C148.91 78.3356 148.668 78.2187 148.547 78.167C148.501 78.1177 148.44 78.0473 148.346 77.9362C148.341 77.9305 148.336 77.9247 148.331 77.9187C148.199 77.7637 147.986 77.5123 147.716 77.2933C147.411 77.0467 147.226 76.6071 146.959 75.742C146.887 75.5056 146.821 75.306 146.762 75.1299C146.604 74.6515 146.504 74.3469 146.479 73.9525C146.464 73.7224 146.525 73.3481 146.627 72.9146C146.758 72.3608 146.814 72.1577 146.959 71.9348C146.975 71.9107 147.01 71.8649 147.173 71.7488C147.214 71.7195 147.257 71.6896 147.311 71.6527L147.32 71.6462C147.369 71.6126 147.427 71.5727 147.485 71.5311C147.611 71.4418 147.765 71.3268 147.922 71.1838C148.17 70.957 148.317 70.8278 148.508 70.7003C148.562 70.6642 148.639 70.6253 148.814 70.5523C148.833 70.5444 148.855 70.5356 148.878 70.526C149.032 70.4631 149.271 70.3653 149.498 70.2404C149.572 70.1993 149.803 70.1477 150.236 70.25C150.588 70.3331 150.952 70.3605 151.223 70.3809L151.224 70.381C151.243 70.3825 151.261 70.3839 151.28 70.3852C151.556 70.406 151.791 70.4237 152.04 70.4631C152.184 70.486 152.313 70.5001 152.416 70.5107C152.446 70.5138 152.473 70.5165 152.497 70.5189C152.562 70.5254 152.607 70.5299 152.655 70.536C152.711 70.5433 152.739 70.5491 152.754 70.5528C152.765 70.5557 152.769 70.5574 152.771 70.5583ZM153.553 70.8533C153.553 70.8533 153.552 70.8528 153.55 70.8516C153.552 70.8527 153.553 70.8533 153.553 70.8533Z" fill="#A58466"/>
<path fill-rule="evenodd" clip-rule="evenodd" d="M145.566 73.8607C145.728 73.1339 145.27 72.4134 144.543 72.2514C144.085 72.149 143.641 72.1263 143.316 72.1097C143.301 72.1089 143.286 72.1081 143.271 72.1074C142.908 72.0886 142.68 72.0726 142.471 72.0232L139.104 71.2281C138.38 71.0569 137.654 71.5056 137.482 72.2303C137.311 72.9549 137.76 73.6811 138.485 73.8522L141.851 74.6474C142.321 74.7583 142.775 74.7818 143.106 74.7988C143.115 74.7993 143.123 74.7997 143.132 74.8001C143.5 74.8192 143.735 74.8337 143.956 74.8831C144.683 75.0451 145.404 74.5874 145.566 73.8607Z" fill="#A58466"/>
<path fill-rule="evenodd" clip-rule="evenodd" d="M134.328 63.0197C134.142 62.9894 134.007 62.9675 133.847 62.9296C133.835 62.9268 133.82 62.9231 133.802 62.9189C133.705 62.8954 133.534 62.8541 133.368 62.8255C133.19 62.7949 132.858 62.7473 132.505 62.8089C132.505 62.8089 132.494 62.8107 132.464 62.813C132.433 62.8153 132.4 62.8168 132.344 62.8193L132.317 62.8206C132.205 62.8258 131.994 62.8354 131.768 62.8823C131.455 62.9472 131.19 63.0723 131.058 63.1345C131.052 63.1371 131.047 63.1396 131.042 63.142C130.878 63.2189 130.857 63.2254 130.857 63.2254C130.857 63.2254 130.857 63.2254 130.857 63.2254C130.107 63.4156 129.414 63.7517 128.811 64.1445C128.426 64.3956 128.085 64.6835 127.813 64.9138C127.795 64.9293 127.777 64.9446 127.759 64.9595C127.696 65.0124 127.647 65.0483 127.572 65.1031C127.519 65.1418 127.453 65.1899 127.361 65.2601C127.186 65.3923 126.93 65.5957 126.707 65.873C126.198 66.5048 126.083 67.2046 126.016 67.6134C126.015 67.6231 126.013 67.6326 126.011 67.6419C125.99 67.7731 125.962 67.9067 125.929 68.0658C125.927 68.0777 125.924 68.0898 125.922 68.1021C125.892 68.2451 125.856 68.4126 125.827 68.5827C125.761 68.9598 125.708 69.4211 125.77 69.9401C125.787 70.0802 125.788 70.2423 125.782 70.4846C125.781 70.5148 125.78 70.547 125.779 70.581C125.773 70.7885 125.765 71.0613 125.779 71.3306C125.806 71.8399 125.876 72.3376 125.967 72.8079C126.059 73.2863 126.196 73.7632 126.369 74.214C126.369 74.214 126.371 74.2192 126.375 74.2316C126.38 74.2465 126.386 74.266 126.394 74.2948C126.397 74.3035 126.4 74.3143 126.404 74.3266C126.418 74.3783 126.441 74.4574 126.464 74.5295C126.517 74.6952 126.635 75.0451 126.903 75.3584C127.603 76.1744 128.349 76.5594 129.147 76.8724C130.282 77.3176 131.352 77.4927 132.522 77.5042C133.565 77.5145 134.375 77.2756 135.215 76.9292C135.689 76.7333 136.058 76.4573 136.337 76.2236C136.458 76.1225 136.576 76.0175 136.675 75.9289C136.688 75.9167 136.702 75.9049 136.715 75.8934C136.829 75.7917 136.922 75.7098 137.013 75.6362C137.26 75.4372 137.525 75.1451 137.657 75.0002C137.687 74.9669 137.71 74.9414 137.724 74.9266C137.79 74.8581 137.85 74.802 137.932 74.7249C137.971 74.6875 138.016 74.6452 138.07 74.5943C138.211 74.4589 138.396 74.2772 138.569 74.0547C138.797 73.7623 138.945 73.449 139.033 73.2623L139.042 73.2433C139.145 73.0272 139.184 72.9436 139.231 72.8739C139.536 72.4139 139.711 71.8708 139.813 71.5554C139.822 71.5269 139.831 71.5003 139.839 71.4758C140.153 70.5199 140.28 69.259 140.027 68.187C139.727 66.9124 139.097 65.8375 138.278 64.9224C137.91 64.5101 137.546 64.1206 136.863 63.7611C136.291 63.4606 135.744 63.3289 135.268 63.2144C135.199 63.1977 135.131 63.1814 135.065 63.165C134.776 63.0933 134.539 63.0541 134.346 63.0226L134.328 63.0197ZM133.912 65.6839C134.094 65.7136 134.24 65.7385 134.415 65.782C134.497 65.8023 134.572 65.8207 134.641 65.8378C135.142 65.9609 135.349 66.0119 135.608 66.1478C135.856 66.2784 135.96 66.3753 136.269 66.7199C136.84 67.359 137.223 68.041 137.403 68.8062C137.52 69.3031 137.468 70.0522 137.277 70.6357C137.14 71.0541 137.071 71.2523 136.984 71.3829C136.822 71.6266 136.698 71.8926 136.622 72.0548C136.613 72.0742 136.604 72.0921 136.596 72.1084C136.504 72.3037 136.466 72.367 136.442 72.3979C136.393 72.46 136.325 72.532 136.208 72.6439C136.186 72.6648 136.16 72.6896 136.13 72.7174C136.031 72.8107 135.897 72.937 135.78 73.058C135.648 73.196 135.568 73.2845 135.511 73.3487C135.434 73.4337 135.396 73.4765 135.322 73.5359C135.173 73.6562 135.035 73.7783 134.92 73.8811C134.905 73.8939 134.891 73.9064 134.878 73.9185C134.775 74.0102 134.692 74.0847 134.606 74.156C134.418 74.3137 134.294 74.3923 134.186 74.4366C133.542 74.7026 133.104 74.8135 132.549 74.808C131.66 74.7993 130.921 74.6719 130.132 74.3623C129.595 74.1516 129.302 73.9836 129.026 73.688C129.019 73.6644 129.012 73.6405 129.002 73.6073C128.997 73.5887 128.991 73.5672 128.983 73.5412C128.963 73.4718 128.93 73.3615 128.887 73.2472C128.769 72.9409 128.676 72.6171 128.615 72.299C128.541 71.9181 128.491 71.5463 128.472 71.1892C128.464 71.0381 128.468 70.8885 128.474 70.6767C128.475 70.6381 128.476 70.5974 128.477 70.5542C128.484 70.3023 128.489 69.9709 128.448 69.6212C128.43 69.4686 128.439 69.2968 128.483 69.0453C128.505 68.9226 128.531 68.7983 128.563 68.645L128.568 68.6183C128.601 68.4611 128.64 68.2752 128.672 68.0797C128.744 67.6428 128.781 67.5956 128.807 67.5644C128.816 67.5526 128.856 67.5102 128.989 67.4095C129.032 67.3769 129.068 67.3503 129.111 67.3186C129.14 67.2977 129.171 67.2745 129.21 67.246C129.293 67.1842 129.395 67.1069 129.499 67.0195L129.509 67.0108C129.818 66.7498 130.042 66.5608 130.283 66.4039C130.692 66.1376 131.114 65.9421 131.52 65.8391C131.795 65.7694 132.04 65.6531 132.16 65.596C132.171 65.5909 132.18 65.5863 132.189 65.5823C132.273 65.5429 132.311 65.5269 132.325 65.5214C132.339 65.52 132.374 65.5172 132.451 65.5137C132.459 65.5133 132.467 65.5129 132.477 65.5125C132.563 65.5088 132.717 65.5021 132.884 65.4785C132.892 65.4796 132.9 65.481 132.911 65.4828C132.948 65.4892 132.993 65.4985 133.048 65.5112C133.075 65.5174 133.103 65.524 133.133 65.5312L133.227 65.5538C133.483 65.6141 133.702 65.6497 133.877 65.6781C133.889 65.6801 133.9 65.682 133.912 65.6839Z" fill="#A58466"/>
<path fill-rule="evenodd" clip-rule="evenodd" d="M136.635 78.3612C136.092 78.2329 135.547 78.5694 135.419 79.1129C135.313 79.5601 135.379 80.0187 135.492 80.3761C135.604 80.7343 135.808 81.1346 136.124 81.4331C136.236 81.5388 136.326 81.6456 136.452 81.7957C136.497 81.8495 136.547 81.9089 136.605 81.9758C136.798 82.2003 137.06 82.4895 137.417 82.7263C137.931 83.0662 138.529 83.196 138.908 83.2783C138.969 83.2915 139.024 83.3034 139.072 83.3148C139.142 83.3313 139.216 83.35 139.294 83.3695C139.886 83.5186 140.694 83.722 141.606 83.4673C141.984 83.3618 142.385 83.1709 142.736 82.9213C143.08 82.6769 143.452 82.3233 143.674 81.8552C143.913 81.3507 143.698 80.7477 143.194 80.5083C142.689 80.2689 142.086 80.4838 141.847 80.9884C141.824 81.0372 141.743 81.1465 141.565 81.2723C141.396 81.393 141.206 81.4795 141.062 81.5195C140.692 81.623 140.418 81.5575 139.773 81.4028C139.699 81.3852 139.621 81.3665 139.537 81.3467C139.439 81.3236 139.352 81.3035 139.273 81.2854C138.888 81.1971 138.709 81.1559 138.534 81.0402C138.419 80.9644 138.306 80.8528 138.14 80.6588C138.112 80.6267 138.081 80.5897 138.047 80.5493C137.908 80.3833 137.719 80.1587 137.516 79.9659C137.514 79.9641 137.503 79.9505 137.485 79.9207C137.463 79.8813 137.44 79.8294 137.421 79.7703C137.403 79.7112 137.393 79.6573 137.389 79.6154C137.387 79.5893 137.388 79.5748 137.388 79.5709C137.512 79.0297 137.176 78.489 136.635 78.3612Z" fill="#A58466"/>
<path fill-rule="evenodd" clip-rule="evenodd" d="M177.454 63.2774C176.422 63.2233 175.389 63.1207 174.382 62.9657C171.082 62.458 167.663 61.3318 164.593 59.387C164.235 59.1603 163.936 58.9873 163.554 58.7654C163.314 58.6263 163.041 58.4678 162.699 58.2648C161.942 57.8157 160.984 57.2211 160.028 56.453C159.022 55.6442 158.272 54.837 157.697 54.1799C157.414 53.8572 157.219 53.627 157.054 53.4323C156.866 53.2113 156.718 53.036 156.524 52.823C156.489 52.7995 156.444 52.7694 156.387 52.7324C156.363 52.7171 156.33 52.696 156.29 52.6705C156.138 52.5731 155.887 52.4118 155.675 52.269C155.372 52.0647 154.969 51.7788 154.545 51.4149C154.42 51.3083 154.289 51.1969 154.152 51.0805C153.231 50.2984 152.048 49.2932 150.921 48.041C150.755 47.8563 150.536 47.6529 150.027 47.1984C150.007 47.1805 149.986 47.162 149.965 47.143C149.531 46.7558 148.849 46.1461 148.2 45.4252C147.477 44.6221 147.133 44.2946 146.633 43.9376C143.204 41.4886 141.242 38.4106 140.261 34.5963C139.813 32.8555 139.818 31.3519 139.88 30.2397C139.918 29.5616 139.951 29.2072 139.975 28.9468C140.001 28.6587 140.017 28.4856 140.017 28.1167C140.017 26.5681 140.47 25.2165 140.688 24.5909C140.723 24.4914 140.759 24.3932 140.793 24.2982C141.147 21.4156 142.871 19.4017 144.699 18.2412C146.179 17.3013 147.883 16.8356 148.618 16.6348C148.673 16.6195 148.723 16.6058 148.767 16.5936C150.731 16.0463 152.659 15.9847 154.112 16.0026C154.86 16.0118 155.59 16.0455 156.2 16.0739L156.224 16.075C156.86 16.1047 157.359 16.1279 157.823 16.1349C159.879 16.1661 161.66 16.681 162.77 17.0109C162.919 17.0552 163.057 17.0964 163.186 17.1346C164.205 17.4386 164.613 17.5601 165.043 17.6138C166.128 17.7495 166.997 18.1043 167.562 18.3812C168.141 18.6647 168.619 18.9757 168.938 19.1948C169.203 19.3774 169.47 19.5755 169.623 19.6886C169.648 19.7068 169.669 19.7229 169.687 19.7363C169.78 19.8044 169.827 19.8384 169.844 19.8505C170.932 20.5217 172.116 21.2638 173.276 22.0576C174.025 22.5701 174.902 23.1466 175.832 23.7586C177.506 24.86 179.354 26.076 180.946 27.2383C181.1 27.3504 181.311 27.499 181.56 27.6735C182.329 28.2145 183.455 29.0055 184.319 29.7375C184.915 30.2425 185.543 30.8353 186.145 31.5377C187.092 32.2237 187.797 32.9305 188.259 33.4028C188.367 33.5128 188.459 33.6079 188.541 33.6915C188.867 34.0272 189.012 34.1762 189.212 34.3475C190.348 35.3248 191.32 36.6023 192.011 37.6919C192.679 38.7448 193.514 40.2938 193.886 41.9692C194.029 42.6126 194.114 43.2153 194.172 43.6689C194.208 43.9459 194.229 44.1227 194.247 44.2732C194.267 44.4465 194.284 44.5849 194.313 44.8013C194.352 45.0818 194.384 45.2337 194.398 45.297C194.4 45.3003 194.401 45.3037 194.403 45.307C194.867 45.878 195.219 46.5019 195.466 47.1447C195.69 47.7277 195.797 48.2557 195.852 48.6207C196.745 51.344 196.042 53.7776 195.338 55.2863C194.763 56.5173 193.844 57.7813 193.523 58.2225C193.477 58.2856 193.444 58.3319 193.425 58.3588C193.389 58.4102 193.337 58.4894 193.269 58.5904C192.921 59.1143 192.182 60.2247 191.417 61.0856C190.334 62.3051 188.642 63.7532 186.136 64.3799C183.085 65.1426 180.375 64.3893 178.678 63.7666C178.249 63.6093 177.836 63.4408 177.454 63.2774ZM195.922 49.2735L195.922 49.2715C195.922 49.2794 195.922 49.2806 195.922 49.2735ZM167.93 33.1766C167.93 33.1765 167.934 33.1777 167.942 33.1801C167.934 33.1778 167.93 33.1766 167.93 33.1766ZM188.213 34.5233C188.213 34.524 188.219 34.5376 188.228 34.5623C188.217 34.535 188.212 34.5227 188.213 34.5233Z" fill="#BEBEBF"/>
<path d="M140.714 35.7141C141.905 35.7141 139.423 35.9482 137.923 36.5001C136.923 37.0343 135.858 37.4902 135.098 37.9824C134.62 38.2917 134.139 38.5041 133.669 38.8465C133.252 39.1507 132.72 39.2791 132.289 39.5786C131.777 39.9343 131.228 40.2226 130.693 40.5507C129.76 41.123 128.748 41.8625 128.209 42.8429C127.314 44.4704 126.143 45.9283 125.16 47.5114C124.727 48.2091 124.214 48.9812 123.888 49.7557C123.647 50.3296 123.631 50.8183 123.367 51.3983C123.213 51.7384 123.258 52.1363 123.007 52.4379C122.926 52.5345 123.012 52.7622 123.006 52.882C122.991 53.1833 122.989 53.734 122.904 54.0102C122.736 54.556 122.676 55.2276 122.676 55.8044C122.676 56.593 122.757 55.0254 122.778 54.8323C122.818 54.4752 122.951 54.1501 123.006 53.7941C123.155 52.8246 123.225 51.8205 123.498 50.8778C123.996 49.1632 124.305 47.4241 124.788 45.7112C125.123 44.5263 126.01 43.3915 126.721 42.4109C127.619 41.1717 128.361 39.6138 129.487 38.5765C130.169 37.9481 130.852 37.4189 131.701 37.0343C132.333 36.7483 132.794 36.2617 133.405 35.9482C134.513 35.38 135.441 34.4399 136.574 33.9319C137.156 33.6711 138.027 33.5382 138.536 33.1819C138.958 32.8866 140.049 32.6503 140.39 32.9058" stroke="#BEBEBF" stroke-width="4" stroke-linecap="round"/>
<path d="M172.25 65.7979C172.25 64.5819 164.453 60.47 164.838 59.315C164.838 58.424 172.778 60.8221 173.273 60.0901C173.691 59.4723 174.638 59.0917 175.271 58.7094C175.844 58.3627 176.352 57.8954 176.947 57.5875C178.114 56.9838 179.186 56.164 180.337 55.5164C181.332 54.9567 182.46 54.7728 183.555 54.4686C185.142 54.0276 186.386 53.8345 188.018 53.8522C188.752 53.8602 189.539 54.0546 190.07 54.5857C190.596 55.1112 191.463 55.5312 191.833 56.1883C192.138 56.73 192.542 57.3226 192.554 57.9574C192.566 58.5657 192.476 59.1374 192.443 59.7326C192.376 60.9391 195.034 61.9983 194.423 62.9995C194.03 63.6419 189.55 64.155 188.868 64.4171C188.505 64.557 188.128 64.8717 187.833 65.1137C187.378 65.4857 186.753 65.6241 186.292 66.0013C185.587 66.5776 184.57 66.735 183.906 67.3327C182.982 68.1643 181.798 68.798 180.769 69.4962C180.248 69.8495 179.736 70.2644 179.178 70.5564C178.705 70.8045 177.856 71.3087 177.52 71.7214C177.294 72.0006 176.98 72.1644 176.75 72.4364C176.592 72.6235 176.521 72.8628 176.355 73.0466C176.062 73.3724 175.922 73.7763 175.69 74.1315C175.69 74.1315 175.153 78.7982 174.007 78.2251C172.469 77.4563 173.165 72.8437 172.941 71.0742C172.814 70.0731 172.361 69.0601 172.361 68.0539C172.361 67.306 172.25 66.555 172.25 65.7979Z" fill="#BEBEBF"/>
<path d="M142.017 30.3203C140.606 30.5024 139.145 30.4137 137.724 30.4137C137.123 30.4137 136.23 30.2394 135.645 30.4344C135.041 30.6357 134.449 31.0742 133.866 31.3469C132.592 31.9439 131.527 32.975 130.387 33.7839C129.253 34.5889 128.48 35.6519 127.577 36.6875C127.478 36.8009 127.377 37.1257 127.271 37.0193C127.172 36.9201 127.434 36.7901 127.53 36.6875C127.926 36.2633 128.381 35.8293 128.816 35.4535C130.543 33.9617 132.474 32.7285 134.348 31.4351C135.119 30.9032 135.984 30.6713 136.874 30.3825C137.386 30.2163 137.9 30.0813 138.424 29.9574C138.484 29.9432 139.278 29.6658 138.854 29.9937C137.379 31.1334 135.423 31.5161 133.773 32.3321C132.931 32.7484 132.216 33.354 131.377 33.7735" stroke="#BEBEBF" stroke-width="3" stroke-linecap="round"/>
<rect x="0.5" y="0.5" width="211.272" height="121" rx="4.5" stroke="#9747FF" stroke-dasharray="10 5"/>
</svg>
