<svg width="90" height="60" viewBox="0 0 90 60" fill="none" xmlns="http://www.w3.org/2000/svg">
<path fill-rule="evenodd" clip-rule="evenodd" d="M0 4.13793C0 1.85261 1.81098 0 4.04494 0C8.66845 0 11.6216 2.8172 13.413 4.52611C13.4848 4.59467 13.5548 4.66145 13.623 4.72619C15.6679 6.66847 16.4781 7.24138 17.6966 7.24138C18.9151 7.24138 19.7253 6.66847 21.7703 4.72619C21.8384 4.66145 21.9084 4.59467 21.9803 4.52611C23.7717 2.8172 26.7248 0 31.3483 0C35.9718 0 38.925 2.81721 40.7163 4.52612C40.7882 4.59468 40.8582 4.66145 40.9263 4.72619C42.9713 6.66847 43.7815 7.24138 45 7.24138C46.2185 7.24138 47.0287 6.66847 49.0737 4.72619C49.1418 4.66145 49.2118 4.59467 49.2837 4.52611C51.0751 2.8172 54.0282 0 58.6517 0C63.2752 0 66.2283 2.8172 68.0197 4.52611C68.0916 4.59467 68.1616 4.66145 68.2297 4.72619C70.2747 6.66847 71.0849 7.24138 72.3034 7.24138C73.5219 7.24138 74.3321 6.66847 76.377 4.72619C76.4452 4.66145 76.5152 4.59467 76.5871 4.52611C78.3784 2.8172 81.3316 0 85.9551 0C88.189 0 90 1.85261 90 4.13793C90 6.42325 88.189 8.27586 85.9551 8.27586C84.7365 8.27586 83.9264 8.84877 81.8814 10.7911C81.8132 10.8558 81.7433 10.9226 81.6714 10.9911C79.88 12.7 76.9269 15.5172 72.3034 15.5172C67.6799 15.5172 64.7267 12.7 62.9354 10.9911C62.8635 10.9226 62.7935 10.8558 62.7253 10.7911C60.6804 8.84877 59.8702 8.27586 58.6517 8.27586C57.4332 8.27586 56.623 8.84877 54.578 10.7911C54.5099 10.8558 54.4399 10.9226 54.368 10.9911C52.5766 12.7 49.6235 15.5172 45 15.5172C40.3765 15.5172 37.4234 12.7 35.632 10.9911C35.5601 10.9226 35.4901 10.8558 35.422 10.7911C33.377 8.84877 32.5668 8.27586 31.3483 8.27586C30.1298 8.27586 29.3196 8.84877 27.2747 10.7911C27.2065 10.8558 27.1365 10.9226 27.0646 10.9911C25.2733 12.7 22.3201 15.5172 17.6966 15.5172C13.0731 15.5172 10.12 12.7 8.32862 10.9911C8.25675 10.9226 8.18676 10.8558 8.1186 10.7911C6.07364 8.84877 5.26346 8.27586 4.04494 8.27586C1.81098 8.27586 0 6.42325 0 4.13793Z" fill="#FFCE51"/>
<path fill-rule="evenodd" clip-rule="evenodd" d="M0 25.8621C0 23.5767 1.81098 21.7241 4.04494 21.7241C8.83854 21.7241 11.8453 25.0103 13.5747 26.9005C13.6575 26.9911 13.7374 27.0784 13.8145 27.162C15.9412 29.4705 16.6923 30 17.6966 30C18.701 30 19.452 29.4705 21.5788 27.162C21.6558 27.0784 21.7357 26.9911 21.8185 26.9005C23.548 25.0103 26.5547 21.7241 31.3483 21.7241C36.1419 21.7241 39.1486 25.0103 40.8781 26.9005C40.9609 26.9911 41.0408 27.0784 41.1178 27.162C43.2446 29.4705 43.9957 30 45 30C46.0043 30 46.7554 29.4705 48.8822 27.162C48.9592 27.0784 49.0391 26.9911 49.1219 26.9005C50.8514 25.0103 53.8581 21.7241 58.6517 21.7241C63.4453 21.7241 66.452 25.0103 68.1815 26.9005C68.2643 26.9911 68.3442 27.0784 68.4212 27.162C70.548 29.4705 71.299 30 72.3034 30C73.3077 30 74.0588 29.4705 76.1855 27.162C76.2626 27.0784 76.3425 26.9911 76.4253 26.9005C78.1548 25.0103 81.1615 21.7241 85.9551 21.7241C88.189 21.7241 90 23.5767 90 25.8621C90 28.1474 88.189 30 85.9551 30C84.9507 30 84.1997 30.5294 82.0729 32.838C81.9959 32.9216 81.916 33.0089 81.8331 33.0994C80.1037 34.9897 77.097 38.2758 72.3034 38.2758C67.5098 38.2758 64.5031 34.9897 62.7736 33.0994C62.6908 33.0089 62.6109 32.9216 62.5338 32.838C60.4071 30.5294 59.656 30 58.6517 30C57.6473 30 56.8963 30.5294 54.7695 32.838C54.6925 32.9216 54.6126 33.0089 54.5298 33.0994C52.8003 34.9897 49.7936 38.2758 45 38.2758C40.2064 38.2758 37.1997 34.9896 35.4702 33.0994C35.3874 33.0089 35.3075 32.9216 35.2305 32.838C33.1037 30.5294 32.3527 30 31.3483 30C30.344 30 29.5929 30.5294 27.4662 32.838C27.3891 32.9216 27.3092 33.0089 27.2264 33.0994C25.4969 34.9897 22.4902 38.2758 17.6966 38.2758C12.903 38.2758 9.89632 34.9897 8.16686 33.0994C8.08403 33.0089 8.00413 32.9216 7.9271 32.838C5.80033 30.5294 5.04929 30 4.04494 30C1.81098 30 0 28.1474 0 25.8621Z" fill="#FFCE51"/>
<path fill-rule="evenodd" clip-rule="evenodd" d="M0 48.6206C0 46.3353 1.81098 44.4827 4.04494 44.4827C8.66845 44.4827 11.6216 47.2999 13.413 49.0088C13.4848 49.0773 13.5548 49.1441 13.623 49.2089C15.6679 51.1511 16.4781 51.724 17.6966 51.724C18.9151 51.724 19.7253 51.1511 21.7703 49.2089C21.8384 49.1441 21.9084 49.0773 21.9803 49.0088C23.7717 47.2999 26.7248 44.4827 31.3483 44.4827C35.9718 44.4827 38.925 47.2999 40.7163 49.0088C40.7882 49.0773 40.8582 49.1441 40.9263 49.2089C42.9713 51.1511 43.7815 51.724 45 51.724C46.2185 51.724 47.0287 51.1511 49.0737 49.2089C49.1418 49.1441 49.2118 49.0773 49.2837 49.0088C51.0751 47.2999 54.0282 44.4827 58.6517 44.4827C63.2752 44.4827 66.2283 47.2999 68.0197 49.0088C68.0916 49.0773 68.1616 49.1441 68.2297 49.2089C70.2747 51.1511 71.0849 51.724 72.3034 51.724C73.5219 51.724 74.3321 51.1511 76.377 49.2089C76.4452 49.1441 76.5152 49.0773 76.5871 49.0088C78.3784 47.2999 81.3316 44.4827 85.9551 44.4827C88.189 44.4827 90 46.3353 90 48.6206C90 50.9059 88.189 52.7585 85.9551 52.7585C84.7365 52.7585 83.9264 53.3314 81.8814 55.2737C81.8132 55.3385 81.7433 55.4052 81.6714 55.4738C79.88 57.1827 76.9269 59.9999 72.3034 59.9999C67.6799 59.9999 64.7267 57.1827 62.9354 55.4738C62.8635 55.4052 62.7935 55.3385 62.7253 55.2737C60.6804 53.3314 59.8702 52.7585 58.6517 52.7585C57.4332 52.7585 56.623 53.3314 54.578 55.2737C54.5099 55.3385 54.4399 55.4052 54.368 55.4738C52.5766 57.1827 49.6235 59.9999 45 59.9999C40.3765 59.9999 37.4234 57.1827 35.632 55.4738C35.5601 55.4052 35.4901 55.3385 35.422 55.2737C33.377 53.3314 32.5668 52.7585 31.3483 52.7585C30.1298 52.7585 29.3196 53.3314 27.2747 55.2737C27.2065 55.3385 27.1365 55.4052 27.0646 55.4738C25.2733 57.1827 22.3201 59.9999 17.6966 59.9999C13.0731 59.9999 10.12 57.1827 8.32862 55.4738C8.25675 55.4052 8.18676 55.3385 8.1186 55.2737C6.07364 53.3314 5.26346 52.7585 4.04494 52.7585C1.81098 52.7585 0 50.9059 0 48.6206Z" fill="#FFCE51"/>
</svg>
