<svg width="90" height="60" viewBox="0 0 90 60" fill="none" xmlns="http://www.w3.org/2000/svg">
<path fill-rule="evenodd" clip-rule="evenodd" d="M79.966 0.112397C81.2621 -0.292298 82.6409 0.430322 83.0456 1.72642C83.1568 2.08262 83.3564 2.4273 83.7343 2.95841C83.7898 3.0365 83.8537 3.12409 83.9235 3.21995C84.2617 3.68409 84.7412 4.3421 85.1082 5.05443C85.2439 5.31778 85.4363 5.50265 86.1012 6.10326C86.2044 6.19647 86.297 6.28675 86.3736 6.36322C86.4342 6.42373 86.4963 6.4872 86.546 6.538C86.5567 6.54896 86.5668 6.55933 86.5763 6.56895C86.6058 6.59911 86.6316 6.62525 86.6543 6.64805C86.992 6.69655 87.3639 6.78323 87.7124 6.90545C87.984 7.0007 88.3624 7.15879 88.7326 7.42125C89.0773 7.66564 89.6752 8.18651 89.9141 9.0793C90.2025 10.157 89.6727 10.9495 89.5818 11.0854L89.5817 11.0856C89.4188 11.3293 89.2491 11.4872 89.1852 11.5452C89.0393 11.6777 88.907 11.7655 88.8664 11.7923C88.7593 11.8632 88.6582 11.9193 88.609 11.9464C88.4929 12.0101 88.3602 12.0772 88.2596 12.1273C88.2106 12.1518 88.1592 12.1772 88.1114 12.2007C88.1082 12.2041 88.1049 12.2077 88.1014 12.2114C87.9768 12.3446 87.6508 12.6929 87.1808 12.9733C87.0553 13.0482 86.7216 13.3508 86.399 13.9052C86.0786 14.456 85.9717 14.9079 85.9679 15.0879C85.9604 15.4482 85.9483 15.7623 85.9375 16.0447C85.9224 16.4351 85.9098 16.7648 85.9147 17.0723C85.9416 17.2337 85.9608 17.4087 85.9671 17.5954C85.9668 17.588 85.9669 17.5886 85.9676 17.6001C85.9685 17.6137 85.9705 17.6426 85.9742 17.6914C85.9757 17.7123 85.9781 17.7431 85.9807 17.7765C85.9847 17.8282 85.9891 17.8858 85.9917 17.9212C85.9939 17.9513 85.9979 18.0066 86.0003 18.06C86.0004 18.0626 86.006 18.1634 86.0016 18.2818C86.0003 18.3159 85.9968 18.3959 85.9842 18.4967C85.978 18.5471 85.9655 18.6352 85.9407 18.7432C85.922 18.8249 85.8666 19.0548 85.7287 19.3218C85.6502 19.4739 85.1944 20.3489 84.0707 20.5952C82.7899 20.876 81.9575 20.0949 81.7548 19.8798C81.502 19.6116 81.3729 19.3508 81.3338 19.2704C81.2781 19.1563 81.2428 19.0611 81.2245 19.0091C81.1663 18.8437 81.1381 18.7029 81.1346 18.6855L81.1343 18.684C81.1253 18.6401 81.1191 18.6041 81.1159 18.5851C81.1091 18.545 81.1038 18.5083 81.1004 18.4844C81.0932 18.4333 81.0852 18.3711 81.0766 18.3024C81.0565 18.1411 81.0411 17.9757 81.0295 17.8084C81.0239 17.7941 81.0177 17.7782 81.0107 17.7603C81.0076 17.7525 81.0043 17.7441 81.0007 17.7351C80.9713 17.6604 80.9265 17.547 80.8846 17.4305C80.5176 16.4119 79.967 15.6041 79.1419 14.7169C79.1127 14.7001 79.0328 14.6544 78.8622 14.571C78.8405 14.5604 78.8152 14.5483 78.7868 14.5346C78.5359 14.4144 78.037 14.1754 77.5553 13.8005C77.5445 13.7968 77.5328 13.7928 77.5202 13.7885C77.5112 13.7854 77.501 13.782 77.4895 13.7781C77.239 13.6939 76.396 13.4106 75.7748 12.6148C75.2692 11.9671 75.2135 11.262 75.2604 10.8148C75.3037 10.4016 75.4396 10.0933 75.5136 9.94278C75.6639 9.63719 75.8474 9.41508 75.9252 9.32319C76.1096 9.1055 76.3191 8.91048 76.4522 8.79028C76.6033 8.65378 76.7532 8.52721 76.8605 8.43788C76.9741 8.34332 77.0005 8.32178 76.998 8.3247C77.2837 8.06006 77.5397 7.64095 77.7935 6.9035C77.9222 6.52969 78.0347 6.12319 78.1596 5.64918C78.179 5.57542 78.199 5.49906 78.2195 5.42066C78.3233 5.02406 78.4407 4.57515 78.5713 4.14532C78.5911 4.08026 78.6133 4.01662 78.6379 3.95447C78.5329 3.71502 78.436 3.461 78.352 3.19195C77.9473 1.89585 78.6699 0.517092 79.966 0.112397ZM82.1854 9.18656C82.0166 9.5946 81.8121 10.0164 81.5576 10.4327C81.8124 10.5793 82.1083 10.7741 82.3977 11.0292C82.6101 10.7037 82.8521 10.378 83.1216 10.0687C83.1008 10.0477 83.0815 10.0279 83.0637 10.0097L83.0548 10.0007C82.9149 9.85784 82.8578 9.79956 82.8052 9.75206C82.7642 9.71502 82.7196 9.67529 82.672 9.63285C82.5318 9.50792 82.3652 9.35947 82.1854 9.18656ZM86.0834 11.5448C86.0841 11.5451 86.0847 11.5453 86.0853 11.5455C86.0951 11.5489 86.0938 11.5491 86.0834 11.5448ZM81.0893 18.3011C81.0893 18.3011 81.0892 18.301 81.0892 18.3008L81.0893 18.3011ZM87.8995 12.3054C87.9006 12.3049 87.9018 12.3043 87.903 12.3036C87.8741 12.3192 87.8672 12.3218 87.8995 12.3054ZM86.8139 6.79881C86.8139 6.79885 86.8129 6.79809 86.8108 6.79644C86.8128 6.79795 86.8139 6.79877 86.8139 6.79881Z" fill="#FFCE51"/>
<path fill-rule="evenodd" clip-rule="evenodd" d="M17.7044 17.3492C17.8653 17.3727 17.9843 17.3901 18.2673 17.4112C19.1426 17.4764 19.947 17.604 20.565 17.7021C20.6209 17.711 20.6753 17.7196 20.7281 17.7279C21.4351 17.8394 21.8084 17.8861 22.0881 17.8861C23.7667 17.8861 26.2183 18.2122 28.1141 19.924C28.2789 20.0728 28.4484 20.1946 28.7844 20.436C28.8438 20.4787 28.9085 20.5252 28.9793 20.5762C29.3846 20.8684 29.9876 21.311 30.5548 21.9206C31.2845 22.7048 31.7895 23.4382 32.2486 24.1101C32.3836 24.3077 32.4956 24.4308 32.7092 24.6654C32.8328 24.801 32.9904 24.9741 33.206 25.2204C33.6953 25.7793 34.3755 26.6229 34.8049 27.8135C35.4234 29.5279 35.421 31.0633 35.4191 32.2464C35.419 32.3098 35.4189 32.3722 35.4189 32.4335C35.4189 33.4994 35.3806 35.2536 34.9169 36.7779C34.378 38.5495 33.4028 40.1182 32.6809 41.2795C32.5086 41.5566 32.3507 41.8106 32.2167 42.0385C32.1886 42.0862 32.16 42.135 32.1307 42.1849C31.2018 43.7678 29.6557 46.4025 26.8611 47.7454C26.7098 47.8181 26.5229 47.9424 26.0724 48.2737C26.0495 48.2905 26.0255 48.3082 26.0004 48.3267C25.6243 48.6041 25.0152 49.0533 24.3121 49.4042C23.8978 49.6109 23.5218 49.7104 23.2709 49.7641C23.2344 49.7719 23.1993 49.779 23.1661 49.7855C22.238 50.3153 21.2676 50.4794 20.6287 50.5267C18.6204 50.6751 15.6948 50.8284 13.0961 50.0411C12.8805 49.9758 12.7531 49.9479 12.5607 49.9057C12.4029 49.8711 12.2015 49.827 11.872 49.7448C11.2944 49.6008 10.5183 49.3717 9.70308 48.8993C9.27756 48.6527 8.87953 48.3944 8.54442 48.175C8.49795 48.1446 8.45284 48.1151 8.40887 48.0863C8.11581 47.8942 7.87409 47.7358 7.62795 47.5857C5.99717 46.5911 5.06527 45.1299 4.47699 44.0999C4.2086 43.63 4.01339 43.2647 3.85144 42.9617C3.57605 42.4464 3.39681 42.111 3.11736 41.7469C2.13102 40.4617 1.76384 38.9071 1.58313 38.0594C1.56127 37.9569 1.5299 37.8244 1.49288 37.668C1.31715 36.9258 1.0144 35.6472 1.00133 34.4992C0.986609 33.2062 1.09271 31.8996 1.38502 30.566C1.5587 29.7736 1.8502 29.1508 2.09297 28.6931C2.18804 28.5138 2.29047 28.3333 2.3666 28.1992C2.38053 28.1746 2.39359 28.1516 2.40555 28.1305C2.48986 27.9814 2.54881 27.8744 2.59891 27.7753C2.60299 27.7644 2.61532 27.7304 2.63466 27.6634C2.66415 27.5613 2.68568 27.4736 2.72041 27.3323C2.73637 27.2673 2.75512 27.191 2.7787 27.0967L2.78235 27.0821C2.89743 26.6219 3.1369 25.6643 3.76443 24.764C4.29522 24.0025 4.80492 23.2216 5.31349 22.4095C6.22481 20.9543 7.55056 20.1194 8.47746 19.6084C8.84874 19.4036 9.2447 19.2056 9.56487 19.0454C9.64549 19.005 9.7213 18.9671 9.7907 18.9321C10.1805 18.7354 10.4457 18.5929 10.6521 18.4607C11.7048 17.7867 12.7064 17.581 13.4539 17.4891C13.6822 17.461 13.9611 17.4367 14.1474 17.4205C14.2068 17.4154 14.2568 17.411 14.2927 17.4076C14.5031 17.3877 14.631 17.3701 14.7356 17.3484C15.6368 17.1615 16.4071 17.1997 16.9927 17.261C17.3726 17.3007 17.5563 17.3275 17.7044 17.3492ZM22.805 49.8462C22.8051 49.8462 22.8085 49.8455 22.8158 49.8443C22.8088 49.8457 22.805 49.8463 22.805 49.8462ZM16.0426 23.6245L16.0424 23.6245C15.5971 23.7169 15.1985 23.7609 14.8976 23.7894C14.7516 23.8031 14.647 23.8121 14.5619 23.8194C14.4355 23.8302 14.352 23.8373 14.2395 23.8512C14.163 23.8606 14.1172 23.8687 14.0926 23.8738C13.5988 24.1876 13.094 24.4482 12.6891 24.6526C12.5771 24.7091 12.4733 24.7611 12.3756 24.81C12.0745 24.9608 11.8314 25.0826 11.5834 25.2193C10.9239 25.5829 10.7839 25.769 10.7602 25.8069C10.2289 26.6553 9.67962 27.4992 9.09653 28.3393C9.08224 28.3839 9.05299 28.4793 9.01041 28.6495C9.00281 28.6799 8.9936 28.7175 8.98305 28.7605C8.94018 28.9355 8.87522 29.2005 8.80652 29.4384C8.71291 29.7626 8.57355 30.1836 8.35085 30.6281C8.22324 30.8828 8.09641 31.1092 7.99909 31.2813C7.9789 31.317 7.96035 31.3497 7.94314 31.3801C7.86809 31.5125 7.81856 31.6 7.76982 31.6919C7.67127 31.8777 7.66114 31.9284 7.65977 31.9352C7.65972 31.9355 7.65969 31.9357 7.65966 31.9358C7.48707 32.7232 7.41381 33.538 7.42393 34.4263C7.42821 34.8024 7.50582 35.1381 7.6453 35.7417C7.70695 36.0084 7.78068 36.3275 7.86551 36.7254C7.93957 37.0727 8.01219 37.3481 8.09136 37.5675C8.166 37.7744 8.21815 37.8505 8.21784 37.8507C8.21782 37.8507 8.21736 37.8501 8.21645 37.8489C8.66934 38.439 9.02748 39.0487 9.30987 39.5573C9.47203 39.8493 9.5838 40.0584 9.68459 40.2469C9.80271 40.4678 9.90575 40.6604 10.0571 40.9255C10.5238 41.7427 10.792 42.003 10.9772 42.116C11.3197 42.3249 11.6568 42.5459 11.9426 42.7334C11.9851 42.7612 12.0265 42.7883 12.0666 42.8146C12.3973 43.031 12.6676 43.2047 12.9283 43.3558C12.9911 43.3922 13.1036 43.4446 13.4291 43.5258C13.5528 43.5567 13.6602 43.5809 13.7994 43.6124C13.8735 43.6291 13.9566 43.6479 14.0561 43.6708C14.308 43.7289 14.6231 43.8046 14.9619 43.9073C16.2678 44.3029 18.0583 44.2864 20.0875 44.1388C20.734 43.7283 21.3602 43.5904 21.6678 43.5366C21.8028 43.448 21.9829 43.3185 22.2623 43.113C22.2767 43.1025 22.2914 43.0916 22.3065 43.0805C22.696 42.7938 23.3279 42.3287 24.0747 41.9698C24.9161 41.5655 25.5858 40.6496 26.6774 38.7937C26.9756 38.2866 27.2378 37.8606 27.4691 37.485C28.0974 36.4645 28.4974 35.8147 28.7708 34.9159C28.9304 34.3913 28.9959 33.4925 28.9959 32.4335C28.9959 31.0806 28.9763 30.58 28.7616 29.9847C28.7384 29.9205 28.6819 29.7954 28.3689 29.4378C28.2901 29.3479 28.2061 29.255 28.1019 29.1401L28.0838 29.1202C27.989 29.0157 27.8762 28.8915 27.7632 28.7633C27.5206 28.4879 27.2263 28.1378 26.9417 27.7213C26.4906 27.0609 26.2195 26.6816 25.8481 26.2824C25.7431 26.1696 25.5858 26.0375 25.2185 25.7727C25.1785 25.7439 25.1335 25.7118 25.0844 25.6768C24.7628 25.4474 24.2623 25.0905 23.8048 24.6774C23.6543 24.5415 23.1487 24.2963 22.0881 24.2963C21.2274 24.2963 20.3682 24.1609 19.7291 24.0601L19.7261 24.0597C19.6818 24.0527 19.638 24.0458 19.5946 24.0389C18.9422 23.9359 18.3872 23.8482 17.7892 23.8036C17.4429 23.7778 17.136 23.74 16.8918 23.7082C16.8192 23.6988 16.756 23.6904 16.6992 23.6829C16.544 23.6623 16.4376 23.6482 16.3236 23.6363C16.1891 23.6222 16.1214 23.6205 16.0855 23.621C16.0571 23.6215 16.0476 23.6235 16.0426 23.6245ZM14.0683 23.8798C14.068 23.8798 14.0705 23.8789 14.0765 23.8774C14.0716 23.8791 14.0686 23.8798 14.0683 23.8798Z" fill="#FFCE51"/>
<path fill-rule="evenodd" clip-rule="evenodd" d="M59.9915 17.3492C60.1524 17.3727 60.2714 17.3901 60.5545 17.4112C61.4297 17.4764 62.2341 17.604 62.8521 17.7021C62.908 17.711 62.9625 17.7196 63.0153 17.7279C63.7222 17.8394 64.0955 17.8861 64.3752 17.8861C66.0538 17.8861 68.5054 18.2122 70.4012 19.924C70.566 20.0728 70.7355 20.1946 71.0715 20.436C71.1309 20.4787 71.1956 20.5252 71.2664 20.5762C71.6717 20.8684 72.2748 21.311 72.8419 21.9206C73.5716 22.7048 74.0766 23.4382 74.5357 24.1101C74.6707 24.3077 74.7827 24.4308 74.9963 24.6654C75.1199 24.801 75.2775 24.9741 75.4931 25.2204C75.9824 25.7793 76.6626 26.6229 77.092 27.8135C77.7105 29.5279 77.7081 31.0633 77.7062 32.2464C77.7062 32.3098 77.7061 32.3722 77.7061 32.4335C77.7061 33.4994 77.6677 35.2536 77.204 36.7779C76.6651 38.5495 75.6899 40.1182 74.968 41.2795C74.7957 41.5566 74.6378 41.8106 74.5038 42.0385C74.4757 42.0862 74.4471 42.135 74.4178 42.1849C73.489 43.7678 71.9428 46.4025 69.1483 47.7454C68.9969 47.8181 68.81 47.9424 68.3595 48.2737C68.3366 48.2905 68.3126 48.3082 68.2875 48.3267C67.9114 48.6041 67.3023 49.0533 66.5992 49.4042C66.1849 49.6109 65.8089 49.7104 65.558 49.7641C65.5215 49.7719 65.4864 49.779 65.4532 49.7855C64.5251 50.3153 63.5547 50.4794 62.9158 50.5267C60.9075 50.6751 57.9819 50.8284 55.3832 50.0411C55.1676 49.9758 55.0402 49.9479 54.8478 49.9057C54.69 49.8711 54.4886 49.827 54.1591 49.7448C53.5815 49.6008 52.8054 49.3717 51.9902 48.8993C51.5647 48.6527 51.1666 48.3944 50.8315 48.175C50.7851 48.1446 50.7399 48.1151 50.696 48.0863C50.4029 47.8942 50.1612 47.7358 49.9151 47.5857C48.2843 46.5911 47.3524 45.1299 46.7641 44.0999C46.4957 43.63 46.3005 43.2647 46.1386 42.9617C45.8632 42.4464 45.6839 42.111 45.4045 41.7469C44.4181 40.4617 44.051 38.9071 43.8702 38.0594C43.8484 37.9569 43.817 37.8244 43.78 37.668C43.6043 36.9258 43.3015 35.6472 43.2884 34.4992C43.2737 33.2062 43.3798 31.8996 43.6721 30.566C43.8458 29.7736 44.1373 29.1508 44.3801 28.6931C44.4752 28.5138 44.5776 28.3333 44.6537 28.1992C44.6676 28.1746 44.6807 28.1516 44.6927 28.1305C44.777 27.9814 44.8359 27.8744 44.886 27.7753C44.8901 27.7644 44.9024 27.7304 44.9218 27.6634C44.9513 27.5613 44.9728 27.4736 45.0075 27.3323C45.0235 27.2673 45.0422 27.191 45.0658 27.0967L45.0695 27.0821C45.1845 26.6219 45.424 25.6643 46.0515 24.764C46.5823 24.0025 47.092 23.2216 47.6006 22.4095C48.5119 20.9543 49.8377 20.1194 50.7646 19.6084C51.1359 19.4036 51.5318 19.2056 51.852 19.0454C51.9326 19.005 52.0084 18.9671 52.0778 18.9321C52.4676 18.7354 52.7328 18.5929 52.9392 18.4607C53.9919 17.7867 54.9935 17.581 55.741 17.4891C55.9693 17.461 56.2482 17.4367 56.4345 17.4205C56.4939 17.4154 56.5439 17.411 56.5799 17.4076C56.7902 17.3877 56.9181 17.3701 57.0227 17.3484C57.9239 17.1615 58.6942 17.1997 59.2798 17.261C59.6597 17.3007 59.8434 17.3275 59.9915 17.3492ZM65.0921 49.8462C65.0922 49.8462 65.0956 49.8455 65.1029 49.8443C65.0959 49.8457 65.0921 49.8463 65.0921 49.8462ZM58.3297 23.6245L58.3295 23.6245C57.8843 23.7169 57.4856 23.7609 57.1847 23.7894C57.0387 23.8031 56.9341 23.8121 56.849 23.8194C56.7226 23.8302 56.6391 23.8373 56.5266 23.8512C56.4501 23.8606 56.4043 23.8687 56.3797 23.8738C55.8859 24.1876 55.3811 24.4482 54.9762 24.6526C54.8642 24.7091 54.7604 24.7611 54.6627 24.81C54.3616 24.9608 54.1185 25.0826 53.8705 25.2193C53.211 25.5829 53.071 25.769 53.0473 25.8069C52.516 26.6553 51.9667 27.4992 51.3836 28.3393C51.3693 28.3839 51.3401 28.4793 51.2975 28.6495C51.2899 28.6799 51.2807 28.7175 51.2702 28.7605C51.2273 28.9355 51.1623 29.2005 51.0936 29.4384C51 29.7626 50.8607 30.1836 50.638 30.6281C50.5103 30.8828 50.3835 31.1092 50.2862 31.2813C50.266 31.317 50.2475 31.3497 50.2303 31.3801C50.1552 31.5125 50.1057 31.6 50.0569 31.6919C49.9584 31.8777 49.9482 31.9284 49.9469 31.9352C49.9468 31.9355 49.9468 31.9357 49.9468 31.9358C49.7742 32.7232 49.7009 33.538 49.711 34.4263C49.7153 34.8024 49.7929 35.1381 49.9324 35.7417C49.9941 36.0084 50.0678 36.3275 50.1526 36.7254C50.2267 37.0727 50.2993 37.3481 50.3785 37.5675C50.4531 37.7744 50.5053 37.8505 50.505 37.8507C50.5049 37.8507 50.5045 37.8501 50.5036 37.8489C50.9564 38.439 51.3146 39.0487 51.597 39.5573C51.7591 39.8493 51.8709 40.0584 51.9717 40.2469C52.0898 40.4678 52.1929 40.6604 52.3443 40.9255C52.811 41.7427 53.0791 42.003 53.2643 42.116C53.6069 42.3249 53.9439 42.5459 54.2298 42.7334C54.2723 42.7612 54.3136 42.7883 54.3537 42.8146C54.6845 43.031 54.9547 43.2047 55.2154 43.3558C55.2782 43.3922 55.3907 43.4446 55.7162 43.5258C55.8399 43.5567 55.9473 43.5809 56.0865 43.6124C56.1606 43.6291 56.2437 43.6479 56.3432 43.6708C56.5951 43.7289 56.9102 43.8046 57.249 43.9073C58.5549 44.3029 60.3454 44.2864 62.3746 44.1388C63.0212 43.7283 63.6473 43.5904 63.9549 43.5366C64.0899 43.448 64.27 43.3185 64.5494 43.113C64.5638 43.1025 64.5785 43.0916 64.5936 43.0805C64.9831 42.7938 65.615 42.3287 66.3619 41.9698C67.2032 41.5655 67.8729 40.6496 68.9645 38.7937C69.2627 38.2866 69.5249 37.8606 69.7562 37.485C70.3845 36.4645 70.7846 35.8147 71.058 34.9159C71.2175 34.3913 71.283 33.4925 71.283 32.4335C71.283 31.0806 71.2634 30.58 71.0487 29.9847C71.0256 29.9205 70.969 29.7954 70.656 29.4378C70.5773 29.3479 70.4933 29.255 70.389 29.1401L70.3709 29.1202C70.2761 29.0157 70.1633 28.8915 70.0503 28.7633C69.8077 28.4879 69.5134 28.1378 69.2288 27.7213C68.7777 27.0609 68.5066 26.6816 68.1352 26.2824C68.0302 26.1696 67.8729 26.0375 67.5056 25.7727C67.4656 25.7439 67.4206 25.7118 67.3715 25.6768C67.0499 25.4474 66.5494 25.0905 66.0919 24.6774C65.9414 24.5415 65.4358 24.2963 64.3752 24.2963C63.5145 24.2963 62.6553 24.1609 62.0162 24.0601L62.0132 24.0597C61.9689 24.0527 61.9251 24.0458 61.8817 24.0389C61.2293 23.9359 60.6744 23.8482 60.0763 23.8036C59.73 23.7778 59.4231 23.74 59.1789 23.7082C59.1063 23.6988 59.0431 23.6904 58.9863 23.6829C58.8311 23.6623 58.7247 23.6482 58.6108 23.6363C58.4762 23.6222 58.4085 23.6205 58.3726 23.621C58.3442 23.6215 58.3347 23.6235 58.3297 23.6245ZM56.3554 23.8798C56.3551 23.8798 56.3576 23.8789 56.3636 23.8774C56.3587 23.8791 56.3557 23.8798 56.3554 23.8798Z" fill="#FFCE51"/>
<path fill-rule="evenodd" clip-rule="evenodd" d="M30.5022 35.0676C30.5244 33.3307 31.9828 31.9402 33.7595 31.9619C34.8811 31.9756 35.9248 32.1621 36.6877 32.2984C36.7234 32.3048 36.7586 32.3111 36.793 32.3172C37.6475 32.4694 38.185 32.5551 38.697 32.5551H46.9528C48.7297 32.5551 48.695 34.1583 48.695 35.8953C48.695 37.6324 48.7297 38.8455 46.9528 38.8455H38.697C37.5455 38.8455 36.4777 38.6552 35.7003 38.5165C35.6799 38.5129 35.6597 38.5093 35.6397 38.5057C34.7738 38.3515 34.2205 38.2585 33.6791 38.2519C31.9023 38.2301 30.48 36.8045 30.5022 35.0676Z" fill="#FFCE51"/>
</svg>
