<svg width="168" height="196" viewBox="0 0 168 196" fill="none" xmlns="http://www.w3.org/2000/svg">
<path fill-rule="evenodd" clip-rule="evenodd" d="M57.3629 139.068C55.6358 138.554 53.7999 137.828 51.968 136.793C49.5016 135.398 47.5177 133.742 46.3574 132.742C45.4534 131.962 45.0361 131.584 44.7361 131.313C44.4483 131.052 44.2686 130.889 43.8707 130.564C42.7589 129.654 41.5177 128.663 40.1962 127.609L40.1947 127.607L40.1946 127.607C36.2188 124.434 31.5172 120.682 27.4322 116.815C24.1361 113.694 21.4801 110.068 19.5567 105.652C19.4585 105.426 19.2393 105.004 18.4344 103.716C18.3649 103.605 18.2868 103.481 18.2013 103.345L18.2 103.342C17.5095 102.245 16.3372 100.382 15.3377 98.3833C13.7102 95.1283 12.404 91.3706 11.5905 89.0303C11.4478 88.6198 11.3202 88.2529 11.2088 87.94C10.1308 84.9132 9.88157 82.2236 9.78695 80.6109C9.74866 79.9582 9.72843 79.2861 9.71681 78.9002L9.7124 78.7555L9.69675 78.7048C9.58432 78.3407 9.36186 77.6203 9.16593 76.8807C8.92972 75.989 8.64888 74.7763 8.47276 73.3497C7.95608 69.1647 8.11309 63.8437 8.20174 60.8395L8.20174 60.8394C8.22528 60.0416 8.244 59.4073 8.244 59.0009C8.244 57.9762 8.22491 56.7443 8.20384 55.3846L8.20384 55.3845C8.14942 51.8734 8.0818 47.51 8.29561 43.6614C8.5817 38.5118 10.0351 32.9267 10.8769 29.6916C11.0583 28.9945 11.2113 28.4066 11.3181 27.9556C12.3011 23.8049 14.0555 20.0004 16.8221 16.6085C19.3807 13.4718 22.2947 11.3386 24.446 9.8865C26.3097 8.62845 27.514 7.87381 28.4787 7.26931C29.6546 6.53245 30.4745 6.01868 31.6989 5.08815C36.7013 1.28633 42.196 0.506272 45.0439 0.254912C47.3518 0.0512211 50.3354 0.0890111 51.339 0.101723L51.3394 0.101727C51.5019 0.103786 51.6125 0.105186 51.6597 0.104792L51.6595 0.104794C51.6595 0.104793 51.6706 0.104679 51.6951 0.104073L51.8124 0.100352C51.9247 0.0962384 52.0609 0.0901452 52.2652 0.0803765L52.3938 0.0741557C52.7579 0.0564715 53.3448 0.0279618 53.9352 0.0130368C55.1676 -0.0181162 57.6376 -0.0438396 60.4013 0.57031C65.8123 1.77275 69.47 4.92827 70.8787 6.17776C71.5761 6.79636 72.27 7.46637 72.643 7.82657L72.643 7.82662L72.7936 7.97176C72.9965 8.16672 73.1091 8.27136 73.1567 8.31549C73.5065 8.58896 73.9881 8.93304 74.856 9.53473L75.1004 9.7039C75.911 10.2648 77.0845 11.0767 78.2299 11.9532C80.7562 13.8864 84.6576 17.2252 87.293 22.4959C87.6577 23.2254 87.9964 23.9704 88.3107 24.7191C92.9021 19.9921 98.8767 15.5201 106.568 13.31C113.596 11.2905 119.842 13.313 122.553 14.284C124.106 14.8403 125.555 15.4679 126.485 15.8702L126.57 15.9071C127.713 16.4018 128.09 16.5578 128.315 16.6369C133.588 18.4938 137.192 21.9451 139.024 23.841C140.047 24.8993 140.949 25.943 141.565 26.6595L141.764 26.8898C142.353 27.5757 142.628 27.895 142.879 28.164C143.022 28.3171 143.213 28.516 143.443 28.7549C144.83 30.1974 147.619 33.0998 149.689 36.2052C152.133 39.8713 152.985 43.448 153.346 44.977C153.467 45.4911 153.526 45.7488 153.562 45.9107L153.586 46.0163C155.014 49.1365 157.208 54.308 157.208 60.8925C157.208 72.2441 155.462 82.6993 152.16 93.3109C149.413 102.142 144.593 113.335 133.203 120.929C132.239 121.571 131.048 122.409 129.698 123.359C125.802 126.098 120.59 129.763 115.747 132.323C115.448 132.481 115.257 132.612 114.636 133.038L114.635 133.038C114.242 133.308 113.676 133.697 112.8 134.285C111.18 135.374 108.073 137.427 104.143 138.695C101.971 139.395 99.7715 140.159 97.6649 140.949C93.2104 142.62 87.9957 143.122 83.3381 142.817C81.0007 143.355 78.4736 143.691 75.8148 143.691C73.2454 143.691 70.1567 143.552 66.8985 142.968C67.5455 143.084 65.4508 142.759 63.9567 142.343C63.028 142.084 61.5515 141.608 59.92 140.732C59.1916 140.34 58.3031 139.8 57.3629 139.068Z" fill="#FFE5A3"/>
<path fill-rule="evenodd" clip-rule="evenodd" d="M89.4188 58.1064C89.2444 58.068 88.9812 58.0563 88.3371 58.0617C87.9912 58.0645 87.8378 58.106 87.7756 58.1286C87.7372 58.1426 87.6744 58.168 87.5587 58.2859C87.513 58.3325 87.4635 58.3837 87.4104 58.4387C86.8403 59.0283 85.8448 60.058 84.4591 60.6175C84.4571 60.6187 84.4121 60.6403 84.3061 60.7114C84.2443 60.7528 84.1746 60.8022 84.0845 60.8677C84.0605 60.8851 84.0289 60.9082 83.9937 60.9339C83.9254 60.9838 83.8437 61.0435 83.7778 61.0909C83.2344 61.4815 82.5707 61.9037 81.7443 62.1508C80.8796 62.4093 80.0556 62.4138 79.2577 62.3122C77.4656 62.0841 76.3455 61.3963 75.2925 60.6943C74.6838 60.2885 74.0992 60.0044 73.2717 59.6252C73.2423 59.6307 73.2093 59.6379 73.173 59.647C73.0456 59.679 72.9125 59.7261 72.7964 59.7787C72.689 59.8273 72.6386 59.8613 72.6384 59.861C72.6383 59.8609 72.6396 59.86 72.6421 59.8581C72.4634 59.9921 72.3127 60.1228 72.0915 60.3146C72.0134 60.3823 71.9265 60.4576 71.8264 60.5434C71.4886 60.8331 71.0297 61.2143 70.465 61.5544C70.4225 61.58 70.3644 61.6188 70.2918 61.6673C69.725 62.0462 68.2735 63.0162 66.4426 62.9018C65.3669 62.8346 64.4276 62.3223 63.88 61.9693C63.2769 61.5805 62.638 61.049 62.1802 60.464C61.1621 59.1631 60.7229 58.6651 60.0575 58.4037C58.6682 57.8579 57.9844 56.2892 58.5302 54.8999C59.076 53.5106 60.6447 52.8268 62.034 53.3726C64.1682 54.2111 65.4449 55.8554 66.2808 56.932C66.332 56.9979 66.3815 57.0616 66.4294 57.1229C66.4315 57.1249 66.4609 57.1576 66.5257 57.2141C66.606 57.284 66.7053 57.3594 66.8087 57.4261C66.8175 57.4317 66.826 57.4371 66.8344 57.4424C66.8913 57.4106 66.9638 57.3676 67.0607 57.3075C67.1224 57.2692 67.1817 57.2318 67.2515 57.1877C67.2769 57.1717 67.3036 57.1548 67.3324 57.1367C67.4334 57.073 67.5509 56.9995 67.6762 56.924C67.8397 56.8255 68.0201 56.6868 68.3074 56.4404C68.353 56.4013 68.405 56.3561 68.4621 56.3064C68.7081 56.0926 69.0504 55.7951 69.3988 55.5338C70.0926 55.0135 71.0003 54.6193 71.857 54.4043C72.627 54.211 73.9719 54.004 75.247 54.5849L75.2859 54.6026C76.2165 55.0265 77.2236 55.4852 78.2909 56.1968C79.1355 56.7598 79.4079 56.8823 79.9402 56.9501C80.0973 56.9701 80.1761 56.9693 80.2045 56.9679C80.2417 56.9511 80.3616 56.8895 80.623 56.7016C80.6489 56.683 80.6829 56.6577 80.724 56.6271C81.0221 56.4053 81.6978 55.9023 82.435 55.6054C82.6867 55.504 82.912 55.3034 83.701 54.4996C85.0958 53.0785 86.7054 52.6697 88.2921 52.6564C88.3259 52.6562 88.3616 52.6558 88.3988 52.6554C88.9944 52.649 90.01 52.6382 91.039 52.9461C91.7017 53.1443 92.1941 53.4469 92.5458 53.6972C92.6909 53.8005 92.8288 53.9075 92.9193 53.9778C92.9285 53.985 92.9372 53.9918 92.9454 53.9981C93.0496 54.0789 93.1085 54.1235 93.162 54.1608C94.1033 54.8168 95.0621 55.4635 96.0292 56.1042C96.0964 56.1487 96.2664 56.2329 96.7333 56.2694C96.9653 56.2875 97.2291 56.2913 97.5583 56.2874C97.6528 56.2863 97.771 56.2841 97.8998 56.2817C98.1402 56.2771 98.4176 56.2719 98.647 56.2719C98.8693 56.2719 99.0651 56.2736 99.246 56.2752C99.4693 56.2771 99.6698 56.2788 99.8692 56.277L100.023 56.1159C100.104 56.0317 100.201 55.9324 100.31 55.827C100.64 55.5076 100.979 55.2765 101.216 55.1249C101.337 55.047 101.455 54.9757 101.546 54.9211L101.579 54.9013C101.661 54.8518 101.72 54.8161 101.778 54.7799C101.796 54.7688 101.812 54.7589 101.826 54.75C102.568 53.6239 104.052 53.2052 105.289 53.8235C106.624 54.4911 107.165 56.1145 106.498 57.4496C105.954 58.5363 105.04 59.1159 104.644 59.3633C104.544 59.4254 104.444 59.486 104.366 59.5328L104.335 59.5512C104.245 59.6055 104.183 59.6433 104.13 59.6778C104.084 59.7068 104.058 59.7253 104.045 59.7342C103.983 59.7959 103.929 59.8523 103.851 59.9346C103.813 59.9737 103.771 60.0186 103.719 60.0727C103.575 60.2226 103.348 60.4557 103.069 60.6807C102.416 61.2083 101.558 61.6297 100.431 61.6707C99.9745 61.6873 99.4778 61.6832 99.0642 61.6798C98.9118 61.6785 98.7706 61.6774 98.647 61.6774C98.5333 61.6774 98.3845 61.6802 98.2122 61.6835C97.6872 61.6935 96.9439 61.7077 96.3126 61.6584C95.3697 61.5848 94.1758 61.3603 93.0439 60.6105C92.0529 59.9539 91.0571 59.2825 90.0713 58.5954C89.8934 58.4714 89.738 58.3511 89.6334 58.27C89.5194 58.1816 89.4665 58.1406 89.4188 58.1064Z" fill="#E4AA12"/>
<path fill-rule="evenodd" clip-rule="evenodd" d="M89.4188 48.2521C89.2444 48.2137 88.9812 48.202 88.3371 48.2074C87.9912 48.2103 87.8378 48.2517 87.7756 48.2744C87.7372 48.2884 87.6744 48.3138 87.5587 48.4317C87.513 48.4783 87.4635 48.5294 87.4104 48.5844C86.8403 49.1741 85.8448 50.2038 84.4591 50.7633C84.4571 50.7645 84.4121 50.786 84.3061 50.8572C84.2443 50.8986 84.1746 50.948 84.0845 51.0135C84.0605 51.0309 84.0289 51.054 83.9937 51.0796C83.9254 51.1296 83.8437 51.1893 83.7778 51.2367C83.2344 51.6272 82.5707 52.0494 81.7443 52.2965C80.8796 52.5551 80.0556 52.5595 79.2577 52.458C77.4656 52.2299 76.3455 51.542 75.2925 50.8401C74.6838 50.4343 74.0992 50.1501 73.2717 49.7709C73.2423 49.7765 73.2093 49.7837 73.173 49.7928C73.0456 49.8247 72.9125 49.8719 72.7964 49.9245C72.689 49.9731 72.6386 50.007 72.6384 50.0067C72.6383 50.0067 72.6396 50.0057 72.6421 50.0039C72.4634 50.1379 72.3127 50.2686 72.0915 50.4603C72.0134 50.528 71.9265 50.6034 71.8264 50.6891C71.4886 50.9789 71.0297 51.3601 70.465 51.7002C70.4225 51.7258 70.3644 51.7646 70.2918 51.8131C69.725 52.1919 68.2735 53.162 66.4426 53.0475C65.3669 52.9803 64.4276 52.4681 63.88 52.115C63.2769 51.7262 62.638 51.1948 62.1802 50.6097C61.1621 49.3089 60.7229 48.8109 60.0575 48.5495C58.6682 48.0037 57.9844 46.435 58.5302 45.0457C59.076 43.6564 60.6447 42.9726 62.034 43.5184C64.1682 44.3568 65.4449 46.0012 66.2808 47.0778C66.332 47.1436 66.3815 47.2074 66.4294 47.2686C66.4315 47.2706 66.4609 47.3034 66.5257 47.3598C66.606 47.4297 66.7053 47.5051 66.8087 47.5718C66.8175 47.5774 66.826 47.5829 66.8344 47.5881C66.8913 47.5563 66.9638 47.5133 67.0607 47.4532C67.1224 47.415 67.1817 47.3775 67.2515 47.3335C67.2769 47.3175 67.3036 47.3006 67.3324 47.2824C67.4334 47.2188 67.5509 47.1452 67.6762 47.0697C67.8397 46.9713 68.0201 46.8326 68.3074 46.5861C68.353 46.547 68.405 46.5019 68.4621 46.4522C68.7081 46.2384 69.0504 45.9409 69.3988 45.6796C70.0926 45.1593 71.0003 44.7651 71.857 44.55C72.627 44.3567 73.9719 44.1497 75.247 44.7306L75.2859 44.7483C76.2165 45.1723 77.2236 45.631 78.2909 46.3425C79.1355 46.9056 79.4079 47.0281 79.9402 47.0958C80.0973 47.1158 80.1761 47.1151 80.2045 47.1137C80.2417 47.0968 80.3616 47.0353 80.623 46.8474C80.6489 46.8288 80.6829 46.8035 80.724 46.7729C81.0221 46.551 81.6978 46.0481 82.435 45.7512C82.6867 45.6498 82.912 45.4492 83.701 44.6454C85.0958 43.2242 86.7054 42.8154 88.2921 42.8022C88.3259 42.8019 88.3616 42.8015 88.3988 42.8011C88.9944 42.7948 90.01 42.784 91.039 43.0918C91.7017 43.2901 92.1941 43.5926 92.5458 43.8429C92.6909 43.9463 92.8288 44.0533 92.9193 44.1236C92.9285 44.1307 92.9372 44.1375 92.9454 44.1439C93.0496 44.2247 93.1085 44.2692 93.162 44.3065C94.1033 44.9626 95.0621 45.6093 96.0292 46.25C96.0964 46.2945 96.2664 46.3787 96.7333 46.4151C96.9653 46.4333 97.2291 46.437 97.5583 46.4331C97.6528 46.432 97.771 46.4298 97.8998 46.4274C98.1402 46.4229 98.4176 46.4177 98.647 46.4177C98.8693 46.4177 99.0651 46.4194 99.246 46.4209C99.4693 46.4229 99.6698 46.4246 99.8692 46.4227L100.023 46.2616C100.104 46.1775 100.201 46.0782 100.31 45.9728C100.64 45.6533 100.979 45.4222 101.216 45.2707C101.337 45.1928 101.455 45.1215 101.546 45.0668L101.579 45.0471C101.661 44.9975 101.72 44.9619 101.778 44.9256C101.796 44.9146 101.812 44.9046 101.826 44.8957C102.568 43.7697 104.052 43.351 105.289 43.9693C106.624 44.6368 107.165 46.2603 106.498 47.5953C105.954 48.6821 105.04 49.2617 104.644 49.5091C104.544 49.5712 104.444 49.6318 104.366 49.6786L104.335 49.697C104.245 49.7512 104.183 49.7891 104.13 49.8235C104.084 49.8525 104.058 49.871 104.045 49.8799C103.983 49.9417 103.929 49.998 103.851 50.0804C103.813 50.1194 103.771 50.1644 103.719 50.2185C103.575 50.3683 103.348 50.6015 103.069 50.8265C102.416 51.3541 101.558 51.7754 100.431 51.8164C99.9745 51.833 99.4778 51.8289 99.0642 51.8255C98.9118 51.8243 98.7706 51.8231 98.647 51.8231C98.5333 51.8231 98.3845 51.8259 98.2122 51.8292C97.6872 51.8393 96.9439 51.8534 96.3126 51.8042C95.3697 51.7305 94.1758 51.5061 93.0439 50.7562C92.0529 50.0997 91.0571 49.4282 90.0713 48.7411C89.8934 48.6172 89.738 48.4969 89.6334 48.4158C89.5194 48.3274 89.4665 48.2864 89.4188 48.2521Z" fill="#E4AA12"/>
<path fill-rule="evenodd" clip-rule="evenodd" d="M64.8444 68.0987C64.9798 68.1185 65.0799 68.1332 65.3182 68.151C66.0547 68.206 66.7317 68.3136 67.2518 68.3963C67.2989 68.4038 67.3447 68.4111 67.3891 68.4181C67.9841 68.5121 68.2982 68.5515 68.5336 68.5515C69.9463 68.5515 72.0094 68.8264 73.6049 70.2699C73.7436 70.3954 73.8862 70.4981 74.1689 70.7016C74.219 70.7377 74.2734 70.7769 74.333 70.8199C74.6741 71.0662 75.1816 71.4395 75.6589 71.9535C76.273 72.6148 76.698 73.2332 77.0843 73.7999C77.1979 73.9665 77.2922 74.0702 77.472 74.2681C77.576 74.3825 77.7086 74.5284 77.8901 74.7361C78.3018 75.2074 78.8743 75.9187 79.2357 76.9227C79.7561 78.3684 79.7541 79.6631 79.7526 80.6608C79.7525 80.7142 79.7524 80.7668 79.7524 80.8185C79.7524 81.7173 79.7201 83.1966 79.3299 84.482C78.8764 85.9758 78.0557 87.2986 77.4482 88.2778C77.3032 88.5116 77.1703 88.7257 77.0575 88.9179C77.0339 88.9581 77.0098 88.9993 76.9851 89.0413C76.2034 90.3761 74.9023 92.5979 72.5504 93.7302C72.423 93.7916 72.2658 93.8963 71.8866 94.1757C71.8673 94.1899 71.8471 94.2048 71.8261 94.2204C71.5095 94.4543 70.9969 94.8331 70.4052 95.129C70.0566 95.3033 69.7401 95.3872 69.529 95.4325C69.4983 95.4391 69.4687 95.4451 69.4408 95.4505C68.6598 95.8973 67.843 96.0357 67.3054 96.0755C65.6153 96.2007 63.1532 96.33 60.9662 95.6661C60.7848 95.611 60.6775 95.5874 60.5156 95.5519C60.3828 95.5227 60.2133 95.4855 59.9361 95.4162C59.4499 95.2948 58.7968 95.1016 58.1107 94.7032C57.7526 94.4953 57.4177 94.2775 57.1356 94.0925C57.0965 94.0669 57.0586 94.042 57.0216 94.0177C56.7749 93.8557 56.5715 93.7222 56.3644 93.5956C54.992 92.7569 54.2077 91.5247 53.7126 90.6562C53.4868 90.2599 53.3225 89.9519 53.1862 89.6964C52.9544 89.2618 52.8036 88.979 52.5684 88.672C51.7383 87.5883 51.4293 86.2773 51.2772 85.5625C51.2588 85.4761 51.2324 85.3643 51.2013 85.2325C51.0534 84.6067 50.7986 83.5285 50.7876 82.5604C50.7752 81.4701 50.8645 80.3683 51.1105 79.2437C51.2567 78.5755 51.502 78.0504 51.7063 77.6644C51.7863 77.5133 51.8725 77.3611 51.9366 77.2479C51.9483 77.2272 51.9593 77.2078 51.9694 77.19C52.0403 77.0643 52.0899 76.9741 52.1321 76.8905C52.1355 76.8813 52.1459 76.8527 52.1622 76.7962C52.187 76.7101 52.2051 76.6361 52.2343 76.5169C52.2478 76.4621 52.2636 76.3978 52.2834 76.3183L52.2865 76.306C52.3833 75.9179 52.5848 75.1104 53.113 74.3513C53.5597 73.7091 53.9886 73.0506 54.4166 72.3658C55.1835 71.1387 56.2992 70.4347 57.0793 70.0038C57.3918 69.8311 57.725 69.6641 57.9944 69.529C58.0623 69.495 58.1261 69.463 58.1845 69.4335C58.5126 69.2676 58.7357 69.1474 58.9094 69.036C59.7953 68.4677 60.6382 68.2942 61.2673 68.2167C61.4594 68.193 61.6941 68.1725 61.8509 68.1589C61.9009 68.1545 61.943 68.1508 61.9733 68.148C62.1503 68.1312 62.2579 68.1163 62.346 68.098C63.1044 67.9404 63.7526 67.9727 64.2454 68.0243C64.5652 68.0578 64.7197 68.0804 64.8444 68.0987ZM69.1369 95.5018C69.137 95.5017 69.1398 95.5012 69.146 95.5001C69.1401 95.5013 69.1369 95.5018 69.1369 95.5018ZM63.4459 73.3903L63.4457 73.3904C63.071 73.4683 62.7355 73.5054 62.4823 73.5294C62.3594 73.541 62.2714 73.5485 62.1997 73.5547C62.0934 73.5638 62.0231 73.5698 61.9284 73.5815C61.864 73.5894 61.8256 73.5962 61.8048 73.6006C61.3893 73.8652 60.9644 74.085 60.6237 74.2573C60.5294 74.3049 60.4421 74.3488 60.3599 74.39C60.1065 74.5172 59.9018 74.6199 59.6931 74.7352C59.1381 75.0418 59.0203 75.1987 59.0004 75.2307C58.5532 75.9461 58.091 76.6577 57.6003 77.3661C57.5883 77.4037 57.5636 77.4842 57.5278 77.6277C57.5214 77.6533 57.5137 77.685 57.5048 77.7213C57.4687 77.8688 57.414 78.0923 57.3562 78.2929C57.2774 78.5663 57.1602 78.9213 56.9727 79.2961C56.8653 79.5109 56.7586 79.7018 56.6767 79.8469C56.6597 79.877 56.6441 79.9046 56.6296 79.9302C56.5665 80.0419 56.5248 80.1156 56.4838 80.1931C56.4008 80.3498 56.3923 80.3926 56.3912 80.3984C56.3911 80.3986 56.3911 80.3987 56.3911 80.3988C56.2458 81.0628 56.1842 81.7499 56.1927 82.499C56.1963 82.816 56.2616 83.0992 56.379 83.6081C56.4309 83.8331 56.4929 84.1021 56.5643 84.4376C56.6266 84.7305 56.6877 84.9627 56.7544 85.1478C56.8172 85.3222 56.8611 85.3864 56.8608 85.3866C56.8608 85.3866 56.8604 85.3861 56.8596 85.3851C57.2408 85.8827 57.5422 86.3968 57.7798 86.8256C57.9163 87.0719 58.0104 87.2482 58.0952 87.4071C58.1946 87.5934 58.2813 87.7559 58.4087 87.9794C58.8015 88.6684 59.0272 88.888 59.183 88.9833C59.4713 89.1594 59.7549 89.3458 59.9955 89.5038C60.0312 89.5273 60.0661 89.5502 60.0998 89.5723C60.3781 89.7549 60.6056 89.9013 60.825 90.0287C60.8778 90.0594 60.9725 90.1036 61.2465 90.1721C61.3506 90.1981 61.4409 90.2185 61.5581 90.2451C61.6204 90.2592 61.6904 90.2751 61.7741 90.2944C61.9861 90.3433 62.2513 90.4072 62.5364 90.4937C63.6354 90.8274 65.1422 90.8134 66.85 90.689C67.3941 90.3428 67.921 90.2266 68.1799 90.1811C68.2935 90.1065 68.4451 89.9972 68.6802 89.824C68.6923 89.8151 68.7047 89.806 68.7174 89.7966C69.0452 89.5548 69.5769 89.1626 70.2055 88.8599C70.9135 88.519 71.4772 87.7467 72.3958 86.1817C72.6467 85.7541 72.8674 85.3949 73.0621 85.0781C73.5908 84.2176 73.9275 83.6697 74.1576 82.9118C74.2919 82.4694 74.347 81.7116 74.347 80.8185C74.347 79.6777 74.3305 79.2556 74.1498 78.7536C74.1303 78.6995 74.0827 78.5939 73.8193 78.2924C73.753 78.2166 73.6823 78.1383 73.5946 78.0414L73.5794 78.0246C73.4996 77.9365 73.4047 77.8317 73.3096 77.7236C73.1054 77.4914 72.8577 77.1962 72.6182 76.8449C72.2386 76.2881 72.0104 75.9682 71.6979 75.6316C71.6095 75.5365 71.4772 75.4251 71.168 75.2018C71.1344 75.1775 71.0965 75.1505 71.0552 75.1209C70.7845 74.9275 70.3633 74.6266 69.9783 74.2782C69.8516 74.1636 69.4261 73.9569 68.5336 73.9569C67.8092 73.9569 67.0862 73.8427 66.5483 73.7577L66.5458 73.7573C66.5085 73.7514 66.4716 73.7456 66.4351 73.7398C65.8861 73.6529 65.4191 73.579 64.9157 73.5414C64.6243 73.5196 64.366 73.4878 64.1605 73.461C64.0995 73.453 64.0462 73.4459 63.9985 73.4396C63.8678 73.4222 63.7783 73.4104 63.6824 73.4003C63.5691 73.3885 63.5122 73.387 63.482 73.3874C63.4581 73.3878 63.4501 73.3895 63.4459 73.3903ZM61.7844 73.6056C61.7841 73.6056 61.7862 73.6049 61.7913 73.6036C61.7871 73.605 61.7846 73.6057 61.7844 73.6056Z" fill="#E4AA12"/>
<path fill-rule="evenodd" clip-rule="evenodd" d="M75.9787 83.1535C75.9974 81.661 77.2225 80.4662 78.715 80.4848C79.6572 80.4966 80.534 80.6568 81.1749 80.774C81.2049 80.7795 81.2344 80.7848 81.2633 80.7901C81.9811 80.9209 82.4327 80.9946 82.8628 80.9946H89.7981C91.2907 80.9946 92.5008 82.2046 92.5008 83.6973C92.5008 85.1899 91.2907 86.4 89.7981 86.4H82.8628C81.8955 86.4 80.9985 86.2364 80.3454 86.1173C80.3282 86.1141 80.3113 86.111 80.2945 86.108C79.5671 85.9755 79.1023 85.8955 78.6474 85.8898C77.1549 85.8712 75.9601 84.6461 75.9787 83.1535Z" fill="#E4AA12"/>
<path fill-rule="evenodd" clip-rule="evenodd" d="M102.898 67.1804C103.276 67.207 103.548 67.2263 103.878 67.2263C103.904 67.2263 103.935 67.2261 103.971 67.2259C104.171 67.2249 104.523 67.223 104.861 67.2438C105.222 67.266 105.892 67.3262 106.552 67.6091C106.552 67.6091 106.572 67.6176 106.63 67.6358C106.691 67.6549 106.753 67.6726 106.861 67.7035L106.915 67.7188C107.131 67.7804 107.537 67.8963 107.956 68.0918C108.536 68.3625 108.997 68.729 109.225 68.911C109.235 68.9188 109.244 68.9261 109.253 68.9332C109.537 69.1585 109.575 69.1808 109.575 69.1809C109.575 69.1809 109.575 69.181 109.575 69.1809C110.952 69.8979 112.148 70.8728 113.144 71.9168C113.78 72.5844 114.312 73.3031 114.737 73.8778C114.765 73.9165 114.794 73.9546 114.821 73.992C114.919 74.124 114.998 74.2167 115.119 74.3581C115.205 74.458 115.311 74.5823 115.46 74.7619C115.74 75.1004 116.145 75.6151 116.453 76.2591C117.155 77.7261 117.056 79.1443 116.999 79.9728C116.997 79.9924 116.996 80.0116 116.995 80.0306C116.976 80.2965 116.968 80.5698 116.96 80.8955C116.959 80.9199 116.958 80.9446 116.958 80.9697C116.95 81.2627 116.942 81.6057 116.921 81.951C116.876 82.717 116.766 83.6413 116.406 84.6255C116.309 84.8911 116.232 85.2069 116.133 85.6825C116.12 85.7418 116.107 85.8051 116.094 85.8718C116.01 86.2794 115.9 86.8153 115.748 87.3342C115.461 88.3155 115.095 89.2544 114.702 90.1301C114.302 91.0212 113.813 91.8882 113.268 92.688C113.268 92.688 113.262 92.6972 113.248 92.7195C113.232 92.7465 113.211 92.7818 113.182 92.834C113.173 92.8499 113.162 92.8695 113.149 92.8919C113.096 92.986 113.016 93.1298 112.938 93.2598C112.758 93.5587 112.367 94.187 111.699 94.6745C109.958 95.9444 108.324 96.3517 106.623 96.5947C104.204 96.9402 102.037 96.7891 99.7474 96.2722C97.7089 95.8119 96.238 94.9725 94.7594 93.9097C93.9232 93.3087 93.3314 92.6003 92.8943 92.0157C92.7054 91.7629 92.5243 91.5037 92.3716 91.2851C92.3506 91.2551 92.3302 91.2259 92.3104 91.1976C92.1348 90.9466 91.9907 90.7439 91.8463 90.5583C91.4558 90.0562 91.0735 89.3642 90.8839 89.0209C90.8403 88.9421 90.807 88.8816 90.7859 88.8461C90.6891 88.6823 90.5985 88.5451 90.4741 88.357C90.4138 88.2658 90.3456 88.1626 90.2649 88.0385C90.0507 87.7092 89.7752 87.2698 89.5396 86.7558C89.2301 86.0803 89.085 85.4007 88.9985 84.9958L88.9897 84.9545C88.8897 84.4858 88.851 84.3045 88.7928 84.1471C88.4092 83.109 88.317 81.9686 88.2634 81.3062C88.2586 81.2464 88.2541 81.1906 88.2497 81.139C88.0787 79.1296 88.4104 76.6107 89.3979 74.6357C90.5719 72.2876 92.2959 70.4805 94.3144 69.0723C95.2238 68.4378 96.1122 67.8453 97.6118 67.459C98.8657 67.136 99.9941 67.1313 100.975 67.1272C101.118 67.1266 101.258 67.126 101.394 67.1244C101.991 67.1177 102.471 67.1502 102.863 67.1779L102.898 67.1804ZM102.483 72.5699C102.113 72.5438 101.818 72.5254 101.456 72.5295C101.287 72.5314 101.132 72.5328 100.989 72.5341C99.9546 72.5436 99.527 72.5475 98.96 72.6936C98.4151 72.8339 98.1674 72.975 97.4073 73.5054C95.9975 74.4889 94.9375 75.6433 94.2326 77.053C93.7749 77.9684 93.5312 79.454 93.6356 80.6806C93.7105 81.56 93.7541 81.9785 93.8631 82.2734C94.0663 82.8233 94.1869 83.3997 94.2604 83.7511C94.2692 83.7932 94.2773 83.8321 94.2848 83.8673C94.3753 84.291 94.4208 84.4322 94.4535 84.5036C94.5193 84.6471 94.619 84.8189 94.7961 85.0911C94.8291 85.142 94.8692 85.2026 94.9141 85.2705C95.0646 85.4981 95.2685 85.8066 95.4396 86.0962C95.6349 86.4266 95.7488 86.6357 95.8317 86.7877C95.9413 86.9886 95.9965 87.0898 96.1131 87.2397C96.3491 87.5432 96.5617 87.8449 96.7392 88.0985C96.7613 88.1301 96.7828 88.1609 96.8038 88.1909C96.9619 88.4171 97.0903 88.6008 97.2238 88.7793C97.5187 89.1739 97.725 89.3844 97.9142 89.5204C99.0493 90.3363 99.8517 90.7542 100.938 90.9995C102.676 91.392 104.177 91.4839 105.859 91.2436C107.004 91.08 107.653 90.8872 108.327 90.4376C108.352 90.3948 108.376 90.3514 108.41 90.2911C108.429 90.2572 108.451 90.2181 108.478 90.1709C108.549 90.0448 108.664 89.8446 108.802 89.6418C109.173 89.0984 109.504 88.5097 109.77 87.9172C110.088 87.2077 110.358 86.5058 110.56 85.8176C110.645 85.5265 110.706 85.2328 110.792 84.8169C110.807 84.741 110.824 84.661 110.842 84.5763C110.945 84.0819 111.087 83.4326 111.329 82.7695C111.435 82.4803 111.495 82.1405 111.525 81.6295C111.54 81.3804 111.547 81.1258 111.555 80.812L111.556 80.7573C111.564 80.4354 111.575 80.0551 111.602 79.6586C111.663 78.7732 111.611 78.6637 111.577 78.5913C111.564 78.564 111.506 78.463 111.293 78.2053C111.224 78.1218 111.166 78.0532 111.096 77.9714C111.05 77.9175 110.999 77.8579 110.937 77.7845C110.803 77.6255 110.639 77.4274 110.478 77.2094L110.461 77.1875C109.979 76.5359 109.629 76.0642 109.232 75.647C108.556 74.9389 107.823 74.3632 107.078 73.9749C106.574 73.7124 106.15 73.3726 105.941 73.2058C105.923 73.191 105.906 73.1775 105.891 73.1656C105.746 73.0502 105.677 73.0011 105.654 72.9844C105.626 72.9749 105.559 72.9532 105.411 72.9109C105.396 72.9067 105.38 72.9021 105.362 72.897C105.195 72.8498 104.898 72.7659 104.583 72.643C104.568 72.6416 104.55 72.6403 104.529 72.639C104.453 72.6343 104.362 72.6319 104.248 72.6311C104.192 72.6308 104.135 72.6309 104.073 72.6311L103.878 72.6317C103.352 72.6317 102.908 72.6001 102.554 72.5749C102.53 72.5732 102.506 72.5715 102.483 72.5699Z" fill="#E4AA12"/>
<path fill-rule="evenodd" clip-rule="evenodd" d="M91.328 96.0503C92.4475 96.0503 93.355 96.9578 93.355 98.0773C93.355 98.9985 93.0141 99.8626 92.6305 100.508C92.2461 101.155 91.6645 101.843 90.9101 102.279C90.6431 102.434 90.4184 102.601 90.1025 102.835C89.9893 102.92 89.8643 103.012 89.7215 103.116C89.2421 103.466 88.5974 103.909 87.7905 104.206C86.6324 104.633 85.4059 104.61 84.6272 104.596C84.5029 104.594 84.3901 104.592 84.2907 104.592C84.1464 104.592 83.9934 104.594 83.8327 104.597C82.6091 104.615 80.9397 104.639 79.2773 103.722C78.5882 103.342 77.8944 102.785 77.3236 102.136C76.7646 101.501 76.203 100.639 75.9854 99.6239C75.7508 98.5293 76.448 97.4517 77.5427 97.2172C78.6373 96.9826 79.7149 97.6798 79.9494 98.7745C79.9721 98.8805 80.0796 99.1311 80.3674 99.4582C80.6433 99.7718 80.974 100.028 81.2357 100.172C81.9108 100.545 82.4744 100.543 83.805 100.539C83.9566 100.538 84.118 100.538 84.2907 100.538C84.4921 100.538 84.672 100.539 84.8342 100.54C85.6252 100.545 85.995 100.547 86.389 100.402C86.6473 100.307 86.92 100.142 87.3342 99.8398C87.4028 99.7897 87.4804 99.7319 87.5652 99.6687C87.9136 99.409 88.3849 99.0577 88.8709 98.7754C88.8745 98.7726 88.9032 98.7514 88.9504 98.701C89.0126 98.6347 89.0819 98.544 89.1453 98.4374C89.2088 98.3306 89.253 98.2299 89.2789 98.1498C89.2951 98.0998 89.2998 98.071 89.301 98.0634C89.3085 96.9503 90.2132 96.0503 91.328 96.0503Z" fill="#E4AA12"/>
<path d="M29.9375 167.543L30.4062 167.504C31.2135 167.608 31.9688 167.712 32.6719 167.816L33.7266 168.012C34.4297 168.142 34.8464 168.233 34.9766 168.285L35.1719 168.363C35.3281 168.52 35.4453 168.676 35.5234 168.832L35.6406 169.105C35.6406 169.288 35.6016 169.496 35.5234 169.73L35.4453 170.004C35.2891 170.212 35.1328 170.368 34.9766 170.473L34.5859 170.707L32.3984 170.355L30.25 170.004L29.3125 170.082L28.4141 170.199L28.1797 170.746L27.9062 171.254L28.1016 171.527L28.1797 171.684C28.4141 171.918 28.6484 172.126 28.8828 172.309L29.2734 172.582C29.8724 172.868 30.4714 173.103 31.0703 173.285L31.8906 173.559C32.5417 173.819 32.9974 174.014 33.2578 174.145L33.6094 174.379C34 174.717 34.3255 175.043 34.5859 175.355L34.9766 175.785C35.3411 176.332 35.6146 176.775 35.7969 177.113L36.1094 177.777C36.2396 178.22 36.3307 178.663 36.3828 179.105L36.4609 180.121L36.1094 181.254L35.9141 181.918C35.7057 182.465 35.5365 182.868 35.4062 183.129L35.2109 183.52C34.9245 183.91 34.6641 184.21 34.4297 184.418L34.1172 184.73C33.7266 184.991 33.401 185.186 33.1406 185.316L32.75 185.473C32.2292 185.629 31.7734 185.733 31.3828 185.785L30.7969 185.863C30.3021 185.889 29.9505 185.889 29.7422 185.863L29.4297 185.785C28.7526 185.525 28.1276 185.251 27.5547 184.965L26.6562 184.574C25.9792 184.158 25.5234 183.845 25.2891 183.637L24.9375 183.285C24.599 182.842 24.3255 182.4 24.1172 181.957L23.8438 181.371C23.6875 180.954 23.6094 180.694 23.6094 180.59V180.434C23.6875 180.225 23.7656 180.03 23.8438 179.848L23.9609 179.613C24.1172 179.457 24.2344 179.353 24.3125 179.301L24.4688 179.262C24.651 179.236 24.7943 179.223 24.8984 179.223H25.0938C25.3021 179.301 25.4583 179.392 25.5625 179.496L25.7578 179.652C25.9922 180.043 26.2005 180.421 26.3828 180.785L26.8516 181.84L28.2969 182.582L29.7422 183.324L30.7578 183.246L31.3438 183.207C31.7865 183.129 32.099 183.051 32.2812 182.973L32.5938 182.816C32.8021 182.556 33.0234 182.178 33.2578 181.684L33.5312 181.137C33.7135 180.59 33.8307 180.173 33.8828 179.887L33.9609 179.066L33.5312 178.246L33.3359 177.777C32.9974 177.335 32.6979 176.996 32.4375 176.762L31.7734 176.098L30.3672 175.707L29.625 175.473C28.974 175.238 28.5052 175.043 28.2188 174.887L27.8281 174.691C27.3594 174.327 26.9818 174.014 26.6953 173.754L26.2656 173.324C25.9531 172.882 25.7448 172.53 25.6406 172.27L25.3281 171.605L25.4844 170.863L25.5625 170.473C25.7188 170.082 25.849 169.77 25.9531 169.535L26.1094 169.223C26.3958 168.884 26.6562 168.611 26.8906 168.402L27.2422 168.09C27.5286 167.882 27.737 167.764 27.8672 167.738L28.0625 167.699C28.2969 167.673 28.5052 167.647 28.6875 167.621L28.9609 167.582C29.3255 167.556 29.651 167.543 29.9375 167.543ZM47.4375 165.59L47.7109 165.629C48.0495 165.759 48.349 165.876 48.6094 165.98L49 166.137C49.3646 166.345 49.638 166.527 49.8203 166.684L50.1328 166.879C50.3672 167.165 50.5365 167.387 50.6406 167.543L50.8359 167.855C50.9141 168.168 50.9531 168.454 50.9531 168.715V169.066C50.875 169.587 50.7969 170.056 50.7188 170.473L50.6016 171.059C50.4714 171.553 50.3672 171.892 50.2891 172.074L50.1719 172.348C49.9375 172.66 49.7161 172.908 49.5078 173.09L49.1953 173.363C48.8568 173.572 48.5703 173.702 48.3359 173.754L48.0234 173.871C47.4505 173.949 46.9167 173.988 46.4219 173.988H45.6797C44.8464 173.962 44.1432 173.923 43.5703 173.871L42.0859 173.754L41.9688 174.184L41.9297 174.418C41.8776 175.199 41.8255 175.993 41.7734 176.801L41.6953 178.988L41.9688 180.004L42.0859 180.551C42.2422 180.967 42.3724 181.254 42.4766 181.41L42.6328 181.605C42.9714 181.866 43.2969 182.074 43.6094 182.23L44.0781 182.465C44.4167 182.595 44.651 182.66 44.7812 182.66H44.9766C45.237 182.504 45.4714 182.296 45.6797 182.035L45.9922 181.723C46.3828 181.176 46.7214 180.694 47.0078 180.277L47.4375 179.652C47.75 179.262 47.9583 179.053 48.0625 179.027L48.2188 178.949C48.401 178.923 48.5703 178.91 48.7266 178.91H48.9219C49.1562 179.04 49.3516 179.171 49.5078 179.301L49.8984 179.73L49.8203 180.238L49.7812 180.551C49.4948 181.072 49.1953 181.553 48.8828 181.996L48.4531 182.66C48.0104 183.207 47.6589 183.611 47.3984 183.871L47.0469 184.223C46.6562 184.509 46.3568 184.717 46.1484 184.848L45.7578 185.043C45.3932 185.121 45.0677 185.16 44.7812 185.16H44.3125C43.8438 185.03 43.362 184.861 42.8672 184.652L42.0469 184.301C41.6302 184.066 41.2656 183.78 40.9531 183.441L40.25 182.738L39.8203 181.449L39.5859 180.785C39.4036 180.03 39.2865 179.418 39.2344 178.949L39.1953 178.285C39.1953 177.426 39.2214 176.684 39.2734 176.059L39.3516 175.16C39.4818 174.197 39.599 173.428 39.7031 172.855L39.8984 172.035C40.1068 171.306 40.276 170.785 40.4062 170.473L40.7969 169.613L42.3203 168.129L43.2969 167.191C43.8958 166.723 44.3776 166.397 44.7422 166.215L45.2109 165.98C45.6797 165.798 46.0443 165.681 46.3047 165.629L46.6562 165.59C46.9948 165.564 47.2552 165.564 47.4375 165.59ZM46.9297 168.129H46.6953C46.3047 168.285 45.9531 168.454 45.6406 168.637L45.1719 168.91C44.651 169.327 44.2214 169.704 43.8828 170.043L43.375 170.551C43.1146 170.863 42.9844 171.046 42.9844 171.098V171.176C43.2188 171.228 43.4661 171.28 43.7266 171.332L44.1172 171.371C44.7422 171.423 45.3021 171.462 45.7969 171.488L47.125 171.566L47.5156 171.371L47.75 171.254C47.9062 171.02 48.0234 170.785 48.1016 170.551L48.2188 170.199C48.2969 169.835 48.362 169.535 48.4141 169.301L48.4922 168.676L47.9062 168.402L47.5938 168.246C47.3073 168.168 47.0859 168.129 46.9297 168.129ZM62.4375 165.59L62.7109 165.629C63.0495 165.759 63.349 165.876 63.6094 165.98L64 166.137C64.3646 166.345 64.638 166.527 64.8203 166.684L65.1328 166.879C65.3672 167.165 65.5365 167.387 65.6406 167.543L65.8359 167.855C65.9141 168.168 65.9531 168.454 65.9531 168.715V169.066C65.875 169.587 65.7969 170.056 65.7188 170.473L65.6016 171.059C65.4714 171.553 65.3672 171.892 65.2891 172.074L65.1719 172.348C64.9375 172.66 64.7161 172.908 64.5078 173.09L64.1953 173.363C63.8568 173.572 63.5703 173.702 63.3359 173.754L63.0234 173.871C62.4505 173.949 61.9167 173.988 61.4219 173.988H60.6797C59.8464 173.962 59.1432 173.923 58.5703 173.871L57.0859 173.754L56.9688 174.184L56.9297 174.418C56.8776 175.199 56.8255 175.993 56.7734 176.801L56.6953 178.988L56.9688 180.004L57.0859 180.551C57.2422 180.967 57.3724 181.254 57.4766 181.41L57.6328 181.605C57.9714 181.866 58.2969 182.074 58.6094 182.23L59.0781 182.465C59.4167 182.595 59.651 182.66 59.7812 182.66H59.9766C60.237 182.504 60.4714 182.296 60.6797 182.035L60.9922 181.723C61.3828 181.176 61.7214 180.694 62.0078 180.277L62.4375 179.652C62.75 179.262 62.9583 179.053 63.0625 179.027L63.2188 178.949C63.401 178.923 63.5703 178.91 63.7266 178.91H63.9219C64.1562 179.04 64.3516 179.171 64.5078 179.301L64.8984 179.73L64.8203 180.238L64.7812 180.551C64.4948 181.072 64.1953 181.553 63.8828 181.996L63.4531 182.66C63.0104 183.207 62.6589 183.611 62.3984 183.871L62.0469 184.223C61.6562 184.509 61.3568 184.717 61.1484 184.848L60.7578 185.043C60.3932 185.121 60.0677 185.16 59.7812 185.16H59.3125C58.8438 185.03 58.362 184.861 57.8672 184.652L57.0469 184.301C56.6302 184.066 56.2656 183.78 55.9531 183.441L55.25 182.738L54.8203 181.449L54.5859 180.785C54.4036 180.03 54.2865 179.418 54.2344 178.949L54.1953 178.285C54.1953 177.426 54.2214 176.684 54.2734 176.059L54.3516 175.16C54.4818 174.197 54.599 173.428 54.7031 172.855L54.8984 172.035C55.1068 171.306 55.276 170.785 55.4062 170.473L55.7969 169.613L57.3203 168.129L58.2969 167.191C58.8958 166.723 59.3776 166.397 59.7422 166.215L60.2109 165.98C60.6797 165.798 61.0443 165.681 61.3047 165.629L61.6562 165.59C61.9948 165.564 62.2552 165.564 62.4375 165.59ZM61.9297 168.129H61.6953C61.3047 168.285 60.9531 168.454 60.6406 168.637L60.1719 168.91C59.651 169.327 59.2214 169.704 58.8828 170.043L58.375 170.551C58.1146 170.863 57.9844 171.046 57.9844 171.098V171.176C58.2188 171.228 58.4661 171.28 58.7266 171.332L59.1172 171.371C59.7422 171.423 60.3021 171.462 60.7969 171.488L62.125 171.566L62.5156 171.371L62.75 171.254C62.9062 171.02 63.0234 170.785 63.1016 170.551L63.2188 170.199C63.2969 169.835 63.362 169.535 63.4141 169.301L63.4922 168.676L62.9062 168.402L62.5938 168.246C62.3073 168.168 62.0859 168.129 61.9297 168.129ZM70.3672 168.285H70.4844C70.6406 168.311 70.7708 168.337 70.875 168.363L70.9922 168.441C71.1484 168.598 71.2656 168.754 71.3438 168.91L71.4609 169.145C71.5911 170.056 71.7083 171.007 71.8125 171.996L71.9297 173.48C72.0078 174.392 72.0469 174.913 72.0469 175.043V175.277C72.2292 175.017 72.4635 174.6 72.75 174.027L73.1406 173.285C73.5573 172.66 73.8828 172.217 74.1172 171.957L74.4297 171.566C75.0026 171.072 75.5234 170.655 75.9922 170.316L76.8125 169.73C77.3333 169.418 77.776 169.21 78.1406 169.105L79 168.871L80.1719 168.949L81.3828 169.027L82.3984 169.496L82.9453 169.77C83.4661 170.108 83.8698 170.382 84.1562 170.59L84.5859 170.902C84.9766 171.345 85.276 171.71 85.4844 171.996L85.7969 172.426C86.0833 173.051 86.3047 173.585 86.4609 174.027L86.6953 174.691C86.8776 175.551 86.9948 176.28 87.0469 176.879L87.1641 177.895C87.1901 178.962 87.1901 180.004 87.1641 181.02L87.0859 183.559L86.8125 184.027L86.6953 184.301C86.487 184.483 86.3177 184.587 86.1875 184.613L85.9531 184.691C85.6927 184.665 85.4844 184.613 85.3281 184.535L85.0547 184.418C84.8724 184.262 84.7552 184.132 84.7031 184.027L84.5859 183.832C84.5599 183.207 84.5729 182.387 84.625 181.371L84.7031 179.926C84.6771 178.858 84.625 177.999 84.5469 177.348L84.4688 176.449C84.3125 175.642 84.1693 175.056 84.0391 174.691L83.6875 173.676L82.9844 172.973L82.5938 172.582C82.125 172.217 81.7214 171.957 81.3828 171.801L80.4844 171.371L79.5469 171.449L78.6484 171.488L77.9844 171.957L77.5938 172.23C77.151 172.595 76.7865 172.908 76.5 173.168L75.9141 173.676C75.6016 174.118 75.2891 174.652 74.9766 175.277L74.5859 176.02C74.2995 176.697 74.1042 177.191 74 177.504L73.8828 177.973C73.7266 178.65 73.6094 179.249 73.5312 179.77L73.4141 180.551C73.2839 181.618 73.1927 182.556 73.1406 183.363L72.9844 185.512L72.6328 185.902L72.4375 186.137C72.2292 186.215 72.0208 186.254 71.8125 186.254H71.5391C71.2786 186.176 71.0833 186.072 70.9531 185.941L70.5625 185.668L70.3672 183.949L70.2891 183.051C70.0547 180.629 69.8333 178.246 69.625 175.902L69.3125 172.426C69.1562 170.395 69.1042 169.314 69.1562 169.184L69.1953 168.949C69.3516 168.767 69.5078 168.624 69.6641 168.52L69.8984 168.402C70.1068 168.324 70.263 168.285 70.3672 168.285ZM107.75 159.691H108.023C108.258 159.77 108.44 159.848 108.57 159.926L108.766 160.043C108.896 160.277 108.974 160.499 109 160.707L109.078 160.98C109.052 161.241 109 161.436 108.922 161.566L108.844 161.762C108.661 161.892 108.492 161.983 108.336 162.035L108.141 162.113C106.109 162.452 103.922 162.79 101.578 163.129L98.1016 163.637C96.0964 163.949 95.0286 164.118 94.8984 164.145L94.5469 164.223L94.2344 165.277L94.0781 165.863C93.9479 166.514 93.8438 167.035 93.7656 167.426L93.6875 168.012C93.6094 168.923 93.5573 169.743 93.5312 170.473L93.4141 172.387L94.9375 172.27L95.7969 172.23C96.6042 172.152 97.2031 172.087 97.5938 172.035L98.1797 171.918C99.1953 171.736 100.12 171.566 100.953 171.41L102.203 171.137C103.219 171.007 103.909 170.941 104.273 170.941H104.938C105.328 170.993 105.615 171.072 105.797 171.176L106.07 171.293C106.227 171.501 106.318 171.671 106.344 171.801L106.422 172.035C106.396 172.296 106.344 172.504 106.266 172.66L106.148 172.934C106.018 173.116 105.901 173.233 105.797 173.285L105.641 173.363C105.25 173.415 104.885 173.441 104.547 173.441H104C103.01 173.572 102.099 173.728 101.266 173.91L100.016 174.145C99.026 174.327 98.349 174.457 97.9844 174.535L97.4375 174.613C96.6302 174.691 95.9141 174.743 95.2891 174.77L93.6094 174.887L93.6875 175.707L93.7266 176.137C93.8307 177.23 93.9219 178.311 94 179.379L94.1562 180.98C94.2344 181.866 94.2865 182.322 94.3125 182.348L94.3516 182.387C94.7682 182.309 95.224 182.23 95.7188 182.152L96.4609 181.996C97.3203 181.762 98.0234 181.553 98.5703 181.371L99.4297 181.137C100.341 180.772 101.083 180.447 101.656 180.16L102.672 179.652C103.167 179.34 103.544 179.04 103.805 178.754L104.43 178.129H104.859H105.094C105.328 178.233 105.523 178.376 105.68 178.559L105.914 178.754C106.044 179.014 106.109 179.21 106.109 179.34V179.574C106.005 179.835 105.901 180.056 105.797 180.238L105.602 180.551C105.289 180.863 105.003 181.111 104.742 181.293L104.312 181.605C103.818 181.918 103.388 182.152 103.023 182.309L102.516 182.582C101.891 182.868 101.383 183.077 100.992 183.207L100.406 183.441C99.5208 183.728 98.7135 183.975 97.9844 184.184L96.8516 184.496C95.9401 184.652 95.224 184.757 94.7031 184.809L93.375 184.887L92.7891 184.652L92.3984 184.496C92.2161 184.314 92.0729 184.105 91.9688 183.871L91.8516 183.559C91.6953 182.335 91.5391 180.811 91.3828 178.988L91.1484 176.176C91.0703 174.353 91.0312 172.764 91.0312 171.41L91.0703 168.207L91.3047 166.801L91.4609 166.02C91.6693 165.238 91.8516 164.626 92.0078 164.184L92.3984 162.973L92.9453 162.426L93.2188 162.152C93.5052 161.944 93.7266 161.827 93.8828 161.801L94.1172 161.723C96.2005 161.41 98.4271 161.072 100.797 160.707L104.352 160.16C106.435 159.874 107.568 159.717 107.75 159.691ZM121.227 162.504H121.422C121.656 162.582 121.852 162.66 122.008 162.738L122.281 162.855C122.516 163.116 122.711 163.35 122.867 163.559L123.102 163.91C123.284 164.275 123.427 164.574 123.531 164.809L123.688 165.121C124.13 166.267 124.573 167.439 125.016 168.637L125.719 170.395C126.24 171.879 126.591 172.934 126.773 173.559L127.281 175.277L127.711 175.512L127.984 175.668C128.089 175.85 128.167 176.072 128.219 176.332L128.336 176.879L128.102 177.27L127.828 177.621L128.023 178.637L128.102 179.184C128.154 180.043 128.18 180.811 128.18 181.488V182.543C128.128 183.376 128.062 183.949 127.984 184.262L127.789 185.16L127.438 185.434L127.164 185.59C126.982 185.616 126.76 185.603 126.5 185.551L126.188 185.512C125.979 185.382 125.823 185.251 125.719 185.121L125.484 184.809L125.602 182.738L125.641 181.645C125.641 180.655 125.615 179.952 125.562 179.535L125.523 178.871C125.445 178.454 125.393 178.22 125.367 178.168L125.25 177.973L122.203 178.207L120.523 178.324C119.117 178.454 118.115 178.546 117.516 178.598L116.617 178.715C116.07 178.819 115.771 178.897 115.719 178.949L115.602 179.066C115.419 179.457 115.237 179.874 115.055 180.316L114.781 180.941C114.495 181.618 114.26 182.152 114.078 182.543L113.805 183.129C113.57 183.546 113.401 183.806 113.297 183.91L113.141 184.066C112.906 184.171 112.711 184.223 112.555 184.223H112.281C112.047 184.118 111.852 183.988 111.695 183.832L111.461 183.637C111.331 183.402 111.266 183.22 111.266 183.09V182.895C111.552 182.139 111.865 181.358 112.203 180.551L112.75 179.379C113.375 177.816 113.896 176.462 114.312 175.316L114.977 173.637C115.523 172.23 115.914 171.228 116.148 170.629L116.5 169.73C116.891 168.819 117.216 168.103 117.477 167.582L117.867 166.801C118.362 165.915 118.779 165.173 119.117 164.574L119.664 163.598C120.029 163.129 120.289 162.842 120.445 162.738L120.68 162.621C120.914 162.543 121.096 162.504 121.227 162.504ZM121.266 166.059L121.227 165.98C120.888 166.553 120.523 167.204 120.133 167.934L119.586 169.027C119.065 170.121 118.688 170.967 118.453 171.566L118.102 172.465C117.737 173.402 117.464 174.145 117.281 174.691L116.734 176.137L117.789 176.02L118.375 175.98C119.547 175.876 120.654 175.785 121.695 175.707L123.297 175.59C124.182 175.512 124.638 175.447 124.664 175.395L124.703 175.355C124.547 174.809 124.365 174.21 124.156 173.559L123.844 172.582C123.323 171.228 122.867 170.03 122.477 168.988L121.891 167.426C121.526 166.566 121.318 166.111 121.266 166.059ZM132.828 160.473H133.062C133.297 160.577 133.479 160.694 133.609 160.824L134 161.176H135.953L137.906 161.215L139.273 161.645L140.055 161.84C140.68 162.074 141.122 162.27 141.383 162.426L141.812 162.621C142.203 162.934 142.516 163.207 142.75 163.441L143.062 163.793C143.323 164.158 143.492 164.444 143.57 164.652L143.727 165.004C143.779 165.473 143.805 165.915 143.805 166.332V167.426L143.375 168.715L143.141 169.457C142.854 170.108 142.607 170.59 142.398 170.902L142.125 171.41C141.786 171.879 141.513 172.23 141.305 172.465L140.992 172.855C140.654 173.168 140.38 173.402 140.172 173.559L139.82 173.754C139.482 173.936 139.195 174.066 138.961 174.145L138.648 174.262C138.466 174.366 138.388 174.457 138.414 174.535L138.453 174.613C138.688 175.056 138.961 175.512 139.273 175.98L139.703 176.684C140.458 177.855 141.148 178.923 141.773 179.887L143.492 182.504L143.375 183.051L143.336 183.402C143.206 183.611 143.062 183.754 142.906 183.832L142.516 184.105L141.969 183.988L141.383 183.91L139.625 181.215L138.688 179.73C137.594 178.038 136.721 176.658 136.07 175.59L135.055 173.949C134.456 172.986 134.13 172.439 134.078 172.309L134 172.074C133.948 172.855 133.922 173.962 133.922 175.395V177.27C133.896 179.483 133.857 181.293 133.805 182.699L133.727 186.566L133.336 186.957L133.102 187.191C132.867 187.296 132.672 187.348 132.516 187.348H132.242C132.034 187.243 131.839 187.1 131.656 186.918L131.227 186.488L131.344 178.676L131.383 174.379C131.435 170.603 131.487 167.829 131.539 166.059L131.617 161.254L132.008 160.863L132.242 160.629C132.477 160.525 132.672 160.473 132.828 160.473ZM136.734 163.715L136.266 163.676C135.745 163.676 135.341 163.689 135.055 163.715L134.586 163.754C134.326 163.832 134.182 163.897 134.156 163.949L134.117 164.066C134.091 165.29 134.052 166.618 134 168.051L133.922 171.957L134.195 171.41L134.391 171.059C134.547 170.902 134.742 170.798 134.977 170.746L135.484 170.59L136.461 171.254L137.438 171.918L137.984 171.801L138.297 171.762C138.583 171.605 138.831 171.423 139.039 171.215L139.312 170.941C139.625 170.551 139.872 170.225 140.055 169.965L140.328 169.535C140.562 169.014 140.758 168.572 140.914 168.207L141.109 167.621C141.214 167.1 141.266 166.684 141.266 166.371V165.824C141.188 165.564 141.096 165.355 140.992 165.199L140.836 165.043C140.576 164.835 140.328 164.678 140.094 164.574L139.742 164.379C139.273 164.223 138.87 164.105 138.531 164.027L138.023 163.871C137.477 163.793 137.047 163.741 136.734 163.715Z" fill="#E4AA12"/>
</svg>
