<svg width="32" height="32" viewBox="0 0 32 32" fill="none" xmlns="http://www.w3.org/2000/svg">
<path d="M12.1797 27.6978V23.6208C12.1797 22.5801 13.0296 21.7364 14.0779 21.7364H17.9102C18.4136 21.7364 18.8964 21.935 19.2524 22.2884C19.6084 22.6418 19.8084 23.1211 19.8084 23.6208V27.6978C19.8052 28.1305 19.9761 28.5465 20.2832 28.8536C20.5902 29.1607 21.0081 29.3334 21.4439 29.3334H24.0584C25.2795 29.3365 26.4517 28.8571 27.3162 28.0011C28.1808 27.145 28.6667 25.9827 28.6667 24.7705V13.1558C28.6667 12.1766 28.2294 11.2478 27.4728 10.6196L18.5787 3.56785C17.0316 2.33144 14.8148 2.37136 13.3139 3.66266L4.62269 10.6196C3.83033 11.2293 3.35675 12.1609 3.33334 13.1558V24.7586C3.33334 27.2852 5.39652 29.3334 7.94158 29.3334H10.4964C11.4016 29.3334 12.1373 28.6083 12.1439 27.7097L12.1797 27.6978Z" fill="#FFCE51"/>
</svg>
