<svg width="32" height="32" viewBox="0 0 32 32" fill="none" xmlns="http://www.w3.org/2000/svg">
<path fill-rule="evenodd" clip-rule="evenodd" d="M18.2893 20.3883C19.8947 20.3883 21.2013 21.6856 21.2013 23.2803V27.3816C21.2013 27.7243 21.476 27.999 21.828 28.007H24.3693C26.372 28.007 28 26.399 28 24.423V12.791C27.9907 12.111 27.6667 11.471 27.1107 11.0456L18.32 4.03498C17.14 3.10031 15.4893 3.10031 14.3053 4.03765L5.57466 11.043C4.99732 11.4816 4.67332 12.1216 4.66666 12.8136V24.423C4.66666 26.399 6.29466 28.007 8.29732 28.007H10.8627C11.224 28.007 11.5173 27.7203 11.5173 27.3683C11.5173 27.291 11.5267 27.2136 11.5427 27.1403V23.2803C11.5427 21.695 12.8413 20.399 14.4347 20.3883H18.2893ZM24.3693 30.007H21.804C20.3347 29.9723 19.2013 28.819 19.2013 27.3816V23.2803C19.2013 22.7883 18.792 22.3883 18.2893 22.3883H14.4413C13.9493 22.391 13.5427 22.7923 13.5427 23.2803V27.3683C13.5427 27.4683 13.5293 27.5643 13.5013 27.655C13.3573 28.975 12.2293 30.007 10.8627 30.007H8.29732C5.19199 30.007 2.66666 27.5016 2.66666 24.423V12.8043C2.67999 11.479 3.29066 10.2656 4.34532 9.46698L13.0587 2.47365C14.9773 0.953647 17.6507 0.953646 19.5653 2.47098L28.3413 9.47098C29.372 10.2563 29.9827 11.467 30 12.7763V24.423C30 27.5016 27.4747 30.007 24.3693 30.007Z" fill="#FFCE51"/>
</svg>
